<?xml version="1.0" encoding="utf-8"?>
<!-- Generator: Adobe Illustrator 11.0, SVG Export Plug-In  -->
<!DOCTYPE svg PUBLIC "-//W3C//DTD SVG 1.0//EN"    "http://www.w3.org/TR/2001/REC-SVG-20010904/DTD/svg10.dtd" [
	<!ENTITY ns_flows "http://ns.adobe.com/Flows/1.0/">
	<!ENTITY ns_svg "http://www.w3.org/2000/svg">
	<!ENTITY ns_xlink "http://www.w3.org/1999/xlink">
]>
<svg  xmlns="&ns_svg;" xmlns:xlink="&ns_xlink;" xmlns:a="http://ns.adobe.com/AdobeSVGViewerExtensions/3.0/"
	 width="248" height="381" viewBox="-0.016 -0.483 248 381" xml:space="preserve">
	<defs>
	</defs>
	<g>
		<rect id="myPath_2_" x="19.484" y="37.517" style="fill:none;" width="208" height="141"/> 
		<polygon id="myPath_1_" style="fill:none;" points="217.984,303.517 61.984,304.517 1.984,381.517 269.984,381.517 "/>
		<g id="complexArea_1_">
			<g>
				<path style="fill:#BDD1BD;" d="M246.984,209.517h-45v69h45V209.517z M167.984,269.517l-31,57l51.226,21.301l59.774-33.301
					L167.984,269.517z"/>
			</g>
		</g>
		<path style="fill:#29702B;" d="M113.984,98.517c-18.761-2.649-35.842-47.792-35.859-63.312
			c-0.03-26.642,50.174-41.372,71.673-32.731c23.694,9.524,34.828,44.582,21.788,66.19c-3.75,6.214-11.362,11.683-11.47,19.83
			c-0.124,9.356,10.372,17.941,15.797,25.149c25.57,33.97,47.505,73.246,40.861,117.842c-6.914,46.411-48.806,74.381-94.936,66.805
			c-26.771-4.396-60.515-21.601-82.977-36.114C26.627,254.271,0.065,231.906,0,215.796c43.646-5.695,132.346,35.865,154.853-24.26
			c10.838-28.952-5.614-68.904-26.611-88.792c-0.57,0.85-0.989,1.774-1.258,2.772"/>
		<path style="fill:#F8FAED;" d="M126.984,51.517c-19.768-1.22-4.558-58.934,12.797-30.075c5.586,9.289,9.007,35.053-7.797,34.075"
			/>
		<path style="fill:#F8FAED;" d="M151.984,33.517c-4.369-7.745-1.614-15.974,3.251-22.694c8.055,10.58,13.521,26.847,4.849,37.889
			c-4.686-2.693-7.04-7.473-9.1-12.194"/>
		<path style="fill:#0F0F0F;" d="M119.984,33.517c-5.513-5.774,5.606-17.03,9.075-5c2.133,7.397-6.024,13.436-9.075,6"/>
		<path style="fill:#0F0F0F;" d="M150.984,29.517c-5.136-10.159,8.357-7.852,5.849,4.872c-2.255-0.087-4.128-1.183-5.849-2.872"/>
		<path style="fill:#FFE95F;" d="M119.984,74.517c-15.361-11.978,11.895-9.604,15.71-9.98c13.38-1.318,14.968-15.968,28.112-13.29
			c6.941,1.414,12.5,5.372,20.158,6.048c10.404,0.919,24.232-4.169,33.016-2.852c9.772,1.464,7.981,9.353,0.278,15.345
			c-3.668,2.853-8.835,1.483-12.294,3.729c-3.479,2.259-3.161,5.857-6.957,8.968c-17.037,13.959-44.318-11.235-64.023-5.964
			c-2.963,0.792-4.103,0.342-6,2.997"/>
		<path style="fill:#FFE95F;" d="M102.984,286.517c0.554,14.531,7.542,29.191,8.945,44c0.395,4.168,4.755,18.513,1.146,21.9
			c-3.946,3.704-18.765-0.646-24.011,2.851c13.051,4.442,25.472,7.101,37.92,12.245c12.237,5.059,26.321,13.227,39.826,12.83
			c0.686-3.935,2.044-7.359,4.397-10.733c5.328-2.432,12.335-2.652,16.845,1.58c-0.827-8.832-13.784-7.674-7.496-19.57
			c-10.275,8.696-30.561,2.511-42.178-0.126c-10.808-2.452-15.471,0.157-19.345-9.128c-4.027-9.651-4.566-20.408-5.048-30.603
			c-0.402-8.513-4.582-17.14-4-25.246"/>
		<path style="fill:#FFE95F;" d="M153.984,299.517c1.336,13.906,8.861,30.021,7.1,43.849c9.542-0.341,18.089,2.484,27.126,4.452
			c9.787,2.131,23.386,2.278,31.694,7.297c-7.008-2.175-7.779-10.042-2.475-13.372c3.095-1.942,16.063-0.22,17.717-0.15
			c-4.975-2.114-24.009-7.13-17.269-14.853c-7.86-3.066-20.807,3.391-29.472,3.801c-7.54,0.356-15.069-1.205-22.219,0.825
			c-2.709-6.46-9.16-30.726-3.203-34.849"/>
	</g>
</svg>
