<?xml version="1.0" encoding="utf-8"?>
<!-- Generator: Adobe Illustrator 11.0, SVG Export Plug-In  -->
<!DOCTYPE svg PUBLIC "-//W3C//DTD SVG 1.0//EN"    "http://www.w3.org/TR/2001/REC-SVG-20010904/DTD/svg10.dtd" [
	<!ENTITY ns_flows "http://ns.adobe.com/Flows/1.0/">
	<!ENTITY ns_svg "http://www.w3.org/2000/svg">
	<!ENTITY ns_xlink "http://www.w3.org/1999/xlink">
]>
<svg  xmlns="&ns_svg;" xmlns:xlink="&ns_xlink;" xmlns:a="http://ns.adobe.com/AdobeSVGViewerExtensions/3.0/"
	 width="1043" height="1797" viewBox="-1 0 1043 1797" xml:space="preserve">
	<defs>
		<symbol  id="New_Symbol" viewBox="-21.057 -34.157 42.113 68.315">
			<g>
				<path style="fill:none;stroke:#000000;" d="M-9.403,20.605c-2.131,1.371-1.776,4.314-0.791,6.319
					c1.978,4.023,6.297,5.828,10.473,6.542c8.519,1.455,7.15-5.693,7.289-11.088"/>
				<path style="fill:none;stroke:#000000;" d="M1.741,23.139c-0.6,1.607,1.09,7.698,3.748,6.305
					c1.003-0.525,0.585-4.621,0.502-5.479c-0.089-0.929-0.275-3.537-0.957-2.853"/>
				<path style="fill:none;stroke:#000000;" d="M2.5,22.632c-1.384,0.558-0.22,2.012,0.76,2.58c1.451-1.138,1.174-3.567-1.013-2.58"
					/>
				<path style="fill:none;stroke:#000000;" d="M-4.084,22.125c-0.445,0.911,0.272,2.41,1.469,2.308
					c1.699-0.146,0.177-2.75-0.963-2.054"/>
				<path style="fill:none;stroke:#000000;" d="M-1.045,23.139c-0.131,2.207-2.121,5.004-3.982,6.053
					c-1.675-2.04-3.263-10.937,0.448-11.32c0.555,0.84,0.841,1.825,0.495,2.48"/>
				<path style="fill:none;stroke:#000000;" d="M-1.552,21.111c0.265,1.713,2.642,1.804,2.786-0.018
					c-0.646-0.249-2.674-0.268-2.532-0.234"/>
				<path style="fill:none;stroke:#000000;" d="M6.048,32.257c3.685,1.601,11.076,0.325,14.894-0.575
					c-4.627-0.951-7.681-5.43-12.361-6.518"/>
				<path style="fill:none;stroke:#000000;" d="M-5.604,31.75c-4.357,0.979-10.51,2.494-14.606,0.201
					c3.374-3.1,6.479-6.484,11.313-6.279"/>
				<path style="fill:none;stroke:#000000;" d="M8.074,21.872c0.423-0.96,1.416-1.426,2.447-1.772
					c-3.094-3.051-7.4-6.171-11.788-7.054c-4.189-0.843-9.831,1.468-12.117,5.219c0.976,0.499,1.931,1.161,2.461,2.087"/>
				<path style="fill:none;stroke:#000000;" d="M-2.058,15.793c0.809,0.761,1.696,1.25,2.786,1.267"/>
				<path style="fill:none;stroke:#000000;" d="M-3.831,11.994c0.308,0.101,0.497,0.01,0.567-0.273
					c-0.241-0.766-0.544-1.495-1.265-1.986c-0.161-0.523,0.166-0.156,0.444-0.273"/>
				<path style="fill:none;stroke:#000000;" d="M0.981,12.5C-2.345,9.568,7.084,8.807,8.58,9.461"/>
				<path style="fill:none;stroke:#000000;" d="M7.82,5.661C7.806-0.441,4.929-6.485,0.334-10.653
					c-1.996-1.812-2.294-2.322-4.207-0.943C-6.377-9.791-7.785-6.199-7.63-3.204"/>
				<path style="fill:none;stroke:#000000;" d="M-5.604,9.967c-3.398-1.164-3.484-0.338-4.567-4.602
					C-11.193,1.334-10.83-6.063-12.949-9.03"/>
				<path style="fill:none;stroke:#000000;" d="M9.594,9.207c1.797-5.542,1.031-11.547,2.341-17.189
					c0.271-1.168,1.63-2.925,1.685-3.81c0.125-2.046-2.559-4.789-4.05-5.903c-1.897,2.265,0.24,6.552-1.495,9.172"/>
				<path style="fill:none;stroke:#000000;" d="M-13.456-8.523c0.104-1.769-1.275-2.972-0.565-4.503
					c0.746-1.609,3.788-2.027,4.616-4.097c0.257,1.231,0.794,2.615,0.255,3.787"/>
				<path style="fill:none;stroke:#000000;" d="M-7.884-11.056c0.611-5.42,3.629-10.727,3.002-16.383
					c-2.555,0.388-8.357,1.58-9.599-1.565c-1.31-3.321,1.187-4.04,3.579-3.606c3.419,0.62,6.32,1.192,9.774,1.316
					c-0.892,1.99-1.317,3.808-1.197,6.049c0.114,2.104,0.808,6.672,2.54,7.829c3.98-3.61,2.082-11.273,3.585-15.908
					c4.359-0.006,8.836,0.573,13.101-0.236c0.118,1.696-0.42,4.963-1.68,6.047c-2.056,1.769-6.201-0.346-8.596-0.789
					c1.549,4.904-2.281,10.635-0.325,15.727"/>
			</g>
		</symbol>
		<symbol  id="New_Symbol_1" viewBox="-32.529 -28.273 65.058 56.547">
			<g>
				<path style="fill:#A37617;" d="M-32.529,28.273v-56.547h65.058v56.547H-32.529z M29.185-24.32h-58.37v49.857h58.37V-24.32z"/>
				
					<linearGradient id="XMLID_1_" gradientUnits="userSpaceOnUse" x1="-4.882813e-004" y1="24.9287" x2="-4.904473e-004" y2="-24.6246">
					<stop  offset="0" style="stop-color:#FFFFFF"/>
					<stop  offset="0.9888" style="stop-color:#9299CF"/>
					<a:midPointStop  offset="0" style="stop-color:#FFFFFF"/>
					<a:midPointStop  offset="0.5" style="stop-color:#FFFFFF"/>
					<a:midPointStop  offset="0.9888" style="stop-color:#9299CF"/>
				</linearGradient>
				<polygon style="fill:url(#XMLID_1_);" points="-29.186-24.32 29.185-24.32 29.185,25.537 -29.186,25.537 "/>
				<polygon style="fill:#A37617;" points="1.216-24.32 -1.217-24.32 -1.217,25.537 1.216,25.537 "/>
				<polygon style="fill:#A37617;" points="16.213-24.32 13.781-24.32 13.781,25.537 16.213,25.537 "/>
				<polygon style="fill:#A37617;" points="29.185,1.824 29.185-0.607 -29.186-0.607 -29.186,1.824 "/>
				<polygon style="fill:#A37617;" points="-13.884-24.32 -16.315-24.32 -16.315,25.537 -13.884,25.537 "/>
			</g>
		</symbol>
		
			<pattern  x="-30" y="610" width="32" height="32" patternUnits="userSpaceOnUse" id="New_Pattern_Swatch_24" viewBox="0.279 -33.419 32 32">
			<g>
				<polygon style="fill:none;" points="0.279-1.419 32.279-1.419 32.279-33.419 0.279-33.419 "/>
				<polygon style="fill:#FFD03F;" points="0.279-1.419 32.279-1.419 32.279-33.419 0.279-33.419 "/>
				<g>
					<path style="fill:#DEB537;" d="M6.682-25.265c-1.041-0.263,0.902-3.878,2.242-1.859c0.809,1.219,0.271,2.585-1.168,2.551"/>
					<path style="fill:#DEB537;" d="M20.65-15.517c-0.656,0.698-0.834-1.065-0.373-1.605c0.518-0.605,2.313-1.012,1.678,0.224"/>
					<path style="fill:#DEB537;" d="M21.725-9.607c0.643-0.734,1.531,0.585,1.465,1.227c-0.16,1.496-2.141,1.264-1.688-0.239
						c0.082,0.006,0.156,0.035,0.223,0.088"/>
					<path style="fill:#DEB537;" d="M25.563-30.561c-0.67-0.116-1.273,0.987-0.705,1.439c0.828,0.658,1.365-0.592,0.857-1.209"/>
					<path style="fill:#DEB537;" d="M9.674-13.521c-1.242,0.561-1.387-2.882,0.482-2.626c1.406,0.192,1.105,2.023,0.287,2.626"/>
					<path style="fill:#DEB537;" d="M6.375-8.993C5.582-8.237,6.887-6.716,7.771-7.361C8.516-7.905,7.668-8.743,7.064-8.84"/>
					<path style="fill:#DEB537;" d="M28.02-20.429c-0.734-0.235,0.473-1.32,1.084-1.127c1.02,0.324,0.467,1.857-0.318,1.434"/>
					<path style="fill:#DEB537;" d="M28.631-10.067c-0.533-0.029-0.561,1.17-0.131,1.484c0.928,0.681,0.811-0.608,0.67-0.871"/>
					<path style="fill:#DEB537;" d="M12.82-2.853c0.398-0.717,1.82-0.743,1.709,0.313c-0.061,0.573-1.115,0.796-1.4,0.377"/>
					<path style="fill:#DEB537;" d="M15.047-21.043c-1.043-0.769,0.688-2.511,1.541-1.998c0.941,0.564,0.16,2.516-0.986,1.998
						c-0.035-0.088,0.01-0.113,0.137-0.076"/>
					<path style="fill:#DEB537;" d="M5.299-33.17c-0.58,0.484-0.555,1.744,0.449,1.63c1.053-0.12,0.684-1.869,0.166-1.553"/>
					<path style="fill:#DEB537;" d="M0.158-24.344c0.23-0.801,0.895-1.25,1.465-0.473c0.975,1.327-1.004,1.412-0.928,1.164"/>
					<path style="fill:#DEB537;" d="M31.012-25.647c-0.881-0.253,0.096-1.413,0.76-1.325c0.852,0.112,0.883,1.203,0.238,1.632"/>
					<path style="fill:#DEB537;" d="M24.41-2.546c-0.137-0.377,0.33-0.708,0.703-0.444c0.543,0.383,0.055,0.98-0.473,0.751"/>
					<path style="fill:#DEB537;" d="M29.553-13.215c-0.502-0.606,0.865-1.676,1.512-1.375c1.113,0.52-0.461,2.567-0.744,1.683"/>
					<path style="fill:#DEB537;" d="M12.285-7.688c-0.088-0.019-0.166-0.054-0.238-0.105c0.719-1.958,1.951,1.164,0.391,0.566"/>
					<path style="fill:#DEB537;" d="M2.998-18.434c-0.844-0.352-1.553,1.936-0.857,2.515c0.988,0.824,2.762-0.674,1.471-1.671"/>
					<path style="fill:#DEB537;" d="M2.076-2.776c1.146-1.335,2.549,1.5,0.613,1.151"/>
				</g>
				<g>
					<path style="fill:#BF9C30;" d="M19.498-29.64c-0.525,0.158-0.982,1.268-0.553,1.739c0.486,0.531,2.125-0.105,1.715-0.889
						c-0.074-0.029-0.129-0.005-0.164,0.07"/>
					<path style="fill:#BF9C30;" d="M24.182-25.802c0.236-0.649,0.996-0.375,1.238,0.152c0.289,0.631-0.525,1.271-0.779,0.846"/>
					<path style="fill:#BF9C30;" d="M14.971-14.442c-1.109,0.503-0.584-1.115,0.053-1.396c0.836-0.369,1.186,0.326,1.098,1.089"/>
					<path style="fill:#BF9C30;" d="M18.578-5.002c-1.293,0.022-0.229-1.636,0.4-1.848c1.016-0.344,1.773,1.033,0.98,1.694"/>
					<path style="fill:#BF9C30;" d="M27.02-15.978c-0.475-0.11-0.895,0.931-0.418,1.181c0.354,0.186,0.635-0.223,0.65-0.336"/>
					<path style="fill:#BF9C30;" d="M1.232-9.224c1.23,0,0.441,2.362,0,1.919C0.789-7.748,0-9.224,1.232-9.224z"/>
					<path style="fill:#BF9C30;" d="M9.598-24.113c-1.537,1.264,0.162,2.998,0.537,1.995"/>
					<path style="fill:#BF9C30;" d="M11.824-30.714c2.191-0.625,2.559,2.162,0.844,1.535"/>
					<path style="fill:#BF9C30;" d="M29.477-5.847c-0.334-0.061-0.748,0.595-0.373,1c0.439,0.476,1.49-0.136,1.063-0.692"/>
					<path style="fill:#BF9C30;" d="M30.014-1.702c0.576-0.096,1.006,0.68,0.639,1.146C30.213,0,29.17-0.425,29.553-1.088"/>
					<path style="fill:#BF9C30;" d="M30.014-33.702c0.576-0.096,1.006,0.68,0.639,1.146c-0.439,0.556-1.482,0.131-1.1-0.532"/>
					<path style="fill:#BF9C30;" d="M20.266-33.707c-0.393-0.13-0.889,0.402-0.678,0.854c0.305,0.646,1.469,0.096,1.139-0.317"/>
				</g>
			</g>
		</pattern>
		
			<pattern  x="-30" y="610" width="45.013" height="128" patternUnits="userSpaceOnUse" id="New_Pattern_Swatch_25" viewBox="0.06 -128 45.013 128">
			<g>
				<polygon style="fill:none;" points="45.072-128 45.072,0 0.06,0 0.06-128 "/>
				<polygon style="fill:#948130;" points="45.072-128 45.072,0 0.06,0 0.06-128 "/>
				<g>
					<polygon style="fill:#CFB94D;" points="1.247-100.233 3.047-100.529 4.573-99.666 6.511-100.135 6.511,0 0.06,0 0.06-99.666 
						"/>
					<polygon style="fill:#CFB94D;" points="6.449-128 6.449-100.998 5.267-100.332 3.132-101.356 1.106-101.514 0-100.998 0-128 
						"/>
				</g>
				<g>
					<polygon style="fill:#BDAA4F;" points="14.247-128 14.247-18.456 12.61-18.16 10.947-17.767 8.589-19.001 7.214-18.456 
						7.214-128 "/>
					<polygon style="fill:#BDAA4F;" points="8.728-17.668 10.808-16.387 12.749-16.584 14.247-17.25 14.247,0 7.214,0 7.214-17.25 
						"/>
				</g>
				<g>
					<polygon style="fill:#B5A141;" points="21.65,0 21.65-94.376 20.195-94.842 18.294-94.376 16.491-95.012 15.087-94.376 
						15.087,0 "/>
					<polygon style="fill:#B5A141;" points="16.214-96.25 17.88-95.505 19.403-96.25 21.65-95.308 21.65-128 15.087-128 
						15.087-95.603 "/>
				</g>
				<g>
					<polygon style="fill:#B29D35;" points="29.397-128 29.397-52.188 28.384-52.859 25.776-53.039 23.977-51.56 22.366-52.188 
						22.366-128 "/>
					<polygon style="fill:#B29D35;" points="24.115-50.674 26.056-51.56 27.855-52.149 29.397-51.167 29.397,0 22.366,0 
						22.366-51.265 "/>
				</g>
				<g>
					<polygon style="fill:#BDAA4D;" points="37.22,0 37.22-103 35.682-103.539 33.124-103 31.183-103.683 30.07-103 30.07,0 "/>
					<polygon style="fill:#BDAA4D;" points="31.183-104.963 32.983-103.683 35.757-104.471 37.22-104.25 37.22-128 30.07-128 
						30.07-104.25 "/>
				</g>
				<g>
					<polygon style="fill:#CCB750;" points="44.488-128 44.488-41.958 43.202-42.424 40.885-41.415 39.222-42.596 37.924-41.958 
						37.924-128 "/>
					<polygon style="fill:#CCB750;" points="39.222-41.218 41.161-40.625 42.546-41.021 44.488-40.625 44.488,0 37.924,0 
						37.924-40.625 "/>
				</g>
			</g>
		</pattern>
		
			<pattern  x="-30" y="610" width="45.072" height="128" patternUnits="userSpaceOnUse" id="New_Pattern_Swatch_26" viewBox="0 -128 45.072 128">
			<g>
				<polygon style="fill:none;" points="0,0 45.072,0 45.072-128 0-128 "/>
				<polygon style="fill:#BD812B;" points="45.072-128 45.072,0 0.06,0 0.06-128 "/>
				<g>
					<polygon style="fill:#F8B948;" points="1.247-100.233 3.047-100.529 4.573-99.666 6.511-100.135 6.511,0 0.06,0 0.06-99.666 
						"/>
					<polygon style="fill:#F8B948;" points="6.449-128 6.449-100.998 5.267-100.332 3.132-101.356 1.106-101.514 0-100.998 0-128 
						"/>
				</g>
				<g>
					<polygon style="fill:#E6AA4A;" points="14.247-128 14.247-18.456 12.61-18.16 10.947-17.767 8.589-19.001 7.214-18.456 
						7.214-128 "/>
					<polygon style="fill:#E6AA4A;" points="8.728-17.668 10.808-16.387 12.749-16.584 14.247-17.25 14.247,0 7.214,0 7.214-17.25 
						"/>
				</g>
				<g>
					<polygon style="fill:#DEA13C;" points="21.65,0 21.65-94.376 20.195-94.842 18.294-94.376 16.491-95.012 15.087-94.376 
						15.087,0 "/>
					<polygon style="fill:#DEA13C;" points="16.214-96.25 17.88-95.505 19.403-96.25 21.65-95.308 21.65-128 15.087-128 
						15.087-95.603 "/>
				</g>
				<g>
					<polygon style="fill:#DB9D30;" points="29.397-128 29.397-52.188 28.384-52.859 25.776-53.039 23.977-51.56 22.366-52.188 
						22.366-128 "/>
					<polygon style="fill:#DB9D30;" points="24.115-50.674 26.056-51.56 27.855-52.149 29.397-51.167 29.397,0 22.366,0 
						22.366-51.265 "/>
				</g>
				<g>
					<polygon style="fill:#E6AA48;" points="37.22,0 37.22-103 35.682-103.539 33.124-103 31.183-103.683 30.07-103 30.07,0 "/>
					<polygon style="fill:#E6AA48;" points="31.183-104.963 32.983-103.683 35.757-104.471 37.22-104.25 37.22-128 30.07-128 
						30.07-104.25 "/>
				</g>
				<g>
					<polygon style="fill:#F5B74B;" points="44.488-128 44.488-41.958 43.202-42.424 40.885-41.415 39.222-42.596 37.924-41.958 
						37.924-128 "/>
					<polygon style="fill:#F5B74B;" points="39.222-41.218 41.161-40.625 42.546-41.021 44.488-40.625 44.488,0 37.924,0 
						37.924-40.625 "/>
				</g>
			</g>
		</pattern>
		
			<pattern  x="-30" y="610" width="32" height="32" patternUnits="userSpaceOnUse" id="New_Pattern_Swatch_37" viewBox="5.152 -33 32 32">
			<g>
				<polygon style="fill:none;" points="37.152-1 5.152-1 5.152-33 37.152-33 "/>
				<polygon style="fill:#CC1000;" points="37.152-1 5.152-1 5.152-33 37.152-33 "/>
				<polygon style="fill:#C28F4C;" points="5.152-1 37.152-1 37.152-17.257 5.152-17.257 "/>
				<polygon style="fill:#99713C;" points="5.152-17.257 37.152-17.257 37.152-33 5.152-33 "/>
				<line style="fill:none;stroke:#5E4625;stroke-width:2;" x1="5.152" y1="-1" x2="37.152" y2="-1"/>
				<line style="fill:none;stroke:#5E4625;stroke-width:2;" x1="5.152" y1="-17.257" x2="37.152" y2="-17.257"/>
				<line style="fill:none;stroke:#5E4625;stroke-width:2;" x1="5.152" y1="-33" x2="37.152" y2="-33"/>
				<path style="fill:#A1773F;" d="M9.364-15.043c0.832-0.433,2-0.098,2.893-0.092c2.129,0.013,4.2-0.246,6.333-0.101
					c2.577,0.176,5.157,0.024,7.739,0.089c1.917,0.048,4.119-0.064,5.999,0.271c-0.495,0.329-1.333,0.328-1.967,0.328
					c0.433,0.581,1.859,0.344,2.61,0.439c0.93,0.118,2.003,0.263,2.872,0.483c-0.885,0.377-2.334,0.023-3.29,0.026
					c-1.721,0.006-3.371-0.245-5.1-0.123c-3.488,0.247-6.982,0.374-10.479,0.416c1.561,0.048,3.215-0.685,4.809-0.793
					c-0.731-0.591-2.612-0.024-3.57-0.068c-1.492-0.068-2.889-0.33-4.408-0.277c-2.792,0.098-5.611,0.186-8.396-0.042
					c0.825-0.33,2.145-0.223,2.897-0.363"/>
				<path style="fill:#A1773F;" d="M35.066-11.289c-1.646,0.006-3.277,0.096-4.927,0.097c-1.713,0.001-4.321-0.129-5.848,0.774
					c0.405,0.175,1.114,0.095,1.619,0.092c1.293-0.006,2.409,0.158,3.677,0.393c1.336,0.246,2.681,0.081,3.991,0.448
					c-0.639,0.157-1.277,0.271-1.884,0.54c0.422,0.096,0.994,0.026,1.255,0.352c-0.769,0.572-2.691,0.502-3.654,0.695
					c-1.048,0.211-2.143,0.707-3.163,0.842c1.551,0.573,4.119-0.198,5.763-0.264c1.274-0.051,2.484-0.275,3.747-0.33
					c-0.446-0.249-0.947-0.657-1.346-1.02c0.144-0.085,0.206-0.233,0.309-0.309c-0.122-0.064-0.31-0.327-0.417-0.385
					c0.436-0.238,2.229-1.117,0.878-1.252"/>
				<path style="fill:#A1773F;" d="M12.541-4.936c2.267,0.084,4.603-0.133,6.874-0.197c1.324-0.037,3.621-0.092,4.768,0.459
					c-1.127,0.484-3.54,0.108-4.826,0.123c-1.49,0.018-3.693-0.622-5.083,0"/>
				<path style="fill:#805E32;" d="M17.835-29.193c2.407,0.396,4.98-0.148,7.416-0.076c0.967,0.028,5.22-0.312,5.552,0.543
					c-1.425,0.087-2.818,0.172-4.238,0.131c-1.358-0.041-3.603-0.426-4.879-0.02"/>
				<path style="fill:#805E32;" d="M6.38-20.049c1.616-0.092,3.209,0.197,4.835,0.082c1.878-0.133,3.542-0.264,5.425-0.058
					c-1.002,0.18-2.105,0.192-3.132,0.267c-0.972,0.072-3.007-0.339-3.759,0.191"/>
				<path style="fill:#805E32;" d="M33.333-25.246c0.974,0.244,1.93-0.048,2.908-0.085c1.477-0.056,2.856,0.222,4.297,0.454
					c0.563,0.09,4.271,0.592,2.229,0.891c-0.915,0.134-2.49-0.253-3.474-0.29c-0.903-0.034-1.75-0.285-2.628-0.376
					c-0.859-0.088-1.755,0.178-2.562-0.017"/>
				<path style="fill:#805E32;" d="M1.333-25.246c0.974,0.244,1.93-0.048,2.908-0.085c1.477-0.056,2.856,0.222,4.297,0.454
					c0.563,0.09,4.271,0.592,2.229,0.891c-0.915,0.134-2.49-0.253-3.474-0.29c-0.903-0.034-1.75-0.285-2.628-0.376
					c-0.859-0.088-1.755,0.178-2.562-0.017"/>
				<path style="fill:#A1773F;" d="M34.104-4.839c1.246,0.403,3.102,0.057,4.43,0.101c0.795,0.027,2.035-0.258,2.689,0.159
					c-0.645,0.325-1.407,0.233-2.04,0.608c1.619,0.961,4.311,0.35,6.169,1.037c-1.215,0.042-2.435,0.151-3.658,0.095
					C40.6-2.89,37.72-2.544,36.997-3.208c0.319-0.103,0.404-0.319,0.567-0.46C35.71-4.035,33.84-4.135,32-4.451
					c0.403-0.102,0.821-0.132,1.237-0.1"/>
				<path style="fill:#A1773F;" d="M2.104-4.839c1.246,0.403,3.102,0.057,4.43,0.101c0.795,0.027,2.035-0.258,2.689,0.159
					c-0.645,0.325-1.407,0.233-2.04,0.608c1.619,0.961,4.311,0.35,6.169,1.037c-1.215,0.042-2.435,0.151-3.658,0.095
					C8.6-2.89,5.72-2.544,4.997-3.208c0.319-0.103,0.404-0.319,0.567-0.46C3.71-4.035,1.84-4.135,0-4.451
					c0.403-0.102,0.821-0.132,1.237-0.1"/>
			</g>
		</pattern>
	</defs>
	<g>
		<polygon style="fill:url(#New_Pattern_Swatch_25);" points="162,162.001 34,290.001 34.001,1250 226,1570 482,1762 738,1570 
			930,1250 930,290 802,162 "/>
		<polygon style="fill:#E8E074;stroke:#000000;" points="802,34 802,162 930,290 930,162 "/>
		<polygon style="fill:#E8E074;stroke:#000000;" points="34,162 162,34 162,162 34,290 "/>
		<rect x="162" y="34" style="fill:#E8E074;stroke:#000000;" width="640" height="128"/> 
		<rect x="682" y="826" style="fill:url(#New_Pattern_Swatch_37);" width="48" height="120"/> 
		<polygon style="fill:#8F7020;stroke:#524012;" points="730,946 730,826 682,826 682,946 674,946 674,818 738,818 738,946 "/>
		<rect x="234" y="810" style="fill:url(#New_Pattern_Swatch_37);" width="48" height="120"/> 
		<polygon style="fill:#8F7020;stroke:#524012;" points="282,930 282,810 234,810 234,930 226,930 226,802 290,802 290,930 "/>
		<rect x="554" y="1506" style="fill:url(#New_Pattern_Swatch_37);" width="48" height="120"/> 
		<polygon style="fill:#8F7020;stroke:#524012;" points="554,1506 554,1626 602,1626 602,1506 610,1506 610,1634 546,1634 546,1506 
			"/>
		<rect x="362" y="1506" style="fill:url(#New_Pattern_Swatch_37);" width="48" height="120"/> 
		<polygon style="fill:#8F7020;stroke:#524012;" points="362,1506 362,1626 410,1626 410,1506 418,1506 418,1634 354,1634 354,1506 
			"/>
		
			<use xlink:href="#New_Symbol_1"  width="65.058" height="56.547" x="-32.529" y="-28.273" transform="matrix(1 0 0 -1 617.4722 102.2725)"/>
		
			<use xlink:href="#New_Symbol_1"  width="65.058" height="56.547" x="-32.529" y="-28.273" transform="matrix(1 0 0 -1 353.1387 102.2725)"/>
		<polygon style="fill:url(#New_Pattern_Swatch_24);stroke:#8F7020;stroke-width:4;" points="466,34 466,1746 482,1762 498,1746 
			498,34 "/>
		
			<use xlink:href="#New_Symbol"  width="42.113" height="68.315" x="-21.057" y="-34.157" transform="matrix(1 0 0 -1 1020.9438 740.1572)"/>
		<g id="floor_1_">
			<path style="fill:none;" d="M610,1138h128v240h16v-240h176v-16H610V1138z M610,738h-0.002v256H674V818h64v176h16V818h112v-16H674
				v-64h-48V306.697h144v-17.1H498v17.1h112V738z M738,482v16h192v-16H738z M546,1538h-48v208h48v-32h16v-16h48v-32h-64V1538z
				 M610,1666h16v-368h-16V1666z"/>
		</g>
		<g id="wall_1_">
			<g>
				<path style="fill:url(#New_Pattern_Swatch_26);" d="M738,1106H610v32h128V1106z M738,1378h16v-32h-16V1378z M754,1138h176v-32
					H754V1138z M610,994h64v-32h-64V994z M738,994h16v-32h-16V994z M674,818h64v-32h-64V818z M754,786v32h112v-32H754z M738,466v32
					h192v-32H738z M610,274H498v32h112V274z M770,274.104H626V306h144V274.104z"/>
			</g>
			<g>
				<path style="fill:none;stroke:#8F7020;" d="M738,1106H610v32h128V1106z M738,1378h16v-32h-16V1378z M754,1138h176v-32H754V1138z
					 M610,994h64v-32h-64V994z M738,994h16v-32h-16V994z M674,818h64v-32h-64V818z M754,786v32h112v-32H754z M738,466v32h192v-32
					H738z M610,274H498v32h112V274z M770,274.104H626V306h144V274.104z"/>
			</g>
		</g>
		<g id="top_2_">
			<g>
				<path style="fill:url(#New_Pattern_Swatch_24);" d="M610,1106h128v240h16v-240h176v-16H610V1106z M610,706h-0.002v256H674V786
					h64v176h16V786h112v-16H674v-64h-48V274.697h144v-17.1H498v17.1h112V706z M738,450v16h192v-16H738z M610,1634h-64v-128h-48v240
					h48v-32h16v-16h48v-32h16v-400h-16V1634z"/>
			</g>
			<g>
				<path style="fill:none;stroke:#8F7020;" d="M610,1106h128v240h16v-240h176v-16H610V1106z M610,706h-0.002v256H674V786h64v176h16
					V786h112v-16H674v-64h-48V274.697h144v-17.1H498v17.1h112V706z M738,450v16h192v-16H738z M610,1634h-64v-128h-48v240h48v-32h16
					v-16h48v-32h16v-400h-16V1634z"/>
			</g>
		</g>
		<g>
			<g>
				<path style="fill:url(#New_Pattern_Swatch_24);" d="M818,2L146,2L2,146l0,1104l200.001,344l280,200l280-200l200-344V146L818,2z
					 M930,1250l-192,320l-256,192l-256-192l-192-320l0-1088L162,34L802,34l128,128V1250z"/>
			</g>
			<g>
				<path style="fill:none;stroke:#8F7020;stroke-width:4;" d="M818,2L146,2L2,146l0,1104l200.001,344l280,200l280-200l200-344V146
					L818,2z M930,1250l-192,320l-256,192l-256-192l-192-320l0-1088L162,34L802,34l128,128V1250z"/>
			</g>
		</g>
	</g>
</svg>
