<?xml version="1.0" encoding="UTF-8" standalone="no"?>
<!DOCTYPE svg PUBLIC "-//W3C//DTD SVG 20010904//EN"
"http://www.w3.org/TR/2001/REC-SVG-20010904/DTD/svg10.dtd"
[
 <!ATTLIST svg
  xmlns:xlink CDATA #FIXED "http://www.w3.org/1999/xlink">
]>
<!-- Created with Sodipodi ("http://www.sodipodi.com/") -->
<svg
   xmlns="http://www.w3.org/2000/svg"
   xmlns:xlink="http://www.w3.org/1999/xlink"
   version="1"
   x="0"
   y="0"
   width="744.094"
   height="1052.36"
   id="svg1">
  <defs
     id="defs3">
    <linearGradient
       x1="0"
       y1="0"
       x2="1"
       y2="0"
       id="linearGradient552"
       gradientUnits="objectBoundingBox"
       spreadMethod="pad">
      <stop
         style="stop-color:#ffff7d;stop-opacity:1;"
         offset="0"
         id="stop553" />
      <stop
         style="stop-color:#ff8f00;stop-opacity:1;"
         offset="1"
         id="stop554" />
    </linearGradient>
    <radialGradient
       cx="0.30434"
       cy="0.289063"
       fx="0.30434"
       fy="0.289063"
       r="0.5"
       id="radialGradient555"
       xlink:href="#linearGradient552"
       gradientUnits="objectBoundingBox"
       gradientTransform="translate(-1.62478e-06,1.1306e-07)"
       spreadMethod="pad" />
  </defs>
  <text
     x="61.378899"
     y="4.202620"
     transform="scale(2.71037,2.71037)"
     style="font-size:72;font-weight:normal;fill:#fffdb7;stroke:#ffd1ab;stroke-width:1pt;font-family:'MS Gothic';writing-mode:tb;"
     id="text539">
    <tspan
       x="61.378899"
       y="4.202620"
       id="tspan542">
æ„›é‡Žç¾Žå¥ˆå­?</tspan>
  </text>
  <rect
     width="104.177"
     height="402.581"
     x="538.542"
     y="577.386"
     style="font-size:12;fill:#ffef99;fill-rule:evenodd;stroke-width:1pt;"
     id="rect538" />
  <text
     x="590.632019"
     y="588.424011"
     style="font-size:72;font-weight:normal;fill:#c50000;stroke-width:1pt;font-family:'MS Mincho';writing-mode:tb;"
     id="text325">
    <tspan
       x="590.632019"
       y="588.424011"
       id="tspan334">
æ„›é‡Žç¾Žå¥ˆå­?</tspan>
  </text>
  <g
     style="font-size:12;"
     id="g560">
    <path
       d="M 257.93 128.409 C 255.516 148.695 245.856 172.361 207.7 204.721 C 169.544 237.081 133.803 267.51 77.2943 297.455 C 20.7845 327.4 7.26091 353.481 8.22691 381.977 C 16.4376 359.277 23.1994 349.134 37.206 338.508 C 51.2126 327.883 80.6743 312.91 94.1983 307.114 C 107.722 301.318 131.388 288.761 144.429 280.067 C 129.456 296.006 90.3343 325.468 78.7433 338.025 C 67.1513 350.583 36.723 382.943 39.138 420.133 C 41.5529 457.323 51.6956 470.847 71.9813 481.472 C 72.9473 474.711 66.6683 467.949 66.6683 459.255 C 66.6683 450.561 66.1853 420.616 89.8513 391.154 C 113.518 361.692 112.069 365.556 116.898 360.243 C 100.477 382.46 84.5383 406.127 85.9873 429.793 C 87.4363 453.459 89.3683 450.078 89.8513 452.01 C 91.7833 431.242 92.7493 424.963 95.6473 420.133 C 92.2663 438.487 87.4363 462.153 93.7153 478.091 C 99.9943 494.03 102.409 501.275 121.728 509.969 C 119.313 503.69 112.552 500.309 110.137 484.853 C 107.722 469.398 106.273 435.106 121.245 416.752 C 116.898 455.874 114.967 476.643 124.143 497.411 C 133.32 518.179 154.088 543.295 178.238 541.846 C 202.387 540.397 194.176 540.397 198.04 538.465 C 203.353 543.778 210.598 549.09 233.781 546.193 C 247.305 552.471 273.869 563.58 311.059 561.648 C 348.249 559.716 378.194 549.573 400.894 537.499 C 423.595 525.424 449.676 502.241 454.989 494.996 C 441.948 514.315 430.84 530.254 412.969 540.397 C 439.533 526.39 483.002 505.139 487.349 446.697 C 485.417 491.615 468.512 518.662 450.159 530.737 C 473.342 518.662 497.975 503.207 510.532 452.01 C 501.839 497.411 499.424 502.241 482.519 529.288 C 510.049 507.071 522.607 494.513 532.267 461.187 C 531.301 466.5 531.301 467.949 531.301 469.398 C 546.273 456.84 565.11 437.038 565.593 402.746 C 566.076 368.454 554.967 328.849 522.607 298.421 C 549.654 320.155 575.252 344.304 579.116 356.379 C 582.98 368.454 596.987 384.392 587.81 419.167 C 604.232 396.95 613.408 369.42 603.749 338.025 C 594.089 306.631 555.933 268.958 525.505 253.02 C 495.077 237.081 484.451 232.251 468.03 221.143 C 505.702 237.081 532.267 243.843 542.409 249.156 C 552.552 254.469 564.144 260.265 574.769 274.271 C 557.865 248.673 533.233 239.496 507.151 229.837 C 481.07 220.177 445.812 207.619 423.112 175.259 C 400.411 142.899 398.962 138.069 392.684 120.682 C 386.405 103.294 380.126 79.6276 366.119 70.9339 C 345.758 66.5733 326.117 67.4353 308.161 63.6891 C 293.671 66.5871 264.209 86.8724 260.828 105.709 C 257.447 124.546 259.379 120.682 257.93 128.409 z "
       transform="translate(64.1139,-8.32754)"
       style="fill:#fff254;fill-rule:evenodd;stroke-width:0.5;"
       id="path130" />
    <g
       transform="translate(21.6272,-8.32759)"
       id="g839">
      <path
         d="M 531.902 266.356 C 589.096 299.447 612.382 313.745 626.681 339.891 C 640.979 366.037 645.064 386.054 641.388 401.17 C 636.077 411.383 634.443 413.426 630.357 419.145 C 634.851 396.676 634.443 383.195 626.681 366.037 C 618.919 348.878 605.846 332.946 590.73 320.282 C 575.615 307.617 543.341 276.161 531.902 266.356 z "
         style="fill:#dca614;fill-rule:evenodd;stroke-width:1pt;"
         id="path825" />
      <path
         d="M 310.481 136.036 L 310.481 136.036 C 308.029 157.279 297.816 174.029 288.012 181.382 C 278.207 188.736 276.573 203.034 263.5 219.375 C 276.573 209.979 292.914 197.315 269.219 228.771 C 245.525 260.228 199.77 329.678 192.416 371.756 C 209.166 338.257 222.647 318.239 227.55 311.703 C 205.081 386.463 197.727 414.651 200.587 459.589 C 203.447 504.527 209.983 519.643 214.068 528.63 C 218.153 537.618 231.226 543.746 240.214 538.844 C 252.878 547.423 259.823 547.831 276.164 546.606 C 296.999 554.776 328.864 564.581 362.364 561.313 C 395.863 558.044 446.52 545.789 497.178 495.948 C 480.836 519.234 470.215 531.49 459.593 538.435 C 495.952 518.009 515.561 503.71 529.86 457.955 C 520.464 502.893 515.97 510.247 494.318 529.856 C 533.536 505.753 525.774 506.161 528.634 503.302 C 542.115 463.675 547.835 437.12 538.03 365.628 C 550.695 388.097 562.542 413.426 542.933 497.174 C 568.261 459.181 573.572 411.792 557.64 345.202 C 572.755 364.403 588.279 379.109 573.981 468.168 C 589.505 455.096 587.871 454.687 593.181 448.151 C 588.688 385.646 575.615 360.726 539.664 306.8 C 503.714 252.875 490.233 252.058 473.074 215.699 C 455.916 179.34 441.209 167.901 438.35 161.365 C 438.35 172.803 440.801 180.157 441.209 185.468 C 428.953 152.377 424.46 146.658 419.966 118.061 C 415.472 89.4638 396.271 75.9823 372.168 76.3909 C 348.065 76.7994 321.511 81.7017 310.481 136.036 z "
         style="fill:#dca614;fill-rule:evenodd;stroke-width:1pt;"
         id="path803" />
      <path
         d="M 212.843 255.734 C 184.246 271.667 138.082 298.221 109.485 319.873 C 144.21 303.123 176.484 288.008 186.697 280.654 C 202.221 266.764 200.995 267.582 212.843 255.734 z "
         style="fill:#dca614;fill-rule:evenodd;stroke-width:1pt;"
         id="path835" />
      <path
         d="M 188.331 330.086 C 131.137 358.275 99.6806 397.085 97.638 422.413 C 95.5954 447.742 102.54 470.211 108.26 477.156 C 111.528 479.607 111.936 479.607 113.979 480.833 C 113.979 477.156 114.388 473.071 112.753 471.028 C 111.119 468.985 108.26 462.04 109.485 450.602 C 110.711 439.163 113.979 410.158 135.222 386.871 C 156.466 363.585 177.301 339.482 188.331 330.086 z "
         style="fill:#dca614;fill-rule:evenodd;stroke-width:1pt;"
         id="path836" />
      <path
         d="M 145.436 398.719 C 136.857 411.383 129.503 422.822 128.686 430.175 C 128.686 441.206 129.503 447.742 131.954 451.419 C 132.771 440.389 135.222 418.328 145.436 398.719 z "
         style="fill:#dca614;fill-rule:evenodd;stroke-width:1pt;"
         id="path837" />
      <path
         d="M 178.118 382.378 C 149.521 415.06 138.082 444.882 140.942 464.083 C 143.802 483.284 145.436 494.314 157.283 506.161 C 160.143 508.204 160.96 507.387 164.228 509.43 C 161.368 503.71 154.423 498.399 152.381 480.833 C 150.338 463.266 150.747 432.218 163.819 416.285 C 167.905 404.438 174.033 392.591 178.118 382.378 z "
         style="fill:#dca614;fill-rule:evenodd;stroke-width:1pt;"
         id="path838" />
    </g>
    <g
       transform="translate(21.6272,-8.32759)"
       id="g973">
      <path
         d="M 407.708 163.41 C 414.653 165.453 419.147 160.142 421.599 154.014 C 417.922 144.209 416.288 143.597 415.062 135.426 C 411.794 148.091 409.547 154.831 407.708 163.41 z "
         style="fill:#ffb27f;fill-rule:evenodd;stroke:#000000;stroke-width:1pt;"
         id="path166" />
      <path
         d="M 416.901 142.981 C 418.127 152.173 415.676 158.097 411.182 158.097 "
         style="fill:none;fill-rule:evenodd;stroke:#000000;stroke-width:1pt;"
         id="path801" />
    </g>
    <g
       transform="translate(21.6272,-8.32759)"
       id="g847">
      <path
         d="M 194.459 249.198 C 210.8 236.942 231.635 220.192 238.171 214.882 C 235.72 221.418 234.086 223.461 233.678 225.095 C 240.214 220.192 249.61 214.882 253.287 211.613 C 251.653 219.375 251.653 219.784 250.836 222.235 C 258.598 216.516 263.5 213.656 265.951 212.022 C 265.134 215.699 265.543 215.699 265.134 217.333 C 270.853 213.247 280.25 207.937 283.109 207.528 C 273.713 218.15 244.708 244.704 230.001 272.075 C 231.635 258.185 240.214 239.393 251.653 225.503 C 240.622 234.082 227.55 249.198 219.788 259.003 C 223.464 247.155 227.55 240.619 230.001 237.351 C 226.324 239.393 225.507 239.802 222.647 241.844 C 222.647 238.168 221.83 238.985 222.647 236.534 C 214.477 241.844 207.123 249.198 194.459 249.198 z "
         style="fill:#ffffff;fill-rule:evenodd;stroke-width:1pt;"
         id="path807" />
      <path
         d="M 144.21 316.605 C 136.448 332.537 131.546 342.342 130.32 347.244 C 133.18 345.202 134.405 344.385 136.448 342.751 C 136.448 347.244 134.814 350.921 136.04 353.372 C 144.619 339.074 147.478 327.635 170.764 313.337 C 165.862 312.52 162.594 311.294 159.734 313.337 C 163.411 307.617 168.313 302.715 169.539 296.996 C 154.423 308.843 149.929 312.928 144.21 316.605 z "
         style="fill:#ffffff;fill-rule:evenodd;stroke-width:1pt;"
         id="path808" />
      <path
         d="M 544.975 241.844 C 549.878 245.93 550.286 247.972 554.371 253.692 C 543.341 248.381 533.536 245.521 526.591 243.07 C 533.536 249.606 540.073 252.466 542.933 255.326 C 538.439 256.143 536.805 256.143 534.762 255.734 C 536.805 259.82 537.213 260.637 538.439 263.088 C 515.561 251.241 493.501 242.253 477.16 239.802 C 460.819 237.351 460.41 231.223 455.508 227.137 C 459.184 226.729 461.636 226.729 462.453 227.137 C 460.002 223.052 461.227 221.418 458.776 218.15 C 465.312 220.192 470.215 220.192 471.849 222.235 C 473.483 224.278 485.739 225.912 489.824 227.546 C 493.909 229.18 494.318 227.954 495.135 227.954 C 491.867 224.686 491.458 221.418 488.598 218.558 C 497.586 221.827 500.037 224.278 503.305 225.912 C 502.897 221.827 502.488 218.15 501.671 216.107 C 508.616 220.601 536.805 236.942 544.975 241.844 z "
         style="fill:#ffffff;fill-rule:evenodd;stroke-width:1pt;"
         id="path809" />
      <path
         d="M 596.45 272.892 C 609.522 293.727 622.187 302.715 631.174 328.861 C 640.162 355.006 643.839 358.683 645.064 369.305 C 647.107 355.823 646.698 350.104 647.107 341.116 C 634.443 310.068 623.821 296.178 596.45 272.892 z "
         style="fill:#ffffff;fill-rule:evenodd;stroke-width:1pt;"
         id="path810" />
      <path
         d="M 541.707 282.697 C 557.64 293.319 564.176 294.136 575.615 308.843 C 587.053 323.55 602.986 351.33 607.071 380.335 C 589.505 346.836 574.798 326.001 567.444 314.562 C 560.091 303.123 550.695 292.91 541.707 282.697 z "
         style="fill:#ffffff;fill-rule:evenodd;stroke-width:1pt;"
         id="path811" />
    </g>
    <path
       d="M 257.93 128.409 C 255.516 148.695 245.856 172.361 207.7 204.721 C 169.544 237.081 133.803 267.51 77.2943 297.455 C 20.7845 327.4 7.26091 353.481 8.22691 381.977 C 16.4376 359.277 23.1994 349.134 37.206 338.508 C 51.2126 327.883 80.6743 312.91 94.1983 307.114 C 107.722 301.318 131.388 288.761 144.429 280.067 C 129.456 296.006 90.3343 325.468 78.7433 338.025 C 67.1513 350.583 36.723 382.943 39.138 420.133 C 41.5529 457.323 51.6956 470.847 71.9813 481.472 C 72.9473 474.711 66.6683 467.949 66.6683 459.255 C 66.6683 450.561 66.1853 420.616 89.8513 391.154 C 113.518 361.692 112.069 365.556 116.898 360.243 C 100.477 382.46 84.5383 406.127 85.9873 429.793 C 87.4363 453.459 89.3683 450.078 89.8513 452.01 C 91.7833 431.242 92.7493 424.963 95.6473 420.133 C 92.2663 438.487 87.4363 462.153 93.7153 478.091 C 99.9943 494.03 102.409 501.275 121.728 509.969 C 119.313 503.69 112.552 500.309 110.137 484.853 C 107.722 469.398 106.273 435.106 121.245 416.752 C 116.898 455.874 114.967 476.643 124.143 497.411 C 133.32 518.179 154.088 543.295 178.238 541.846 C 202.387 540.397 194.176 540.397 198.04 538.465 C 203.353 543.778 210.598 549.09 233.781 546.193 C 247.305 552.471 273.869 563.58 311.059 561.648 C 348.249 559.716 378.194 549.573 400.894 537.499 C 423.595 525.424 449.676 502.241 454.989 494.996 C 441.948 514.315 430.84 530.254 412.969 540.397 C 439.533 526.39 483.002 505.139 487.349 446.697 C 485.417 491.615 468.512 518.662 450.159 530.737 C 473.342 518.662 497.975 503.207 510.532 452.01 C 501.839 497.411 499.424 502.241 482.519 529.288 C 510.049 507.071 522.607 494.513 532.267 461.187 C 531.301 466.5 531.301 467.949 531.301 469.398 C 546.273 456.84 565.11 437.038 565.593 402.746 C 566.076 368.454 554.967 328.849 522.607 298.421 C 549.654 320.155 575.252 344.304 579.116 356.379 C 582.98 368.454 596.987 384.392 587.81 419.167 C 604.232 396.95 613.408 369.42 603.749 338.025 C 594.089 306.631 555.933 268.958 525.505 253.02 C 495.077 237.081 484.451 232.251 468.03 221.143 C 505.702 237.081 532.267 243.843 542.409 249.156 C 552.552 254.469 564.144 260.265 574.769 274.271 C 557.865 248.673 533.233 239.496 507.151 229.837 C 481.07 220.177 445.812 207.619 423.112 175.259 C 400.411 142.899 398.962 138.069 392.684 120.682 C 386.405 103.294 380.126 79.6276 366.119 70.9339 C 345.758 66.5733 326.117 67.4353 308.161 63.6891 C 293.671 66.5871 264.209 86.8724 260.828 105.709 C 257.447 124.546 259.379 120.682 257.93 128.409 z "
       transform="translate(64.1139,-8.32754)"
       style="fill:none;fill-rule:evenodd;stroke:#7d4d20;stroke-width:1.25;"
       id="path846" />
    <path
       d="M 136.039 382.786 C 127.869 398.31 124.601 404.03 121.741 416.285 M 136.448 354.598 C 106.625 388.914 102.132 397.493 96.0043 419.554 M 117.247 360.726 C 129.503 346.427 141.35 335.397 147.07 330.086 M 171.581 254.509 C 160.142 265.13 150.746 274.527 144.21 281.063 M 488.598 265.13 C 506.982 281.88 518.012 291.276 524.957 299.855 M 265.542 185.468 C 259.415 195.272 256.146 199.358 253.287 201.809 M 276.164 156.054 C 269.219 172.803 265.134 176.072 262.274 179.748 M 357.461 176.072 C 357.87 194.047 358.687 207.528 359.912 215.29 M 360.729 169.535 C 362.772 192.821 364.815 202.626 367.674 214.473 M 373.077 138.511 C 375.12 145.661 380.231 154.575 383.667 166.577 C 385.6 173.647 391.012 190.141 393.718 196.753 C 399.131 209.979 405.259 222.439 412.204 233.674 M 163.411 533.941 C 126.643 508.204 129.911 458.364 133.997 427.724 C 138.082 397.085 162.594 339.891 188.331 299.447 C 214.068 259.003 232.452 239.802 242.256 227.137 M 209.574 335.397 C 166.27 404.03 162.594 446.516 170.356 487.369 C 178.118 528.222 190.782 529.856 194.867 535.984 M 202.629 403.621 C 187.105 467.76 190.373 493.497 198.953 511.064 C 207.532 528.63 211.208 531.082 217.745 535.984 M 206.715 441.614 C 200.587 492.271 206.306 509.838 213.251 522.502 C 220.196 535.167 225.915 542.112 232.86 546.197 M 396.271 296.587 C 437.532 391.365 441.618 416.694 435.49 446.516 C 429.362 476.339 412.612 516.783 384.832 534.758 M 465.312 463.675 C 461.227 486.144 458.776 486.961 455.099 495.948 M 486.964 435.486 C 487.781 447.333 488.598 452.644 486.964 457.955 M 507.391 389.323 C 512.293 415.06 512.293 430.584 509.842 450.193 M 457.142 277.386 C 508.616 326.001 531.085 342.751 536.396 386.871 C 541.707 430.992 532.311 453.461 532.719 459.181 "
       transform="translate(64.1139,-8.32754)"
       style="fill:none;fill-rule:evenodd;stroke:#7d4d20;stroke-width:1pt;"
       id="path834" />
    <g
       transform="translate(21.6272,-8.32759)"
       id="g970">
      <path
         d="M 330.497 163.818 C 320.284 163.41 316.607 157.691 316.403 149.112 C 319.059 145.23 321.102 144.413 324.37 142.371 C 326.821 150.542 326.821 155.239 330.497 163.818 z "
         style="fill:#ffb27f;fill-rule:evenodd;stroke:#000000;stroke-width:1pt;"
         id="path167" />
      <path
         d="M 320.489 145.637 C 319.876 154.012 322.736 155.442 326.005 156.055 "
         style="fill:none;fill-rule:evenodd;stroke:#000000;stroke-width:1pt;"
         id="path802" />
    </g>
    <path
       d="M 278.846 97.5001 L 269.45 104.445 C 253.028 123.282 259.379 130.824 261.311 135.654 C 263.243 140.484 269.039 146.28 273.386 149.661 C 277.733 144.831 279.665 143.382 282.08 142.899 C 275.801 119.233 280.295 111.024 278.846 97.5001 z "
       transform="translate(64.1139,-8.32754)"
       style="fill:#dca614;fill-rule:evenodd;stroke:#7d4d20;stroke-width:1pt;"
       id="path128" />
    <path
       d="M 331.384 66.1603 C 342.534 46.452 355.009 44.1204 377.478 46.9801 C 375.435 60.87 377.069 80.8877 373.392 85.79 C 347.655 69.0405 344.866 70.2455 331.384 66.1603 z "
       transform="translate(64.1139,-8.32754)"
       style="fill:#ff5252;fill-rule:evenodd;stroke:#000000;stroke-width:1pt;"
       id="path157" />
    <path
       d="M 332.54 65.4629 C 326.272 46.8604 314.565 43.7119 293.321 44.1204 C 290.462 55.5592 290.053 64.9553 290.87 69.8576 C 314.565 64.1382 319.875 63.0117 332.54 65.4629 z "
       transform="translate(64.1139,-8.32754)"
       style="fill:#ff5252;fill-rule:evenodd;stroke:#000000;stroke-width:1pt;"
       id="path158" />
    <path
       d="M 361.136 70.2661 C 386.057 69.0405 395.044 72.3088 402.398 79.6622 C 395.861 90.6924 386.874 107.442 385.648 113.57 C 372.984 82.1133 367.264 75.9854 361.136 70.2661 z "
       transform="translate(64.1139,-8.32754)"
       style="fill:#ff5252;fill-rule:evenodd;stroke:#000000;stroke-width:1pt;"
       id="path159" />
    <path
       d="M 310.888 64.1382 C 290.053 60.0529 281.883 60.8699 267.993 65.7723 C 273.303 76.8025 279.84 79.6621 285.968 83.3389 C 301.083 70.2661 304.351 68.2234 310.888 64.1382 z "
       transform="translate(64.1139,-8.32754)"
       style="fill:#ff5252;fill-rule:evenodd;stroke:#000000;stroke-width:1pt;"
       id="path160" />
    <path
       d="M 283.046 69.485 C 273.869 67.0701 270.971 69.002 265.658 64.1722 C 269.039 75.2809 267.107 88.3214 274.352 88.8044 C 281.597 89.2874 293.671 74.3149 300.433 70.451 C 291.739 71.417 290.291 71.417 283.046 69.485 z "
       transform="translate(64.1139,-8.32754)"
       style="fill:#dca614;fill-rule:evenodd;stroke:#7d4d20;stroke-width:1.25;"
       id="path129" />
    <g
       transform="translate(21.6272,-8.32759)"
       id="g772">
      <path
         d="M 324.37 142.984 C 330.497 167.495 334.583 180.16 348.473 188.739 C 362.362 197.318 370.124 203.854 386.465 191.19 C 402.806 178.525 404.032 176.483 410.977 151.971 C 417.922 127.46 426.909 97.2288 412.611 80.4792 C 398.313 63.7297 354.6 57.1933 333.766 77.211 C 312.931 97.2288 319.876 128.277 324.37 142.984 z "
         style="fill:#ffb27f;fill-rule:evenodd;stroke-width:1pt;"
         id="path131" />
      <path
         d="M 335.636 142.117 C 335.119 170.673 334.583 180.16 348.473 188.739 C 362.362 197.318 370.124 203.854 386.465 191.19 C 408.295 172.748 404.032 172.728 403.177 147.927 C 395.968 139.015 384.445 126.405 371.014 132.765 C 378.092 98.6833 353.445 88.1025 361.209 129.786 C 335.174 98.3842 339.519 119.9 335.636 142.117 z "
         style="fill:#ffcca6;fill-rule:evenodd;stroke-width:0.125;"
         id="path770" />
      <path
         d="M 324.37 142.984 C 330.497 167.495 334.583 180.16 348.473 188.739 C 362.362 197.318 370.124 203.854 386.465 191.19 C 402.806 178.525 404.032 176.483 410.977 151.971 C 417.922 127.46 426.909 97.2288 412.611 80.4792 C 398.313 63.7297 354.6 57.1933 333.766 77.211 C 312.931 97.2288 319.876 128.277 324.37 142.984 z "
         style="fill:none;fill-rule:evenodd;stroke:#000000;stroke-width:1pt;"
         id="path771" />
    </g>
    <path
       d="M 339.281 126.846 C 353.171 122.352 362.771 125.007 369.308 128.071 C 369.716 126.846 369.92 126.641 370.125 125.62 C 358.277 120.922 348.677 118.471 337.034 124.395 C 338.668 125.416 339.894 127.05 339.281 126.846 z "
       transform="translate(64.1139,-8.32754)"
       style="fill:#5f4322;fill-rule:evenodd;stroke-width:1pt;"
       id="path800" />
    <path
       d="M 282.904 119.901 C 295.16 117.858 309.458 121.739 315.995 124.599 C 314.769 126.641 315.382 126.029 315.178 126.846 C 302.514 123.373 292.505 121.739 281.679 122.556 C 282.291 121.331 282.496 120.922 282.904 119.901 z "
       transform="translate(64.1139,-8.32754)"
       style="fill:#5f4322;fill-rule:evenodd;stroke-width:1pt;"
       id="path799" />
    <path
       d="M 367.112 117.605 C 388.764 102.897 411.386 100.496 415.063 100.496 C 415.063 102.948 415.063 105.807 415.063 108.667 C 403.624 109.484 385.751 115.476 371.611 124.593 C 368.972 126.266 365.987 126.451 363.358 124.819 C 339.264 109.763 334.428 112.448 323.961 111.527 C 323.553 104.173 323.145 107.85 323.553 102.539 C 330.906 102.539 346.119 104.227 367.112 117.605 z "
       transform="translate(21.6272,-8.32759)"
       style="fill:#dca614;fill-rule:evenodd;stroke:#000000;stroke-width:1pt;"
       id="path444" />
    <ellipse
       cx="388.874451"
       cy="113.160980"
       rx="4.991150"
       ry="5.642166"
       transform="matrix(1.02843,0,0,1.02844,-10.8394,-3.21798)"
       style="fill:url(#radialGradient555);fill-rule:evenodd;stroke:#000000;stroke-width:1.21544;"
       id="path551" />
    <g
       transform="translate(21.6272,-8.32759)"
       id="g748">
      <path
         d="M 362.393 457.066 C 360.183 545.896 354.438 609.536 353.554 638.704 C 352.67 667.872 341.179 719.138 339.854 758.471 C 338.528 797.803 340.737 843.765 336.318 868.072 C 331.015 884.866 326.595 891.053 330.131 900.334 C 331.457 910.499 332.341 933.038 333.666 942.319 C 334.992 951.599 342.063 965.3 348.251 963.974 C 354.438 962.648 360.625 948.064 360.183 936.573 C 359.741 925.083 353.554 897.682 356.205 876.469 C 358.857 855.256 371.231 777.916 378.745 749.19 C 386.258 720.463 392.445 687.76 394.213 664.337 C 395.98 640.914 396.864 621.468 404.377 598.929 C 411.89 576.39 429.126 524.241 433.545 488.886 C 437.965 453.53 431.336 425.688 425.59 411.546 C 399.074 428.34 375.651 441.598 362.393 457.066 z "
         style="fill:#ffb27f;fill-rule:evenodd;stroke-width:1pt;"
         id="path690" />
      <path
         d="M 332.341 909.615 C 332.341 918.012 332.341 933.038 333.225 939.667 C 334.108 946.296 340.738 955.135 340.296 947.18 C 339.854 939.225 337.644 918.012 338.528 911.383 C 339.412 904.753 338.086 899.892 335.434 901.66 C 332.783 903.428 332.783 906.521 332.341 909.615 z "
         style="fill:#ffcca6;fill-rule:evenodd;stroke-width:1pt;"
         id="path693" />
      <path
         d="M 430.894 501.702 C 430.894 491.98 426.916 495.073 423.381 501.26 C 419.845 507.447 421.171 509.657 414.984 510.099 C 408.797 510.541 404.377 508.331 404.377 513.192 C 404.377 518.054 405.703 523.799 400.4 525.567 C 395.096 527.335 389.793 524.241 388.909 538.383 C 388.025 552.525 376.977 594.51 374.325 621.026 C 371.674 647.543 369.906 652.846 373.441 658.592 C 376.977 664.337 388.025 678.921 391.119 686.434 C 395.096 657.266 397.748 619.259 401.726 606.884 C 405.703 594.51 428.242 525.567 430.894 501.702 z "
         style="fill:#ffcca6;fill-rule:evenodd;stroke-width:1pt;"
         id="path694" />
      <path
         d="M 362.393 457.066 C 360.183 545.896 354.438 609.536 353.554 638.704 C 352.67 667.872 341.179 719.138 339.854 758.471 C 338.528 797.803 340.737 843.765 336.318 868.072 C 334.329 873.817 333.004 879.562 330.352 884.866 C 328.084 890.308 328.584 896.798 329.689 900.776 C 331.899 910.057 332.341 933.038 333.666 942.319 C 334.992 951.599 342.063 965.3 348.251 963.974 C 354.438 962.648 360.625 948.064 360.183 936.573 C 359.741 925.083 353.554 897.682 356.205 876.469 C 358.857 855.256 371.231 777.916 378.745 749.19 C 386.258 720.463 392.445 687.76 394.213 664.337 C 395.98 640.914 396.864 621.468 404.377 598.929 C 411.89 576.39 429.126 524.241 433.545 488.886 C 437.965 453.53 431.336 425.688 425.59 411.546 C 399.074 428.34 375.651 441.598 362.393 457.066 z "
         style="fill:none;fill-rule:evenodd;stroke:#000000;stroke-width:1pt;"
         id="path699" />
      <path
         d="M 338.086 853.046 C 341.179 858.349 353.112 861.001 358.415 859.233 C 359.299 863.653 358.415 868.514 357.531 871.608 C 349.576 874.259 340.296 868.956 336.76 864.537 C 336.76 856.582 337.202 857.466 338.086 853.046 z "
         style="fill:#ff8a00;fill-rule:evenodd;stroke:#000000;stroke-width:1pt;"
         id="path695" />
      <path
         d="M 332.783 935.689 C 339.412 943.644 343.831 948.948 352.67 943.644 C 361.509 938.341 358.415 937.899 360.625 933.922 C 363.277 947.622 355.322 976.349 348.251 975.907 C 341.18 975.465 331.015 953.809 332.783 935.689 z "
         style="fill:#ff8a00;fill-rule:evenodd;stroke:#000000;stroke-width:1pt;"
         id="path696" />
    </g>
    <g
       transform="translate(21.6272,-8.32759)"
       id="g727">
      <path
         d="M 293.008 403.591 C 279.749 436.737 276.214 464.579 282.843 507.447 C 289.472 550.316 305.382 594.952 310.685 618.817 C 315.989 642.682 320.408 652.846 319.966 671.85 C 319.524 690.853 313.779 735.931 327.479 782.777 C 341.179 829.623 347.809 859.675 348.251 868.956 C 348.692 878.237 347.809 883.098 350.46 891.053 C 353.112 899.008 352.228 929.06 351.344 937.457 C 350.46 945.854 343.389 971.487 342.505 982.535 C 341.621 993.584 346.041 1016.12 354.88 1013.47 C 363.719 1010.82 368.375 1002.86 370.584 995.794 C 372.794 988.722 374.119 976.348 375.004 959.996 C 377.449 943.644 380.178 917.44 377.526 875.456 C 374.874 833.471 372.115 830.507 371.673 791.616 C 371.232 752.725 370.79 716.486 368.138 696.599 C 365.486 676.711 365.486 669.198 366.37 648.427 C 367.254 627.656 367.696 594.51 365.486 556.945 C 363.277 519.38 362.835 475.186 362.835 456.624 C 334.108 423.036 318.64 413.314 293.008 403.591 z "
         style="fill:#ffcca6;fill-rule:evenodd;stroke-width:1pt;"
         id="path689" />
      <path
         d="M 293.008 403.591 C 279.749 436.737 276.214 464.579 282.843 507.447 C 289.472 550.316 305.382 594.952 310.685 618.817 C 313.337 630.75 315.768 639.257 317.48 647.156 C 311.251 602.554 302.502 552.93 301.48 532.165 C 300.764 517.284 302.016 515.752 306.97 518.631 C 311.614 521.512 314.755 519.7 319.956 513.665 C 323.408 509.905 330.352 511.329 335.175 514.926 C 347.135 524.005 350.586 517.605 354.548 513.507 C 358.821 509.097 363.406 502.41 363.02 490.595 C 362.458 472.536 362.835 465.905 362.835 456.624 C 334.108 423.036 318.64 413.314 293.008 403.591 z "
         style="fill:#ffb27f;fill-rule:evenodd;stroke-width:1pt;"
         id="path691" />
      <path
         d="M 319.303 731.014 C 320.408 747.863 320.629 759.354 327.479 782.777 C 341.179 829.623 347.809 859.675 348.251 868.956 C 348.692 878.237 347.809 883.098 350.46 891.053 C 353.112 899.008 352.228 929.06 351.344 937.457 C 350.902 941.656 348.913 950.163 346.924 959.002 C 354.659 947.953 356.928 940.995 359.741 920.221 C 362.244 901.296 363.049 891.399 368.138 885.75 C 373.793 879.914 371.606 849.539 356.647 791.616 C 350.096 766.031 345.264 745.646 342.055 727.762 C 338.846 709.879 337.261 694.498 333.667 691.296 C 327.23 686.003 320.85 717.259 319.303 731.014 z "
         style="fill:#ffb27f;fill-rule:evenodd;stroke-width:1pt;"
         id="path692" />
      <path
         d="M 293.008 403.591 C 279.749 436.737 276.214 464.579 282.843 507.447 C 289.472 550.316 305.382 594.952 310.685 618.817 C 315.989 642.682 320.408 652.846 319.966 671.85 C 319.524 690.853 313.779 735.931 327.479 782.777 C 341.179 829.623 347.809 859.675 348.251 868.956 C 348.692 878.237 347.809 883.098 350.46 891.053 C 353.112 899.008 352.228 929.06 351.344 937.457 C 350.46 945.854 342.764 971.174 341.88 982.222 C 340.996 993.271 346.041 1016.12 354.88 1013.47 C 363.719 1010.82 369.625 1002.23 371.834 995.169 C 374.044 988.096 374.432 976.661 375.316 960.308 C 377.45 941.456 379.865 917.753 377.214 875.768 C 374.561 833.784 372.115 830.507 371.673 791.616 C 371.232 752.725 370.79 716.486 368.138 696.599 C 365.486 676.711 365.486 669.198 366.37 648.427 C 367.254 627.656 367.696 594.51 365.486 556.945 C 363.277 519.38 362.835 475.186 362.835 456.624 C 334.108 423.036 318.64 413.314 293.008 403.591 z "
         style="fill:none;fill-rule:evenodd;stroke:#000000;stroke-width:1pt;"
         id="path705" />
      <path
         d="M 342.322 974.58 C 339.671 990.932 339.854 1004.63 346.041 1017.01 C 352.228 1029.38 357.087 1024.96 361.067 1019.21 C 365.042 1013.91 374.928 1000.23 374.043 979.464 C 367.858 988.745 348.068 994.026 342.322 974.58 z "
         style="fill:#ff8a00;fill-rule:evenodd;stroke:#000000;stroke-width:1pt;"
         id="path697" />
      <path
         d="M 351.786 898.566 C 362.835 902.544 372.223 900.464 378.41 896.927 C 379.294 900.906 379.111 904.807 378.669 907.016 C 371.156 913.203 364.16 914.476 352.228 909.615 C 351.344 905.195 351.786 902.102 351.786 898.566 z "
         style="fill:#ff8a00;fill-rule:evenodd;stroke:#000000;stroke-width:1pt;"
         id="path698" />
    </g>
    <g
       transform="translate(21.6272,-8.32759)"
       id="g684">
      <path
         d="M 308.476 361.164 C 297.869 358.513 285.495 362.49 281.517 362.49 C 277.54 362.49 273.12 361.164 276.214 369.119 C 279.308 377.074 281.075 389.449 281.517 395.636 C 281.959 401.823 299.195 391.217 304.94 385.913 C 310.685 380.61 312.453 366.468 308.476 361.164 z "
         style="fill:#fff254;fill-rule:evenodd;stroke:#000000;stroke-width:1pt;"
         id="path681" />
      <path
         d="M 334.55 349.674 C 319.966 333.764 312.011 328.903 307.592 327.135 C 303.172 325.367 300.521 324.483 300.079 335.09 C 299.637 345.696 294.776 362.048 294.334 366.026 C 293.892 370.003 291.682 374.423 295.217 378.4 C 298.753 382.378 322.618 373.097 326.595 367.794 C 330.573 362.49 337.644 356.745 334.55 349.674 z "
         style="fill:#fff254;fill-rule:evenodd;stroke:#000000;stroke-width:1pt;"
         id="path680" />
      <path
         d="M 424.265 368.677 C 434.871 372.655 440.174 375.749 442.384 377.958 C 444.594 380.168 446.804 380.61 444.152 385.913 C 441.5 391.216 436.197 396.962 431.336 399.613 C 426.474 402.265 424.265 389.449 421.613 382.82 C 418.961 376.19 421.171 370.445 424.265 368.677 z "
         style="fill:#fff254;fill-rule:evenodd;stroke:#000000;stroke-width:1pt;"
         id="path683" />
      <path
         d="M 405.261 352.768 C 418.077 343.045 423.823 338.625 429.568 338.625 C 435.313 338.625 434.429 339.067 433.103 347.022 C 431.778 354.977 430.01 379.284 426.916 387.681 C 423.823 396.078 412.332 386.797 409.239 378.842 C 406.145 370.887 402.168 360.281 405.261 352.768 z "
         style="fill:#fff254;fill-rule:evenodd;stroke:#000000;stroke-width:1pt;"
         id="path682" />
    </g>
    <g
       transform="translate(21.6272,-8.32759)"
       id="g646">
      <g
         id="g642">
        <path
           d="M 412.5 379.549 C 424.063 410.799 433.438 439.549 435 447.362 C 438.75 462.361 439.062 458.612 444.688 454.549 C 449.375 451.737 458.125 439.549 459.063 436.424 C 460 433.299 460.313 430.799 458.125 425.799 C 455.938 420.799 448.125 407.049 441.563 398.924 C 435 390.799 423.125 371.424 419.063 368.299 C 416.875 373.612 415.313 377.362 412.5 379.549 z "
           style="fill:#ff8a00;fill-rule:evenodd;stroke-width:1pt;"
           id="path639" />
        <path
           d="M 412.5 379.862 C 419.063 397.674 427.5 423.924 430.625 433.299 C 433.75 442.674 437.5 432.362 436.25 426.112 C 435 419.862 424.688 392.362 424.688 388.612 C 424.688 384.862 426.563 380.487 427.188 378.612 C 423.438 374.237 421.563 370.799 419.688 368.924 C 417.5 372.362 415.625 377.987 412.5 379.862 z "
           style="fill:#ff7300;fill-rule:evenodd;stroke-width:1pt;"
           id="path640" />
        <path
           d="M 412.5 379.549 C 424.063 410.799 433.438 439.549 435 447.362 C 438.75 462.361 439.062 458.612 444.688 454.549 C 449.375 451.737 458.125 439.549 459.063 436.424 C 460 433.299 460.313 430.799 458.125 425.799 C 455.938 420.799 448.125 407.049 441.563 398.924 C 435 390.799 423.125 371.424 419.063 368.299 C 416.875 373.612 415.313 377.362 412.5 379.549 z "
           style="fill:none;fill-rule:evenodd;stroke:#000000;stroke-width:1pt;"
           id="path641" />
      </g>
      <g
         id="g635">
        <path
           d="M 397.5 397.049 C 401.25 427.987 407.188 463.924 408.125 472.362 C 409.063 480.799 409.063 487.049 410 489.862 C 410.938 492.674 416.563 488.924 418.125 487.362 C 419.688 485.799 433.75 474.549 439.063 472.049 C 444.375 469.549 442.813 465.799 440.938 457.049 C 439.063 448.299 425.938 396.737 415 377.362 C 406.875 388.612 403.125 393.612 397.5 397.049 z "
           style="fill:#ff8a00;fill-rule:evenodd;stroke-width:1pt;"
           id="path632" />
        <path
           d="M 397.5 397.362 C 400.938 423.299 406.875 463.924 408.125 472.049 C 409.375 480.174 409.063 483.612 409.375 486.112 C 409.688 488.612 410 493.299 415.938 488.924 C 421.875 484.549 422.5 473.299 421.25 459.549 C 420 445.799 413.438 418.299 413.438 407.987 C 413.438 397.674 412.5 388.924 412.188 381.737 C 407.5 387.362 401.875 394.862 397.5 397.362 z "
           style="fill:#ff7300;fill-rule:evenodd;stroke-width:1pt;"
           id="path633" />
        <path
           d="M 397.5 397.049 C 401.25 427.987 407.188 463.924 408.125 472.362 C 409.063 480.799 409.063 487.049 410 489.862 C 410.938 492.674 416.563 488.924 418.125 487.362 C 419.688 485.799 433.75 474.549 439.063 472.049 C 444.375 469.549 442.813 465.799 440.938 457.049 C 439.063 448.299 425.938 396.737 415 377.362 C 406.875 388.612 403.125 393.612 397.5 397.049 z "
           style="fill:none;fill-rule:evenodd;stroke:#000000;stroke-width:1pt;"
           id="path634" />
      </g>
      <g
         id="g628">
        <path
           d="M 372.813 409.549 C 369.688 442.987 369.688 461.112 369.375 473.924 C 369.063 486.737 369.063 495.174 369.375 498.612 C 369.688 502.049 368.438 504.237 376.563 502.674 C 384.688 501.112 404.063 498.612 408.75 498.612 C 413.438 498.612 414.375 497.674 414.063 487.987 C 413.75 478.299 403.75 406.737 401.563 393.924 C 390.313 403.299 379.688 407.987 372.813 409.549 z "
           style="fill:#ff8a00;fill-rule:evenodd;stroke-width:1pt;"
           id="path625" />
        <path
           d="M 372.5 409.862 C 370.313 442.987 368.438 493.299 369.375 497.362 C 370.313 501.424 368.125 504.862 375 502.987 C 381.875 501.112 390.625 501.424 390 492.674 C 389.375 483.924 383.438 439.237 385.625 430.799 C 387.813 422.362 390.938 411.424 391.563 401.112 C 382.188 406.424 373.125 410.487 372.5 409.862 z "
           style="fill:#ff7300;fill-rule:evenodd;stroke-width:1pt;"
           id="path626" />
        <path
           d="M 372.813 409.549 C 369.688 442.987 369.688 461.112 369.375 473.924 C 369.063 486.737 369.063 495.174 369.375 498.612 C 369.688 502.049 368.438 504.237 376.563 502.674 C 384.688 501.112 404.063 498.612 408.75 498.612 C 413.438 498.612 414.375 497.674 414.063 487.987 C 413.75 478.299 403.75 406.737 401.563 393.924 C 390.313 403.299 379.688 407.987 372.813 409.549 z "
           style="fill:none;fill-rule:evenodd;stroke:#000000;stroke-width:1pt;"
           id="path627" />
      </g>
      <g
         id="g621">
        <path
           d="M 323.553 354.6 C 302.718 371.349 285.56 384.014 275.347 395.861 C 265.133 407.708 262.274 414.244 260.231 417.513 C 258.188 420.781 257.371 421.598 261.457 425.275 C 265.542 428.951 272.078 433.445 276.981 436.713 C 290.462 405.257 318.242 368.49 326.412 361.136 C 326.004 358.685 325.187 357.868 323.553 354.6 z "
           style="fill:#ff8a00;fill-rule:evenodd;stroke-width:1pt;"
           id="path309" />
        <path
           d="M 323.553 354.6 C 302.718 371.349 285.56 384.014 275.347 395.861 C 265.133 407.708 265.134 409.342 263.091 412.611 C 276.163 410.159 280.248 406.483 289.237 400.763 C 300.267 384.422 318.242 368.49 326.412 361.136 C 326.004 358.685 325.187 357.868 323.553 354.6 z "
           style="fill:#ff7300;fill-rule:evenodd;stroke-width:1pt;"
           id="path310" />
        <path
           d="M 323.553 354.6 C 302.718 371.349 285.56 384.014 275.347 395.861 C 265.133 407.708 262.274 414.244 260.231 417.513 C 258.188 420.781 257.371 421.598 261.457 425.275 C 265.542 428.951 272.078 433.445 276.981 436.713 C 290.462 405.257 318.242 368.49 326.412 361.136 C 326.004 358.685 325.187 357.868 323.553 354.6 z "
           style="fill:none;fill-rule:evenodd;stroke:#000000;stroke-width:1pt;"
           id="path620" />
      </g>
      <g
         id="g616">
        <path
           d="M 323.125 359.549 C 298.75 387.049 286.875 403.612 279.375 417.674 C 271.875 431.737 269.375 440.174 268.125 443.612 C 266.875 447.049 267.5 448.299 270.625 449.862 C 273.75 451.424 290.313 461.737 294.688 467.362 C 300 452.362 322.5 389.549 330.938 370.487 C 326.563 365.799 323.75 363.299 323.125 359.549 z "
           style="fill:#ff8a00;fill-rule:evenodd;stroke-width:1pt;"
           id="path613" />
        <path
           d="M 323.125 360.174 C 299.688 387.987 288.125 397.674 278.75 419.237 C 289.063 407.362 293.75 401.112 296.25 410.799 C 298.75 420.487 309.688 415.487 311.563 417.987 C 320.313 396.424 326.25 381.737 330.938 371.112 C 326.25 366.112 322.813 360.799 323.125 360.174 z "
           style="fill:#ff7300;fill-rule:evenodd;stroke-width:1pt;"
           id="path614" />
        <path
           d="M 323.125 359.549 C 298.75 387.049 286.875 403.612 279.375 417.674 C 271.875 431.737 269.375 440.174 268.125 443.612 C 266.875 447.049 267.5 448.299 270.625 449.862 C 273.75 451.424 290.313 461.737 294.688 467.362 C 300 452.362 322.5 389.549 330.938 370.487 C 326.563 365.799 323.75 363.299 323.125 359.549 z "
           style="fill:none;fill-rule:evenodd;stroke:#000000;stroke-width:1pt;"
           id="path615" />
      </g>
      <g
         id="g320">
        <path
           d="M 325.595 369.715 C 318.65 399.537 314.974 397.903 303.944 426.908 C 292.913 455.914 291.279 464.901 291.279 471.029 C 291.279 477.157 290.054 478.383 293.73 480.017 C 297.407 481.651 312.931 484.511 323.553 484.511 C 328.047 447.335 340.302 406.482 345.613 391.775 C 330.906 378.294 328.864 372.575 325.595 369.715 z "
           style="fill:#ff8a00;fill-rule:evenodd;stroke-width:1pt;"
           id="path317" />
        <path
           d="M 326.004 369.715 C 319.059 395.86 310.071 409.342 306.395 421.189 C 302.718 433.036 295.773 446.927 294.139 456.322 C 301.901 452.237 308.029 433.853 316.199 431.402 C 324.37 428.951 328.455 436.713 330.498 443.25 C 335.4 425.274 342.345 399.946 345.613 392.184 C 337.851 383.605 329.681 375.843 326.004 369.715 z "
           style="fill:#ff7300;fill-rule:evenodd;stroke-width:1pt;"
           id="path318" />
        <path
           d="M 325.595 369.715 C 318.65 399.537 314.974 397.903 303.944 426.908 C 292.913 455.914 291.279 464.901 291.279 471.029 C 291.279 477.157 290.054 478.383 293.73 480.017 C 297.407 481.651 312.931 484.511 323.553 484.511 C 328.047 447.335 340.302 406.482 345.613 391.775 C 330.906 378.294 328.864 372.575 325.595 369.715 z "
           style="fill:none;fill-rule:evenodd;stroke:#000000;stroke-width:1pt;"
           id="path319" />
      </g>
      <g
         id="g324">
        <path
           d="M 341.528 387.69 C 337.034 412.61 328.456 417.513 323.553 446.518 C 318.915 474.343 318.65 486.962 318.65 491.047 C 318.65 495.132 317.425 496.766 321.51 496.766 C 325.595 496.766 330.498 496.766 334.992 496.766 C 341.936 467.761 358.686 414.653 362.771 404.031 C 348.473 393.818 345.205 392.184 341.528 387.69 z "
           style="fill:#ff8a00;fill-rule:evenodd;stroke-width:1pt;"
           id="path314" />
        <path
           d="M 341.528 389.733 C 334.992 416.695 329.252 417.51 324.778 442.841 C 322.961 452.966 321.102 456.322 319.876 469.395 C 332.54 459.591 340.302 442.432 349.698 440.39 C 356.643 419.555 359.095 410.567 362.771 403.214 C 352.967 397.086 346.839 395.043 341.528 389.733 z "
           style="fill:#ff7300;fill-rule:evenodd;stroke-width:1pt;"
           id="path315" />
        <path
           d="M 341.528 387.69 C 337.034 412.61 328.456 417.513 323.553 446.518 C 318.915 474.343 318.65 486.962 318.65 491.047 C 318.65 495.132 317.425 496.766 321.51 496.766 C 325.595 496.766 330.498 496.766 334.992 496.766 C 341.936 467.761 358.686 414.653 362.771 404.031 C 348.473 393.818 345.205 392.184 341.528 387.69 z "
           style="fill:none;fill-rule:evenodd;stroke:#000000;stroke-width:1pt;"
           id="path316" />
      </g>
      <g
         id="g328">
        <path
           d="M 358.686 407.299 L 358.686 407.299 C 351.74 428.543 343.96 443.509 339.894 454.689 C 332.949 472.664 327.638 490.23 327.229 494.724 C 326.821 499.218 323.961 504.937 329.272 505.346 C 334.583 505.754 364.405 506.571 368.491 506.571 C 372.576 506.571 372.576 506.163 372.984 500.443 C 373.393 494.724 374.21 419.964 374.21 410.159 C 366.039 408.934 363.18 409.342 358.686 407.299 z "
           style="fill:#ff8a00;fill-rule:evenodd;stroke-width:1pt;"
           id="path311" />
        <path
           d="M 358.686 407.708 C 355.009 416.696 350.515 428.951 346.839 439.165 C 352.967 435.488 354.192 434.671 361.137 438.756 C 368.082 442.841 371.759 441.207 373.393 439.982 C 374.21 429.36 374.618 415.47 374.618 410.568 C 368.082 409.751 363.588 410.568 358.686 407.708 z "
           style="fill:#ff7300;fill-rule:evenodd;stroke-width:1pt;"
           id="path312" />
        <path
           d="M 358.686 407.299 L 358.686 407.299 C 351.74 428.543 343.96 443.509 339.894 454.689 C 332.949 472.664 327.638 490.23 327.229 494.724 C 326.821 499.218 323.961 504.937 329.272 505.346 C 334.583 505.754 364.405 506.571 368.491 506.571 C 372.576 506.571 372.576 506.163 372.984 500.443 C 373.393 494.724 374.21 419.964 374.21 410.159 C 366.039 408.934 363.18 409.342 358.686 407.299 z "
           style="fill:none;fill-rule:evenodd;stroke:#000000;stroke-width:1pt;"
           id="path313" />
      </g>
    </g>
    <g
       transform="translate(21.6272,-8.32759)"
       id="g300">
      <path
         d="M 309.663 288.01 C 310.888 309.253 319.876 316.607 324.37 323.96 C 328.863 331.314 329.681 333.356 332.132 337.033 C 329.272 339.076 328.046 343.569 328.455 346.021 C 323.144 346.838 317.016 351.331 318.65 361.136 C 320.284 370.941 326.412 380.745 342.753 397.086 C 359.094 413.427 370.125 426.909 371.759 430.177 C 373.393 433.445 375.027 432.22 376.661 430.585 C 378.295 428.951 386.466 421.189 387.691 418.738 C 388.917 416.287 398.313 405.665 405.258 398.312 C 412.203 390.958 418.331 386.465 420.782 373.8 C 423.233 361.136 419.556 358.276 416.697 353.374 C 417.105 340.301 418.739 321.918 425.276 306.802 C 431.812 291.687 429.769 292.095 426.093 273.711 C 388.917 256.145 361.954 255.736 323.961 272.894 C 312.522 279.431 310.071 288.418 309.663 288.01 z "
         style="fill:#ffffff;fill-rule:evenodd;stroke-width:1pt;"
         id="path292" />
      <path
         d="M 328.455 346.021 C 335.808 352.966 341.528 353.374 346.022 355.008 C 338.26 344.386 336.217 341.118 334.583 336.624 C 332.949 332.131 333.766 319.875 334.174 317.015 C 334.583 314.156 334.991 312.521 338.668 314.156 C 342.345 315.79 351.741 319.058 355.826 319.466 C 359.911 319.875 364.405 321.509 373.801 314.156 C 383.197 306.802 385.649 307.211 391.368 311.296 C 397.087 315.381 400.764 319.875 403.624 321.509 C 406.483 323.143 410.569 321.509 413.837 317.832 C 417.105 314.156 420.782 310.887 424.05 304.351 C 427.318 297.815 428.135 283.925 426.501 279.022 C 399.538 267.584 389.734 251.651 327.229 274.937 C 314.565 283.108 311.705 286.784 309.663 288.418 C 310.888 299.449 312.931 307.211 319.467 317.424 C 326.004 327.637 330.089 332.131 332.132 337.033 C 329.272 340.301 328.863 343.161 328.455 346.021 z "
         style="fill:#bdbdda;fill-rule:evenodd;stroke-width:1pt;"
         id="path293" />
      <path
         d="M 341.528 394.635 C 357.052 402.806 357.869 404.44 360.32 406.482 C 362.771 408.525 366.039 406.482 366.448 404.031 C 370.533 404.848 370.533 407.708 377.478 401.989 C 384.423 396.269 397.087 386.873 402.807 384.013 C 400.764 390.958 396.679 397.903 395.453 400.355 C 394.636 401.58 396.679 401.172 398.721 399.537 C 400.764 397.903 406.075 394.227 410.977 391.775 C 399.538 404.031 391.368 414.653 387.691 418.738 C 384.015 422.823 377.887 429.768 376.253 430.994 C 374.618 432.22 374.618 434.262 371.759 430.177 C 368.899 426.092 357.869 413.019 352.967 408.117 C 348.064 403.214 341.528 395.044 341.528 394.635 z "
         style="fill:#bdbdda;fill-rule:evenodd;stroke-width:1pt;"
         id="path294" />
      <path
         d="M 333.766 338.667 C 339.894 347.655 343.57 351.74 348.064 356.234 "
         style="fill:none;fill-rule:evenodd;stroke:#000000;stroke-width:1pt;"
         id="path295" />
      <path
         d="M 329.272 346.838 C 332.54 357.051 337.443 363.996 344.796 372.575 C 348.086 376.231 351.684 380.047 357.869 389.324 C 363.18 397.903 371.35 410.976 372.984 416.696 C 374.618 422.415 375.844 422.007 379.521 416.287 C 383.197 410.568 394.534 392.527 404.849 380.745 C 413.16 370.86 416.288 366.038 416.697 354.191 "
         style="fill:none;fill-rule:evenodd;stroke:#000000;stroke-width:1pt;"
         id="path296" />
      <path
         d="M 343.162 298.223 C 362.771 297.815 367.265 292.095 375.027 284.333 C 382.789 276.571 381.972 280.248 386.874 284.333 C 391.777 288.418 395.862 292.095 409.752 294.138 "
         style="fill:none;fill-rule:evenodd;stroke:#000000;stroke-width:1pt;"
         id="path297" />
      <path
         d="M 358.277 279.839 C 371.35 279.839 369.716 280.656 379.112 272.894 "
         style="fill:none;fill-rule:evenodd;stroke:#000000;stroke-width:1pt;"
         id="path298" />
      <path
         d="M 309.663 288.01 C 310.888 309.253 319.876 316.607 324.37 323.96 C 328.863 331.314 329.681 333.356 332.132 337.033 C 329.272 339.076 328.046 343.569 328.455 346.021 C 323.144 346.838 317.016 351.331 318.65 361.136 C 320.284 370.941 326.412 380.745 342.753 397.086 C 359.094 413.427 370.125 426.909 371.759 430.177 C 373.393 433.445 375.027 432.22 376.661 430.585 C 378.295 428.951 386.466 421.189 387.691 418.738 C 388.917 416.287 398.313 405.665 405.258 398.312 C 412.203 390.958 418.331 386.465 420.782 373.8 C 423.233 361.136 419.556 358.276 416.697 353.374 C 417.105 340.301 418.739 321.918 425.276 306.802 C 431.812 291.687 429.769 292.095 426.093 273.711 C 388.917 256.145 361.954 255.736 323.961 272.894 C 312.522 279.431 310.071 288.418 309.663 288.01 z "
         style="fill:none;fill-rule:evenodd;stroke:#000000;stroke-width:1pt;"
         id="path299" />
    </g>
    <g
       transform="translate(21.6272,-8.32759)"
       id="g287">
      <path
         d="M 353.783 192.415 C 353.783 198.135 353.783 200.994 353.783 202.22 C 351.025 206.203 339.532 211.606 341.757 216.142 C 348.617 229.295 364.609 256.395 379.52 256.809 C 395.65 257.27 396.635 224.383 399.615 216.052 C 401.441 210.536 396.985 214.884 387.691 203.854 C 387.691 197.726 386.874 194.458 386.874 190.373 C 375.435 197.726 374.21 202.628 353.783 192.415 z "
         style="fill:#ffb27f;fill-rule:evenodd;stroke-width:1pt;"
         id="path132" />
      <path
         d="M 354.192 214.884 C 368.082 224.28 368.899 217.336 377.478 228.774 "
         style="fill:none;fill-rule:evenodd;stroke:#000000;stroke-width:1pt;"
         id="path284" />
      <path
         d="M 386.057 250.835 C 381.972 238.17 369.307 225.915 366.448 224.689 C 363.588 223.463 364.814 221.829 367.673 223.055 C 370.533 224.28 377.069 229.183 379.929 231.634 C 375.027 223.055 368.899 219.378 371.758 217.335 C 374.618 215.293 382.38 214.884 386.057 218.97 C 389.734 223.055 391.368 232.451 392.185 237.762 C 393.002 243.073 386.465 252.06 386.057 250.835 z "
         style="fill:#ffcca6;fill-rule:evenodd;stroke-width:1pt;"
         id="path285" />
      <path
         d="M 353.783 192.415 C 353.783 198.135 353.783 200.994 353.783 202.22 C 351.025 206.203 339.532 211.606 341.757 216.142 C 348.617 229.295 364.609 256.395 379.52 256.809 C 395.65 257.27 396.635 224.383 399.615 216.052 C 401.441 210.536 396.985 214.884 387.691 203.854 C 387.691 197.726 386.874 194.458 386.874 190.373 C 375.435 197.726 374.21 202.628 353.783 192.415 z "
         style="fill:none;fill-rule:evenodd;stroke:#000000;stroke-width:1pt;"
         id="path286" />
    </g>
    <g
       transform="translate(21.6272,-8.32759)"
       id="g266">
      <path
         d="M 426.501 211.616 C 435.897 210.391 437.531 210.799 440.391 213.25 C 444.068 213.25 450.604 214.884 451.012 227.14 C 447.744 224.689 446.519 223.055 445.293 221.421 C 437.531 225.097 428.135 230.817 423.233 242.664 C 417.105 240.213 415.062 239.396 412.203 233.268 C 419.147 220.195 423.233 214.476 426.501 211.616 z "
         style="fill:#ffffff;fill-rule:evenodd;stroke-width:1pt;"
         id="path262" />
      <path
         d="M 426.501 211.616 C 429.769 210.799 431.812 210.39 433.446 210.39 C 432.63 214.884 431.812 215.701 434.67 217.335 C 430.994 225.915 428.135 228.366 433.037 229.183 C 428.543 232.45 426.909 235.311 423.233 242.664 C 417.105 240.213 415.062 239.396 412.203 233.268 C 419.147 220.195 423.233 214.476 426.501 211.616 z "
         style="fill:#bdbdda;fill-rule:evenodd;stroke-width:1pt;"
         id="path263" />
      <path
         d="M 424.05 230 C 431.404 221.012 434.263 216.519 439.983 212.841 "
         style="fill:none;fill-rule:evenodd;stroke:#000000;stroke-width:1pt;"
         id="path264" />
      <path
         d="M 426.501 211.616 C 435.897 210.391 437.531 210.799 440.391 213.25 C 444.068 213.25 450.604 214.884 451.012 227.14 C 447.744 224.689 446.519 223.055 445.293 221.421 C 437.531 225.097 428.135 230.817 423.233 242.664 C 417.105 240.213 415.062 239.396 412.203 233.268 C 419.147 220.195 423.233 214.476 426.501 211.616 z "
         style="fill:none;fill-rule:evenodd;stroke:#000000;stroke-width:1pt;"
         id="path265" />
    </g>
    <g
       transform="translate(21.6272,-8.32759)"
       id="g285">
      <path
         d="M 388.508 203.037 C 399.13 205.08 397.904 208.348 400.764 209.982 C 403.624 211.616 423.641 210.39 430.586 210.39 C 430.178 225.097 424.867 233.268 413.837 237.353 C 402.806 241.438 393.002 248.792 385.648 261.456 C 380.338 259.414 375.027 259.822 370.533 261.865 C 355.009 240.621 315.79 204.671 309.663 200.586 C 336.625 202.22 345.204 199.769 352.966 196.909 C 353.375 198.952 353.783 199.36 353.783 201.811 C 352.636 202.579 352.228 203.833 350.784 206.285 C 349.739 208.502 350.107 214.476 355.417 218.97 C 360.728 223.463 372.984 223.463 380.746 258.597 C 385.24 241.438 387.691 232.042 390.142 228.366 C 392.593 224.689 394.227 218.153 389.734 209.982 C 388.917 207.531 388.917 206.714 388.508 203.037 z "
         style="fill:#ff7300;fill-rule:evenodd;stroke-width:1pt;"
         id="path134" />
      <path
         d="M 400.764 209.982 C 403.624 211.616 423.641 210.39 430.586 210.39 C 430.178 225.097 424.867 233.268 413.837 237.353 C 402.806 241.438 393.002 248.792 385.648 261.456 C 385.24 245.116 386.057 241.03 388.508 237.354 C 394.227 221.421 404.849 228.774 400.764 209.982 z "
         style="fill:#ff8a00;fill-rule:evenodd;stroke-width:1pt;"
         id="path241" />
      <path
         d="M 426.501 210.39 C 424.458 223.464 420.782 228.774 415.062 238.17 "
         style="fill:none;fill-rule:evenodd;stroke:#ffffff;stroke-width:2.875;"
         id="path243" />
      <path
         d="M 421.19 211.208 C 419.147 222.238 413.019 233.268 406.891 241.847 "
         style="fill:none;fill-rule:evenodd;stroke:#ffffff;stroke-width:2.875;"
         id="path244" />
      <path
         d="M 388.508 203.037 C 399.13 205.08 397.904 208.348 400.764 209.982 C 403.624 211.616 423.641 210.39 430.586 210.39 C 430.178 225.097 424.867 233.268 413.837 237.353 C 402.806 241.438 393.002 248.792 385.648 261.456 C 380.338 259.414 375.027 259.822 370.533 261.865 C 355.009 240.621 315.79 204.671 309.663 200.586 C 336.625 202.22 345.204 199.769 352.966 196.909 C 353.375 198.952 353.783 199.36 353.783 201.811 C 352.347 203.157 352.485 204.273 350.784 207.441 C 349.81 209.625 350.107 214.476 355.417 218.97 C 360.728 223.463 372.984 223.463 380.746 258.597 C 385.24 241.438 387.691 232.042 390.142 228.366 C 392.593 224.689 394.227 218.153 389.734 209.982 C 388.917 207.531 388.917 206.714 388.508 203.037 z "
         style="fill:none;fill-rule:evenodd;stroke:#000000;stroke-width:1pt;"
         id="path245" />
      <path
         d="M 352.966 201.402 C 351.96 202.897 351.193 203.835 350.594 206.116 C 360.808 214.695 381.563 214.067 390.142 209.982 C 390.889 208.109 389.325 205.079 388.1 204.671 C 373.801 208.348 360.728 207.122 352.966 201.402 z "
         style="fill:#ff7300;fill-rule:evenodd;stroke:#000000;stroke-width:1pt;"
         id="path133" />
    </g>
    <g
       transform="translate(21.6272,-8.32759)"
       id="g258">
      <path
         d="M 424.049 240.622 C 430.177 230.409 438.348 223.463 444.476 221.421 C 453.872 230.408 466.945 242.256 472.256 247.975 C 454.281 254.511 439.165 254.511 432.629 253.286 C 426.092 245.932 426.501 245.933 424.049 240.622 z "
         style="fill:#ffcca6;fill-rule:evenodd;stroke-width:1pt;"
         id="path255" />
      <path
         d="M 424.049 240.622 C 425.683 237.763 428.135 234.902 430.995 231.226 C 440.391 240.213 449.787 247.567 457.549 252.06 C 444.476 254.103 439.165 254.511 432.629 253.286 C 426.092 245.932 426.501 245.933 424.049 240.622 z "
         style="fill:#ffb27f;fill-rule:evenodd;stroke-width:1pt;"
         id="path256" />
      <path
         d="M 424.049 240.622 C 430.177 230.409 438.348 223.463 444.476 221.421 C 453.872 230.408 466.945 242.256 472.256 247.975 C 454.281 254.511 439.165 254.511 432.629 253.286 C 426.092 245.932 426.501 245.933 424.049 240.622 z "
         style="fill:none;fill-rule:evenodd;stroke:#000000;stroke-width:1pt;"
         id="path257" />
    </g>
    <g
       transform="translate(21.6272,-8.32759)"
       id="g151">
      <path
         d="M 386.465 252.06 C 405.666 240.621 414.654 235.311 430.178 233.268 C 427.318 254.103 430.995 275.346 435.489 291.279 C 424.458 299.858 414.654 308.028 408.117 315.382 C 401.581 296.589 391.368 276.572 379.929 265.95 C 376.252 265.95 375.027 265.95 372.167 265.95 C 358.686 287.193 344.796 303.943 337.851 311.705 C 322.735 302.717 321.918 299.858 313.339 278.206 C 304.76 256.554 323.144 227.14 328.046 222.238 C 345.205 242.664 348.064 256.146 372.167 259.005 C 379.112 254.511 386.465 252.06 386.465 252.06 z "
         style="fill:#3836b5;fill-rule:evenodd;stroke-width:1pt;"
         id="path147" />
      <path
         d="M 386.057 272.895 C 399.13 291.687 401.172 297.407 402.806 300.675 C 408.117 299.449 415.062 294.955 413.837 300.266 C 412.611 305.577 411.385 307.62 411.385 311.705 C 422.824 301.9 430.995 294.138 435.08 291.687 C 431.812 277.389 428.544 252.06 428.952 245.932 C 398.721 249.2 393.002 252.469 385.24 255.328 C 377.478 258.188 372.576 259.414 366.039 259.414 C 359.503 259.414 344.387 263.907 328.046 254.103 C 328.455 266.767 332.54 272.486 336.217 275.755 C 339.893 279.023 347.247 287.193 347.655 298.632 C 357.869 287.193 366.039 278.206 371.758 266.359 C 375.435 265.95 375.844 265.95 379.929 265.95 C 383.197 269.218 384.423 271.669 386.057 272.895 z "
         style="fill:#20003a;fill-rule:evenodd;stroke-width:1pt;"
         id="path148" />
      <path
         d="M 386.465 252.06 C 405.666 240.621 414.654 235.311 430.178 233.268 C 427.318 254.103 430.995 275.346 435.489 291.279 C 424.458 299.858 414.654 308.028 408.117 315.382 C 401.581 296.589 391.368 276.572 379.929 265.95 C 376.252 265.95 375.027 265.95 372.167 265.95 C 358.686 287.193 344.796 303.943 337.851 311.705 C 322.735 302.717 321.918 299.858 313.339 278.206 C 304.76 256.554 323.144 227.14 328.046 222.238 C 345.205 242.664 348.064 256.146 372.167 259.005 C 379.112 254.511 386.465 252.06 386.465 252.06 z "
         style="fill:none;fill-rule:evenodd;stroke:#000000;stroke-width:1pt;"
         id="path150" />
      <path
         d="M 380.338 245.932 C 391.776 246.341 391.776 253.286 391.776 258.597 C 391.776 263.907 389.734 274.938 380.746 275.346 C 371.758 275.755 368.899 268.401 368.899 261.456 C 368.899 254.511 369.307 246.341 380.338 245.932 z "
         style="fill:#e2c62c;fill-rule:evenodd;stroke:#725b33;stroke-width:1pt;"
         id="path145" />
      <path
         d="M 374.21 268.401 C 378.295 272.078 385.24 273.712 387.691 265.95 C 390.142 258.188 382.38 250.017 379.112 250.017 C 370.942 252.877 372.576 262.273 374.21 268.401 z "
         style="fill:#f7ff95;fill-opacity:0.886275;fill-rule:evenodd;stroke-width:1pt;"
         id="path146" />
    </g>
    <g
       transform="translate(21.6272,-8.32759)"
       id="g237">
      <path
         d="M 290.871 263.09 C 276.163 249.609 287.602 227.14 295.364 221.012 C 301.083 217.335 309.254 216.519 317.016 218.97 C 322.327 224.28 326.821 230.408 326.004 236.945 C 310.48 236.536 297.816 253.286 290.871 263.09 z "
         style="fill:#ff7300;fill-rule:evenodd;stroke:#000000;stroke-width:1pt;"
         id="path227" />
      <path
         d="M 286.377 254.919 C 286.785 236.944 291.687 230.817 296.998 225.915 "
         style="fill:none;fill-rule:evenodd;stroke:#000000;stroke-width:1pt;"
         id="path228" />
      <path
         d="M 307.62 221.829 C 314.565 221.012 319.876 225.097 322.735 229.591 "
         style="fill:none;fill-rule:evenodd;stroke:#000000;stroke-width:1pt;"
         id="path229" />
    </g>
    <g
       transform="translate(21.6272,-8.32759)"
       id="g216">
      <path
         d="M 304.352 283.517 C 293.322 278.614 288.828 270.852 288.419 257.371 C 290.462 239.396 302.718 227.549 312.522 227.549 C 322.327 227.549 326.821 232.042 328.455 243.073 C 317.016 250.426 307.62 272.486 304.352 283.517 z "
         style="fill:#ffffff;fill-rule:evenodd;stroke-width:1pt;"
         id="path206" />
      <path
         d="M 303.943 283.108 C 289.236 272.895 290.053 271.669 288.419 259.822 C 288.828 251.652 290.462 246.341 292.913 242.256 C 299.041 251.243 306.803 257.78 312.931 260.639 C 308.846 270.444 306.394 277.389 303.943 283.108 z "
         style="fill:#bdbdda;fill-rule:evenodd;stroke-width:1pt;"
         id="path207" />
      <path
         d="M 304.352 283.517 C 293.322 278.614 288.828 270.852 288.419 257.371 C 290.462 238.987 302.718 227.549 312.522 227.549 C 322.327 227.549 326.821 232.042 328.455 243.073 C 317.016 250.426 307.62 272.486 304.352 283.517 z "
         style="fill:none;fill-rule:evenodd;stroke:#000000;stroke-width:1pt;"
         id="path208" />
    </g>
    <g
       transform="translate(21.6272,-8.32759)"
       id="g198">
      <path
         d="M 299.041 270.035 C 299.041 265.133 301.084 261.456 303.943 260.639 C 306.803 259.822 308.437 259.005 308.846 254.92 C 309.254 250.835 311.297 246.341 315.382 245.524 C 319.467 244.707 319.059 243.481 321.101 242.256 C 320.284 236.945 318.65 226.731 319.876 222.238 C 321.101 217.744 327.638 214.884 329.68 220.195 C 331.723 225.506 331.314 238.987 332.54 242.664 C 333.766 246.341 338.259 258.188 346.838 262.682 C 355.417 267.176 368.082 273.712 369.716 275.346 C 371.35 276.98 373.393 281.066 369.716 282.7 C 366.039 284.334 355.417 283.517 348.881 277.389 C 342.345 271.261 340.71 270.852 340.302 273.303 C 339.893 275.755 339.485 280.657 331.723 283.108 C 334.583 289.645 335.808 296.181 335.4 298.632 C 334.991 301.083 331.723 299.858 329.68 298.224 C 327.638 296.589 326.821 293.73 326.004 292.504 C 323.961 296.181 319.876 294.955 318.242 292.913 C 317.016 295.772 315.382 299.449 310.888 295.364 C 306.394 291.279 299.858 284.334 297.815 282.291 C 295.773 280.248 294.956 276.163 297.407 275.346 C 299.858 274.529 299.041 272.895 299.041 270.035 z "
         style="fill:#ffffff;fill-rule:evenodd;stroke-width:1pt;"
         id="path185" />
      <path
         d="M 305.986 290.053 L 305.986 290.053 C 311.297 292.096 316.607 296.59 311.705 284.742 C 318.242 286.785 323.144 294.138 319.059 275.346 C 323.961 280.657 328.046 270.852 328.046 256.554 C 328.046 242.256 323.144 247.566 321.101 242.664 C 321.51 240.213 321.51 239.396 321.101 236.945 C 325.187 240.213 330.906 243.073 331.314 236.945 C 337.034 260.231 340.71 257.78 344.796 260.639 C 339.076 262.682 338.668 266.767 361.137 281.883 C 347.655 279.84 351.741 277.389 344.387 273.303 C 340.711 271.261 341.119 270.852 340.711 274.121 C 340.302 277.389 335.4 281.883 332.54 283.108 C 333.766 288.01 336.625 292.504 335.4 296.589 C 334.174 300.675 332.949 300.675 329.68 297.815 C 326.412 294.955 329.68 295.364 326.821 292.504 C 324.369 294.955 319.467 293.73 318.242 292.913 C 317.016 295.364 315.382 298.632 311.297 295.364 C 307.211 292.096 308.845 293.321 305.986 290.053 z "
         style="fill:#bdbdda;fill-rule:evenodd;stroke-width:1pt;"
         id="path196" />
      <path
         d="M 299.041 270.035 C 299.041 265.133 301.084 261.456 303.943 260.639 C 306.803 259.822 308.437 259.005 308.846 254.92 C 309.254 250.835 311.297 246.341 315.382 245.524 C 319.467 244.707 319.059 243.481 321.101 242.256 C 320.284 236.945 318.65 226.731 319.876 222.238 C 321.101 217.744 327.638 214.884 329.68 220.195 C 331.723 225.506 331.314 238.987 332.54 242.664 C 333.766 246.341 338.259 258.188 346.838 262.682 C 355.417 267.176 368.082 273.712 369.716 275.346 C 371.35 276.98 373.393 281.066 369.716 282.7 C 366.039 284.334 355.417 283.517 348.881 277.389 C 342.345 271.261 340.71 270.852 340.302 273.303 C 339.893 275.755 339.485 280.657 331.723 283.108 C 334.583 289.645 335.808 296.181 335.4 298.632 C 334.991 301.083 331.723 299.858 329.68 298.224 C 327.638 296.589 326.821 293.73 326.004 292.504 C 323.961 296.181 319.876 294.955 318.242 292.913 C 317.016 295.772 315.382 299.449 310.888 295.364 C 306.394 291.279 299.858 284.334 297.815 282.291 C 295.773 280.248 294.956 276.163 297.407 275.346 C 299.858 274.529 299.041 272.895 299.041 270.035 z "
         style="fill:none;fill-rule:evenodd;stroke:#000000;stroke-width:1pt;"
         id="path197" />
      <path
         d="M 318.65 292.096 C 311.705 285.151 308.028 279.84 304.76 274.529 "
         style="fill:none;fill-rule:evenodd;stroke:#000000;stroke-width:1pt;"
         id="path186" />
      <path
         d="M 326.004 291.279 C 319.467 279.431 317.016 270.444 314.973 262.273 "
         style="fill:none;fill-rule:evenodd;stroke:#000000;stroke-width:1pt;"
         id="path187" />
      <path
         d="M 331.723 283.108 C 328.863 272.078 330.906 266.359 330.089 258.188 "
         style="fill:none;fill-rule:evenodd;stroke:#000000;stroke-width:1pt;"
         id="path188" />
      <path
         d="M 321.918 242.256 C 323.961 242.664 324.369 243.073 325.595 243.89 "
         style="fill:none;fill-rule:evenodd;stroke:#000000;stroke-width:1pt;"
         id="path195" />
    </g>
    <g
       transform="translate(21.6272,-8.32759)"
       id="g224">
      <path
         d="M 448.97 250.835 C 451.83 243.89 456.732 242.256 466.945 243.481 C 477.158 244.707 492.274 254.103 496.767 266.767 C 501.261 279.431 495.133 288.827 485.737 292.913 C 476.341 296.998 467.354 295.772 460.817 290.053 C 454.281 284.334 448.561 253.694 448.97 250.835 z "
         style="fill:#ff7300;fill-rule:evenodd;stroke:#000000;stroke-width:1pt;"
         id="path222" />
      <path
         d="M 484.103 266.359 C 477.764 257.104 472.665 254.92 457.957 245.932 C 469.805 242.256 488.189 254.103 492.682 266.767 C 497.176 279.431 493.907 286.376 484.511 290.462 C 490.639 275.755 489.543 273.951 484.103 266.359 z "
         style="fill:#ff8a00;fill-rule:evenodd;stroke-width:1pt;"
         id="path223" />
    </g>
    <g
       transform="translate(21.6272,-8.32759)"
       id="g278">
      <path
         d="M 309.254 201.403 C 303.098 195.303 291.687 194.867 283.517 205.08 C 275.346 215.293 275.755 221.012 275.346 227.14 C 274.121 233.676 274.121 242.664 278.615 247.566 C 279.84 249.609 280.249 251.652 283.517 251.652 C 283.925 234.085 290.053 225.098 295.364 221.012 C 300.675 216.927 312.931 215.293 319.876 221.829 C 322.735 217.744 322.697 213.83 309.254 201.403 z "
         style="fill:#ffffff;fill-rule:evenodd;stroke-width:1pt;"
         id="path271" />
      <path
         d="M 294.139 220.604 C 301.492 214.067 304.76 213.659 308.437 213.659 C 312.114 213.659 316.199 214.884 319.059 215.701 C 321.101 218.153 321.51 219.378 320.693 221.421 C 316.607 219.787 313.748 214.067 294.139 220.604 z M 281.883 213.659 C 279.404 215.321 279.023 216.111 283.517 205.08 C 277.389 214.476 275.755 216.518 275.346 227.14 C 274.121 233.676 274.121 242.664 278.615 247.566 C 279.84 249.609 280.249 251.652 283.517 251.652 C 283.925 237.353 288.419 231.634 290.053 225.506 C 285.968 231.634 283.109 232.042 282.7 225.914 C 278.206 230.408 277.385 227.05 281.883 213.659 z "
         style="fill:#bdbdda;fill-rule:evenodd;stroke-width:1pt;"
         id="path276" />
      <path
         d="M 276.981 223.872 C 279.023 214.475 285.56 207.122 292.505 204.263 "
         style="fill:none;fill-rule:evenodd;stroke:#000000;stroke-width:1pt;"
         id="path272" />
      <path
         d="M 278.615 247.566 C 277.389 230.409 287.194 212.842 296.998 209.982 "
         style="fill:none;fill-rule:evenodd;stroke:#000000;stroke-width:1pt;"
         id="path273" />
      <path
         d="M 309.254 201.403 C 303.098 195.303 291.687 194.867 283.517 205.08 C 275.346 215.293 275.755 221.012 275.346 227.14 C 274.121 233.676 274.121 242.664 278.615 247.566 C 279.84 249.609 280.249 251.652 283.517 251.652 C 283.925 234.085 290.053 225.098 295.364 221.012 C 300.675 216.927 312.931 215.293 319.876 221.829 C 322.735 217.744 322.697 213.83 309.254 201.403 z "
         style="fill:none;fill-rule:evenodd;stroke:#000000;stroke-width:1pt;"
         id="path277" />
    </g>
    <g
       transform="translate(21.6272,-8.32759)"
       id="g145">
      <path
         d="M 302.309 198.543 C 305.169 193.641 319.876 207.531 324.778 213.659 C 328.863 212.433 327.229 212.842 330.497 212.433 C 327.229 206.305 325.187 203.854 317.425 198.135 C 309.663 192.415 300.266 187.922 301.901 182.611 C 302.309 180.568 302.309 180.568 302.718 178.934 C 298.224 175.257 297.407 174.44 298.224 172.398 C 299.041 170.355 299.449 171.172 300.675 169.538 C 299.858 166.678 300.266 164.227 304.352 165.044 C 309.662 169.946 312.522 174.849 317.425 180.568 C 323.961 184.653 328.07 190.75 333.766 195.275 C 337.541 198.003 339.893 202.628 345.613 209.573 C 351.332 216.518 353.375 221.829 356.235 226.323 C 359.094 230.817 363.997 237.762 367.265 238.17 C 370.533 238.579 378.703 238.987 384.423 241.03 C 390.142 243.073 421.599 249.2 441.616 249.2 C 461.634 249.2 460.409 249.2 462.86 249.2 C 476.75 258.597 487.371 263.499 486.146 274.938 C 484.92 286.376 480.835 290.053 472.664 292.913 C 447.336 291.279 403.215 272.895 390.551 267.993 C 377.886 263.09 376.661 262.273 364.405 259.005 C 352.149 255.737 344.796 247.158 337.851 237.353 C 330.906 227.549 320.284 220.195 313.339 213.659 C 306.394 207.122 301.492 204.263 302.309 198.543 z "
         style="fill:#ffffff;fill-rule:evenodd;stroke-width:1pt;"
         id="path135" />
      <path
         d="M 330.497 212.433 C 338.06 222.36 345.475 231.138 346.43 237.762 C 347.303 244.187 349.698 248.792 355.417 252.878 C 361.137 256.963 376.252 259.005 387.282 262.682 C 398.313 266.359 429.361 270.444 435.897 271.261 C 442.433 272.078 467.353 272.078 486.146 274.121 C 484.921 283.108 482.06 288.827 473.073 293.321 C 431.403 284.334 405.258 273.303 382.38 265.541 C 359.503 257.779 354.6 256.554 348.473 250.018 C 342.345 243.481 334.174 232.042 329.68 228.365 C 328.863 221.83 326.412 218.969 325.186 213.25 C 327.229 212.433 328.967 213.278 330.497 212.433 z "
         style="fill:#bdbdda;fill-rule:evenodd;stroke-width:0.125;"
         id="path141" />
      <path
         d="M 302.718 180.16 L 302.718 178.526 C 316.199 187.105 328.046 195.684 335.4 200.994 "
         style="fill:none;fill-rule:evenodd;stroke:#000000;stroke-width:1pt;"
         id="path136" />
      <path
         d="M 300.266 169.537 C 307.619 172.805 314.973 178.934 319.467 181.794 "
         style="fill:none;fill-rule:evenodd;stroke:#000000;stroke-width:1pt;"
         id="path137" />
      <path
         d="M 330.906 213.25 C 332.948 217.744 336.625 223.055 337.851 231.634 "
         style="fill:none;fill-rule:evenodd;stroke:#000000;stroke-width:1pt;"
         id="path139" />
      <path
         d="M 325.595 214.067 C 326.821 216.11 326.412 218.152 326.412 218.561 "
         style="fill:none;fill-rule:evenodd;stroke:#000000;stroke-width:1pt;"
         id="path140" />
      <path
         d="M 302.309 198.543 C 305.169 193.641 317.425 207.531 324.778 212.842 C 328.863 211.616 327.229 212.842 330.497 212.433 C 327.229 206.305 325.187 203.854 317.425 198.135 C 309.663 192.415 300.266 187.922 301.901 182.611 C 302.309 180.568 302.309 180.568 302.718 178.934 C 298.224 175.257 297.407 174.44 298.224 172.398 C 299.041 170.355 299.449 171.172 300.675 169.538 C 299.858 166.678 300.266 164.227 304.352 165.044 C 309.662 169.946 312.522 174.849 317.425 180.568 C 323.961 184.653 328.07 190.75 333.766 195.275 C 337.541 198.003 339.893 202.628 345.613 209.573 C 351.332 216.518 353.375 221.829 356.235 226.323 C 359.094 230.817 363.997 237.762 367.265 238.17 C 370.533 238.579 378.703 238.987 384.423 241.03 C 390.142 243.073 421.599 249.2 441.616 249.2 C 461.634 249.2 460.409 249.2 462.86 249.2 C 476.75 258.597 487.371 263.499 486.146 274.938 C 484.92 286.376 480.835 290.053 472.664 292.913 C 447.336 291.279 403.215 272.895 390.551 267.993 C 377.886 263.09 376.661 262.273 364.405 259.005 C 352.149 255.737 344.796 247.158 337.851 237.353 C 330.906 227.549 320.284 220.195 313.339 213.659 C 306.394 207.122 301.492 204.263 302.309 198.543 z "
         style="fill:none;fill-rule:evenodd;stroke:#000000;stroke-width:1pt;"
         id="path144" />
    </g>
    <path
       d="M 326.402 168.704 C 330.446 168.848 333.527 168.803 335.256 169.233 C 336.836 169.409 336.763 172.154 334.201 177.371 C 330.451 185.461 325.358 185.705 320.913 177.948 C 318.505 173.588 317.421 169.975 318.493 169.405 C 319.695 168.523 321.924 168.704 326.402 168.704 z "
       transform="translate(64.1139,-8.32754)"
       style="fill:#e3503a;fill-rule:evenodd;stroke:#000000;stroke-width:1pt;"
       id="path767" />
    <path
       d="M 322.935 160.905 C 323.224 158.305 324.669 156.861 326.113 156.861 C 327.557 156.861 327.846 160.327 327.846 161.483 C 327.846 162.638 324.38 162.638 322.935 160.905 z "
       transform="matrix(1.18747,0,0,1.81997,2.35581,-140.172)"
       style="fill:#ffb27f;fill-rule:evenodd;stroke-width:1pt;"
       id="path768" />
    <path
       d="M 337.034 140.327 C 341.913 125.482 351.741 126.233 356.643 130.522 C 361.546 134.812 360.524 136.037 362.567 138.897 C 362.159 143.39 361.632 150.3 359.094 154.421 C 355.571 160.477 347.219 161.669 341.936 156.668 C 337.943 153.081 337.475 144.373 337.034 140.327 z "
       transform="translate(64.1139,-8.32754)"
       style="fill:#ffffff;fill-rule:evenodd;stroke:#df907f;stroke-width:1.25;stroke-opacity:0.698039;"
       id="path776" />
    <path
       d="M 341.068 133.382 C 339.638 132.973 338.872 131.748 337.238 131.339 C 342.753 129.501 343.59 128.632 342.417 124.809 C 345.857 127.018 349.526 127.248 350.976 124.433 C 354.014 129.251 357.486 127.675 360.524 126.285 C 361.75 130.37 361.414 133.071 366.053 133.136 C 362.649 137.9 364.695 142.167 366.329 144.209 L 361.801 143.9 C 358.834 131.528 353.746 129.404 348.834 129.655 C 345.423 129.936 343.981 131.135 341.068 133.382 z "
       transform="translate(64.1139,-8.32754)"
       style="fill-rule:evenodd;stroke-width:1.25;"
       id="path778" />
    <path
       d="M 289.645 145.026 C 289.645 132.362 296.185 128.757 304.351 128.277 C 311.705 127.868 313.268 133.684 314.974 140.124 C 314.403 158.622 309.254 159.023 305.168 159.431 C 301.083 159.84 294.138 162.593 289.645 145.026 z "
       transform="translate(64.1139,-8.32754)"
       style="fill:#ffffff;fill-rule:evenodd;stroke:#df907f;stroke-width:1.25;stroke-opacity:0.698039;"
       id="path168" />
    <path
       d="M 290.735 145.695 C 292.08 137.362 295.555 132.147 299.965 130.459 C 304.298 128.741 310.039 131.056 311.754 132.546 C 312.91 131.968 314.269 130.574 315.713 130.285 C 311.807 129.433 308.08 128.78 308.599 125.176 C 305.025 127.609 301.832 129.495 299.552 123.686 C 296.861 128.247 296.512 130.149 291.752 128.476 C 292.33 131.654 292.864 133.98 286.598 132.596 C 288.044 135.562 288.579 140.274 286.023 145.46 L 290.735 145.695 z "
       transform="translate(64.1139,-8.32754)"
       style="fill-rule:evenodd;stroke-width:1pt;"
       id="path169" />
    <path
       d="M 374.797 65.6212 C 388.804 60.3083 407.157 66.1042 413.919 75.281 C 420.681 84.4577 428.892 88.3215 420.198 133.239 C 418.266 129.858 417.3 129.375 416.817 126.477 C 416.817 132.273 417.3 132.273 416.817 133.722 C 408.606 128.409 406.674 128.892 401.362 102.811 C 403.777 121.165 404.743 126.96 410.055 131.79 C 396.049 127.926 379.144 122.131 384.94 89.7706 C 378.661 108.607 383.008 113.437 387.355 126.477 C 369.002 115.369 368.036 105.226 374.314 86.3896 C 369.002 101.362 369.002 102.811 369.485 108.607 C 366.587 96.0493 366.587 93.6344 369.485 85.4236 C 351.614 103.777 355.478 114.403 357.893 125.994 C 343.886 113.92 351.131 100.879 354.029 94.6004 C 340.505 111.988 340.505 115.852 341.471 129.375 C 330.846 128.409 326.499 121.165 332.295 106.192 C 323.601 122.131 324.567 126.96 327.465 138.552 C 311.526 132.273 309.111 125.995 315.873 111.505 C 312.009 116.335 312.009 116.335 310.56 121.165 C 308.628 112.954 310.56 108.607 312.009 107.158 C 302.832 118.75 302.349 123.097 303.315 135.654 C 294.139 124.063 290.758 114.886 301.383 103.777 C 299.451 104.743 301.383 104.743 298.003 108.607 C 297.52 100.879 300.417 93.1514 308.628 87.8386 C 299.451 95.0834 298.003 97.9814 295.588 101.845 C 297.037 90.2535 303.798 78.6619 320.22 77.6959 C 315.873 69.9681 311.043 66.5873 313.458 54.9955 C 318.771 64.6553 325.05 71.4171 336.158 67.5531 C 347.267 63.6892 366.104 54.5125 374.797 65.6212 z "
       transform="translate(21.6272,-8.32759)"
       style="fill:#dca614;fill-rule:evenodd;stroke-width:1.25;"
       id="path127" />
    <path
       d="M 374.797 65.6212 C 388.804 60.3083 407.157 66.1042 413.919 75.281 C 420.681 84.4577 426.461 89.8683 422.629 111.363 C 420.697 107.982 419.068 109.488 417.701 107.915 C 417.038 118.794 413.544 117.247 413.061 118.696 C 409.932 116.035 406.453 109.668 401.362 102.811 C 398.916 105.697 398.114 108.619 397.018 113.228 C 392.734 110.911 387.099 106.221 384.94 89.7706 C 381.092 91.1503 377.926 97.5271 377.19 110.567 C 373.421 105.425 370.025 105.005 374.314 86.3896 C 369.886 91.4182 370.564 94.0764 369.485 85.4236 C 363.325 89.6349 354.594 100.482 353.032 107.432 C 351.178 103.976 353.341 99.5532 354.029 94.6004 C 343.82 100.276 335.202 111.212 331.748 118.547 C 330.404 117.581 332.023 110.117 332.295 106.192 C 326.474 110.861 322.136 117.016 321.72 122.642 C 320.365 114.816 318.392 116.051 319.188 106.644 C 316.649 107.717 315.324 108.38 312.77 111 C 312.164 108.977 312.328 108.607 312.009 107.158 C 299.517 111.237 300.36 116.247 298.233 123.501 C 297.675 116.771 295.84 112.455 308.454 97.3689 C 306.522 98.3348 301.825 99.2187 298.445 103.083 C 299.509 98.6693 301.08 95.1402 308.628 87.8386 C 303.87 88.2333 302.201 88.4797 298.461 91.4594 C 303.445 84.7293 306.45 78.4408 324.86 77.4749 C 324.27 76.3762 311.043 66.5873 313.458 54.9955 C 318.771 64.6553 325.05 71.4171 336.158 67.5531 C 347.267 63.6892 366.104 54.5125 374.797 65.6212 z "
       transform="translate(21.6272,-8.32759)"
       style="fill:#fff254;fill-rule:evenodd;stroke-width:0.375;"
       id="path320" />
    <g
       transform="translate(21.6272,-8.32759)"
       id="g306">
      <path
         d="M 344.334 67.6002 C 338.268 68.4668 333.935 69.6223 332.202 75.3997 C 336.824 73.6665 337.69 73.6664 340.579 73.0887 C 338.846 75.9774 338.268 77.9995 336.824 81.7549 C 344.334 77.133 346.934 76.8441 348.956 75.6886 C 346.934 82.6215 345.779 83.777 345.201 86.6657 C 354.445 79.7328 360.511 75.9774 365.711 74.822 C 359.645 73.3777 356.467 72.511 353.001 73.6665 C 355.312 68.4668 355.6 69.3335 356.178 67.6002 C 350.401 68.4668 346.645 69.3334 344.046 70.7778 C 343.757 69.0445 344.046 67.8891 344.334 67.6002 z "
         style="fill:#ffffff;fill-rule:evenodd;stroke-width:1pt;"
         id="path302" />
      <path
         d="M 370.622 73.3777 C 369.177 75.6886 369.177 75.6887 368.6 77.133 C 372.355 75.9774 374.377 75.1108 376.399 75.1108 C 375.821 73.0887 374.666 72.7999 373.222 71.9333 C 371.777 72.511 371.488 73.3777 370.622 73.3777 z "
         style="fill:#ffffff;fill-rule:evenodd;stroke-width:1pt;"
         id="path303" />
      <path
         d="M 423.485 95.6207 C 422.619 89.5544 422.619 87.2435 418.863 82.0438 C 417.997 83.4881 417.997 83.1992 417.419 84.9324 C 413.664 80.5994 413.664 79.7328 411.353 77.7107 C 411.641 81.1772 411.641 82.3327 411.641 84.0659 C 407.308 78.8662 407.02 79.4439 404.131 76.5552 C 403.842 79.4439 403.553 79.444 403.553 81.1772 C 400.953 79.1551 400.087 78.8662 397.776 77.4218 C 400.087 82.9104 402.975 87.8211 403.264 91.8654 C 405.864 89.8433 406.153 88.6878 406.731 87.5323 C 410.775 93.3098 410.775 93.8875 411.93 95.6207 C 414.53 91.8654 414.819 90.9988 415.108 90.1322 C 417.13 97.0651 417.997 98.5095 418.574 99.9538 C 420.308 95.6207 420.308 95.0431 420.308 93.8875 C 422.33 97.9317 422.907 98.5095 423.485 100.82 C 423.774 98.7983 424.063 96.4873 423.485 95.6207 z "
         style="fill:#ffffff;fill-rule:evenodd;stroke-width:1pt;"
         id="path304" />
      <path
         d="M 392.223 78.7642 C 393.107 81.195 393.107 80.3111 393.549 83.4047 C 392.002 83.1836 391.781 82.7417 390.014 82.7417 C 389.13 79.4272 389.351 78.7642 388.467 77.4384 C 390.456 78.7642 392.444 79.2062 392.223 78.7642 z "
         style="fill:#ffffff;fill-rule:evenodd;stroke-width:1pt;"
         id="path305" />
    </g>
    <g
       transform="translate(21.6272,-8.32759)"
       id="g954">
      <ellipse
         cx="346.429871"
         cy="145.843475"
         rx="9.396103"
         ry="16.749496"
         transform="matrix(1,0,0,0.88509,46.0034,16.0593)"
         style="fill-rule:evenodd;stroke-width:1pt;"
         id="path887" />
      <ellipse
         cx="346.429871"
         cy="145.843475"
         rx="9.396103"
         ry="16.749496"
         transform="matrix(0.78261,0,0,0.755559,121.314,34.9507)"
         style="fill:#2a258f;fill-rule:evenodd;stroke-width:1pt;"
         id="path888" />
      <ellipse
         cx="346.429871"
         cy="145.843475"
         rx="9.396103"
         ry="16.749496"
         transform="matrix(0.901661,0,0,0.859193,80.0707,19.8361)"
         style="fill:#2a258f;fill-opacity:0.739583;fill-rule:evenodd;stroke-width:1pt;"
         id="path889" />
      <ellipse
         cx="346.429871"
         cy="145.843475"
         rx="9.396103"
         ry="16.749496"
         transform="matrix(0.52174,0,0,0.39595,211.686,87.0072)"
         style="fill-rule:evenodd;stroke-width:1pt;"
         id="path890" />
      <ellipse
         cx="346.429871"
         cy="145.843475"
         rx="9.396103"
         ry="16.749496"
         transform="matrix(0.611029,0,0,0.42784,180.754,82.3566)"
         style="fill-opacity:0.385417;fill-rule:evenodd;stroke-width:1pt;"
         id="path891" />
      <ellipse
         cx="346.429871"
         cy="145.843475"
         rx="9.396103"
         ry="16.749496"
         transform="matrix(0.52174,0,0,0.40205,210.052,82.9966)"
         style="fill:#ffffff;fill-opacity:0.66;fill-rule:evenodd;stroke-width:1pt;"
         id="path892" />
      <ellipse
         cx="346.429871"
         cy="145.843475"
         rx="9.396103"
         ry="16.749496"
         transform="matrix(0.407354,0,0,0.329058,249.679,93.6419)"
         style="fill:#ffffff;fill-opacity:0.66;fill-rule:evenodd;stroke-width:1pt;"
         id="path893" />
    </g>
    <g
       transform="translate(-25.0754,-8.32759)"
       id="g962">
      <ellipse
         cx="346.429871"
         cy="145.843475"
         rx="9.396103"
         ry="16.749496"
         transform="matrix(1,0,0,0.88509,46.0034,16.0593)"
         style="fill-rule:evenodd;stroke-width:1pt;"
         id="path963" />
      <ellipse
         cx="346.429871"
         cy="145.843475"
         rx="9.396103"
         ry="16.749496"
         transform="matrix(0.78261,0,0,0.755559,121.314,34.9507)"
         style="fill:#2a258f;fill-rule:evenodd;stroke-width:1pt;"
         id="path964" />
      <ellipse
         cx="346.429871"
         cy="145.843475"
         rx="9.396103"
         ry="16.749496"
         transform="matrix(0.901661,0,0,0.859193,80.0707,19.8361)"
         style="fill:#2a258f;fill-opacity:0.739583;fill-rule:evenodd;stroke-width:1pt;"
         id="path965" />
      <ellipse
         cx="346.429871"
         cy="145.843475"
         rx="9.396103"
         ry="16.749496"
         transform="matrix(0.52174,0,0,0.39595,211.686,87.0072)"
         style="fill-rule:evenodd;stroke-width:1pt;"
         id="path966" />
      <ellipse
         cx="346.429871"
         cy="145.843475"
         rx="9.396103"
         ry="16.749496"
         transform="matrix(0.611029,0,0,0.42784,180.754,82.3566)"
         style="fill-opacity:0.385417;fill-rule:evenodd;stroke-width:1pt;"
         id="path967" />
      <ellipse
         cx="346.429871"
         cy="145.843475"
         rx="9.396103"
         ry="16.749496"
         transform="matrix(0.52174,0,0,0.40205,210.052,82.9966)"
         style="fill:#ffffff;fill-opacity:0.66;fill-rule:evenodd;stroke-width:1pt;"
         id="path968" />
      <ellipse
         cx="346.429871"
         cy="145.843475"
         rx="9.396103"
         ry="16.749496"
         transform="matrix(0.407354,0,0,0.329058,249.679,93.6419)"
         style="fill:#ffffff;fill-opacity:0.66;fill-rule:evenodd;stroke-width:1pt;"
         id="path969" />
    </g>
    <path
       d="M 299.13 158.704 C 302.08 159.309 304.949 159.947 307.103 158.548 L 307.717 159.741 C 306.292 160.439 304.019 159.837 302.914 161.292 C 301.05 159.962 299.858 160.115 298.612 160.163 L 299.13 158.704 z "
       transform="translate(64.1139,-8.32754)"
       style="fill-rule:evenodd;stroke-width:1pt;"
       id="path170" />
    <path
       d="M 345.568 158.307 C 348.772 159.168 352.19 159.375 354.497 157.623 L 355.776 159.064 C 353.046 159.416 351.798 159.817 350.842 161.253 C 349.163 160.031 346.645 159.791 344.646 159.164 L 345.568 158.307 z "
       transform="translate(64.1139,-8.32754)"
       style="fill-rule:evenodd;stroke-width:1pt;"
       id="path777" />
    <path
       d="M 322.935 160.905 C 323.224 158.305 324.669 156.861 326.113 156.861 C 327.557 156.861 327.846 160.327 327.846 161.483 C 327.846 162.638 324.38 162.638 322.935 160.905 z "
       transform="matrix(0.687545,0,0,1.42411,165.947,-76.2352)"
       style="fill:#7f3f3f;fill-rule:evenodd;stroke-width:1pt;"
       id="path514" />
    <path
       d="M 330.323 79.7174 C 335.185 77.0657 338.941 75.0771 340.709 75.0771 M 322.589 95.8484 C 326.788 91.4289 330.986 88.5562 332.754 87.4514 M 333.417 98.9414 C 335.406 95.8484 337.615 94.5224 339.162 92.7544 M 337.615 103.361 C 338.941 100.267 339.604 100.267 340.93 98.5004 M 353.967 98.0584 C 356.398 93.4174 359.05 89.8821 361.038 87.6724 M 375.622 85.9046 C 376.727 84.5788 377.832 83.4739 377.832 83.253 M 406.779 82.1481 C 406.779 80.8223 407.442 79.2754 407.663 78.3916 M 423.131 94.9644 C 422.468 87.6724 422.468 83.032 422.468 78.8335 M 438.82 118.829 C 439.483 104.245 439.704 94.3014 439.262 87.4514 M 396.424 57.2936 C 410.431 51.9807 428.784 57.7766 435.546 66.9534 C 442.308 76.1301 450.519 79.9939 441.825 124.911 C 439.893 121.53 438.927 121.047 438.444 118.149 C 438.444 123.945 438.927 123.945 438.444 125.394 C 430.233 120.081 428.301 120.564 422.989 94.4834 C 425.404 112.837 426.37 118.632 431.682 123.462 C 417.676 119.598 400.771 113.803 406.567 81.443 C 400.288 100.279 404.635 105.109 408.982 118.149 C 390.629 107.041 389.663 96.8984 395.941 78.062 C 390.629 93.0344 390.629 94.4834 391.112 100.279 C 388.214 87.7217 388.214 85.3068 391.112 77.096 C 373.241 95.4494 377.105 106.075 379.52 117.666 C 365.513 105.592 372.758 92.5514 375.656 86.2728 C 362.132 103.66 362.132 107.524 363.098 121.047 C 352.473 120.081 348.126 112.837 353.922 97.8644 C 345.228 113.803 346.194 118.632 349.092 130.224 C 333.153 123.945 330.738 117.667 337.5 103.177 C 333.636 108.007 333.636 108.007 332.187 112.837 C 330.255 104.626 332.187 100.279 333.636 98.8304 C 324.459 110.422 323.976 114.769 324.942 127.326 C 315.766 115.735 312.385 106.558 323.01 95.4494 C 321.078 96.4154 323.01 96.4154 319.63 100.279 C 319.147 92.5514 322.044 84.8238 330.255 79.511 C 321.078 86.7558 319.63 89.6538 317.215 93.5174 C 318.664 81.9259 325.425 70.3343 341.847 69.3683 C 337.5 61.6405 332.67 58.2597 335.085 46.6679 C 340.398 56.3277 346.677 63.0895 357.785 59.2255 C 368.894 55.3616 387.731 46.1849 396.424 57.2936 z "
       style="fill:none;fill-rule:evenodd;stroke:#7d4d20;stroke-width:1pt;"
       id="path543" />
  </g>
</svg>
