<?xml version="1.0" encoding="UTF-8" standalone="no"?>
<!DOCTYPE svg PUBLIC "-//W3C//DTD SVG 20010904//EN"
"http://www.w3.org/TR/2001/REC-SVG-20010904/DTD/svg10.dtd"
[
 <!ATTLIST svg
  xmlns:xlink CDATA #FIXED "http://www.w3.org/1999/xlink">
]>
<!-- Created with Sodipodi ("http://www.sodipodi.com/") -->
<svg
   xmlns="http://www.w3.org/2000/svg"
   xmlns:xlink="http://www.w3.org/1999/xlink"
   version="1"
   x="0.00000000"
   y="0.00000000"
   width="744.094482"
   height="1052.36218"
   id="svg192">
  <defs
     id="defs194">
    <linearGradient
       x1="0.00000000"
       y1="0.00000000"
       x2="1.00000000"
       y2="0.00000000"
       id="linearGradient281"
       gradientUnits="objectBoundingBox"
       spreadMethod="pad">
      <stop
         style="stop-color:#ff877d;stop-opacity:1;"
         offset="0.00000000"
         id="stop282" />
      <stop
         style="stop-color:#ff251d;stop-opacity:1;"
         offset="1.00000000"
         id="stop283" />
    </linearGradient>
    <radialGradient
       cx="0.36688399"
       cy="0.31632200"
       fx="0.36688399"
       fy="0.31632200"
       r="0.50000000"
       id="radialGradient284"
       xlink:href="#linearGradient281"
       gradientUnits="objectBoundingBox"
       gradientTransform="translate(1.597360e-6,1.789970e-7)"
       spreadMethod="pad" />
  </defs>
  <g
     transform="matrix(0.947221,0.000000,0.000000,0.947221,-171.1549,22.57258)"
     style="font-size:12;"
     id="g870">
    <g
       id="g805">
      <path
         d="M 456.945 68.4189 C 445.899 63.1866 449.387 49.8155 450.841 46.3273 C 452.876 36.1536 458.98 23.0732 470.316 21.0384 C 474.676 15.8062 481.362 16.3876 487.175 20.1664 C 492.989 23.9451 497.349 33.2469 498.803 38.1884 C 493.28 46.618 489.21 48.0713 484.85 52.7222 C 472.351 41.6765 467.119 43.7113 462.177 49.5248 C 457.236 55.3383 457.526 66.3842 456.945 68.4189 z "
         style="fill:#d32c27;fill-rule:evenodd;stroke-width:1pt;"
         id="path799" />
      <path
         d="M 453.748 37.8977 C 457.817 37.3163 459.27 36.1536 462.759 34.9909 C 455.782 41.6765 451.713 48.3622 449.969 51.2689 C 451.131 42.8392 451.713 40.5138 453.748 37.8977 z "
         style="fill:#662928;fill-rule:evenodd;stroke-width:1pt;"
         id="path800" />
      <path
         d="M 481.653 49.8155 C 484.559 48.3621 485.722 45.1645 486.013 42.8392 C 488.629 40.8045 490.082 37.3163 490.664 33.8282 C 494.152 34.7002 495.315 34.1189 495.896 31.5028 C 498.512 35.5723 498.221 36.4443 499.093 38.479 C 495.605 42.5485 487.757 50.9781 486.013 52.4315 C 483.978 51.5595 483.978 52.1409 481.653 49.8155 z "
         style="fill:#662928;fill-rule:evenodd;stroke-width:1pt;"
         id="path801" />
      <path
         d="M 489.501 48.3621 C 480.781 34.1189 472.642 32.3748 466.247 33.8282 C 459.852 35.2816 454.038 40.2231 451.422 46.0367 "
         style="fill:none;fill-rule:evenodd;stroke:#000000;stroke-width:1pt;"
         id="path802" />
      <path
         d="M 494.733 43.4205 C 489.501 29.1774 482.524 21.6198 470.025 21.6198 "
         style="fill:none;fill-rule:evenodd;stroke:#000000;stroke-width:1pt;"
         id="path803" />
      <path
         d="M 456.945 68.4189 C 445.899 63.1866 449.387 49.8155 450.841 46.3273 C 452.876 36.1536 458.98 23.0732 470.316 21.0384 C 474.676 15.8062 481.362 16.3876 487.175 20.1664 C 492.989 23.9451 497.349 33.2469 498.803 38.1884 C 493.28 46.618 489.21 48.0713 484.85 52.7222 C 472.351 41.6765 467.119 43.7113 462.177 49.5248 C 457.236 55.3383 457.526 66.3842 456.945 68.4189 z "
         style="fill:none;fill-rule:evenodd;stroke:#000000;stroke-width:1pt;"
         id="path804" />
    </g>
    <g
       id="g795">
      <path
         d="M 471.188 195.736 C 470.898 176.551 469.154 164.633 466.828 150.681 C 464.503 136.728 459.561 118.415 458.108 103.882 C 456.654 89.3476 456.073 68.7095 456.073 64.64 C 458.98 52.1409 461.887 43.1299 471.188 44.0019 C 480.49 44.8739 483.397 49.8154 485.722 53.5943 C 489.501 88.1849 508.395 144.867 510.72 165.505 C 484.559 175.097 480.199 192.538 471.188 195.736 z "
         style="fill:#edb8a0;fill-rule:evenodd;stroke-width:1pt;"
         id="path792" />
      <path
         d="M 471.188 195.736 C 470.898 176.551 469.154 164.633 466.828 150.681 C 464.503 136.728 459.561 118.415 458.108 103.882 C 456.654 89.3476 456.073 68.7095 456.073 64.64 C 458.98 52.1409 461.887 43.1299 471.188 44.0019 C 480.49 44.8739 483.397 49.8154 485.722 53.5943 C 489.501 88.1849 508.395 144.867 510.72 165.505 C 484.559 175.097 480.199 192.538 471.188 195.736 z "
         style="fill:none;fill-rule:evenodd;stroke:#000000;stroke-width:1pt;"
         id="path794" />
      <path
         d="M 495.896 173.063 C 493.28 149.227 496.187 131.496 493.861 112.893 C 491.536 94.2891 491.826 98.3587 493.861 94.5798 C 500.547 122.194 509.267 157.075 511.302 165.796 C 505.197 166.959 499.675 170.737 495.896 173.063 z "
         style="fill:#e8815b;fill-rule:evenodd;stroke-width:1pt;"
         id="path793" />
    </g>
    <path
       d="M 642.979 59.4076 C 662.864 77.2138 673.76 108.317 674.377 128.46 C 674.993 148.603 673.966 175.323 676.432 196.905 C 678.899 218.487 684.654 263.294 692.259 283.232 C 699.864 303.169 713.84 325.778 722.679 335.028 C 731.517 344.277 741.794 361.337 745.699 372.641 C 749.604 383.946 759.059 399.567 749.604 434.098 C 748.371 409.228 747.138 400.595 740.149 381.685 C 733.161 362.776 724.939 346.949 715.279 337.905 C 721.24 353.732 733.778 381.891 733.161 407.583 C 732.544 433.276 727.2 466.162 708.085 479.317 C 688.97 492.471 682.187 489.594 676.843 490.21 C 663.483 498.843 657.934 500.898 647.04 503.159 C 656.084 498.226 661.222 494.321 663.894 490.005 C 655.261 495.965 654.439 497.404 653 498.226 C 651.562 499.049 650.534 500.487 648.684 500.693 C 646.834 500.898 645.19 500.898 643.135 502.132 C 641.079 503.365 635.941 506.448 619.086 505.215 C 602.232 503.982 561.947 498.637 535.226 456.296 C 515.905 490.005 480.964 494.526 470.276 495.76 C 459.588 496.993 448.225 498.331 436.888 489.32 C 425.552 480.309 421.192 466.647 420.61 444.555 C 416.541 459.671 415.088 468.682 424.68 480.89 C 412.181 470.135 412.762 468.972 411.89 466.647 C 403.46 460.833 392.705 455.02 393.287 429.44 C 393.868 403.861 405.495 385.838 411.89 375.083 C 418.285 364.328 429.04 350.376 438.051 326.831 C 447.062 303.286 454.62 289.334 459.852 257.359 C 465.084 225.384 477.874 210.269 485.141 201.84 C 488.774 197.625 507.702 182.242 510.536 171.995 C 513.37 161.749 507.636 159.953 503.454 158.819 C 498.961 157.893 499.829 155.397 497.048 149.888 C 495.878 147.789 491.513 146.417 490.371 141.786 C 488.049 138.249 492.081 129.106 495.46 121.213 C 496.768 100.684 507.959 41.6763 523.22 35.2814 C 553.741 22.4916 624.383 42.1714 642.979 59.4076 z "
       style="fill:#1a1917;fill-rule:evenodd;stroke:#000000;stroke-width:1pt;"
       id="path451" />
    <g
       id="g678">
      <path
         d="M 546.182 167.251 C 546.182 172.338 545.891 174.227 545.891 176.407 C 538.479 179.023 531.067 180.622 527.288 181.349 C 522.492 191.958 518.713 210.417 518.568 220.009 C 527.724 222.044 571.616 205.475 579.028 196.609 C 586.441 187.744 589.057 182.948 589.929 180.186 C 583.534 178.442 580.046 176.843 579.028 175.971 C 578.883 168.559 578.738 161.147 578.592 158.676 C 572.343 163.908 564.64 170.594 559.844 170.884 C 555.048 171.175 547.926 168.268 546.182 167.251 z "
         style="fill:#edb8a0;fill-rule:evenodd;stroke-width:0.125;"
         id="path667" />
      <path
         d="M 546.182 167.251 C 546.182 172.338 545.891 174.227 545.891 176.407 C 538.479 179.023 531.067 180.622 527.288 181.349 C 523.073 191.813 521.765 198.354 520.603 205.039 C 524.672 204.894 526.561 203.731 533.973 194.865 C 534.918 192.467 533.224 191.069 532.72 188.87 C 533.926 187.847 539.835 188.964 541.972 196.305 C 547.017 182.718 546.545 183.638 567.983 186.726 C 589.057 182.657 580.046 176.843 579.028 175.971 C 578.883 168.559 578.738 161.147 578.592 158.676 C 572.343 163.908 564.64 170.594 559.844 170.884 C 555.048 171.175 547.926 168.268 546.182 167.251 z "
         style="fill:#e8815b;fill-rule:evenodd;stroke-width:0.125;"
         id="path668" />
      <path
         d="M 546.182 167.251 C 546.182 172.338 545.891 174.227 545.891 176.407 C 538.479 179.023 531.067 180.622 527.288 181.349 C 522.492 191.958 518.713 210.417 518.568 220.009 C 527.724 222.044 571.616 205.475 579.028 196.609 C 586.441 187.744 589.057 182.948 589.929 180.186 C 583.534 178.442 580.046 176.843 579.028 175.971 C 578.883 168.559 578.738 161.147 578.592 158.676 C 572.343 163.908 564.64 170.594 559.844 170.884 C 555.048 171.175 547.926 168.268 546.182 167.251 z "
         style="fill:none;fill-rule:evenodd;stroke:#000000;stroke-width:1.25;"
         id="path677" />
    </g>
    <g
       id="g663">
      <path
         d="M 594.289 129.754 C 600.393 129.608 603.881 126.847 605.625 123.649 C 607.369 120.452 608.242 111.877 607.079 108.825 C 605.916 105.773 602.428 102.721 599.085 106.79 C 597.05 114.348 594.58 125.684 594.289 129.754 z "
         style="fill:#e8815b;fill-rule:evenodd;stroke-width:1pt;"
         id="path660" />
      <path
         d="M 597.777 112.894 C 601.992 110.424 605.771 112.749 602.573 118.417 "
         style="fill:none;fill-rule:evenodd;stroke:#000000;stroke-width:1pt;"
         id="path661" />
      <path
         d="M 594.289 129.754 C 600.393 129.608 603.881 126.847 605.625 123.649 C 607.369 120.452 608.242 111.877 607.079 108.825 C 605.916 105.773 601.992 102.721 598.649 106.79 C 596.614 114.348 594.58 125.684 594.289 129.754 z "
         style="fill:none;fill-rule:evenodd;stroke:#000000;stroke-width:1pt;"
         id="path662" />
    </g>
    <g
       id="g656">
      <path
         d="M 517.114 141.235 C 513.771 144.287 510.865 144.433 505.633 139.637 C 500.4 134.84 499.238 128.3 498.656 124.957 C 498.075 121.615 501.708 117.981 504.47 118.126 C 507.667 121.905 515.661 135.858 517.114 141.235 z "
         style="fill:#e8815b;fill-rule:evenodd;stroke-width:1pt;"
         id="path652" />
      <path
         d="M 508.103 124.231 C 503.598 123.795 503.016 124.521 504.034 129.463 C 505.051 134.404 506.359 134.695 507.958 135.858 "
         style="fill:none;fill-rule:evenodd;stroke:#000000;stroke-width:1pt;"
         id="path653" />
      <path
         d="M 517.114 141.235 C 513.771 144.287 510.865 144.433 505.633 139.637 C 500.4 134.84 499.238 128.3 498.656 124.957 C 498.075 121.615 501.708 117.981 504.47 118.126 C 507.667 121.905 515.661 135.858 517.114 141.235 z "
         style="fill:none;fill-rule:evenodd;stroke:#000000;stroke-width:1pt;"
         id="path654" />
    </g>
    <path
       d="M 498.221 108.243 C 510.429 125.974 513.045 131.788 516.243 139.055 C 519.44 146.322 522.2 155.175 530.861 159.983 C 539.816 164.741 545.74 167.24 550.713 169.079 C 556.577 171.173 559.825 172.987 568.855 166.549 C 577.352 160.548 590.947 147.775 593.563 133.532 C 596.179 119.289 596.469 115.801 598.795 106.79 C 601.12 97.7786 610.422 64.9321 581.645 52.433 C 552.868 39.9339 522.347 45.1661 508.394 64.6415 C 494.442 84.1168 492.116 95.1626 498.221 108.243 z "
       style="fill:#edb8a0;fill-rule:evenodd;stroke-width:1pt;"
       id="path273" />
    <path
       d="M 498.221 108.243 C 501.418 113.475 503.162 115.946 504.616 117.836 C 504.761 114.929 522.968 111.921 539.727 113.765 C 543.923 108.954 549.552 102.411 562.195 111.816 C 566.477 112.31 570.996 123.364 573.583 130.703 C 582.999 134.094 581.324 142.734 579.61 156.811 C 585.055 150.81 590.947 147.775 593.563 133.532 C 596.179 119.289 596.469 115.801 598.795 106.79 C 601.12 97.7786 610.422 64.9321 581.645 52.433 C 552.868 39.9339 522.347 45.1661 508.394 64.6415 C 494.442 84.1168 492.116 95.1626 498.221 108.243 z "
       style="fill:#e8815b;fill-rule:evenodd;stroke-width:0.125;"
       id="path650" />
    <path
       d="M 498.221 108.243 C 510.429 125.974 513.045 131.788 516.243 139.055 C 519.44 146.322 522.2 155.175 530.861 159.983 C 539.816 164.741 545.74 167.24 550.713 169.079 C 556.577 171.173 559.825 172.987 568.855 166.549 C 577.352 160.548 590.947 147.775 593.563 133.532 C 596.179 119.289 596.469 115.801 598.795 106.79 C 601.12 97.7786 610.422 64.9321 581.645 52.433 C 552.868 39.9339 522.347 45.1661 508.394 64.6415 C 494.442 84.1168 492.116 95.1626 498.221 108.243 z "
       style="fill:none;fill-rule:evenodd;stroke:#000000;stroke-width:1pt;"
       id="path651" />
    <path
       d="M 557.664 98.9418 C 569.291 93.855 582.662 91.3842 592.254 92.547 C 592.4 94.0004 592.4 93.5644 592.254 94.4364 C 579.028 95.0177 574.668 93.2737 558.39 100.25 C 557.664 100.105 557.809 99.2325 557.664 98.9418 z "
       style="fill:#6d312f;fill-rule:evenodd;stroke-width:1pt;"
       id="path649" />
    <path
       d="M 505.051 98.0698 C 517.55 95.7444 528.451 95.5991 539.351 100.686 C 539.06 101.849 539.06 101.558 538.77 102.721 C 523.654 98.2151 521.765 98.2151 505.633 99.6685 C 505.196 99.2325 505.633 99.5232 505.051 98.0698 z "
       style="fill:#6d312f;fill-rule:evenodd;stroke-width:1pt;"
       id="path648" />
    <g
       id="g285">
      <path
         d="M 500.695 83.2425 C 529.47 82.6259 538.103 88.792 547.763 95.5748 C 558.862 87.5588 564.823 74.4043 597.915 79.5427 C 597.093 85.5034 597.299 86.1199 597.299 88.3808 C 574.689 87.5587 566.056 96.1915 550.23 111.401 C 528.854 97.6302 522.893 92.4918 500.489 90.6419 C 500.078 86.3256 500.489 87.7643 500.695 83.2425 z "
         transform="translate(0.000000,-0.205588)"
         style="fill:#fa8a23;fill-rule:evenodd;stroke:#000000;stroke-width:1pt;"
         id="path274" />
      <path
         d="M 500.695 83.2425 C 522.276 82.8314 538.309 91.8752 547.969 98.6579 C 559.068 90.6419 565.029 75.432 598.121 80.5704 C 597.299 86.5311 597.504 85.7088 597.504 87.9697 C 574.894 87.1477 566.262 91.464 550.024 109.551 C 528.648 95.7803 522.893 90.0253 500.489 88.1754 C 500.489 86.5311 500.489 85.0922 500.695 83.2425 z "
         transform="translate(0.000000,-0.205588)"
         style="fill:#fae469;fill-rule:evenodd;stroke-width:1pt;"
         id="path275" />
      <ellipse
         cx="548.791016"
         cy="102.768753"
         rx="5.138519"
         ry="6.166153"
         transform="matrix(1.053140,-0.245067,0.247116,1.190310,-54.15010,115.2420)"
         style="fill:url(#radialGradient284);fill-rule:evenodd;stroke:#000000;stroke-width:1.09042;"
         id="path280" />
    </g>
    <g
       id="g271">
      <path
         d="M 532.759 460.408 C 545.502 522.892 552.902 546.324 576.744 596.064 C 600.587 645.805 607.164 663.07 608.808 672.114 C 610.453 681.158 613.741 701.3 618.674 719.388 C 623.607 737.475 642.928 795.438 647.861 820.102 C 652.794 844.767 663.071 886.286 664.715 915.062 C 666.36 943.837 669.648 964.391 669.648 990.7 C 669.648 1017.01 669.648 1037.15 679.103 1036.74 C 688.558 1036.33 699.657 1019.06 700.89 1011.25 C 702.123 1003.44 702.123 993.167 701.712 982.068 C 701.301 970.968 698.424 954.114 696.779 940.96 C 695.135 927.805 693.08 920.406 692.669 910.129 C 692.258 899.852 692.669 896.152 690.613 892.452 C 688.558 888.753 688.558 889.986 687.325 870.665 C 686.091 851.344 684.036 802.015 682.803 774.884 C 681.57 747.752 673.759 698.423 657.316 664.714 C 640.873 631.006 641.695 631.828 639.639 610.863 C 637.584 589.898 631.007 544.268 626.485 507.271 C 621.963 470.274 619.496 448.076 602.642 417.245 C 571.4 427.933 551.668 442.732 532.759 460.408 z "
         style="fill:#fec3ac;fill-rule:evenodd;stroke-width:1pt;"
         id="path244" />
      <path
         d="M 614.975 663.892 C 614.975 668.003 617.852 673.758 622.374 671.703 C 626.896 669.647 629.773 665.537 626.074 665.125 C 622.374 664.714 617.03 662.248 614.975 663.892 z "
         style="fill:#fd936d;fill-rule:evenodd;stroke-width:0.8125;"
         id="path246" />
      <path
         d="M 532.759 460.408 C 539.13 491.65 544.988 515.184 548.534 526.438 C 547.558 511.382 546.324 498.844 549.613 487.128 C 566.878 500.694 571.811 501.927 576.744 489.595 C 586.61 496.172 593.187 496.171 606.753 499.461 C 611.069 507.888 620.02 531.893 624.699 561.546 C 630.21 591.26 635.443 621.925 638.509 643.03 C 641.648 661.806 644.392 679.847 655.761 702.264 C 668.187 728.149 673.348 751.863 676.225 788.86 C 678.198 813.936 684.447 860.799 686.091 889.575 C 688.147 896.152 692.668 896.974 689.38 904.784 C 684.858 919.584 685.587 924.477 689.791 936.026 C 692.203 942.062 701.302 970.146 696.779 940.96 C 695.135 927.805 693.08 920.406 692.669 910.129 C 692.258 899.852 692.669 896.152 690.613 892.452 C 688.558 888.753 688.558 889.986 687.325 870.665 C 686.091 851.344 684.036 802.015 682.803 774.884 C 681.57 747.752 673.759 698.423 657.316 664.714 C 640.873 631.006 641.695 631.828 639.639 610.863 C 637.584 589.898 631.007 544.268 626.485 507.271 C 621.963 470.274 619.496 448.076 602.642 417.245 C 571.4 427.933 551.668 442.732 532.759 460.408 z "
         style="fill:#fd936d;fill-rule:evenodd;stroke-width:0.8125;"
         id="path245" />
      <path
         d="M 532.759 460.408 C 545.502 522.892 552.902 546.324 576.744 596.064 C 600.587 645.805 607.164 663.07 608.808 672.114 C 610.453 681.158 613.741 701.3 618.674 719.388 C 623.607 737.475 642.928 795.438 647.861 820.102 C 652.794 844.767 663.071 886.286 664.715 915.062 C 666.36 943.837 669.648 964.391 669.648 990.7 C 669.648 1017.01 669.648 1037.15 679.103 1036.74 C 688.558 1036.33 699.657 1019.06 700.89 1011.25 C 702.123 1003.44 702.123 993.167 701.712 982.068 C 701.301 970.968 698.424 954.114 696.779 940.96 C 695.135 927.805 693.08 920.406 692.669 910.129 C 692.258 899.852 692.669 896.152 690.613 892.452 C 688.558 888.753 688.558 889.986 687.325 870.665 C 686.091 851.344 684.036 802.015 682.803 774.884 C 681.57 747.752 673.759 698.423 657.316 664.714 C 640.873 631.006 641.695 631.828 639.639 610.863 C 637.584 589.898 631.007 544.268 626.485 507.271 C 621.963 470.274 619.496 448.076 602.642 417.245 C 571.4 427.933 551.668 442.732 532.759 460.408 z "
         style="fill:none;fill-rule:evenodd;stroke:#000000;stroke-width:1pt;"
         id="path249" />
    </g>
    <g
       id="g238">
      <path
         d="M 453.009 421.767 C 453.831 485.895 461.231 529.881 467.397 550.435 C 473.563 570.989 483.429 599.353 483.84 610.452 C 484.251 621.551 487.54 642.105 489.184 649.505 C 490.828 656.904 495.35 674.992 495.761 700.89 C 496.172 726.788 497.817 720.621 498.228 730.076 C 498.639 739.531 498.228 814.758 495.761 836.957 C 493.295 859.155 490.417 879.298 489.184 885.053 C 487.951 890.808 486.718 899.03 484.251 905.196 C 481.785 911.362 477.263 921.228 475.619 926.161 C 473.974 931.094 469.863 938.904 466.164 944.659 C 462.464 950.415 455.065 964.391 451.776 970.557 C 448.487 976.724 441.088 987.823 444.376 990.7 C 447.665 993.578 471.097 987.412 475.207 982.068 C 479.318 976.724 494.528 951.237 500.283 947.537 C 506.038 943.837 518.782 938.082 521.659 931.916 C 524.537 925.75 527.826 919.995 524.537 915.062 C 521.248 910.129 517.137 905.196 518.782 895.33 C 520.426 885.464 528.237 845.178 533.581 819.28 C 538.925 793.382 555.368 730.076 550.846 688.146 C 546.324 646.216 541.391 646.216 539.336 633.884 C 537.28 621.551 536.047 612.508 536.047 595.653 C 536.047 578.799 536.869 522.07 533.17 473.152 C 529.47 424.233 527.414 429.988 521.248 413.956 C 490.006 411.49 468.219 414.778 453.009 421.767 z "
         style="fill:#fec3ac;fill-rule:evenodd;stroke-width:1pt;"
         id="path229" />
      <path
         d="M 453.009 421.767 C 453.214 437.799 454.703 466.525 455.609 479.987 C 465.235 489.672 478.347 488.162 486.395 492.558 C 485.354 503.552 486.916 505.555 495.302 505.961 C 499.923 506.193 504.931 506.628 508.579 506.547 C 513.675 506.428 515.325 509.168 515.505 512.364 C 516.63 536.585 516.176 555.88 514.652 579.059 C 513.562 595.925 512.538 601.12 519.705 623.925 C 521.919 631.174 531.685 660.167 539.362 684.031 C 546.746 708.857 545.779 726.725 536.888 760.597 C 534.559 769.77 519.447 816.211 516.399 844.515 C 513.701 866.686 512.596 883.964 512.147 890.576 C 511.827 894.709 512.588 898.158 509.249 899.964 C 503.536 903.349 497.029 906.404 505.559 911.627 C 510.049 914.25 518.42 920.706 515.579 926.928 C 512.765 933.089 518.782 938.082 521.659 931.916 C 524.537 925.75 527.826 919.995 524.537 915.062 C 521.248 910.129 517.137 905.196 518.782 895.33 C 520.426 885.464 528.237 845.178 533.581 819.28 C 538.925 793.382 555.368 730.076 550.846 688.146 C 546.324 646.216 541.391 646.216 539.336 633.884 C 537.28 621.551 536.047 612.508 536.047 595.653 C 536.047 578.799 536.869 522.07 533.17 473.152 C 529.47 424.233 527.414 429.988 521.248 413.956 C 490.006 411.49 468.219 414.778 453.009 421.767 z "
         style="fill:#fd936d;fill-rule:evenodd;stroke-width:0.25;"
         id="path234" />
      <path
         d="M 513.917 882.898 C 513.917 887.258 514.207 890.746 513.917 892.781 "
         style="fill:none;fill-rule:evenodd;stroke:#000000;stroke-width:1pt;"
         id="path235" />
      <path
         d="M 513.335 896.559 C 513.917 903.826 508.975 907.024 507.812 908.477 "
         style="fill:none;fill-rule:evenodd;stroke:#000000;stroke-width:1pt;"
         id="path236" />
      <path
         d="M 453.009 421.767 C 453.831 485.895 461.231 529.881 467.397 550.435 C 473.563 570.989 483.429 599.353 483.84 610.452 C 484.251 621.551 487.54 642.105 489.184 649.505 C 490.828 656.904 495.35 674.992 495.761 700.89 C 496.172 726.788 497.817 720.621 498.228 730.076 C 498.639 739.531 498.228 814.758 495.761 836.957 C 493.295 859.155 490.417 879.298 489.184 885.053 C 487.951 890.808 486.718 899.03 484.251 905.196 C 481.785 911.362 477.263 921.228 475.619 926.161 C 473.974 931.094 469.863 938.904 466.164 944.659 C 462.464 950.415 455.065 964.391 451.776 970.557 C 448.487 976.724 441.088 987.823 444.376 990.7 C 447.665 993.578 471.097 987.412 475.207 982.068 C 479.318 976.724 494.528 951.237 500.283 947.537 C 506.038 943.837 518.782 938.082 521.659 931.916 C 524.537 925.75 527.826 919.995 524.537 915.062 C 521.248 910.129 517.137 905.196 518.782 895.33 C 520.426 885.464 528.237 845.178 533.581 819.28 C 538.925 793.382 555.368 730.076 550.846 688.146 C 546.324 646.216 541.391 646.216 539.336 633.884 C 537.28 621.551 536.047 612.508 536.047 595.653 C 536.047 578.799 536.869 522.07 533.17 473.152 C 529.47 424.233 527.414 429.988 521.248 413.956 C 490.006 411.49 468.219 414.778 453.009 421.767 z "
         style="fill:none;fill-rule:evenodd;stroke:#000000;stroke-width:1pt;"
         id="path237" />
    </g>
    <g
       id="g263">
      <g
         id="g229">
        <path
           d="M 489.122 374.067 C 484.846 367.144 480.569 359.202 477.515 355.537 C 470.184 356.555 469.777 356.962 464.279 362.867 C 458.781 368.773 436.992 395.448 432.716 400.743 C 428.44 406.037 427.014 408.074 426.403 409.499 C 425.793 410.924 425.385 411.739 427.014 414.183 C 428.643 416.626 432.309 422.531 434.345 426.197 C 436.381 429.862 435.77 431.288 443.508 436.989 C 456.541 417.848 481.18 380.38 489.122 374.067 z "
           style="fill:#d32c27;fill-rule:evenodd;stroke-width:1pt;"
           id="path226" />
        <path
           d="M 489.325 374.271 C 488.714 373.049 488.511 372.438 487.493 371.42 C 480.773 373.253 474.053 380.787 466.111 392.19 C 458.17 403.594 442.49 426.604 440.658 428.029 C 438.825 429.455 438.01 428.233 435.77 429.251 C 439.436 433.731 439.436 434.342 443.508 436.989 C 454.504 420.495 483.42 376.511 489.325 374.271 z "
           style="fill:#662928;fill-rule:evenodd;stroke-width:1pt;"
           id="path227" />
        <path
           d="M 489.122 374.067 C 484.846 367.144 480.569 359.202 477.515 355.537 C 470.184 356.555 469.777 356.962 464.279 362.867 C 458.781 368.773 436.992 395.448 432.716 400.743 C 428.44 406.037 427.014 408.074 426.403 409.499 C 425.793 410.924 425.385 411.739 427.014 414.183 C 428.643 416.626 432.309 422.531 434.345 426.197 C 436.381 429.862 435.77 431.288 443.508 436.989 C 456.541 417.848 481.18 380.38 489.122 374.067 z "
           style="fill:none;fill-rule:evenodd;stroke:#000000;stroke-width:1pt;"
           id="path228" />
        <path
           d="M 497.471 389.543 C 494.009 382.823 490.547 376.104 488.714 373.049 C 482.606 374.882 480.977 376.103 475.886 383.434 C 470.795 390.765 448.396 422.939 445.748 427.419 C 443.101 431.898 438.418 438.822 437.603 440.247 C 436.789 441.673 435.363 443.505 437.603 445.542 C 439.843 447.578 446.97 455.112 463.668 462.647 C 475.886 433.12 490.344 399.521 497.471 389.543 z "
           style="fill:#d32c27;fill-rule:evenodd;stroke-width:1pt;"
           id="path223" />
        <path
           d="M 493.602 383.027 C 483.013 394.634 475.478 410.11 469.573 426.197 C 463.668 442.284 458.577 453.483 457.355 455.316 C 456.134 457.149 455.319 456.538 454.708 457.963 C 458.577 460.407 461.428 461.629 463.261 462.647 C 472.017 442.894 487.289 404.408 497.674 389.95 C 496.045 386.692 495.231 385.47 493.602 383.027 z "
           style="fill:#662928;fill-rule:evenodd;stroke-width:1pt;"
           id="path224" />
        <path
           d="M 497.471 389.543 C 494.009 382.823 490.547 376.104 488.714 373.049 C 482.606 374.882 480.977 376.103 475.886 383.434 C 470.795 390.765 448.396 422.939 445.748 427.419 C 443.101 431.898 438.418 438.822 437.603 440.247 C 436.789 441.673 435.363 443.505 437.603 445.542 C 439.843 447.578 446.97 455.112 463.668 462.647 C 475.886 433.12 490.344 399.521 497.471 389.543 z "
           style="fill:none;fill-rule:evenodd;stroke:#000000;stroke-width:1pt;"
           id="path225" />
        <path
           d="M 570.167 337.414 C 574.647 335.378 574.85 334.97 576.276 334.563 C 596.842 347.392 604.173 356.759 611.097 364.904 C 618.02 373.049 630.238 387.507 631.867 390.561 C 633.496 393.616 634.514 393.82 632.478 395.856 C 630.441 397.892 629.627 399.114 627.794 400.539 C 609.875 377.325 593.992 357.37 570.167 337.414 z "
           style="fill:#662928;fill-rule:evenodd;stroke-width:1pt;"
           id="path221" />
        <path
           d="M 570.167 337.414 C 574.647 335.378 574.85 334.97 576.276 334.563 C 593.991 346.374 606.82 358.388 613.744 366.533 C 620.667 374.678 630.238 387.507 631.867 390.561 C 633.496 393.616 634.514 393.82 632.478 395.856 C 630.441 397.892 629.627 399.114 627.794 400.539 C 609.875 377.325 593.992 357.37 570.167 337.414 z "
           style="fill:none;fill-rule:evenodd;stroke:#000000;stroke-width:1pt;"
           id="path222" />
        <path
           d="M 555.302 347.188 C 564.465 340.468 567.927 338.228 572.407 335.988 C 595.01 350.65 620.056 384.045 625.351 391.172 C 630.645 398.3 636.55 406.648 637.976 408.888 C 639.401 411.128 639.401 412.35 637.569 414.183 C 635.736 416.015 618.631 427.622 608.042 435.971 C 589.512 396.67 567.112 363.479 555.302 347.188 z "
           style="fill:#662928;fill-rule:evenodd;stroke-width:1pt;"
           id="path218" />
        <path
           d="M 579.33 340.876 C 602.544 366.533 622.5 392.801 629.22 407.259 C 630.034 412.146 630.442 414.59 634.718 416.423 C 638.994 413.572 640.012 411.943 637.569 408.074 C 635.125 404.205 623.314 387.507 615.576 378.344 C 607.838 369.18 591.141 349.428 579.33 340.876 z "
           style="fill:#d32c27;fill-rule:evenodd;stroke-width:1pt;"
           id="path219" />
        <path
           d="M 555.302 347.188 C 564.465 340.468 567.927 338.228 572.407 335.988 C 595.01 350.65 620.056 384.045 625.351 391.172 C 630.645 398.3 636.55 406.648 637.976 408.888 C 639.401 411.128 639.401 412.35 637.569 414.183 C 635.736 416.015 618.631 427.622 608.042 435.971 C 589.512 396.67 567.112 363.479 555.302 347.188 z "
           style="fill:none;fill-rule:evenodd;stroke:#000000;stroke-width:1pt;"
           id="path220" />
        <path
           d="M 537.993 360.424 C 546.953 352.89 555.098 346.17 557.949 344.337 C 575.054 362.868 596.435 399.318 603.766 415.405 C 611.097 431.491 614.966 441.062 615.373 442.691 C 615.78 444.32 616.595 445.745 614.151 446.356 C 611.707 446.967 601.119 451.244 592.159 457.149 C 583.199 463.054 574.85 468.349 571.796 470.792 C 561.614 420.292 543.898 370.198 537.993 360.424 z "
           style="fill:#d32c27;fill-rule:evenodd;stroke-width:1pt;"
           id="path215" />
        <path
           d="M 537.993 360.424 C 546.953 352.89 555.098 346.17 557.949 344.337 C 572.407 363.275 577.701 389.747 580.552 400.54 C 590.734 410.314 611.097 440.655 611.504 442.284 C 611.911 443.913 612.522 446.967 610.078 447.578 C 607.634 448.189 601.119 451.244 592.159 457.149 C 583.199 463.054 574.85 468.349 571.796 470.792 C 561.614 420.292 543.898 370.198 537.993 360.424 z "
           style="fill:#662928;fill-rule:evenodd;stroke-width:1pt;"
           id="path216" />
        <path
           d="M 537.993 360.424 C 546.953 352.89 555.098 346.17 557.949 344.337 C 575.054 362.868 596.435 399.318 603.766 415.405 C 611.097 431.491 614.966 441.062 615.373 442.691 C 615.78 444.32 616.595 445.745 614.151 446.356 C 611.707 446.967 601.119 451.244 592.159 457.149 C 583.199 463.054 574.85 468.349 571.796 470.792 C 561.614 420.292 543.898 370.198 537.993 360.424 z "
           style="fill:none;fill-rule:evenodd;stroke:#000000;stroke-width:1pt;"
           id="path217" />
        <path
           d="M 519.87 375.9 C 519.463 419.273 524.146 464.48 525.164 473.847 C 526.182 483.214 527.404 486.268 528.626 487.897 C 529.848 489.526 529.848 489.933 536.364 486.064 C 542.88 482.195 554.487 475.476 565.483 473.643 C 576.479 471.81 574.85 469.367 574.647 466.923 C 574.443 464.48 572.814 447.782 567.723 429.455 C 562.632 411.128 552.247 373.253 541.455 357.37 C 533.31 363.071 527.201 367.958 519.87 375.9 z "
           style="fill:#d32c27;fill-rule:evenodd;stroke-width:1pt;"
           id="path212" />
        <path
           d="M 519.87 375.9 C 519.463 419.273 524.146 464.48 525.164 473.847 C 526.182 483.214 527.404 486.268 528.626 487.897 C 529.848 489.526 529.848 489.933 536.364 486.064 C 542.88 482.195 546.213 480.386 557.135 475.475 C 559.424 474.427 558.632 466.714 556.116 436.175 C 554.259 413.781 546.749 374.678 540.233 358.185 C 532.088 363.885 527.201 367.958 519.87 375.9 z "
           style="fill:#662928;fill-rule:evenodd;stroke-width:1pt;"
           id="path213" />
        <path
           d="M 495.321 385.119 C 480.425 402.775 474.756 427.535 465.947 449.05 C 456.732 470.36 457.596 469.208 455.868 472.952 C 454.14 476.695 455.004 476.983 458.748 477.847 C 462.492 478.711 475.163 480.151 493.881 491.382 C 494.169 492.822 492.729 493.974 495.321 493.686 C 497.913 493.398 500.217 495.126 500.217 492.822 C 500.217 490.518 501.657 460.857 502.808 431.771 C 503.96 402.685 504.536 395.198 504.536 389.438 C 500.793 388.286 498.777 386.847 495.321 385.119 z "
           style="fill:#d32c27;fill-rule:evenodd;stroke-width:1pt;"
           id="path196" />
        <path
           d="M 481.587 436.583 C 479.551 455.521 473.849 460.408 471.405 468.96 C 468.962 477.513 468.351 478.124 467.943 479.956 C 473.238 481.382 477.718 482.807 481.79 485.047 C 477.921 472.625 481.179 461.629 481.383 455.113 C 482.401 448.597 482.605 444.117 481.587 436.583 z "
           style="fill:#662928;fill-rule:evenodd;stroke-width:1pt;"
           id="path197" />
        <path
           d="M 504.19 389.544 C 495.026 400.54 497.266 403.391 497.47 407.056 C 497.673 410.722 496.859 427.623 495.841 446.561 C 494.823 465.498 493.805 491.563 493.805 492.581 C 493.805 493.599 494.008 493.599 495.23 493.599 C 496.452 493.599 498.488 494.007 498.895 494.007 C 499.303 494.007 500.321 494.21 500.321 492.989 C 500.321 491.767 501.542 461.019 502.561 438.619 C 503.579 416.22 504.393 390.155 504.19 389.544 z "
           style="fill:#662928;fill-rule:evenodd;stroke-width:1pt;"
           id="path198" />
        <path
           d="M 495.321 385.119 C 480.425 402.775 474.756 427.535 465.947 449.05 C 456.732 470.36 457.596 469.208 455.868 472.952 C 454.14 476.695 455.004 476.983 458.748 477.847 C 462.492 478.711 475.163 480.151 493.881 491.382 C 494.169 492.822 492.729 493.974 495.321 493.686 C 497.913 493.398 500.217 495.126 500.217 492.822 C 500.217 490.518 501.657 460.857 502.808 431.771 C 503.96 402.685 504.536 395.198 504.536 389.438 C 500.793 388.286 498.777 386.847 495.321 385.119 z "
           style="fill:none;fill-rule:evenodd;stroke:#000000;stroke-width:1pt;"
           id="path199" />
        <path
           d="M 504.598 391.58 C 499.71 422.532 497.47 439.84 496.452 461.018 C 495.434 482.195 494.416 488.712 494.416 490.952 C 494.416 493.192 495.434 492.784 497.674 492.784 C 499.914 492.784 520.888 490.952 525.775 490.748 C 530.662 490.544 530.459 490.137 531.68 490.137 C 532.902 490.137 533.106 490.341 532.902 487.897 C 532.699 485.454 529.237 464.276 527.201 438.211 C 525.371 412.182 523.739 394.227 523.535 372.846 C 515.39 378.344 508.67 386.082 504.598 391.58 z "
           style="fill:#d32c27;fill-rule:evenodd;stroke-width:1pt;"
           id="path205" />
        <path
           d="M 519.87 375.9 C 519.463 419.273 524.146 464.48 525.164 473.847 C 526.182 483.214 527.404 486.268 528.626 487.897 C 529.848 489.526 529.848 489.933 536.364 486.064 C 542.88 482.195 554.487 475.476 565.483 473.643 C 576.479 471.81 574.85 469.367 574.647 466.923 C 574.443 464.48 572.814 447.782 567.723 429.455 C 562.632 411.128 552.247 373.253 541.455 357.37 C 533.31 363.071 527.201 367.958 519.87 375.9 z "
           style="fill:none;fill-rule:evenodd;stroke:#000000;stroke-width:1pt;"
           id="path214" />
        <path
           d="M 507.652 491.97 C 507.856 470.792 509.892 442.487 510.91 426.808 C 513.761 441.266 516.612 450.225 517.63 462.647 C 519.463 447.375 519.463 427.622 518.648 416.219 C 517.834 404.816 519.259 390.969 509.077 390.969 C 509.281 388.525 509.077 389.136 509.077 386.285 C 512.132 382.416 520.481 375.697 523.332 373.253 C 525.368 412.35 527.404 441.673 529.237 457.149 C 531.07 472.625 532.699 485.861 532.902 487.49 C 533.106 489.119 533.513 490.137 530.255 490.748 C 526.997 491.359 512.946 490.544 507.652 491.97 z "
           style="fill:#662928;fill-rule:evenodd;stroke-width:1pt;"
           id="path206" />
        <path
           d="M 504.598 391.58 C 499.71 422.532 497.47 439.84 496.452 461.018 C 495.434 482.195 494.416 488.712 494.416 490.952 C 494.416 493.192 495.434 492.784 497.674 492.784 C 499.914 492.784 520.888 490.952 525.775 490.748 C 530.662 490.544 530.459 490.137 531.68 490.137 C 532.902 490.137 533.106 490.341 532.902 487.897 C 532.699 485.454 529.237 464.276 527.201 438.211 C 525.371 412.182 523.739 394.227 523.535 372.846 C 515.39 378.344 508.67 386.082 504.598 391.58 z "
           style="fill:none;fill-rule:evenodd;stroke:#000000;stroke-width:1pt;"
           id="path211" />
      </g>
      <g
         id="g258">
        <path
           d="M 582.792 341.69 C 598.472 341.282 612.319 344.337 621.075 347.391 C 629.831 350.446 631.256 350.853 629.22 353.5 C 627.184 356.147 619.039 366.329 614.762 376.307 C 595.01 358.591 583.2 351.464 582.792 341.69 z "
           style="fill:#662928;fill-rule:evenodd;stroke:#000000;stroke-width:1pt;"
           id="path257" />
        <path
           d="M 566.298 323.566 C 582.181 312.978 596.843 307.276 600.915 307.276 C 604.988 307.276 605.192 307.276 605.192 310.33 C 605.192 313.385 604.173 335.784 604.988 341.486 C 605.803 347.188 605.803 359.609 602.952 367.347 C 579.738 349.835 567.113 341.486 566.298 323.566 z "
           style="fill:#662928;fill-rule:evenodd;stroke:#000000;stroke-width:1pt;"
           id="path256" />
        <path
           d="M 473.646 346.169 C 464.075 349.224 456.134 354.315 453.69 356.555 C 451.247 358.795 450.839 359.609 452.061 361.442 C 453.283 363.275 458.17 369.18 461.224 374.067 C 470.592 362.867 474.46 355.74 473.646 346.169 z "
           style="fill:#d22b26;fill-rule:evenodd;stroke:#000000;stroke-width:1pt;"
           id="path255" />
        <path
           d="M 489.326 339.246 C 481.588 328.046 475.479 321.123 471.406 319.901 C 467.333 318.679 467.537 320.308 467.13 322.548 C 466.723 324.788 466.519 339.45 466.112 347.799 C 465.704 356.147 465.093 366.736 465.908 369.791 C 466.723 372.845 467.537 372.438 469.37 371.42 C 471.202 370.402 485.253 355.333 489.326 339.246 z "
           style="fill:#d22b26;fill-rule:evenodd;stroke:#000000;stroke-width:1pt;"
           id="path254" />
      </g>
    </g>
    <g
       id="g446">
      <path
         d="M 515.079 173.356 C 512.463 168.123 511.882 166.961 511.301 163.472 C 499.964 162.31 490.662 168.995 485.14 173.937 C 479.617 178.878 469.152 192.249 468.862 197.482 C 468.571 202.714 467.699 202.423 469.443 205.33 C 467.99 213.469 465.664 214.05 472.35 220.445 C 469.734 229.456 468.28 244.281 476.71 256.78 C 476.129 279.743 476.419 295.149 479.907 308.23 C 483.396 321.31 483.105 328.868 481.942 338.751 C 485.721 355.319 497.057 383.806 501.127 391.072 C 511.882 384.096 544.728 346.599 552.867 341.076 C 561.006 335.553 571.471 326.542 572.924 325.961 C 571.18 318.694 569.727 316.078 567.982 315.496 C 572.343 306.195 576.121 300.672 581.354 295.73 C 586.586 290.789 589.783 287.301 591.527 285.847 C 596.469 284.103 604.317 274.802 608.968 266.663 C 613.619 258.524 619.432 252.71 620.886 243.118 C 626.409 240.502 626.699 238.467 626.699 236.432 C 634.547 231.491 637.164 229.165 637.164 223.352 C 647.337 214.632 652.279 203.586 643.268 184.983 C 634.257 166.379 614.491 164.345 610.131 165.798 C 605.77 167.251 590.946 184.401 586.876 192.54 C 576.993 203.005 548.216 223.933 519.73 227.712 C 506.65 203.295 515.661 182.948 518.277 178.878 C 517.405 176.262 516.823 175.681 515.079 173.356 z "
         style="fill:#ffffff;fill-rule:evenodd;stroke-width:1pt;"
         id="path381" />
      <path
         d="M 477.468 289.605 C 488.567 297.827 488.773 297.416 492.267 300.293 C 494.117 286.728 501.927 271.312 506.655 266.585 C 511.382 261.857 515.493 258.774 518.987 258.158 C 519.398 251.991 519.398 247.881 524.948 248.292 C 530.497 248.703 535.841 259.802 536.047 264.324 C 536.253 268.846 537.486 271.312 535.841 275.628 C 534.197 279.945 532.142 280.15 529.059 279.534 C 525.976 278.917 524.742 278.917 522.892 275.834 C 524.126 282.822 527.003 284.467 529.059 286.728 C 531.114 288.988 533.169 292.894 533.786 295.771 C 534.403 298.649 535.43 304.609 540.569 308.515 C 545.707 312.42 551.051 315.092 550.846 319.819 C 550.64 324.547 551.668 328.041 547.352 333.591 C 543.035 339.14 534.608 346.951 533.169 351.061 C 547.146 338.318 555.573 330.507 571.194 319.819 C 570.167 317.353 569.961 317.353 568.317 315.914 C 573.661 304.815 575.511 301.526 577.772 299.265 C 580.032 297.005 590.72 287.139 591.543 285.905 C 593.804 284.878 600.381 279.123 602.231 276.656 C 604.081 274.19 610.658 263.707 611.891 261.652 C 613.124 259.596 620.935 245.003 621.346 242.948 C 624.84 241.303 626.279 239.865 627.101 236.781 C 633.062 232.465 636.145 231.232 637.584 223.627 C 643.544 216.639 651.971 210.678 646.422 192.179 C 630.39 188.274 622.168 190.124 620.935 198.551 C 619.702 206.978 621.346 212.939 611.48 215.2 C 609.014 220.955 607.575 222.188 603.053 221.366 C 600.792 229.588 599.353 230.204 595.242 230.41 C 590.721 236.576 586.815 240.481 579.416 232.26 C 572.016 224.038 587.637 211.295 589.282 209.856 C 592.981 203.278 593.187 200.812 597.709 199.784 C 599.559 192.59 598.737 190.33 602.436 190.946 C 604.903 181.697 605.314 176.147 604.903 170.803 C 595.037 180.669 588.049 194.646 577.36 201.429 C 566.672 208.211 553.107 220.749 520.426 227.738 C 513.438 213.555 501.311 208.623 497.817 205.128 C 490.417 204.101 487.54 202.662 485.484 200.401 C 478.085 199.784 476.441 198.757 474.18 197.318 C 471.919 208.211 469.863 212.939 472.535 220.544 C 469.452 239.453 469.452 241.098 476.646 256.924 C 476.646 273.984 476.441 284.672 477.468 289.605 z "
         style="fill:#a9aee8;fill-rule:evenodd;stroke-width:1pt;"
         id="path390" />
      <path
         d="M 515.079 173.356 C 512.463 168.123 511.882 166.961 511.301 163.472 C 499.964 162.31 490.662 168.995 485.14 173.937 C 479.617 178.878 469.152 192.249 468.862 197.482 C 468.571 202.714 467.699 202.423 469.443 205.33 C 467.99 213.469 465.664 214.05 472.35 220.445 C 469.734 229.456 468.28 244.281 476.71 256.78 C 476.129 279.743 476.419 295.149 479.907 308.23 C 483.396 321.31 483.105 328.868 481.942 338.751 C 485.721 355.319 497.057 383.806 501.127 391.072 C 511.882 384.096 544.728 346.599 552.867 341.076 C 561.006 335.553 571.471 326.542 572.924 325.961 C 571.18 318.694 569.727 316.078 567.982 315.496 C 572.343 306.195 576.121 300.672 581.354 295.73 C 586.586 290.789 589.783 287.301 591.527 285.847 C 596.469 284.103 604.317 274.802 608.968 266.663 C 613.619 258.524 619.432 252.71 620.886 243.118 C 626.409 240.502 626.699 238.467 626.699 236.432 C 634.547 231.491 637.164 229.165 637.164 223.352 C 647.337 214.632 652.279 203.586 643.268 184.983 C 634.257 166.379 614.491 164.345 610.131 165.798 C 605.77 167.251 590.946 184.401 586.876 192.54 C 576.993 203.005 548.216 223.933 519.73 227.712 C 506.65 203.295 515.661 182.948 518.277 178.878 C 517.405 176.262 516.823 175.681 515.079 173.356 z "
         style="fill:none;fill-rule:evenodd;stroke:#000000;stroke-width:1pt;"
         id="path397" />
      <path
         d="M 469.863 205.128 C 478.085 190.741 486.923 177.586 503.983 179.025 M 472.946 220.338 C 484.251 199.373 487.745 193.618 500.9 187.452 M 476.441 273.162 C 491.856 271.723 499.05 264.94 512.821 252.814 C 527.414 266.585 532.758 274.806 550.024 275.834 C 567.289 276.862 570.167 276.451 574.072 276.451 C 577.977 276.451 586.404 277.684 591.748 285.7 M 620.729 243.359 C 615.591 244.797 605.314 242.742 600.998 237.193 C 594.77 229.266 581.266 219.927 595.242 187.041 M 626.69 236.576 C 619.085 239.042 610.452 233.082 604.903 225.271 C 599.353 217.461 595.653 208.622 597.914 180.464 M 636.761 223.421 C 630.184 228.765 618.674 225.066 614.563 219.927 C 610.452 214.789 598.531 205.539 605.108 171.625 M 567.906 315.606 C 567.289 315.811 566.329 316.463 565.815 317.08 "
         style="fill:none;fill-rule:evenodd;stroke:#000000;stroke-width:1pt;"
         id="path445" />
    </g>
    <g
       id="g784">
      <path
         d="M 521.184 221.027 C 526.706 207.946 527.578 203.295 528.16 197.191 C 528.741 191.087 531.648 187.889 535.427 184.983 C 539.205 182.076 545.6 180.332 547.635 179.169 C 547.635 177.425 547.635 177.716 547.635 175.1 C 538.333 178.297 536.589 180.041 532.811 178.878 C 529.032 177.716 530.194 176.262 526.706 176.553 C 523.218 176.844 516.533 171.611 512.173 166.379 C 502.871 173.065 497.639 177.425 496.185 189.052 C 494.732 200.679 494.732 205.33 499.673 216.666 C 504.615 228.003 513.917 229.747 516.823 230.619 C 518.858 224.515 518.858 223.352 521.184 221.027 z "
         style="fill:#d32c27;fill-rule:evenodd;stroke-width:1pt;"
         id="path259" />
      <path
         d="M 504.805 172.242 C 509.327 180.875 513.643 184.369 515.493 186.219 C 517.343 188.069 520.837 187.657 523.098 186.013 C 525.359 184.369 529.881 180.052 532.142 180.052 C 534.403 180.052 536.047 181.697 535.019 183.136 C 533.992 184.574 528.442 187.863 528.237 189.302 C 528.031 190.74 527.826 193.413 528.442 194.44 C 531.525 188.48 532.553 184.163 547.352 179.436 C 547.763 177.175 547.557 176.764 547.557 175.325 C 541.802 176.969 537.486 181.902 530.498 177.586 C 528.853 176.764 524.948 176.764 522.687 175.736 C 520.426 174.708 513.438 168.542 512.41 166.487 C 508.505 169.159 506.655 170.392 504.805 172.242 z "
         style="fill:#662928;fill-rule:evenodd;stroke-width:1pt;"
         id="path260" />
      <path
         d="M 515.082 222.394 C 504.6 210.267 504.805 205.745 505.011 198.14 C 505.216 190.535 507.888 179.436 519.398 173.27 C 518.987 171.009 517.343 170.392 515.699 170.187 C 507.477 176.558 501.105 182.108 500.489 195.468 C 499.872 208.828 499.872 214.378 511.793 224.038 C 512.821 223.421 513.438 223.216 515.082 222.394 z "
         style="fill:#ffffff;fill-rule:evenodd;stroke-width:1pt;"
         id="path262" />
      <path
         d="M 521.184 221.027 C 526.706 207.946 527.578 203.295 528.16 197.191 C 528.741 191.087 531.648 187.889 535.427 184.983 C 539.205 182.076 543.856 180.913 545.891 179.75 C 545.891 178.006 545.891 178.007 545.891 175.391 C 538.914 179.024 536.298 179.75 532.52 178.587 C 528.741 177.425 530.194 176.262 526.706 176.553 C 523.218 176.844 516.533 171.611 512.173 166.379 C 502.871 173.065 497.639 177.425 496.185 189.052 C 494.732 200.679 494.732 205.33 499.673 216.666 C 504.615 228.003 513.917 229.747 516.823 230.619 C 518.858 224.515 518.858 223.352 521.184 221.027 z "
         style="fill:none;fill-rule:evenodd;stroke:#000000;stroke-width:1pt;"
         id="path263" />
      <path
         d="M 515.904 169.981 C 510.971 174.092 507.888 176.764 507.066 178.203 C 509.327 178.203 509.532 179.025 510.149 181.491 C 514.26 177.175 516.315 174.708 519.398 173.27 C 518.576 171.214 517.754 170.392 515.904 169.981 z "
         style="fill:#a4a9e0;fill-rule:evenodd;stroke-width:1pt;"
         id="path264" />
      <path
         d="M 514.877 222.188 C 511.177 217.666 508.094 213.35 507.066 210.883 C 503.161 208.006 501.105 206.978 500.078 204.512 C 502.544 214.994 501.722 214.172 511.999 224.038 C 513.027 223.421 514.877 222.805 514.877 222.188 z "
         style="fill:#a4a9e0;fill-rule:evenodd;stroke-width:1pt;"
         id="path265" />
      <path
         d="M 515.082 222.394 C 504.6 210.267 504.805 205.745 505.011 198.14 C 505.216 190.535 507.888 179.436 519.398 173.27 C 518.987 171.009 517.343 170.392 515.699 170.187 C 507.477 176.558 501.105 182.108 500.489 195.468 C 499.872 208.828 499.872 214.378 511.793 224.038 C 512.821 223.421 513.438 223.216 515.082 222.394 z "
         style="fill:none;fill-rule:evenodd;stroke:#000000;stroke-width:1pt;"
         id="path267" />
    </g>
    <g
       id="g673">
      <path
         d="M 546.182 174.809 C 545.892 179.023 545.746 183.383 545.746 186 C 553.74 186.726 567.983 186.581 578.883 182.221 C 578.883 178.151 579.174 174.954 578.883 172.483 C 567.401 175.826 555.484 176.553 546.182 174.809 z "
         style="fill:#d32c27;fill-rule:evenodd;stroke-width:0.25;"
         id="path670" />
      <path
         d="M 546.182 174.809 C 546.182 175.317 546.073 176.153 546.001 176.934 C 552.679 177.565 557.046 179.532 560.353 186.018 C 566.275 185.527 573.433 184.401 578.883 182.221 C 578.883 178.151 579.174 174.954 578.883 172.483 C 567.401 175.826 555.484 176.553 546.182 174.809 z "
         style="fill:#652827;fill-rule:evenodd;stroke-width:0.25;"
         id="path671" />
      <path
         d="M 546.182 174.809 C 545.892 179.023 545.746 183.383 545.746 186 C 553.74 186.726 567.983 186.581 578.883 182.221 C 578.883 178.151 579.174 174.954 578.883 172.483 C 567.401 175.826 555.484 176.553 546.182 174.809 z "
         style="fill:none;fill-rule:evenodd;stroke:#000000;stroke-width:1.25;"
         id="path672" />
    </g>
    <g
       id="g749">
      <path
         d="M 525 220.487 C 538.438 205.8 546.25 197.675 552.188 191.737 C 558.125 185.8 562.812 182.05 569.375 180.8 C 575.938 179.55 579.375 177.987 582.5 175.487 C 585.625 172.987 587.812 173.3 590.625 174.55 C 597.5 169.237 599.375 163.925 608.75 166.425 C 601.562 177.987 601.25 180.8 598.125 185.175 C 595 189.55 590.938 201.425 567.188 212.362 C 543.438 223.3 531.25 226.425 528.125 227.675 C 526.562 225.8 525.938 223.612 525 220.487 z "
         style="fill:#d32c27;fill-rule:evenodd;stroke-width:1pt;"
         id="path318" />
      <path
         d="M 564.581 182.179 C 572.315 181.516 574.745 189.471 579.165 189.471 C 583.584 189.471 584.689 190.134 586.457 186.598 C 588.225 183.063 595.296 174.887 597.726 169.362 C 594.191 171.572 593.086 172.235 591.097 174.666 C 586.236 173.34 585.794 173.34 581.816 176.213 C 575.85 181.074 570.989 179.527 564.581 182.179 z "
         style="fill:#662928;fill-rule:evenodd;stroke-width:1pt;"
         id="path319" />
      <path
         d="M 528.341 219.965 C 542.263 211.347 547.787 210.905 557.731 206.265 C 567.674 201.624 580.712 194.995 584.689 187.703 C 588.666 180.411 588.004 178.422 588.446 177.096 C 588.887 175.771 591.097 174.003 592.423 173.119 C 592.202 181.074 589.55 191.018 582.479 196.321 C 575.408 201.624 563.697 210.021 550.88 214.661 C 538.064 219.302 531.656 222.174 529.667 222.616 C 528.783 221.953 529.004 221.733 528.341 219.965 z "
         style="fill:#ffffff;fill-rule:evenodd;stroke-width:1pt;"
         id="path320" />
      <path
         d="M 525 220.487 C 538.438 205.8 546.25 197.675 552.188 191.737 C 558.125 185.8 562.812 182.05 569.375 180.8 C 575.938 179.55 579.375 177.987 582.5 175.487 C 585.625 172.987 587.812 173.3 590.625 174.55 C 597.5 169.237 599.375 163.925 608.75 166.425 C 601.562 177.987 601.25 180.8 598.125 185.175 C 595 189.55 590.938 201.425 567.188 212.362 C 543.438 223.3 531.25 226.425 528.125 227.675 C 526.562 225.8 525.938 223.612 525 220.487 z "
         style="fill:none;fill-rule:evenodd;stroke:#000000;stroke-width:1pt;"
         id="path258" />
      <path
         d="M 588.871 176.353 C 588.254 180.052 587.843 181.491 587.021 183.341 C 589.693 179.436 590.926 178.408 591.954 177.175 C 592.365 175.12 592.365 174.503 592.365 173.475 C 590.515 175.325 589.898 176.147 588.871 176.353 z "
         style="fill:#a4a9e0;fill-rule:evenodd;stroke-width:1pt;"
         id="path261" />
      <path
         d="M 528.341 219.965 C 542.263 211.347 547.787 210.905 557.731 206.265 C 567.674 201.624 580.712 194.995 584.689 187.703 C 588.666 180.411 588.004 178.422 588.446 177.096 C 588.887 175.771 591.097 174.003 592.423 173.119 C 592.202 181.074 589.55 191.018 582.479 196.321 C 575.408 201.624 563.697 210.021 550.88 214.661 C 538.064 219.302 531.656 222.174 529.667 222.616 C 528.783 221.953 529.004 221.733 528.341 219.965 z "
         style="fill:none;fill-rule:evenodd;stroke:#000000;stroke-width:1pt;"
         id="path266" />
    </g>
    <g
       id="g249">
      <path
         d="M 645.394 70.4997 C 640.872 72.9662 638.611 75.8438 636.35 78.3102 C 637.173 92.0813 637.995 104.208 637.995 108.525 C 639.022 110.169 639.434 109.963 640.256 109.141 C 641.078 108.319 647.039 103.18 648.683 102.153 C 645.805 85.7097 645.6 77.0769 645.394 70.4997 z "
         style="fill:#ffffff;fill-rule:evenodd;stroke-width:1pt;"
         id="path247" />
      <path
         d="M 645.805 81.5989 C 641.283 84.0654 639.639 84.4765 636.761 85.7096 C 637.379 94.5478 637.995 104.208 637.995 108.525 C 639.022 110.169 639.434 109.963 640.256 109.141 C 641.078 108.319 647.039 103.18 648.683 102.153 C 647.449 95.1645 646.011 88.176 645.805 81.5989 z "
         style="fill:#a4a9e0;fill-rule:evenodd;stroke-width:0.125;"
         id="path248" />
    </g>
    <g
       id="g820">
      <path
         d="M 544.729 20.1673 C 525.835 14.6444 517.406 18.7139 508.685 26.8528 C 499.965 34.9918 492.698 47.491 484.268 52.1418 C 475.839 56.7926 461.886 66.9663 464.502 92.5459 C 466.828 83.5349 468.862 75.9774 472.641 71.6172 C 466.537 91.3832 466.537 100.394 469.734 106.208 C 472.932 112.021 474.095 115.219 478.455 118.126 C 474.967 106.789 472.641 100.104 473.804 91.9645 C 476.129 104.173 481.652 117.544 486.884 121.323 C 492.117 125.102 496.767 124.23 499.093 124.23 C 499.965 120.16 501.709 118.707 503.744 118.416 C 502.581 115.8 503.162 114.928 502.872 112.893 C 507.522 114.056 511.592 114.347 515.08 114.347 C 507.813 105.917 505.778 97.4875 509.848 87.3137 C 516.533 101.557 519.15 104.754 529.905 108.533 C 523.8 97.1967 522.056 91.9645 523.219 82.6629 C 525.835 94.29 524.672 93.9993 528.161 99.8128 C 528.451 87.0231 526.998 83.2442 530.486 74.8146 C 532.811 91.0925 533.683 96.906 543.857 105.336 C 538.625 85.5697 539.497 75.396 546.183 62.3155 C 549.089 84.4069 550.543 93.1273 559.844 103.882 C 556.647 91.0925 555.484 89.0577 555.484 82.9535 C 559.844 91.3832 564.786 98.6501 578.157 99.8128 C 575.25 95.7434 574.378 93.7085 573.216 90.2205 C 578.738 96.6154 580.192 100.104 589.784 102.72 C 586.296 97.4874 582.517 93.7085 581.064 90.2205 C 589.784 97.1967 592.981 102.429 600.539 105.335 C 608.097 106.208 610.712 107.952 612.456 106.498 C 615.945 90.511 617.98 82.3717 617.69 75.1051 C 634.549 83.2445 633.095 79.4655 653.442 62.8969 C 649.664 57.9553 644.722 49.235 626.119 44.0028 C 607.515 38.7706 600.539 32.957 592.11 26.8528 C 583.68 20.7486 577.285 14.6444 562.17 15.2257 C 547.055 15.8071 549.38 18.1325 544.729 20.1673 z "
         style="fill:#1a1917;fill-rule:evenodd;stroke-width:1pt;"
         id="path307" />
      <path
         d="M 497.349 39.6426 C 493.279 44.2935 489.501 48.0723 485.722 51.2697 C 490.663 50.979 491.535 49.8163 493.57 48.9443 C 492.117 55.3392 490.663 54.7579 489.21 62.6062 C 494.733 58.8273 498.802 55.0486 502.581 53.0138 C 500.837 59.4087 500.256 59.9901 500.256 63.1875 C 504.906 56.5019 506.65 53.8858 508.976 52.1418 C 508.104 57.9553 508.104 59.9901 508.104 61.7341 C 512.464 53.5952 515.08 48.0723 520.603 44.0028 C 515.661 44.5842 511.592 46.6189 510.139 48.6536 C 511.301 42.8401 511.883 40.8054 513.336 38.48 C 505.778 41.968 502.29 42.8401 500.546 44.8748 C 500.837 40.8053 500.546 39.9334 502.581 37.6079 C 500.256 38.1893 497.93 39.6426 497.349 39.6426 z "
         style="fill:#3d2f5e;fill-rule:evenodd;stroke-width:1pt;"
         id="path291" />
      <path
         d="M 575.832 16.6791 C 577.866 21.6207 578.448 22.202 578.738 23.6554 C 576.122 23.946 575.832 24.2367 574.378 23.946 C 574.088 27.1435 574.96 27.7249 575.25 28.8876 C 571.762 27.4342 570.89 27.1435 567.983 26.5622 C 569.437 32.957 570.018 33.2477 570.018 34.9918 C 565.949 33.8291 564.495 33.8291 562.17 32.957 C 562.751 34.7011 563.333 33.8291 564.495 36.4452 C 558.682 35.8638 551.996 33.8291 547.927 33.2477 C 552.868 40.224 557.81 44.8748 559.554 49.8163 C 561.879 48.0723 561.879 46.0376 561.298 44.2935 C 565.077 46.9096 568.565 44.0028 570.309 42.5494 C 575.25 45.1655 576.704 45.1655 578.448 46.0376 C 579.61 43.1308 579.901 43.1308 579.61 41.6774 C 585.133 45.4562 588.04 45.7468 590.656 48.3629 C 588.621 43.7121 584.552 39.0613 582.227 37.8986 C 586.587 36.4452 586.587 34.9918 584.261 28.3062 C 588.621 27.7249 590.075 26.8528 592.11 26.8528 C 584.261 21.6207 581.645 18.7139 575.832 16.6791 z "
         style="fill:#3d2f5e;fill-rule:evenodd;stroke-width:1pt;"
         id="path292" />
      <path
         d="M 631.642 66.9662 C 626.991 63.1874 620.887 59.1179 615.654 59.1179 C 626.991 58.5366 631.932 59.4085 631.642 56.5018 C 635.42 54.7578 634.548 49.8162 633.386 47.4908 C 639.781 49.5256 642.978 50.6883 645.303 53.5951 C 641.815 55.3391 641.234 55.3392 639.199 55.6298 C 639.781 61.1527 639.199 60.5714 639.781 63.4781 C 636.583 62.6061 634.258 62.0247 632.514 61.4434 C 634.258 65.8035 632.514 67.5476 631.642 66.9662 z "
         style="fill:#3d2f5e;fill-rule:evenodd;stroke-width:1pt;"
         id="path293" />
      <path
         d="M 653.442 62.8969 C 649.664 57.9553 644.722 49.235 626.119 44.0028 C 607.515 38.7706 600.539 32.957 592.11 26.8528 C 583.68 20.7486 577.285 14.6444 562.17 15.2257 C 547.055 15.8071 549.38 18.1325 544.729 20.1673 C 525.835 14.6444 517.406 18.7139 508.685 26.8528 C 499.965 34.9918 492.698 47.491 484.268 52.1418 C 475.839 56.7926 461.886 66.9663 464.502 92.5459 C 466.828 83.5349 468.862 75.9774 472.641 71.6172 C 466.537 91.3832 466.537 100.394 469.734 106.208 C 472.932 112.021 474.095 115.219 478.455 118.126 C 474.967 106.789 472.641 100.104 473.804 91.9645 C 476.129 104.173 481.652 117.544 486.884 121.323 C 492.117 125.102 496.767 124.23 499.093 124.23 C 499.965 120.16 501.709 118.707 503.744 118.416 C 502.581 115.8 503.162 114.928 502.872 112.893 C 507.522 114.056 511.592 114.347 515.08 114.347 C 507.813 105.917 505.778 97.4875 509.848 87.3137 C 516.533 101.557 519.15 104.754 529.905 108.533 C 523.8 97.1967 522.056 91.9645 523.219 82.6629 C 525.835 94.29 524.672 93.9993 528.161 99.8128 C 528.451 87.0231 526.998 83.2442 530.486 74.8146 C 532.811 91.0925 533.683 96.906 543.857 105.336 C 538.625 85.5697 539.497 75.396 546.183 62.3155 C 549.089 84.4069 550.543 93.1273 559.844 103.882 C 556.647 91.0925 555.484 89.0577 555.484 82.9535 C 559.844 91.3832 564.786 98.6501 578.157 99.8128 C 575.25 95.7434 574.378 93.7085 573.216 90.2205 C 578.738 96.6154 580.192 100.104 589.784 102.72 C 586.296 97.4874 582.517 93.7085 581.064 90.2205 C 589.784 97.1967 593.272 101.557 598.504 103.882 "
         style="fill:none;fill-rule:evenodd;stroke:#000000;stroke-width:1pt;"
         id="path308" />
    </g>
    <g
       id="g241">
      <path
         d="M 648.683 112.841 C 646.833 110.58 645.394 103.797 646.216 101.125 C 645.6 101.331 645.189 101.125 644.572 100.097 C 642.928 100.303 641.694 98.4531 641.283 95.7811 C 640.872 93.109 640.667 80.7766 641.9 75.6382 C 643.133 70.4997 648.066 60.8394 655.466 56.112 C 662.865 51.3845 666.154 53.4399 667.798 53.851 C 675.197 47.8904 681.158 47.8903 685.474 50.5623 C 689.791 53.2344 693.285 57.9619 692.668 60.0172 C 696.985 63.9224 702.123 68.0333 701.712 73.1717 C 701.301 78.3102 701.712 80.7767 699.451 82.421 C 695.34 75.8437 694.313 73.5827 685.474 75.6382 C 676.636 77.6936 672.731 79.1324 654.027 99.4808 C 652.177 103.386 649.916 109.347 648.683 112.841 z "
         style="fill:#d32c27;fill-rule:evenodd;stroke-width:1pt;"
         id="path230" />
      <path
         d="M 653.821 57.3452 C 660.193 55.7009 662.454 54.6732 663.482 56.112 C 665.537 55.0842 665.331 55.2897 667.181 53.851 C 663.893 52.8233 659.576 52.0012 653.821 57.3452 z M 660.604 91.8758 C 657.521 95.5755 656.699 95.9866 654.232 99.4808 C 651.766 105.03 650.327 108.113 648.683 112.43 C 646.627 107.702 645.805 104.825 646.011 101.536 C 645.805 101.125 644.983 100.92 644.778 100.508 C 640.872 98.8642 640.667 92.9035 641.489 79.1324 C 644.161 83.0376 645.805 82.2154 647.655 81.1877 C 649.094 85.504 648.066 88.7927 652.177 87.9706 C 649.711 102.153 652.794 96.6033 655.26 94.5479 C 657.727 92.4924 669.648 81.1878 672.937 78.5157 C 676.225 75.8437 680.747 73.5828 686.091 75.2271 C 675.609 78.5157 673.348 79.749 660.604 91.8758 z M 685.063 50.1513 C 688.352 54.8787 688.146 57.5507 678.281 61.6615 C 690.407 60.0172 694.929 62.2782 695.751 65.3612 C 696.574 68.4443 694.929 72.5551 690.613 75.0216 C 696.368 76.6658 697.19 77.8991 699.246 82.2155 C 701.507 79.9545 701.301 80.3656 701.712 76.0492 C 702.123 71.7329 701.096 68.2388 698.423 65.3612 C 695.751 62.4836 694.724 61.6616 692.874 60.4283 C 692.257 56.523 690.819 54.262 685.063 50.1513 z "
         style="fill:#662928;fill-rule:evenodd;stroke-width:1pt;"
         id="path239" />
      <path
         d="M 646.216 101.331 C 653.821 82.6265 663.687 68.8553 674.786 63.3058 C 685.886 57.7562 691.024 59.6061 692.668 60.2227 "
         style="fill:none;fill-rule:evenodd;stroke:#000000;stroke-width:1pt;"
         id="path231" />
      <path
         d="M 644.572 100.097 C 647.244 82.2155 649.171 73.7242 655.671 65.1557 C 660.193 59.4006 665.331 54.6731 667.798 53.6454 "
         style="fill:none;fill-rule:evenodd;stroke:#000000;stroke-width:1pt;"
         id="path232" />
      <path
         d="M 648.683 112.841 C 646.833 110.58 645.394 103.797 646.216 101.125 C 645.6 101.331 645.189 101.125 644.572 100.097 C 642.928 100.303 641.694 98.4531 641.283 95.7811 C 640.872 93.109 640.667 80.7766 641.9 75.6382 C 643.133 70.4997 648.066 60.8394 655.466 56.112 C 662.865 51.3845 666.154 53.4399 667.798 53.851 C 675.197 47.8904 681.158 47.8903 685.474 50.5623 C 689.791 53.2344 693.285 57.9619 692.668 60.0172 C 696.985 63.9224 702.123 68.0333 701.712 73.1717 C 701.301 78.3102 701.712 80.7767 699.451 82.421 C 695.34 75.8437 694.313 73.5827 685.474 75.6382 C 676.636 77.6936 672.731 79.1324 654.027 99.4808 C 652.177 103.386 649.916 109.347 648.683 112.841 z "
         style="fill:none;fill-rule:evenodd;stroke:#000000;stroke-width:1pt;"
         id="path240" />
    </g>
    <g
       id="g205">
      <path
         d="M 516.521 240.686 C 529.676 256.718 535.842 271.106 538.103 278.506 C 540.364 285.905 540.569 287.755 540.98 288.988 C 541.391 290.221 541.802 293.099 544.063 291.455 C 546.324 289.81 559.479 278.711 567.289 272.75 C 575.1 266.79 584.555 261.035 586.199 260.212 C 587.843 259.39 589.282 259.185 588.049 257.335 C 586.816 255.485 583.527 254.046 578.594 248.086 C 573.661 242.125 563.59 231.848 549.818 229.793 C 536.047 227.737 529.059 228.559 523.098 229.587 C 520.426 234.109 518.371 236.781 516.521 240.686 z "
         style="fill:#413170;fill-rule:evenodd;stroke:#000000;stroke-width:1pt;"
         id="path204" />
      <path
         d="M 529.676 223.626 C 545.913 212.527 550.846 209.856 564.617 210.472 C 578.215 211.284 583.527 210.266 585.788 210.883 C 588.049 211.5 589.077 212.527 587.843 214.377 C 586.61 216.227 582.294 223.832 580.855 231.437 C 579.416 239.042 575.922 255.485 574.689 258.774 C 573.456 262.062 572.633 264.94 571.811 265.968 C 570.989 266.995 571.195 268.434 568.317 267.612 C 565.44 266.79 547.969 260.007 540.364 254.252 C 532.759 248.497 526.387 240.275 523.509 235.342 C 525.976 230.409 529.676 224.038 529.676 223.626 z "
         style="fill:#413170;fill-rule:evenodd;stroke:#000000;stroke-width:1pt;"
         id="path202" />
      <path
         d="M 527.826 233.698 C 541.186 232.259 547.352 228.354 552.902 222.188 "
         style="fill:none;fill-rule:evenodd;stroke:#000000;stroke-width:1pt;"
         id="path203" />
      <path
         d="M 495.459 235.56 C 479.181 241.228 461.304 245.879 458.252 246.46 C 455.2 247.042 451.857 247.478 451.567 248.495 C 451.276 249.513 450.985 250.821 453.165 253.146 C 455.345 255.471 466.246 266.226 469.734 273.057 C 473.222 279.888 473.948 282.359 474.966 284.394 C 475.983 286.429 476.552 287.312 478.309 285.556 C 480.344 283.667 489.791 266.808 495.895 258.669 C 501.999 250.53 509.266 241.664 510.865 240.211 C 503.452 234.688 500.4 234.979 495.459 235.56 z "
         style="fill:#413170;fill-rule:evenodd;stroke:#000000;stroke-width:1pt;"
         id="path149" />
      <path
         d="M 511.446 225.241 C 502.726 209.835 491.244 204.603 486.157 203.004 C 481.07 201.405 478.89 200.824 477.873 200.533 C 476.856 200.243 475.774 199.969 475.402 201.551 C 474.82 204.167 473.741 208.012 473.077 211.143 C 471.914 216.23 469.734 222.044 467.408 231.927 C 465.083 241.81 464.211 251.693 464.211 252.855 C 464.211 254.018 463.775 255.181 466.536 255.471 C 472.35 256.343 481.572 256.324 495.459 249.367 C 504.261 245.003 509.411 240.356 511.591 237.595 C 511.446 232.944 511.882 229.31 511.446 225.241 z "
         style="fill:#413170;fill-rule:evenodd;stroke:#000000;stroke-width:1pt;"
         id="path147" />
      <path
         d="M 490.663 220.445 C 491.099 230.037 494.732 232.072 505.342 233.38 "
         style="fill:none;fill-rule:evenodd;stroke:#000000;stroke-width:1pt;"
         id="path148" />
      <g
         id="g147">
        <ellipse
           cx="518.264282"
           cy="231.015823"
           rx="11.977112"
           ry="16.037140"
           transform="matrix(1.055560,0.549344,-0.633648,0.915126,117.5860,-265.0970)"
           style="fill:#a73836;fill-rule:evenodd;stroke-width:0.22664;"
           id="path140" />
        <ellipse
           cx="518.264282"
           cy="231.015823"
           rx="11.977112"
           ry="16.037140"
           transform="matrix(0.870588,0.466153,-0.522610,0.776543,187.7990,-189.9680)"
           style="fill:#d62d31;fill-rule:evenodd;stroke-width:0.22664;"
           id="path141" />
        <path
           d="M 515.592 218.418 C 511.568 219.217 509.72 225.667 509.24 231.309 C 508.862 234.753 507.18 234.906 506.287 231.016 C 506.287 222.163 510.861 215.682 517.471 215.682 C 518.957 215.574 519.765 217.528 515.592 218.418 z "
           transform="matrix(1.002710,0.535480,-0.601922,0.892031,137.6470,-252.5770)"
           style="fill:#ffffff;fill-opacity:0.5;fill-rule:evenodd;stroke-width:0.22664;"
           id="path143" />
        <ellipse
           cx="517.046265"
           cy="221.880692"
           rx="4.872070"
           ry="4.872055"
           transform="matrix(1.250000,0.000000,0.000000,1.208330,-128.8560,-45.61460)"
           style="fill:#ffffff;fill-opacity:0.498039;fill-rule:evenodd;stroke-width:0.181818;"
           id="path144" />
        <ellipse
           cx="517.046265"
           cy="221.880692"
           rx="4.872070"
           ry="4.872055"
           transform="matrix(0.916673,0.000000,0.000000,0.854167,42.88250,32.25680)"
           style="fill:#ffffff;fill-rule:evenodd;stroke-width:0.181818;"
           id="path145" />
        <ellipse
           cx="518.264282"
           cy="231.015823"
           rx="11.977112"
           ry="16.037140"
           transform="matrix(1.055560,0.549344,-0.633648,0.915126,117.5860,-265.0970)"
           style="fill:none;fill-rule:evenodd;stroke:#000000;stroke-width:1.1332;"
           id="path146" />
      </g>
    </g>
    <g
       id="g210">
      <path
         d="M 613.328 169.286 C 618.27 162.019 622.048 159.112 624.955 154.171 C 627.862 149.229 633.094 143.706 640.361 130.335 C 647.628 116.964 650.825 105.628 654.023 99.5235 C 662.162 88.7685 671.754 81.5015 675.824 78.8855 C 679.893 76.2694 690.067 73.6533 693.846 75.6881 C 697.624 77.7228 697.915 79.7575 699.078 82.3736 C 695.008 97.4888 685.997 118.708 677.568 138.765 C 669.138 158.822 644.721 198.354 641.524 203.586 C 636.873 209.109 632.222 210.271 627.571 208.237 C 622.92 206.202 614.781 196.61 612.747 188.18 C 610.712 179.75 610.712 175.972 613.328 169.286 z "
         style="fill:#edb8a0;fill-rule:evenodd;stroke-width:1pt;"
         id="path207" />
      <path
         d="M 615.654 195.447 C 627.862 173.355 639.78 169.577 653.441 154.752 C 667.103 139.928 679.893 118.417 683.091 101.268 C 686.288 84.1177 687.741 79.4668 679.312 78.0134 C 692.392 73.0719 694.136 75.3975 695.88 76.8508 C 697.915 80.0482 699.659 81.2108 698.206 86.4431 C 696.462 89.9312 681.056 133.242 674.952 145.16 C 668.847 157.078 645.884 196.9 642.105 203.005 C 636.001 208.237 633.094 212.306 624.374 205.911 C 621.758 203.876 619.432 201.551 615.654 195.447 z "
         style="fill:#e8815b;fill-rule:evenodd;stroke-width:1pt;"
         id="path208" />
      <path
         d="M 613.328 169.286 C 618.27 162.019 622.048 159.112 624.955 154.171 C 627.862 149.229 633.094 143.706 640.361 130.335 C 647.628 116.964 650.825 105.628 654.023 99.5235 C 662.162 88.7685 671.754 81.5015 675.824 78.8855 C 679.893 76.2694 690.067 73.6533 693.846 75.6881 C 697.624 77.7228 697.915 79.7575 699.078 82.3736 C 695.008 97.4888 685.997 118.708 677.568 138.765 C 669.138 158.822 644.721 198.354 641.524 203.586 C 636.873 209.109 632.222 210.271 627.571 208.237 C 622.92 206.202 614.781 196.61 612.747 188.18 C 610.712 179.75 610.712 175.972 613.328 169.286 z "
         style="fill:none;fill-rule:evenodd;stroke:#000000;stroke-width:1pt;"
         id="path209" />
    </g>
    <g
       id="g280">
      <path
         d="M 450.954 970.557 C 435.744 977.957 426.7 987.001 421.767 992.345 C 416.835 997.689 416.835 999.744 423.001 1000.16 C 429.167 1000.57 447.254 997.278 459.176 994.4 C 471.097 991.522 477.674 987.001 481.785 980.423 C 485.896 973.846 492.473 962.747 494.529 960.691 C 496.584 958.636 499.873 956.992 500.284 960.691 C 500.695 964.391 496.584 980.834 495.762 985.767 C 498.228 985.767 499.462 985.767 500.695 985.767 C 504.394 971.791 509.739 957.814 515.083 949.181 C 520.427 940.549 527.415 931.505 527.826 924.516 C 528.237 917.528 527.826 909.307 519.604 903.14 C 521.249 913.828 521.66 917.117 515.494 922.05 C 509.327 926.983 499.05 936.849 487.951 950.003 C 476.852 963.158 469.453 973.435 461.231 973.846 C 453.009 974.257 453.009 972.613 450.954 970.557 z "
         style="fill:#d32c27;fill-rule:evenodd;stroke-width:1pt;"
         id="path276" />
      <path
         d="M 495.605 959.927 C 502.29 952.079 508.976 945.974 514.208 943.649 C 507.232 952.951 502.872 957.311 500.255 965.45 C 500.255 959.636 499.965 956.729 495.605 959.927 z "
         style="fill:#662928;fill-rule:evenodd;stroke-width:1pt;"
         id="path278" />
      <path
         d="M 495.762 959.252 C 501.106 953.497 508.094 945.07 519.193 942.193 "
         style="fill:none;fill-rule:evenodd;stroke:#000000;stroke-width:1pt;"
         id="path277" />
      <path
         d="M 450.954 970.557 C 435.744 977.957 426.7 987.001 421.767 992.345 C 416.835 997.689 416.835 999.744 423.001 1000.16 C 429.167 1000.57 447.254 997.278 459.176 994.4 C 471.097 991.522 477.674 987.001 481.785 980.423 C 485.896 973.846 492.473 962.747 494.529 960.691 C 496.584 958.636 499.873 956.992 500.284 960.691 C 500.695 964.391 496.584 980.834 495.762 985.767 C 498.228 985.767 499.462 985.767 500.695 985.767 C 504.394 971.791 509.739 957.814 515.083 949.181 C 520.427 940.549 527.415 931.505 527.826 924.516 C 528.237 917.528 527.826 909.307 519.604 903.14 C 521.249 913.828 521.66 917.117 515.494 922.05 C 509.327 926.983 499.05 936.849 487.951 950.003 C 476.852 963.158 469.453 973.435 461.231 973.846 C 453.009 974.257 453.009 972.613 450.954 970.557 z "
         style="fill:none;fill-rule:evenodd;stroke:#000000;stroke-width:1pt;"
         id="path279" />
    </g>
    <g
       id="g287">
      <path
         d="M 668.848 998.587 C 665.941 1013.7 663.035 1021.26 665.069 1027.95 C 667.104 1034.63 676.696 1045.1 679.894 1046.84 C 683.091 1048.58 688.614 1048.87 692.102 1045.97 C 695.591 1043.06 704.602 1031.43 705.474 1025.04 C 706.346 1018.64 705.474 999.168 702.858 987.541 C 699.369 1000.04 693.846 1010.21 687.161 1010.8 C 680.475 1011.38 673.208 1010.8 668.848 998.587 z "
         style="fill:#d32c27;fill-rule:evenodd;stroke-width:1pt;"
         id="path285" />
      <path
         d="M 668.848 998.587 C 665.941 1013.7 663.035 1021.26 665.069 1027.95 C 667.104 1034.63 676.696 1045.1 679.894 1046.84 C 683.091 1048.58 688.614 1048.87 692.102 1045.97 C 695.591 1043.06 704.602 1031.43 705.474 1025.04 C 706.346 1018.64 705.474 999.168 702.858 987.541 C 699.369 1000.04 693.846 1010.21 687.161 1010.8 C 680.475 1011.38 673.208 1010.8 668.848 998.587 z "
         style="fill:none;fill-rule:evenodd;stroke:#000000;stroke-width:1pt;"
         id="path286" />
    </g>
    <g
       id="g299">
      <polygon
         points="602.848,145.52 597.247,142.805 591.834,145.881 592.685,139.714 588.088,135.517 594.216,134.421 596.787,128.752 599.723,134.241 605.909,134.934 601.596,139.423 602.848,145.52 "
         style="fill:#d32c27;fill-rule:evenodd;stroke:#7b0000;stroke-width:1pt;stroke-linejoin:round;"
         id="polygon294" />
      <path
         d="M 595.449 137.71 C 592.777 137.71 594.01 137.915 594.01 139.765 C 594.01 141.615 593.188 143.465 594.832 142.643 C 596.477 141.821 596.271 140.999 598.738 142.232 C 601.204 143.465 599.971 141.204 599.765 139.971 C 599.56 138.738 600.793 137.504 602.026 136.682 C 603.26 135.86 599.971 135.86 598.943 135.86 C 597.915 135.86 596.888 137.915 595.449 137.71 z "
         style="fill:#ffffff;fill-opacity:0.5;fill-rule:evenodd;stroke-width:1pt;"
         id="path297" />
      <path
         d="M 596.534 139.541 C 593.862 139.541 592.021 140.079 592.021 141.596 C 592.021 143.446 591.018 144.63 592.662 143.808 C 594.307 142.986 595.729 141.665 598.196 142.898 C 600.662 144.131 600.875 141.37 600.669 140.137 C 600.464 138.904 602.239 136.505 603.472 135.683 C 604.706 134.861 602.502 134.695 601.474 134.695 C 600.446 134.695 597.973 139.746 596.534 139.541 z "
         transform="matrix(0.568450,0.000000,0.000000,0.617401,258.0720,53.21310)"
         style="fill:#ffffff;fill-opacity:0.5;fill-rule:evenodd;stroke-width:1pt;"
         id="path298" />
    </g>
    <g
       transform="translate(-81.97100,11.62710)"
       id="g303">
      <polygon
         points="602.848,145.52 597.247,142.805 591.834,145.881 592.685,139.714 588.088,135.517 594.216,134.421 596.787,128.752 599.723,134.241 605.909,134.934 601.596,139.423 602.848,145.52 "
         style="fill:#d32c27;fill-rule:evenodd;stroke:#7b0000;stroke-width:1pt;stroke-linejoin:round;"
         id="polygon304" />
      <path
         d="M 595.449 137.71 C 592.777 137.71 594.01 137.915 594.01 139.765 C 594.01 141.615 593.188 143.465 594.832 142.643 C 596.477 141.821 596.271 140.999 598.738 142.232 C 601.204 143.465 599.971 141.204 599.765 139.971 C 599.56 138.738 600.793 137.504 602.026 136.682 C 603.26 135.86 599.971 135.86 598.943 135.86 C 597.915 135.86 596.888 137.915 595.449 137.71 z "
         style="fill:#ffffff;fill-opacity:0.5;fill-rule:evenodd;stroke-width:1pt;"
         id="path305" />
      <path
         d="M 596.534 139.541 C 593.862 139.541 592.021 140.079 592.021 141.596 C 592.021 143.446 591.018 144.63 592.662 143.808 C 594.307 142.986 595.729 141.665 598.196 142.898 C 600.662 144.131 600.875 141.37 600.669 140.137 C 600.464 138.904 602.239 136.505 603.472 135.683 C 604.706 134.861 602.502 134.695 601.474 134.695 C 600.446 134.695 597.973 139.746 596.534 139.541 z "
         transform="matrix(0.568450,0.000000,0.000000,0.617401,258.0720,53.21310)"
         style="fill:#ffffff;fill-opacity:0.5;fill-rule:evenodd;stroke-width:1pt;"
         id="path306" />
    </g>
    <g
       id="g415">
      <path
         d="M 482.199 322.955 C 476.497 323.973 471.814 329.675 470.999 335.173 C 470.185 340.671 469.574 346.78 470.592 351.667 C 474.461 358.998 485.253 377.324 488.715 383.026 C 492.177 388.728 496.225 393.976 501.152 402.597 C 506.49 394.981 517.02 383.23 524.554 376.306 C 532.089 369.383 554.284 350.649 564.873 344.133 C 575.462 337.616 578.72 336.191 579.942 335.784 C 581.164 335.376 582.385 334.969 582.385 332.933 C 582.385 330.897 582.131 326.872 578.72 323.159 C 576.779 319.974 572.815 319.29 570.575 320.104 C 568.335 320.919 555.525 330.948 549.194 336.395 C 540.234 344.133 523.173 359.771 514.175 372.013 C 508.538 379.681 504.6 384.431 502.758 387.51 C 497.627 374.763 495.029 367.135 492.179 360.416 C 489.327 353.696 483.393 336.861 482.606 332.729 C 481.968 328.308 482.199 325.806 482.199 322.955 z "
         style="fill:#ffffff;fill-rule:evenodd;stroke-width:1pt;stroke-linecap:round;stroke-linejoin:round;"
         id="path296" />
      <path
         d="M 551.026 334.766 C 559.171 329.878 561.615 330.082 564.262 331.304 C 566.909 332.526 566.706 333.951 564.059 336.395 C 561.411 338.838 550.212 349.223 543.492 355.943 C 537.956 361.652 530.052 369.79 526.387 374.27 C 540.234 362.663 560.19 346.983 566.095 343.522 C 572 340.06 579.331 335.784 580.553 335.58 C 581.775 335.376 582.385 333.747 582.385 333.136 C 582.385 332.526 582.385 327.435 580.349 324.584 C 578.313 321.733 575.055 319.29 572 319.9 C 568.946 320.511 565.077 323.566 561.004 326.824 C 556.932 330.082 550.823 335.173 551.026 334.766 z "
         style="fill:#a9aee8;fill-rule:evenodd;stroke-width:1pt;"
         id="path295" />
      <path
         d="M 482.635 322.81 C 476.933 323.828 471.814 329.675 470.999 335.173 C 470.185 340.671 469.574 346.78 470.592 351.667 C 474.461 358.998 485.253 377.324 488.715 383.026 C 492.177 388.728 496.225 393.976 501.152 402.597 C 506.49 394.981 517.02 383.23 524.554 376.306 C 532.089 369.383 554.284 350.649 564.873 344.133 C 575.462 337.616 578.72 336.191 579.942 335.784 C 581.164 335.376 582.385 334.969 582.385 332.933 C 582.385 330.897 582.131 326.872 578.72 323.159 C 576.779 319.974 572.815 319.29 570.575 320.104 C 568.335 320.919 555.525 330.948 549.194 336.395 C 540.234 344.133 523.173 359.771 514.175 372.013 C 508.538 379.681 504.6 384.431 502.758 387.51 C 497.627 374.763 495.029 367.135 492.179 360.416 C 489.327 353.696 483.393 336.861 482.606 332.729 C 482.84 328.308 482.78 325.661 482.635 322.81 z "
         style="fill:none;fill-rule:evenodd;stroke:#000000;stroke-width:1pt;stroke-linecap:round;stroke-linejoin:round;"
         id="path385" />
    </g>
    <path
       d="M 402.036 458.764 C 394.431 434.304 395.047 419.506 401.008 406.351 C 406.968 393.197 418.684 372.231 422.178 365.86 C 425.673 359.488 443.76 330.507 444.993 308.514 C 436.155 331.74 435.333 337.495 420.945 361.132 C 406.557 384.769 397.308 396.28 394.636 417.245 C 391.964 438.21 394.02 450.748 402.036 458.764 z "
       style="fill:#3d2f5e;fill-rule:evenodd;stroke-width:1pt;"
       id="path272" />
    <path
       d="M 552.868 129.173 C 549.96 132.225 549.67 133.823 550.687 135.422 C 552.286 137.311 553.158 137.166 554.03 137.747 C 554.176 133.968 553.304 130.916 552.868 129.173 z "
       style="fill:#6d312f;fill-rule:evenodd;stroke-width:0.25;stroke-linecap:round;stroke-opacity:0.709804;"
       id="path613" />
    <path
       d="M 547.926 141.671 C 555.92 141.817 559.698 140.654 563.623 138.329 C 563.623 147.049 561.442 154.606 560.28 156.641 C 559.117 158.676 556.646 158.531 554.612 155.915 C 552.577 153.298 549.525 147.776 547.926 141.671 z "
       style="fill:#6d312f;fill-rule:evenodd;stroke-width:0.125;"
       id="path614" />
    <path
       d="M 554.03 141.38 C 556.356 141.381 559.698 140.654 563.623 138.329 C 563.623 147.049 561.442 154.606 560.28 156.641 C 559.117 158.676 556.646 158.531 554.612 155.915 C 551.269 151.409 553.449 147.34 554.03 141.38 z "
       style="fill:#d94149;fill-rule:evenodd;stroke-width:0.125;"
       id="path615" />
    <path
       d="M 547.926 141.671 C 555.92 141.817 559.698 140.654 563.623 138.329 C 563.623 147.049 561.442 154.606 560.28 156.641 C 559.117 158.676 556.646 158.531 554.612 155.915 C 552.577 153.298 549.525 147.776 547.926 141.671 z "
       style="fill:none;fill-rule:evenodd;stroke:#470303;stroke-width:1.25;"
       id="path617" />
    <g
       id="g618">
      <path
         d="M 516.824 117.545 C 519.73 110.714 521.184 109.552 527.288 109.842 C 533.392 110.133 538.624 113.766 540.659 115.946 C 541.386 124.376 541.386 134.841 537.026 137.021 C 532.665 139.201 527.433 138.474 522.201 132.224 C 516.969 125.975 517.114 122.632 516.824 117.545 z "
         transform="matrix(1.000000,0.000000,0.000000,1.010259,0.000000,-1.126532)"
         style="fill:#ffffff;fill-rule:evenodd;stroke:#723939;stroke-width:0.375;stroke-opacity:0.3125;"
         id="path605" />
      <path
         d="M 517.115 121.033 C 515.951 112.749 520.748 109.407 527.288 109.842 C 533.392 110.133 538.624 113.766 540.659 115.946 C 540.659 116.673 540.805 117.255 540.95 117.982 C 534.554 112.459 525.834 118.563 523.073 122.486 C 521.765 120.743 519.73 118.708 517.115 121.033 z "
         style="fill:#8e8dad;fill-rule:evenodd;stroke-width:0.125;"
         id="path607" />
      <g
         id="g585">
        <path
           d="M 541.24 123.65 C 541.24 131.672 536.813 138.184 531.357 138.184 C 525.902 138.184 521.474 131.672 521.474 123.65 C 521.474 115.627 525.902 109.116 531.357 109.116 C 536.813 109.116 541.24 115.627 541.24 123.65 z "
           transform="matrix(0.810593,-0.301810,0.243903,0.942741,70.52073,168.4226)"
           style="fill:#1e1926;fill-rule:evenodd;stroke-width:0.546263;"
           id="path574" />
        <path
           d="M 541.24 123.65 C 541.24 131.672 536.813 138.184 531.357 138.184 C 525.902 138.184 521.474 131.672 521.474 123.65 C 521.474 115.627 525.902 109.116 531.357 109.116 C 536.813 109.116 541.24 115.627 541.24 123.65 z "
           transform="matrix(0.736841,-0.273707,0.221712,0.854957,112.4533,164.5622)"
           style="fill:#332d42;fill-rule:evenodd;stroke-width:0.539929;"
           id="path575" />
        <path
           d="M 541.24 123.65 C 541.24 127.661 541.982 128.427 540.193 131.058 C 538.979 125.225 534.844 123.207 532.116 123.207 C 529.388 123.207 525.702 122.788 521.302 126.189 C 520.944 114.766 525.902 109.116 531.357 109.116 C 536.813 109.116 541.24 115.627 541.24 123.65 z "
           transform="matrix(0.736841,-0.269016,0.221712,0.840303,112.4533,163.6634)"
           style="fill:#16131d;fill-opacity:0.5;fill-rule:evenodd;stroke-width:0.539929;"
           id="path584" />
        <path
           d="M 541.24 123.65 C 541.24 131.672 536.813 138.184 531.357 138.184 C 525.902 138.184 521.474 131.672 521.474 123.65 C 521.474 115.627 525.902 109.116 531.357 109.116 C 536.813 109.116 541.24 115.627 541.24 123.65 z "
           transform="matrix(0.462718,7.850852e-2,-1.048168e-2,0.356146,286.8212,38.86972)"
           style="fill-opacity:0.5;fill-rule:evenodd;stroke-width:0.546263;"
           id="path580" />
        <path
           d="M 541.24 123.65 C 541.24 131.672 536.813 138.184 531.357 138.184 C 525.902 138.184 521.474 131.672 521.474 123.65 C 521.474 115.627 525.902 109.116 531.357 109.116 C 536.813 109.116 541.24 115.627 541.24 123.65 z "
           transform="matrix(0.358792,6.309471e-2,-8.127499e-3,0.286223,341.7520,55.70597)"
           style="fill-rule:evenodd;stroke-width:0.546263;"
           id="path576" />
        <path
           d="M 541.24 123.65 C 541.24 131.672 535.645 138.442 530.189 138.442 C 527.462 138.442 530.241 130.614 528.452 127.984 C 526.663 125.353 522.991 125.511 522.991 121.5 C 522.991 113.477 526.267 107.946 531.722 107.946 C 537.178 107.946 541.24 115.627 541.24 123.65 z "
           transform="matrix(0.525107,0.124746,-1.189494e-2,0.565903,253.2280,-16.77442)"
           style="fill:#ffffff;fill-opacity:0.5;fill-rule:evenodd;stroke-width:0.546263;"
           id="path579" />
        <path
           d="M 541.24 123.65 C 541.24 131.672 536.813 138.184 531.357 138.184 C 528.63 138.184 530.257 131.337 528.468 128.707 C 526.679 126.076 521.474 127.661 521.474 123.65 C 521.474 115.627 525.902 109.116 531.357 109.116 C 536.813 109.116 541.24 115.627 541.24 123.65 z "
           transform="matrix(0.389970,0.115499,-8.833750e-3,0.523952,324.9644,-7.289938)"
           style="fill:#ffffff;fill-opacity:0.75;fill-rule:evenodd;stroke-width:0.546263;"
           id="path578" />
        <path
           d="M 523.449 127.864 C 528.245 120.597 529.485 121.589 527.16 135.397 C 524.098 131.806 523.765 129.523 523.449 127.864 z "
           style="fill:#ffffff;fill-opacity:0.5;fill-rule:evenodd;stroke-width:0.25;"
           id="path582" />
        <path
           d="M 523.492 128.591 C 525.527 126.265 528.305 121.88 526.271 134.379 C 524.236 130.891 524.219 130.044 523.492 128.591 z "
           style="fill:#ffffff;fill-opacity:0.74902;fill-rule:evenodd;stroke-width:0.25;"
           id="path581" />
      </g>
      <path
         d="M 518.277 122.487 C 514.789 121.033 514.789 119.725 513.481 117.836 C 514.062 116.673 514.353 115.946 514.207 114.348 C 516.824 113.185 516.824 112.604 516.969 111.15 C 519.149 110.714 519.149 109.988 519.44 108.97 C 522.928 108.825 523.654 108.389 524.236 107.371 C 526.997 108.389 528.741 108.389 529.613 107.953 C 531.648 109.988 533.247 110.133 535.136 109.843 C 537.025 112.313 539.642 113.185 541.095 113.476 C 541.967 115.074 541.676 115.511 540.804 116.237 C 533.247 110.278 529.323 109.115 523.8 110.569 C 520.457 111.295 517.26 116.528 517.551 118.272 C 517.841 120.016 518.422 121.76 518.277 122.487 z "
         transform="translate(0.000000,-5.222681e-5)"
         style="fill-rule:evenodd;stroke-width:1.25;"
         id="path606" />
      <path
         d="M 529.759 137.893 C 534.7 138.329 536.59 137.311 538.77 135.712 C 539.496 136.148 538.334 137.166 536.735 139.055 C 533.247 138.765 531.212 139.346 529.759 140.218 C 529.468 138.765 529.468 138.619 529.759 137.893 z "
         style="fill-rule:evenodd;stroke-width:1pt;"
         id="path611" />
    </g>
    <g
       id="g633">
      <path
         d="M 564.204 112.022 C 569 105.046 571.18 103.011 576.558 102.575 C 581.935 102.139 587.894 101.849 590.656 109.261 C 589.929 118.417 588.766 131.352 579.028 131.498 C 569.291 131.643 565.948 123.795 564.204 112.022 z "
         style="fill:#ffffff;fill-rule:evenodd;stroke:#723939;stroke-width:0.25;stroke-opacity:0.309804;"
         id="path608" />
      <path
         d="M 564.204 112.022 C 569 105.046 571.18 103.011 576.558 102.575 C 581.935 102.139 587.894 101.849 590.656 109.261 C 590.729 110.932 590.401 111.513 590.547 112.276 C 585.169 105.918 581.862 112.386 580.336 117.4 C 574.16 112.822 569.872 110.751 564.985 115.474 C 564.749 114.675 564.204 113.112 564.204 112.022 z "
         style="fill:#8e8dad;fill-rule:evenodd;stroke-width:0.25;"
         id="path610" />
      <g
         transform="translate(44.76421,-6.830954)"
         id="g595">
        <path
           d="M 541.24 123.65 C 541.24 131.672 536.813 138.184 531.357 138.184 C 525.902 138.184 521.474 131.672 521.474 123.65 C 521.474 115.627 525.902 109.116 531.357 109.116 C 536.813 109.116 541.24 115.627 541.24 123.65 z "
           transform="matrix(0.810593,-0.301810,0.243903,0.942741,70.52073,168.4226)"
           style="fill:#1e1926;fill-rule:evenodd;stroke-width:0.546263;"
           id="path596" />
        <path
           d="M 541.24 123.65 C 541.24 131.672 536.813 138.184 531.357 138.184 C 525.902 138.184 521.474 131.672 521.474 123.65 C 521.474 115.627 525.902 109.116 531.357 109.116 C 536.813 109.116 541.24 115.627 541.24 123.65 z "
           transform="matrix(0.736841,-0.273707,0.221712,0.854957,112.4533,164.5622)"
           style="fill:#332d42;fill-rule:evenodd;stroke-width:0.539929;"
           id="path597" />
        <path
           d="M 541.24 123.65 C 541.24 127.661 541.982 128.427 540.193 131.058 C 538.979 125.225 534.844 123.207 532.116 123.207 C 529.388 123.207 525.702 122.788 521.302 126.189 C 520.944 114.766 525.902 109.116 531.357 109.116 C 536.813 109.116 541.24 115.627 541.24 123.65 z "
           transform="matrix(0.736841,-0.269016,0.221712,0.840303,112.4533,163.6634)"
           style="fill:#16131d;fill-opacity:0.5;fill-rule:evenodd;stroke-width:0.539929;"
           id="path598" />
        <path
           d="M 541.24 123.65 C 541.24 131.672 536.813 138.184 531.357 138.184 C 525.902 138.184 521.474 131.672 521.474 123.65 C 521.474 115.627 525.902 109.116 531.357 109.116 C 536.813 109.116 541.24 115.627 541.24 123.65 z "
           transform="matrix(0.462718,7.850852e-2,-1.048168e-2,0.356146,286.8212,38.86972)"
           style="fill-opacity:0.5;fill-rule:evenodd;stroke-width:0.546263;"
           id="path599" />
        <path
           d="M 541.24 123.65 C 541.24 131.672 536.813 138.184 531.357 138.184 C 525.902 138.184 521.474 131.672 521.474 123.65 C 521.474 115.627 525.902 109.116 531.357 109.116 C 536.813 109.116 541.24 115.627 541.24 123.65 z "
           transform="matrix(0.358792,6.309471e-2,-8.127499e-3,0.286223,341.7520,55.70597)"
           style="fill-rule:evenodd;stroke-width:0.546263;"
           id="path600" />
        <path
           d="M 541.24 123.65 C 541.24 131.672 535.645 138.442 530.189 138.442 C 527.462 138.442 530.241 130.614 528.452 127.984 C 526.663 125.353 522.991 125.511 522.991 121.5 C 522.991 113.477 526.267 107.946 531.722 107.946 C 537.178 107.946 541.24 115.627 541.24 123.65 z "
           transform="matrix(0.525107,0.124746,-1.189494e-2,0.565903,253.2280,-16.77442)"
           style="fill:#ffffff;fill-opacity:0.5;fill-rule:evenodd;stroke-width:0.546263;"
           id="path601" />
        <path
           d="M 541.24 123.65 C 541.24 131.672 536.813 138.184 531.357 138.184 C 528.63 138.184 530.257 131.337 528.468 128.707 C 526.679 126.076 521.474 127.661 521.474 123.65 C 521.474 115.627 525.902 109.116 531.357 109.116 C 536.813 109.116 541.24 115.627 541.24 123.65 z "
           transform="matrix(0.389970,0.115499,-8.833750e-3,0.523952,324.9644,-7.289938)"
           style="fill:#ffffff;fill-opacity:0.75;fill-rule:evenodd;stroke-width:0.546263;"
           id="path602" />
        <path
           d="M 523.449 127.864 C 528.245 120.597 529.485 121.589 527.16 135.397 C 524.098 131.806 523.765 129.523 523.449 127.864 z "
           style="fill:#ffffff;fill-opacity:0.5;fill-rule:evenodd;stroke-width:0.25;"
           id="path603" />
        <path
           d="M 523.492 128.591 C 525.527 126.265 528.305 121.88 526.271 134.379 C 524.236 130.891 524.219 130.044 523.492 128.591 z "
           style="fill:#ffffff;fill-opacity:0.74902;fill-rule:evenodd;stroke-width:0.25;"
           id="path604" />
      </g>
      <path
         d="M 564.204 111.877 C 563.187 111.441 563.041 111.005 562.896 109.842 C 564.349 108.68 566.093 105.918 566.82 104.174 C 571.762 102.575 574.087 102.139 575.831 100.831 C 579.319 101.122 580.773 100.541 582.226 99.6685 C 584.551 101.122 586.295 101.267 588.185 101.122 C 590.365 103.738 589.638 104.901 591.964 104.901 C 591.528 107.081 591.237 107.371 593.126 109.697 C 592.4 111.15 590.656 111.15 589.202 110.714 C 589.057 106.354 588.33 104.319 583.97 102.866 C 579.61 101.413 573.651 102.866 570.308 104.901 C 566.965 106.935 565.803 110.133 564.204 111.877 z "
         style="fill-rule:evenodd;stroke-width:1.25;"
         id="path609" />
      <path
         d="M 572.488 129.899 C 572.343 130.626 573.215 130.916 574.378 132.079 C 578.156 131.934 581.354 131.498 583.534 132.515 C 584.115 131.062 583.825 130.771 583.534 130.044 C 579.173 131.934 577.72 131.788 572.488 129.899 z "
         style="fill-rule:evenodd;stroke-width:1pt;"
         id="path612" />
    </g>
    <path
       d="M 531.939 187.598 C 540.514 189.924 540.804 192.685 542.258 196.173 "
       style="fill:none;fill-rule:evenodd;stroke:#000000;stroke-width:1pt;"
       id="path669" />
  </g>
</svg>
