<?xml version="1.0" encoding="utf-8"?>
<!-- Generator: Adobe Illustrator 11.0, SVG Export Plug-In  -->
<!DOCTYPE svg PUBLIC "-//W3C//DTD SVG 1.0//EN"    "http://www.w3.org/TR/2001/REC-SVG-20010904/DTD/svg10.dtd" [
	<!ENTITY ns_flows "http://ns.adobe.com/Flows/1.0/">
	<!ENTITY ns_svg "http://www.w3.org/2000/svg">
	<!ENTITY ns_xlink "http://www.w3.org/1999/xlink">
]>
<svg  xmlns="&ns_svg;" xmlns:xlink="&ns_xlink;" xmlns:a="http://ns.adobe.com/AdobeSVGViewerExtensions/3.0/"
	 width="1058" height="1042" viewBox="-0.5 -0.5 1058 1042" xml:space="preserve">
	<defs>
		<symbol  id="New_Symbol" viewBox="-21.057 -34.157 42.113 68.315">
			<g>
				<path style="fill:none;stroke:#000000;" d="M-9.403,20.605c-2.131,1.371-1.776,4.314-0.791,6.319
					c1.978,4.023,6.297,5.828,10.473,6.542c8.519,1.455,7.15-5.693,7.289-11.088"/>
				<path style="fill:none;stroke:#000000;" d="M1.741,23.139c-0.6,1.607,1.09,7.698,3.748,6.305
					c1.003-0.525,0.585-4.621,0.502-5.479c-0.089-0.929-0.275-3.537-0.957-2.853"/>
				<path style="fill:none;stroke:#000000;" d="M2.501,22.632c-1.385,0.558-0.221,2.012,0.76,2.58
					c1.451-1.138,1.174-3.567-1.013-2.58"/>
				<path style="fill:none;stroke:#000000;" d="M-4.084,22.125c-0.445,0.911,0.271,2.41,1.469,2.308
					c1.699-0.146,0.177-2.75-0.963-2.054"/>
				<path style="fill:none;stroke:#000000;" d="M-1.045,23.139c-0.131,2.207-2.12,5.004-3.982,6.053
					c-1.675-2.04-3.263-10.937,0.448-11.32c0.555,0.84,0.841,1.825,0.495,2.48"/>
				<path style="fill:none;stroke:#000000;" d="M-1.552,21.111c0.265,1.713,2.642,1.804,2.786-0.018
					c-0.646-0.249-2.674-0.268-2.532-0.234"/>
				<path style="fill:none;stroke:#000000;" d="M6.048,32.257c3.685,1.601,11.076,0.325,14.894-0.575
					c-4.627-0.951-7.681-5.43-12.361-6.518"/>
				<path style="fill:none;stroke:#000000;" d="M-5.604,31.75c-4.357,0.979-10.51,2.494-14.606,0.201
					c3.374-3.1,6.479-6.484,11.313-6.279"/>
				<path style="fill:none;stroke:#000000;" d="M8.074,21.872c0.424-0.96,1.416-1.426,2.447-1.772
					c-3.094-3.051-7.4-6.171-11.788-7.054c-4.189-0.843-9.831,1.468-12.117,5.219c0.976,0.499,1.931,1.161,2.461,2.087"/>
				<path style="fill:none;stroke:#000000;" d="M-2.058,15.793c0.81,0.761,1.696,1.25,2.786,1.267"/>
				<path style="fill:none;stroke:#000000;" d="M-3.831,11.994c0.308,0.101,0.497,0.01,0.567-0.273
					c-0.241-0.766-0.544-1.495-1.265-1.986c-0.161-0.523,0.166-0.156,0.444-0.273"/>
				<path style="fill:none;stroke:#000000;" d="M0.981,12.5C-2.345,9.568,7.085,8.807,8.58,9.461"/>
				<path style="fill:none;stroke:#000000;" d="M7.82,5.661C7.806-0.441,4.929-6.485,0.335-10.653
					c-1.996-1.812-2.294-2.322-4.207-0.943C-6.377-9.791-7.785-6.199-7.63-3.204"/>
				<path style="fill:none;stroke:#000000;" d="M-5.604,9.967c-3.397-1.164-3.484-0.338-4.567-4.602
					C-11.193,1.334-10.83-6.063-12.949-9.03"/>
				<path style="fill:none;stroke:#000000;" d="M9.594,9.207c1.797-5.542,1.031-11.547,2.341-17.189
					c0.271-1.168,1.63-2.925,1.685-3.81c0.125-2.046-2.559-4.789-4.05-5.903c-1.897,2.265,0.24,6.552-1.495,9.172"/>
				<path style="fill:none;stroke:#000000;" d="M-13.456-8.523c0.104-1.769-1.275-2.972-0.565-4.503
					c0.746-1.609,3.788-2.027,4.616-4.097c0.257,1.231,0.794,2.615,0.255,3.787"/>
				<path style="fill:none;stroke:#000000;" d="M-7.884-11.056c0.611-5.42,3.629-10.727,3.002-16.383
					c-2.555,0.388-8.357,1.58-9.599-1.565c-1.31-3.321,1.187-4.04,3.579-3.606c3.419,0.62,6.32,1.192,9.774,1.316
					c-0.893,1.99-1.317,3.808-1.197,6.049c0.114,2.104,0.808,6.672,2.54,7.829c3.98-3.61,2.082-11.273,3.585-15.908
					c4.359-0.006,8.836,0.573,13.101-0.236c0.118,1.696-0.42,4.963-1.68,6.047c-2.056,1.769-6.201-0.346-8.596-0.789
					c1.549,4.904-2.281,10.635-0.325,15.727"/>
			</g>
		</symbol>
		
			<pattern  x="-175.5" y="656.5" width="32" height="32" patternUnits="userSpaceOnUse" id="New_Pattern_Swatch_19" viewBox="5.332 -33.366 32 32">
			<g>
				<polygon style="fill:none;" points="5.332-1.366 37.332-1.366 37.332-33.366 5.332-33.366 "/>
				<polygon style="fill:#776387;" points="5.332-1.366 37.332-1.366 37.332-33.366 5.332-33.366 "/>
				<g>
					<path style="opacity:0.1979;fill:#E4D6ED;" d="M20.915-11.479c-0.356-2.925,1.785-2.497,3.989-2.335
						c0.753,0.055,5.3,0.113,5.502-0.688c0.592-2.34-1.479-2.689-3.376-2.389c-2.614,0.415-6.427-0.59-8.709,0.988
						c-1.105,0.764-0.574,4.159-0.111,5.246c0.724,1.695,2.43,1.854,2.43,0.25C20.931-10.667,20.962-11.088,20.915-11.479z"/>
				</g>
				<g>
					<path style="opacity:0.1961;fill:#E4D6ED;" d="M30.663-7.258c1.52-1.56-1.859-3.465-1.859-1.106
						C29.041-7.903,29.967-6.544,30.663-7.258z"/>
				</g>
				<g>
					<path style="opacity:0.1961;fill:#E4D6ED;" d="M25.34-27.198c2.427-0.9-0.287-2.862-0.765-1.43
						C25.06-28.114,24.987-27.067,25.34-27.198z"/>
				</g>
				<g>
					<path style="opacity:0.1961;fill:#E4D6ED;" d="M9.556-22.536c3.303-0.433-0.726-2.979-0.726-1.136
						C9.439-22.728,9.445-22.522,9.556-22.536z"/>
				</g>
				<g>
					<path style="opacity:0.1961;fill:#E4D6ED;" d="M10.713-13.817c0.543,0.714,1.768,3.203,1.194,4.051
						c-0.243,0.359-0.719,1.093-0.717,0.84c0.01-1.131,0.07-2.199-0.563-3.188c-0.886-1.383-0.777-1.096-0.777-2.518
						C10.472-14.161,10.585-13.985,10.713-13.817z"/>
				</g>
				<g>
					<path style="opacity:0.1961;fill:#E4D6ED;" d="M35.43-23.84c-1.512,2.263-2.027-2.602-0.066-2.602
						C35.531-25.079,35.663-24.188,35.43-23.84z"/>
				</g>
				<g>
					<path style="opacity:0.1961;fill:#E4D6ED;" d="M5.889-29.325c-0.124-2.26,0.935-3.113,3.214-3.065
						c1.842,0.038,8.532-0.818,9.747-0.081c2.08,1.265-0.58,0.445-1.701,0.832c-2.168,0.748-5.591,1.757-7.842,1.042
						c-1.23-0.39-3.068,0.057-2.663,1.678C6.089-29.064,5.898-29.161,5.889-29.325z"/>
				</g>
				<g>
					<polygon style="fill:#82748A;" points="1.234-18.568 38.666-18.568 38.666-17.687 1.234-17.687 "/>
					<polygon style="fill:#82748A;" points="32.701-18.568 31.467-18.568 31.467-34.654 32.701-34.654 "/>
					<polygon style="fill:#82748A;" points="16.66-17.687 15.425-17.687 15.425,0 16.66,0 "/>
					<polygon style="fill:#82748A;" points="3.188-1.366 38.357-1.366 38.357-2.571 3.188-2.571 "/>
				</g>
				<g>
					<polygon style="fill:#333752;" points="0-19.244 37.906-19.244 37.906-18.361 0-18.361 "/>
					<polygon style="fill:#333752;" points="31.466-18.768 30.233-18.768 30.233-35.329 31.466-35.329 "/>
					<polygon style="fill:#333752;" points="15.425-19.244 14.191-19.244 14.191-2.702 15.425-2.702 "/>
					<polygon style="fill:#333752;" points="1.954-2.041 38.277-2.041 38.277-3.246 1.954-3.246 "/>
				</g>
			</g>
		</pattern>
		
			<pattern  x="-175.5" y="656.5" width="32" height="32" patternUnits="userSpaceOnUse" id="New_Pattern_Swatch_21" viewBox="5.332 -33.366 32 32">
			<g>
				<polygon style="fill:none;" points="5.332-1.366 37.332-1.366 37.332-33.366 5.332-33.366 "/>
				<polygon style="fill:#807787;" points="5.332-1.366 37.332-1.366 37.332-33.366 5.332-33.366 "/>
				<g>
					<path style="opacity:0.1961;fill:#E4D6ED;" d="M10.713-13.817c0.543,0.714,1.768,3.203,1.194,4.051
						c-0.243,0.359-0.719,1.093-0.717,0.84c0.01-1.131,0.07-2.199-0.563-3.188c-0.886-1.383-0.777-1.096-0.777-2.518
						C10.472-14.161,10.585-13.985,10.713-13.817z"/>
					<path style="opacity:0.1961;fill:#E4D6ED;" d="M30.663-7.258c1.52-1.56-1.859-3.465-1.859-1.106
						C29.041-7.903,29.967-6.544,30.663-7.258z"/>
					<path style="opacity:0.1979;fill:#E4D6ED;" d="M20.915-11.479c-0.356-2.925,1.785-2.497,3.989-2.335
						c0.753,0.055,5.3,0.113,5.502-0.688c0.592-2.34-1.479-2.689-3.376-2.389c-2.614,0.415-6.427-0.59-8.709,0.988
						c-1.105,0.764-0.574,4.159-0.111,5.246c0.724,1.695,2.43,1.854,2.43,0.25C20.931-10.667,20.962-11.088,20.915-11.479z"/>
					<path style="opacity:0.1961;fill:#E4D6ED;" d="M25.34-27.198c2.427-0.9-0.287-2.862-0.765-1.43
						C25.06-28.114,24.987-27.067,25.34-27.198z"/>
					<path style="opacity:0.1961;fill:#E4D6ED;" d="M9.556-22.536c3.303-0.433-0.726-2.979-0.726-1.136
						C9.439-22.728,9.445-22.522,9.556-22.536z"/>
					<path style="opacity:0.1961;fill:#E4D6ED;" d="M35.43-23.84c-1.512,2.263-2.027-2.602-0.066-2.602
						C35.531-25.079,35.663-24.188,35.43-23.84z"/>
					<path style="opacity:0.1961;fill:#E4D6ED;" d="M5.889-29.325c-0.124-2.26,0.935-3.113,3.214-3.065
						c1.842,0.038,8.532-0.818,9.747-0.081c2.08,1.265-0.58,0.445-1.701,0.832c-2.168,0.748-5.591,1.757-7.842,1.042
						c-1.23-0.39-3.068,0.057-2.663,1.678C6.089-29.064,5.898-29.161,5.889-29.325z"/>
				</g>
				<g>
					<polygon style="fill:#857E8A;" points="1.234-18.568 38.666-18.568 38.666-17.687 1.234-17.687 "/>
					<polygon style="fill:#857E8A;" points="32.701-18.568 31.467-18.568 31.467-34.654 32.701-34.654 "/>
					<polygon style="fill:#857E8A;" points="16.66-17.687 15.425-17.687 15.425,0 16.66,0 "/>
					<polygon style="fill:#857E8A;" points="3.188-1.366 38.357-1.366 38.357-2.571 3.188-2.571 "/>
				</g>
				<g>
					<polygon style="fill:#424452;" points="0-19.244 37.906-19.244 37.906-18.361 0-18.361 "/>
					<polygon style="fill:#424452;" points="31.466-18.768 30.233-18.768 30.233-35.329 31.466-35.329 "/>
					<polygon style="fill:#424452;" points="15.425-19.244 14.191-19.244 14.191-2.702 15.425-2.702 "/>
					<polygon style="fill:#424452;" points="1.954-2.041 38.277-2.041 38.277-3.246 1.954-3.246 "/>
				</g>
			</g>
		</pattern>
		
			<pattern  x="-175.5" y="656.5" width="32" height="32" patternUnits="userSpaceOnUse" id="New_Pattern_Swatch_52" viewBox="9.252 -38.656 32 32">
			<g>
				<polygon style="fill:none;" points="41.252-6.656 9.252-6.656 9.252-38.656 41.252-38.656 "/>
				<polygon style="fill:#635A48;" points="41.252-6.656 9.252-6.656 9.252-38.656 41.252-38.656 "/>
				<path style="fill:#786C4D;" d="M11.002-10.469c-1.441,0-3.597,0.466-3.736-1.437c-0.07-0.968,0.199-2.085,0.967-2.687
					c0.465-0.364,1.084-0.549,1.629-0.752c0.833-0.311,1.245-0.76,1.903-1.319c0.826-0.701,1.985-1.521,3.038-0.811
					c0.9,0.608,1.182,1.848,1.139,2.864c-0.046,1.075-0.034,2.462-0.813,3.316c-0.617,0.678-2.243,1.067-3.128,0.887"/>
				<path style="fill:#786C4D;" d="M43.002-10.469c-1.441,0-3.598,0.466-3.736-1.437c-0.07-0.968,0.199-2.085,0.968-2.687
					c0.465-0.364,1.085-0.549,1.63-0.752c0.832-0.311,1.244-0.76,1.902-1.319c0.826-0.701,1.985-1.521,3.038-0.811
					c0.899,0.608,1.183,1.848,1.139,2.864c-0.046,1.075-0.034,2.462-0.813,3.316c-0.616,0.678-2.243,1.067-3.128,0.887"/>
				<path style="fill:#786C4D;" d="M7.064-24.156c0.088-0.341,0.832-0.16,1.114-0.051c0.769,0.297,0.667,0.843,1.02,1.492
					c0.593,1.091,1.4,2.452,2.852,2.377c1.181-0.062,2.048-1.042,3.07-1.49c0.57-0.25,1.283-0.502,1.89-0.628
					c0.523-0.108,1.003,0.182,1.303-0.204c0.221-0.283,0.225-1.284,0.189-1.634c-0.08-0.765-0.386-0.893-1.137-0.85
					c-1.738,0.1-3.522,0.777-5.128-0.196c-0.895-0.541-1.664-1.099-2.735-1.211c-0.889-0.093-1.93-0.025-2.814,0.074
					c-0.632,0.072-1.039,0.362-1.203,0.969c-0.118,0.436-0.108,1.254,0.455,1.289"/>
				<path style="fill:#786C4D;" d="M39.064-24.156c0.088-0.341,0.832-0.16,1.114-0.051c0.769,0.297,0.667,0.843,1.021,1.492
					c0.592,1.091,1.399,2.452,2.852,2.377c1.182-0.062,2.048-1.042,3.07-1.49c0.57-0.25,1.283-0.502,1.891-0.628
					c0.523-0.108,1.003,0.182,1.303-0.204c0.221-0.283,0.225-1.284,0.188-1.634c-0.079-0.765-0.386-0.893-1.138-0.85
					c-1.737,0.1-3.521,0.777-5.127-0.196c-0.896-0.541-1.664-1.099-2.736-1.211c-0.889-0.093-1.93-0.025-2.814,0.074
					c-0.632,0.072-1.038,0.362-1.203,0.969c-0.117,0.436-0.107,1.254,0.455,1.289"/>
				<path style="fill:#786C4D;" d="M7.814-37.031c-0.232,1.66,1.118,3.275,2.375,4.32c1.171,0.973,2.807,0.904,4.173,0.375
					c0.852-0.329,3.287-2.161,1.97-3.076c-0.708-0.492-2.208-0.344-3.029-0.368c-1.371-0.039-1.747-0.822-2.527-1.814
					c-0.441-0.562-0.801-0.891-1.592-0.815c-0.506,0.05-1.532,0.722-1.37,1.254"/>
				<path style="fill:#786C4D;" d="M39.814-37.031c-0.232,1.66,1.118,3.275,2.375,4.32c1.172,0.973,2.807,0.904,4.174,0.375
					c0.852-0.329,3.287-2.161,1.97-3.076c-0.708-0.492-2.208-0.344-3.029-0.368c-1.371-0.039-1.747-0.822-2.527-1.814
					c-0.44-0.562-0.801-0.891-1.592-0.815c-0.507,0.05-1.532,0.722-1.37,1.254"/>
				<path style="fill:#786C4D;" d="M14.939-5.656c-1.317,0.482-1.901-1.512-1.628-2.45c0.529-1.813,2.51-2.57,3.75-3.813
					c0.646-0.646,2.286-1.843,3.257-1.052c0.333,0.271,0.589,1.21,0.796,1.625c0.197,0.396,0.382,0.871,0.439,1.313
					c0.073,0.563-0.104,1.089-0.102,1.621c0.003,0.587,0.227,1.33-0.163,1.866c-0.333-0.237-1.215-0.515-1.599-0.607
					c-0.7-0.169-1.733-0.093-2.271,0.419c-0.421,0.399-1.141,1.408-1.855,1.078"/>
				<path style="fill:#786C4D;" d="M14.939-37.656c-1.317,0.482-1.901-1.512-1.628-2.45c0.529-1.813,2.51-2.57,3.75-3.813
					c0.646-0.646,2.286-1.843,3.257-1.052c0.333,0.271,0.589,1.21,0.796,1.625c0.197,0.396,0.382,0.871,0.439,1.313
					c0.073,0.563-0.104,1.089-0.102,1.621c0.003,0.587,0.227,1.33-0.163,1.866c-0.333-0.237-1.215-0.515-1.599-0.607
					c-0.7-0.169-1.733-0.093-2.271,0.419c-0.421,0.399-1.141,1.408-1.855,1.078"/>
				<path style="fill:#786C4D;" d="M26.189-5.844c0.822-0.862,1.637-2.468,3.125-2.116c0.726,0.171,1.262,0.663,1.425,1.376
					c0.275,1.204,0.346,2.173,1.273,3.115c0.727,0.738,1.229,1.473,0.493,2.438C31.718,0,30.499-0.055,29.308-0.033
					c-1.294,0.023-1.896-0.764-3.066-1.032c-1.122-0.257-2.096-0.051-2.565-1.484c-0.332-1.015,0.579-1.856,1.263-2.481"/>
				<path style="fill:#786C4D;" d="M26.189-37.844c0.822-0.862,1.637-2.468,3.125-2.116c0.726,0.171,1.262,0.663,1.425,1.376
					c0.275,1.204,0.346,2.173,1.273,3.115c0.727,0.738,1.229,1.473,0.493,2.438c-0.788,1.031-2.007,0.977-3.198,0.998
					c-1.294,0.023-1.896-0.764-3.066-1.032c-1.122-0.257-2.096-0.051-2.565-1.484c-0.332-1.015,0.579-1.856,1.263-2.481"/>
				<path style="fill:#786C4D;" d="M40.189-9.594c0.776,0.003,2.222,0.192,1.501,1.183c-0.604,0.83-1.903,1.38-2.759,1.903
					c-1.466,0.896-2.744,2.145-4.354,0.782c-0.4-0.338-0.757-0.695-1.149-1.038C32.987-7.15,32.424-7.213,32-7.554
					c0.307-1.648,1.447-2.284,3.129-2.524c0.64-0.091,1.188-0.045,1.819,0.047c0.541,0.079,1.285,0.452,1.804,0.375"/>
				<path style="fill:#786C4D;" d="M8.189-9.594c0.776,0.003,2.222,0.192,1.501,1.183c-0.604,0.83-1.903,1.38-2.759,1.903
					C5.466-5.611,4.188-4.363,2.578-5.726c-0.4-0.338-0.757-0.695-1.149-1.038C0.987-7.15,0.424-7.213,0-7.554
					c0.307-1.648,1.447-2.284,3.129-2.524c0.64-0.091,1.188-0.045,1.819,0.047c0.541,0.079,1.285,0.452,1.804,0.375"/>
				<path style="fill:#786C4D;" d="M40.189-41.594c0.776,0.003,2.222,0.192,1.501,1.183c-0.604,0.83-1.903,1.38-2.759,1.903
					c-1.466,0.896-2.744,2.145-4.354,0.782c-0.4-0.338-0.757-0.695-1.149-1.038c-0.441-0.387-1.005-0.449-1.429-0.79
					c0.307-1.648,1.447-2.284,3.129-2.524c0.64-0.091,1.188-0.045,1.819,0.047c0.541,0.079,1.285,0.452,1.804,0.375"/>
				<path style="fill:#786C4D;" d="M35.189-32.906c0.553-0.805,2.159-0.95,2.986-0.612c0.89,0.363,1.967,0.938,2.359,1.859
					c0.382,0.895,0.319,2.25-0.546,2.823c-0.888,0.588-2.02,0.693-2.895,1.354c-0.854,0.643-1.505,1.759-2.721,1.711
					c-1.335-0.051-2.047-1.693-2.502-2.754c-0.904-2.11,1.41-2.729,3.005-3.068"/>
				<path style="fill:#786C4D;" d="M17.002-27.281c-0.861,0.251-1.782-0.399-2.125-1.184c-0.765-1.744,1.438-2.541,2.599-3.196
					c0.822-0.464,2.189-1.499,3.202-1.24c0.38,0.098,1.05,0.525,1.316,0.817c0.424,0.463,0.347,1.086,0.634,1.614
					c0.367,0.673,1.11,1.271,1.797,1.578c0.574,0.257,1.327,0.124,1.46,0.811c0.181,0.928-1.495,1.5-2.129,1.801
					c-1.163,0.55-1.588,0.254-2.518-0.438c-0.357-0.267-0.728-0.464-1.172-0.551c-0.526-0.104-1.051,0.06-1.564-0.137"/>
				<path style="fill:#786C4D;" d="M24.814-24.656c-0.83,0.9-1.557,0.527-2.564,0.95c-0.964,0.405-1.304,1.089-1.988,1.795
					c-0.774,0.799-2.448,1.31-2.832,2.43c-0.24,0.7,0.379,2.46,0.939,2.93c0.416,0.35,1.337,0.559,1.871,0.544
					c0.719-0.02,1.065-0.406,1.56-0.912c0.887-0.908,1.001-2.236,1.941-3.126c0.869-0.824,2.179-1.13,2.657-2.311
					c0.318-0.785,0.419-2.46-0.834-2.425"/>
				<path style="fill:#786C4D;" d="M28.689-24.719c-0.978-0.788,1.747-2.068,2.682-1.084c0.527,0.555,0.692,1.613,1.188,2.271
					c0.63,0.838,1.382,1.526,2.443,1.739c0.5,0.1,1.024,0.097,1.328,0.583c1.209,1.935-1.764,4.058-3.471,3.356
					c-1.239-0.509-1.659-1.83-2.604-2.608c-0.697-0.573-1.432-0.657-1.317-1.82"/>
				<path style="fill:#786C4D;" d="M24.627-11.844c-0.681-0.917-2.399-1.469-2.435-2.688c-0.026-0.908,0.604-1.437,1.245-1.937
					c0.774-0.604,1.42-1.349,2.192-1.943c1.09-0.84,2.108-0.581,3.194,0.021c1.392,0.771,1.701,1.619,2.441,2.933
					c0.299,0.53,0.785,1.08,1.282,1.42c0.563,0.386,0.965,0.371,0.836,1.181c-0.167,1.048-1.479,1.957-2.435,2.217
					c-1.075,0.292-2.135,0.1-3.248,0.361c-1.119,0.262-2.363,0.544-3.261-0.377"/>
				<path style="fill:#786C4D;" d="M37.439-14.406c-0.386,0.601-1.233-0.151-1.385-0.626c-0.374-1.166,1.36-2.644,1.993-3.422
					c0.71-0.873,1.377-0.786,1.63,0.362c0.107,0.488,0.161,0.89,0.016,1.368c-0.233,0.769-0.93,1.165-1.254,1.88"/>
			</g>
		</pattern>
		
			<pattern  x="-175.5" y="656.5" width="32" height="32" patternUnits="userSpaceOnUse" id="New_Pattern_Swatch_7" viewBox="0.279 -33.419 32 32">
			<g>
				<polygon style="fill:none;" points="0.279-1.419 32.279-1.419 32.279-33.419 0.279-33.419 "/>
				<polygon style="fill:#ABACBF;" points="0.279-1.419 32.279-1.419 32.279-33.419 0.279-33.419 "/>
				<g>
					<path style="fill:#9FA0B2;" d="M6.681-25.265c-1.041-0.263,0.902-3.878,2.242-1.859c0.809,1.219,0.273,2.585-1.167,2.551"/>
					<path style="fill:#9FA0B2;" d="M20.65-15.517c-0.656,0.698-0.834-1.065-0.373-1.605c0.517-0.605,2.313-1.012,1.678,0.224"/>
					<path style="fill:#9FA0B2;" d="M21.724-9.607c0.643-0.734,1.531,0.585,1.464,1.227c-0.159,1.496-2.14,1.264-1.686-0.239
						c0.081,0.006,0.155,0.035,0.222,0.088"/>
					<path style="fill:#9FA0B2;" d="M25.562-30.561c-0.67-0.116-1.274,0.987-0.705,1.439c0.829,0.658,1.365-0.592,0.858-1.209"/>
					<path style="fill:#9FA0B2;" d="M9.674-13.521c-1.244,0.561-1.388-2.882,0.48-2.626c1.408,0.192,1.106,2.023,0.287,2.626"/>
					<path style="fill:#9FA0B2;" d="M6.374-8.993C5.582-8.237,6.886-6.716,7.771-7.361C8.516-7.905,7.667-8.743,7.064-8.84"/>
					<path style="fill:#9FA0B2;" d="M28.018-20.43c-0.734-0.234,0.474-1.319,1.085-1.126c1.02,0.324,0.468,1.857-0.317,1.434"/>
					<path style="fill:#9FA0B2;" d="M28.631-10.067c-0.535-0.029-0.561,1.17-0.132,1.484c0.927,0.681,0.811-0.608,0.67-0.871"/>
					<path style="fill:#9FA0B2;" d="M12.821-2.853c0.396-0.717,1.82-0.743,1.708,0.313c-0.061,0.573-1.115,0.796-1.4,0.377"/>
					<path style="fill:#9FA0B2;" d="M15.047-21.043c-1.043-0.769,0.687-2.512,1.541-1.998c0.941,0.564,0.16,2.516-0.986,1.998
						c-0.036-0.088,0.009-0.113,0.136-0.076"/>
					<path style="fill:#9FA0B2;" d="M5.299-33.17c-0.582,0.484-0.555,1.744,0.447,1.63c1.053-0.12,0.684-1.869,0.167-1.553"/>
					<path style="fill:#9FA0B2;" d="M0.157-24.344c0.231-0.801,0.896-1.25,1.466-0.473c0.974,1.327-1.004,1.412-0.929,1.164"/>
					<path style="fill:#9FA0B2;" d="M31.011-25.647c-0.88-0.253,0.096-1.413,0.76-1.325c0.851,0.112,0.883,1.203,0.237,1.632"/>
					<path style="fill:#9FA0B2;" d="M24.411-2.546c-0.137-0.377,0.329-0.708,0.702-0.444c0.544,0.383,0.055,0.98-0.472,0.751"/>
					<path style="fill:#9FA0B2;" d="M29.553-13.215c-0.503-0.606,0.864-1.676,1.511-1.375c1.113,0.52-0.461,2.567-0.744,1.683"/>
					<path style="fill:#9FA0B2;" d="M12.284-7.688c-0.087-0.019-0.166-0.054-0.237-0.105c0.718-1.958,1.951,1.164,0.39,0.566"/>
					<path style="fill:#9FA0B2;" d="M2.997-18.434c-0.843-0.352-1.551,1.936-0.857,2.515c0.989,0.824,2.763-0.674,1.472-1.671"/>
					<path style="fill:#9FA0B2;" d="M2.076-2.776c1.146-1.335,2.549,1.5,0.614,1.151"/>
				</g>
				<g>
					<path style="fill:#9696AA;" d="M19.499-29.64c-0.527,0.158-0.984,1.268-0.554,1.739c0.485,0.531,2.126-0.105,1.716-0.889
						c-0.074-0.029-0.129-0.005-0.165,0.07"/>
					<path style="fill:#9696AA;" d="M24.18-25.802c0.237-0.649,0.998-0.375,1.239,0.152c0.289,0.631-0.526,1.271-0.778,0.846"/>
					<path style="fill:#9696AA;" d="M14.97-14.442c-1.109,0.503-0.584-1.115,0.052-1.396c0.836-0.369,1.186,0.326,1.099,1.089"/>
					<path style="fill:#9696AA;" d="M18.578-5.002c-1.292,0.022-0.229-1.636,0.399-1.848c1.017-0.344,1.773,1.033,0.981,1.694"/>
					<path style="fill:#9696AA;" d="M27.02-15.978c-0.476-0.11-0.896,0.931-0.42,1.181c0.354,0.186,0.637-0.223,0.65-0.336"/>
					<path style="fill:#9696AA;" d="M1.231-9.224c1.231,0,0.443,2.362,0,1.919S0-9.224,1.231-9.224z"/>
					<path style="fill:#9696AA;" d="M9.597-24.113c-1.536,1.264,0.162,2.998,0.538,1.995"/>
					<path style="fill:#9696AA;" d="M11.823-30.714c2.192-0.625,2.56,2.162,0.844,1.535"/>
					<path style="fill:#9696AA;" d="M29.476-5.847c-0.334-0.061-0.747,0.595-0.373,1c0.439,0.476,1.491-0.136,1.063-0.692"/>
					<path style="fill:#9696AA;" d="M30.013-1.702c0.577-0.096,1.007,0.68,0.638,1.146C30.212,0,29.17-0.425,29.553-1.088"/>
					<path style="fill:#9696AA;" d="M30.013-33.702c0.577-0.096,1.007,0.68,0.638,1.146c-0.438,0.556-1.48,0.131-1.098-0.532"/>
					<path style="fill:#9696AA;" d="M20.266-33.707c-0.395-0.13-0.891,0.402-0.679,0.854c0.305,0.646,1.469,0.096,1.139-0.317"/>
				</g>
			</g>
		</pattern>
	</defs>
	<g>
		<polygon id="innerTop_6_" style="fill:none;stroke:#000000;" points="592.5,592.5 272.5,592.5 272.5,400.5 464.5,400.5 
			464.5,208.5 16.5,208.5 16.5,400.5 144.5,400.5 146.595,656.5 592.5,656.5 720.5,656.5 720.5,848.5 592.5,848.5 592.5,976.5 
			976.5,976.5 976.5,848.5 848.5,848.5 848.5,656.5 912.5,656.5 912.5,336.5 1040.5,336.5 1040.5,16.5 720.5,16.5 720.5,336.5 
			848.5,336.5 848.5,592.5 "/>
		<polygon id="floor_1_" style="fill:none;stroke:#000000;" points="592.5,720.5 128.5,720.5 128.5,464.5 0.5,464.5 0.5,240.5 
			480.5,240.5 480.5,464.5 288.5,464.5 288.5,624.5 592.5,624.5 832.5,624.5 832.5,400.5 704.5,400.5 704.5,48.5 1056.5,48.5 
			1056.5,400.5 928.5,400.5 928.5,720.5 864.5,720.5 864.5,880.5 992.5,880.5 992.5,1040.5 576.5,1040.5 576.5,880.5 704.5,880.5 
			704.5,720.5 "/>
		<polygon id="outerTop_6_" style="fill:none;stroke:#000000;" points="592.5,672.5 128.5,672.5 128.5,416.5 0.5,416.5 0.5,192.5 
			480.5,192.5 480.5,416.5 288.5,416.5 288.5,576.5 592.5,576.5 832.5,576.5 832.5,352.5 704.5,352.5 704.5,0.5 1056.5,0.5 
			1056.5,352.5 928.5,352.5 928.5,672.5 864.5,672.5 864.5,832.5 992.5,832.5 992.5,992.5 576.5,992.5 576.5,832.5 704.5,832.5 
			704.5,672.5 "/>
		<g id="mazeFoot_1_">
			<g>
				<path style="fill:url(#New_Pattern_Swatch_7);" d="M928.5,672.5v-320h128V0.5h-352v352h128v224h-544v-160h192v-224H0.5v224h128
					v256h576v160h-128v160h416v-160h-128v-160H928.5z M976.5,848.5v128h-384v-128h128v-192H146.595l-2.095-256h-128v-192h448v192
					h-192v192h576v-256h-128v-320h320v320h-128v320h-64v192H976.5z"/>
			</g>
			<g>
				<path style="fill:none;stroke:#000000;" d="M928.5,672.5v-320h128V0.5h-352v352h128v224h-544v-160h192v-224H0.5v224h128v256h576
					v160h-128v160h416v-160h-128v-160H928.5z M976.5,848.5v128h-384v-128h128v-192H146.595l-2.095-256h-128v-192h448v192h-192v192
					h576v-256h-128v-320h320v320h-128v320h-64v192H976.5z"/>
			</g>
		</g>
		<g id="mazeTop_1_">
			<path style="fill:none;" d="M928.5,720.5v-320h128v-352h-352v352h128v224h-240h-304v-160h192v-224H0.5v224h128v256h464h112v160
				h-128v160h416v-160h-128v-160H928.5z M976.5,896.5v128h-384v-128h128v-192h-128H146.595l-2.095-256h-128v-192h448v192h-192v192
				h320h256v-256h-128v-320h320v320h-128v320h-64v192H976.5z"/>
		</g>
		<rect x="16.5" y="208.5" style="fill:url(#New_Pattern_Swatch_21);stroke:#000000;" width="448" height="48"/> 
		<rect x="720.5" y="16.5" style="fill:url(#New_Pattern_Swatch_21);stroke:#000000;" width="320" height="48"/> 
		<rect x="592.5" y="848.5" style="fill:url(#New_Pattern_Swatch_21);stroke:#000000;" width="128" height="48"/> 
		<rect x="848.5" y="848.5" style="fill:url(#New_Pattern_Swatch_21);stroke:#000000;" width="128" height="48"/> 
		<polygon style="fill:url(#New_Pattern_Swatch_21);stroke:#000000;" points="273.5,640.5 272.5,592.5 848.5,592.5 848.5,640.5 
			720.5,640.5 720.5,640.5 "/>
		<rect x="0.5" y="416.5" style="fill:url(#New_Pattern_Swatch_19);stroke:#000000;" width="128" height="48"/> 
		<rect x="704.5" y="352.5" style="fill:url(#New_Pattern_Swatch_19);stroke:#000000;" width="128" height="48"/> 
		<rect x="928.5" y="352.5" style="fill:url(#New_Pattern_Swatch_19);stroke:#000000;" width="128" height="48"/> 
		<rect x="576.5" y="992.5" style="fill:url(#New_Pattern_Swatch_19);stroke:#000000;" width="416" height="48"/> 
		<rect x="128.5" y="672.5" style="fill:url(#New_Pattern_Swatch_19);stroke:#000000;" width="576" height="48"/> 
		<rect x="864.5" y="672.5" style="fill:url(#New_Pattern_Swatch_19);stroke:#000000;" width="64" height="48"/> 
		<rect x="288.5" y="416.5" style="fill:url(#New_Pattern_Swatch_19);stroke:#000000;" width="192" height="48"/> 
		<polygon style="fill:url(#New_Pattern_Swatch_52);stroke:#2E3133;" points="912.5,656.5 912.5,336.5 1040.5,336.5 1040.5,64.5 
			720.5,64.5 720.5,336.5 848.5,336.5 848.5,640.5 720.5,640.5 273.438,640.5 272.5,400.5 464.5,400.5 464.5,256.5 16.5,256.5 
			16.5,400.5 144.5,400.5 146.595,656.5 272.5,656.5 273.5,656.5 720.5,656.5 720.5,896.5 592.5,896.5 592.5,976.5 720.5,976.5 
			848.5,976.5 976.5,976.5 976.5,896.5 848.5,896.5 848.5,656.5 "/>
		
			<use xlink:href="#New_Symbol"  width="42.113" height="68.315" x="-21.057" y="-34.157" transform="matrix(1 0 0 -1 187.4434 562.6572)"/>
	</g>
</svg>
