<?xml version="1.0" encoding="utf-8"?>
<!-- Generator: Adobe Illustrator 11.0, SVG Export Plug-In  -->
<!DOCTYPE svg PUBLIC "-//W3C//DTD SVG 1.0//EN"    "http://www.w3.org/TR/2001/REC-SVG-20010904/DTD/svg10.dtd" [
    <!ENTITY ns_flows "http://ns.adobe.com/Flows/1.0/">
    <!ENTITY ns_svg "http://www.w3.org/2000/svg">
    <!ENTITY ns_xlink "http://www.w3.org/1999/xlink">
]>
<svg  xmlns="&ns_svg;" xmlns:xlink="&ns_xlink;" xmlns:a="http://ns.adobe.com/AdobeSVGViewerExtensions/3.0/"
     width="533" height="373" viewBox="0 -0.956 533 373" xml:space="preserve">
    <defs>
    </defs>
    <g>
        <text transform="matrix(0.9835 -0.1811 0.1811 0.9835 303.0352 242.9668)" style="enable-background:new    ;"><tspan x="0" y="0" style="font-family:'Myriad-Roman'; font-size:82;">S</tspan></text>
        <text transform="matrix(0.9835 -0.1811 0.1811 0.9835 342.7949 235.6455)" style="enable-background:new    ;"><tspan x="0" y="0" style="font-family:'Myriad-Roman'; font-size:82;">hout</tspan></text>
        <text transform="matrix(0.9835 -0.1811 0.1811 0.9835 503.9346 205.9741)" style="enable-background:new    ;"><tspan x="0" y="0" style="font-family:'Myriad-Roman'; font-size:82;">!</tspan></text>
        <text transform="matrix(2.2119 0 0 1 36.8042 355.9688)" style="enable-background:new    ;"><tspan x="0" y="0" style="font-family:'Courier'; font-size:61;">words</tspan></text>
        <path style="fill:none;" d="M122.804,131.438c-13-15-7-48,11-57"/>
        <path style="fill:#FFE81F;" d="M123.466,130.877c-12.488-16.876-4.978-44.049,11.293-55.313c1.457-1.008-0.121-3.026-1.59-2.46
            c-10.739,4.14-16.053,16.302-18.235,26.816c-2.321,11.176-0.672,23.541,7.208,32.079
            C122.904,132.825,124.128,131.774,123.466,130.877L123.466,130.877z"/>
        <path style="fill:none;" d="M144.804,119.438c-5-24,36-46,55-48"/>
        <path style="fill:#FFE81F;" d="M145.834,119.257c-1.218-13.559,9.679-24.073,19.774-31.26
            c10.236-7.287,22.246-12.261,34.458-15.065c1.584-0.364,1.668-3.019-0.12-3.002c-13.494,0.128-27.31,8.038-37.938,15.732
            c-10.455,7.569-22.103,20.017-18.235,33.958C144.134,120.919,145.955,120.609,145.834,119.257L145.834,119.257z"/>
        <path style="fill:none;" d="M190.804,104.438c9-12,24-13,38-15"/>
        <path style="fill:#FFE81F;" d="M191.661,105.039c9.944-11.006,24.013-10.984,37.349-14.439c1.2-0.311,1.317-2.373-0.095-2.336
            c-14.228,0.37-30.34,3.072-38.969,15.574C189.156,104.982,190.782,106.012,191.661,105.039L191.661,105.039z"/>
        <path style="fill:none;" d="M171.804,176.438c-2-10,8-29,19-25"/>
        <path style="fill:#FF0900;" d="M173.204,176.191c-1.063-9.179,6.433-25.193,17.469-23.36c1.647,0.273,1.988-2.088,0.616-2.704
            c-13.692-6.151-23.021,16.107-20.886,26.559C170.772,178.492,173.413,178.003,173.204,176.191L173.204,176.191z"/>
        <path style="fill:none;" d="M208.804,131.438c-1,30,24,41,39,63c-10,1-26-9-34,1"/>
        <path style="fill:#FF0900;" d="M207.809,131.344c-3.39,28.118,24.464,44.169,38.424,64.427c0.404-1.121,0.809-2.241,1.213-3.362
            c-10.64,0.617-27.312-9.873-35.005,2.075c-1.017,1.58,0.956,3.452,2.439,2.224c9.875-8.174,22.094,0.5,33.281-0.24
            c1.711-0.113,2.006-2.232,1.213-3.362c-7.018-10.008-16.226-17.986-24.453-26.937c-9.435-10.265-14.001-21.056-15.134-34.904
            C209.693,130.102,207.938,130.264,207.809,131.344L207.809,131.344z"/>
        <path style="fill:none;" d="M112.804,142.438c-1.535-1.213-2.579,16.264-3.246,20.836c-1.581,10.833-3.144,22.009-3.804,32.968
            c-1.43,23.744,12.314,40.457,29.751,55.485c8.603,7.416,17.072,11.996,24.546,20.512c11.35,12.932,13.409,19.732,27.774,8.902
            c8.229-6.203,22.953-13.596,26.727-23.975c5.576-15.338-14.41-3.597-19.651-5.131c-6.224-1.822-10.589-8.717-12.197-14.646
            c-2.257-8.332,0.131-21.797,7.498-27.255c8.428-6.245,20.816,1.375,29.603,4.304"/>
        <path style="fill:#FF0900;" d="M113.034,141.815c-2.821-1.056-3.48,12.354-3.627,13.666c-1.441,12.944-4.049,25.661-5.053,38.681
            c-1.926,24.97,12.133,43.463,30.027,59.173c5.054,4.438,10.623,8.239,15.867,12.441c5.797,4.645,10.278,10.367,15.084,15.966
            c6.245,7.272,12.361,8.56,20.614,3.338c8.711-5.513,18.97-11.599,25.78-19.409c3.021-3.468,10.347-14.896,2.979-18.045
            c-3.997-1.707-8.975,0.178-12.903,1.229c-1.986,0.531-4.171,1.275-6.25,1.094c-5.493-0.479-9.328-8.443-10.681-12.938
            c-2.373-7.89-0.165-18.747,5.863-24.469c7.406-7.031,20.585,1.261,28.358,3.817c2.504,0.824,3.9-2.919,1.421-3.84
            c-8.893-3.3-21.201-10.964-30.567-4.835c-8.248,5.397-10.629,16.305-10.152,25.557c0.424,8.202,6.589,20.316,15.845,21.119
            c2.588,0.224,16.88-5.023,17.65-2.211c1.296,4.729-4.614,10.65-7.584,13.417c-4.329,4.032-9.453,7.196-14.351,10.476
            c-4.498,3.01-8.866,7.412-14.363,8.326c-4.936,0.82-9.456-6.557-12.081-9.689c-8.868-10.582-20.284-17.567-30.59-26.557
            c-9.6-8.373-18.113-17.977-23.289-29.72c-6.564-14.896-3.074-31.772-1.17-47.297c0.281-2.291,3.389-27.818,2.713-28.043
            C113.386,143.331,113.837,142.116,113.034,141.815L113.034,141.815z"/>
        <path style="fill:none;" d="M265.804,180.438c23,3,51-21,76-25"/>
        <path d="M265.725,181.279c12.259,2.106,24.279-3.022,35.294-7.849c13.564-5.944,26.503-13.087,41.062-16.422
            c2.009-0.459,1.487-3.382-0.553-3.139c-26.632,3.181-48.137,27.035-75.644,25.729
            C264.786,179.546,264.659,181.096,265.725,181.279L265.725,181.279z"/>
        <path style="fill:none;" d="M340.804,251.438c15-3,30-5,45-6c33-4,66,2,98-1"/>
        <path d="M340.982,252.454c24.402-3.52,49.027-6.641,73.727-6.465c23.047,0.163,46.408,3.219,69.35-0.111
            c1.603-0.232,1.549-2.947-0.116-2.895c-23.635,0.764-47.169-0.889-70.796-0.936c-24.095-0.049-49.14,2.506-72.521,8.375
            C339.345,250.744,339.655,252.646,340.982,252.454L340.982,252.454z"/>
        <g>
            <path style="fill:none;" d="M299,91.044c-5.688-38.939,27.538-68.966,64.826-72.845c30.812-3.206,47.786,12.946,53.951,42.555
                c6.838,32.836,19.354,61.264,58.298,52.632c25.094-5.562,41.818-32.838,47.925-54.342"/>
            <text transform="matrix(0.1058 -0.9944 0.9944 0.1058 298.3828 79.1226)"><tspan x="0" y="0" style="font-family:'Myriad-Roman'; font-size:12;">L</tspan><tspan x="5.519" y="-0.033" style="font-family:'Myriad-Roman'; font-size:12;" rotate="6.09">u</tspan><tspan x="12.122" y="0.549" style="font-family:'Myriad-Roman'; font-size:12;" rotate="14.484">m</tspan><tspan x="21.772" y="3.164" style="font-family:'Myriad-Roman'; font-size:12;" rotate="22.692">p</tspan><tspan x="28.031" y="5.814" style="font-family:'Myriad-Roman'; font-size:12;" rotate="28.47">y</tspan><tspan x="32.959" y="8.542" style="font-family:'Myriad-Roman'; font-size:12;" rotate="32.122"> </tspan><tspan x="35.127" y="9.884" style="font-family:'Myriad-Roman'; font-size:12;" rotate="34.955">t</tspan><tspan x="38.345" y="12.086" style="font-family:'Myriad-Roman'; font-size:12;" rotate="39.089">e</tspan><tspan x="42.987" y="15.869" style="font-family:'Myriad-Roman'; font-size:12;" rotate="43.733">x</tspan><tspan x="47.096" y="19.848" style="font-family:'Myriad-Roman'; font-size:12;" rotate="47.562">t</tspan><tspan x="49.766" y="22.791" style="font-family:'Myriad-Roman'; font-size:12;" rotate="50.01">.</tspan><tspan x="50.796" y="24.004" style="font-family:'Myriad-Roman'; font-size:12;" rotate="51.219"> </tspan><tspan x="52.38" y="25.975" style="font-family:'Myriad-Roman'; font-size:12;" rotate="53.091"> </tspan><tspan x="54.047" y="27.943" style="font-family:'Myriad-Roman'; font-size:12;" rotate="57.71">W</tspan><tspan x="59.177" y="36.187" style="font-family:'Myriad-Roman'; font-size:12;" rotate="63.339">o</tspan><tspan x="62.12" y="42.083" style="font-family:'Myriad-Roman'; font-size:12;" rotate="67.689">a</tspan><tspan x="64.339" y="47.447" style="font-family:'Myriad-Roman'; font-size:12;" rotate="72.082">h</tspan><tspan x="66.333" y="53.797" style="font-family:'Myriad-Roman'; font-size:12;" rotate="75.417">!</tspan><tspan x="67.025" y="56.477" style="font-family:'Myriad-Roman'; font-size:12;" rotate="77.179"> </tspan><tspan x="67.584" y="58.945" style="font-family:'Myriad-Roman'; font-size:12;" rotate="79.146"> </tspan><tspan x="68.176" y="61.431" style="font-family:'Myriad-Roman'; font-size:12;" rotate="83.51">O</tspan><tspan x="69.06" y="69.837" style="font-family:'Myriad-Roman'; font-size:12;" rotate="90.518">v</tspan><tspan x="69.032" y="75.49" style="font-family:'Myriad-Roman'; font-size:12;" rotate="97.228">e</tspan><tspan x="68.221" y="81.446" style="font-family:'Myriad-Roman'; font-size:12;" rotate="103.783">r</tspan><tspan x="67.264" y="85.238" style="font-family:'Myriad-Roman'; font-size:12;" rotate="108.349"> </tspan><tspan x="66.483" y="87.688" style="font-family:'Myriad-Roman'; font-size:12;" rotate="113.184">t</tspan><tspan x="65.004" y="91.377" style="font-family:'Myriad-Roman'; font-size:12;" rotate="121.136">h</tspan><tspan x="61.531" y="97.063" style="font-family:'Myriad-Roman'; font-size:12;" rotate="130.325">e</tspan><tspan x="57.575" y="101.587" style="font-family:'Myriad-Roman'; font-size:12;" rotate="136.053"> </tspan><tspan x="55.769" y="103.405" style="font-family:'Myriad-Roman'; font-size:12;" rotate="140.916">c</tspan><tspan x="51.611" y="106.814" style="font-family:'Myriad-Roman'; font-size:12;" rotate="147.357">u</tspan><tspan x="46.005" y="110.332" style="font-family:'Myriad-Roman'; font-size:12;" rotate="152.182">r</tspan><tspan x="42.27" y="112.323" style="font-family:'Myriad-Roman'; font-size:12;" rotate="156.221">v</tspan><tspan x="37.114" y="114.598" style="font-family:'Myriad-Roman'; font-size:12;" rotate="160.07">e</tspan><tspan x="31.589" y="116.554" style="font-family:'Myriad-Roman'; font-size:12;" rotate="161.938">.</tspan><tspan x="30.056" y="117.049" style="font-family:'Myriad-Roman'; font-size:12;" rotate="161.665"> </tspan><tspan x="27.649" y="117.847" style="font-family:'Myriad-Roman'; font-size:12;" rotate="161.015"> </tspan><tspan x="25.209" y="118.614" style="font-family:'Myriad-Roman'; font-size:12;" rotate="159.043">W</tspan><tspan x="15.8" y="122.257" style="font-family:'Myriad-Roman'; font-size:12;" rotate="155.544">h</tspan><tspan x="9.736" y="125.016" style="font-family:'Myriad-Roman'; font-size:12;" rotate="151.995">e</tspan><tspan x="4.426" y="127.829" style="font-family:'Myriad-Roman'; font-size:12;" rotate="147.692">e</tspan><tspan x="-0.666" y="131.038" style="font-family:'Myriad-Roman'; font-size:12;" rotate="142.223">e</tspan><tspan x="-5.434" y="134.716" style="font-family:'Myriad-Roman'; font-size:12;" rotate="135.337">e</tspan><tspan x="-9.645" y="138.988" style="font-family:'Myriad-Roman'; font-size:12;" rotate="129.36">!</tspan><tspan x="-11.399" y="141.133" style="font-family:'Myriad-Roman'; font-size:12;" rotate="125.332"> </tspan><tspan x="-12.865" y="143.201" style="font-family:'Myriad-Roman'; font-size:12;" rotate="121.27"> </tspan><tspan x="-14.287" y="145.333" style="font-family:'Myriad-Roman'; font-size:12;" rotate="114.078">T</tspan><tspan x="-16.729" y="150.707" style="font-family:'Myriad-Roman'; font-size:12;" rotate="103.404">h</tspan><tspan x="-18.234" y="157.204" style="font-family:'Myriad-Roman'; font-size:12;" rotate="93.385">e</tspan><tspan x="-18.495" y="163.218" style="font-family:'Myriad-Roman'; font-size:12;" rotate="87.454"> </tspan><tspan x="-18.48" y="165.776" style="font-family:'Myriad-Roman'; font-size:12;" rotate="81.837">b</tspan><tspan x="-17.486" y="172.541" style="font-family:'Myriad-Roman'; font-size:12;" rotate="75.251">o</tspan><tspan x="-15.776" y="178.912" style="font-family:'Myriad-Roman'; font-size:12;" rotate="70.405">t</tspan><tspan x="-14.457" y="182.652" style="font-family:'Myriad-Roman'; font-size:12;" rotate="65.587">t</tspan><tspan x="-12.899" y="186.262" style="font-family:'Myriad-Roman'; font-size:12;" rotate="59.052">o</tspan><tspan x="-9.616" y="191.976" style="font-family:'Myriad-Roman'; font-size:12;" rotate="49.745">m</tspan><tspan x="-2.983" y="199.488" style="font-family:'Myriad-Roman'; font-size:12;" rotate="43.621">.</tspan><tspan x="-1.828" y="200.604" style="font-family:'Myriad-Roman'; font-size:12;" rotate="42.145"> </tspan><tspan x="0.046" y="202.3" style="font-family:'Myriad-Roman'; font-size:12;" rotate="39.964"> </tspan><tspan x="1.942" y="204.006" style="font-family:'Myriad-Roman'; font-size:12;" rotate="35.833">U</tspan><tspan x="8.24" y="208.52" style="font-family:'Myriad-Roman'; font-size:12;" rotate="30.638">p</tspan><tspan x="14.147" y="211.95" style="font-family:'Myriad-Roman'; font-size:12;" rotate="27.597"> </tspan><tspan x="16.378" y="213.173" style="font-family:'Myriad-Roman'; font-size:12;" rotate="24.802">u</tspan><tspan x="22.369" y="215.944" style="font-family:'Myriad-Roman'; font-size:12;" rotate="20.913">p</tspan><tspan x="28.764" y="218.333" style="font-family:'Myriad-Roman'; font-size:12;" rotate="18.272"> </tspan></text>
        </g>
        <path style="fill:none;stroke:#000000;" d="M299,126.044c0.128-25.537,16.874-52.498,40.274-63.023
            c23.161-10.417,49.278-15.926,65.951,6.745c16.323,22.195-1.159,53.286,25.029,67.274c10.709,5.72,23.394,11.684,35.507,13.777
            c19.599,3.387,30.118,1.12,47.313-7.274c11.192-5.464,20.182-14.495,18.944-27.751c-0.904-9.697-8.176-13.839-16.02-18.749"/>
        <text transform="matrix(1 0 0 1 0 10.0439)">In the beginning, there was Arnold.  He had a big nose, and all the people laughed at him.  But Arnold had a big hankercheif, and would carry it everywhere with him.</text>
    </g>
</svg>
