<?xml version="1.0" encoding="UTF-8" standalone="no"?>
<!-- Created with Inkscape (http://www.inkscape.org/) -->
<svg xmlns:dc="http://purl.org/dc/elements/1.1/" xmlns:cc="http://creativecommons.org/ns#" xmlns:rdf="http://www.w3.org/1999/02/22-rdf-syntax-ns#" xmlns:svg="http://www.w3.org/2000/svg" xmlns="http://www.w3.org/2000/svg" xmlns:sodipodi="http://sodipodi.sourceforge.net/DTD/sodipodi-0.dtd" xmlns:inkscape="http://www.inkscape.org/namespaces/inkscape" width="3000" height="3000" id="svg2" version="1.1" inkscape:version="0.48.2 r9819" sodipodi:docname="shipColor.svg">
<defs id="defs4">
<filter inkscape:collect="always" id="filter3821" x="-1.4860984" width="3.9721968" y="-0.0060243227" height="1.0120486">
<feGaussianBlur inkscape:collect="always" stdDeviation="1.8578088" id="feGaussianBlur3823" />
</filter>
<clipPath clipPathUnits="userSpaceOnUse" id="clipPath3831">
<path style="font-size:medium;font-style:normal;font-variant:normal;font-weight:normal;font-stretch:normal;text-indent:0;text-align:start;text-decoration:none;line-height:normal;letter-spacing:normal;word-spacing:normal;text-transform:none;direction:ltr;block-progression:tb;writing-mode:lr-tb;text-anchor:start;baseline-shift:baseline;color:#000000;fill:#000000;fill-opacity:1;stroke:none;stroke-width:3;marker:none;visibility:visible;display:inline;overflow:visible;enable-background:accumulate;font-family:Sans;-inkscape-font-specification:Sans" d="m 11.78125,411.3125 a 1.50015,1.50015 0 0 0 -1.34375,1.5 l 0,737.0937 a 1.50015,1.50015 0 1 0 3,0 l 0,-737.0937 a 1.50015,1.50015 0 0 0 -1.65625,-1.5 z" inkscape:connector-curvature="0" id="path3833" />
</clipPath>
</defs>
<sodipodi:namedview id="base" pagecolor="#ffffff" bordercolor="#666666" borderopacity="1.0" inkscape:pageopacity="0.0" inkscape:pageshadow="2" inkscape:zoom="1.69" inkscape:cx="827.06905" inkscape:cy="1367.7742" inkscape:document-units="px" inkscape:current-layer="layer1" showgrid="false" fit-margin-top="0" fit-margin-left="0" fit-margin-right="0" fit-margin-bottom="0" inkscape:window-width="1280" inkscape:window-height="750" inkscape:window-x="-8" inkscape:window-y="-8" inkscape:window-maximized="1" />
<metadata id="metadata7">
<rdf:RDF>
<cc:Work rdf:about="">
<dc:format>image/svg+xml</dc:format>
<dc:type rdf:resource="http://purl.org/dc/dcmitype/StillImage" />
<dc:title></dc:title>
</cc:Work>
</rdf:RDF>
</metadata>
<g inkscape:label="Layer 1" inkscape:groupmode="layer" id="layer1" transform="translate(114.28571,1416.2092)">
<path style="font-size:medium;font-style:normal;font-variant:normal;font-weight:normal;font-stretch:normal;text-indent:0;text-align:start;text-decoration:none;line-height:normal;letter-spacing:normal;word-spacing:normal;text-transform:none;direction:ltr;block-progression:tb;writing-mode:lr-tb;text-anchor:start;baseline-shift:baseline;color:#000000;fill:#000000;fill-opacity:1;stroke:none;stroke-width:3;marker:none;visibility:visible;display:inline;overflow:visible;filter:url(#filter3821);enable-background:accumulate;font-family:Sans;-inkscape-font-specification:Sans" d="m 13.78125,411.3125 a 1.50015,1.50015 0 0 0 -1.34375,1.5 l 0,737.0937 a 1.50015,1.50015 0 1 0 3,0 l 0,-737.0937 a 1.50015,1.50015 0 0 0 -1.65625,-1.5 z" id="path2998" inkscape:connector-curvature="0" clip-path="url(#clipPath3831)" />
<path clip-path="url(#clipPath3831)" inkscape:connector-curvature="0" id="path3835" d="m 13.78125,411.3125 a 1.50015,1.50015 0 0 0 -1.34375,1.5 l 0,737.0937 a 1.50015,1.50015 0 1 0 3,0 l 0,-737.0937 a 1.50015,1.50015 0 0 0 -1.65625,-1.5 z" style="font-size:medium;font-style:normal;font-variant:normal;font-weight:normal;font-stretch:normal;text-indent:0;text-align:start;text-decoration:none;line-height:normal;letter-spacing:normal;word-spacing:normal;text-transform:none;direction:ltr;block-progression:tb;writing-mode:lr-tb;text-anchor:start;baseline-shift:baseline;color:#000000;fill:#000000;fill-opacity:1;stroke:none;stroke-width:3;marker:none;visibility:visible;display:inline;overflow:visible;filter:url(#filter3821);enable-background:accumulate;font-family:Sans;-inkscape-font-specification:Sans" transform="translate(-2.75,0)" />
<path transform="translate(-8.75,0)" style="font-size:medium;font-style:normal;font-variant:normal;font-weight:normal;font-stretch:normal;text-indent:0;text-align:start;text-decoration:none;line-height:normal;letter-spacing:normal;word-spacing:normal;text-transform:none;direction:ltr;block-progression:tb;writing-mode:lr-tb;text-anchor:start;baseline-shift:baseline;color:#000000;fill:#000000;fill-opacity:1;stroke:none;stroke-width:3;marker:none;visibility:visible;display:inline;overflow:visible;filter:url(#filter3821);enable-background:accumulate;font-family:Sans;-inkscape-font-specification:Sans" d="m 13.78125,411.3125 a 1.50015,1.50015 0 0 0 -1.34375,1.5 l 0,737.0937 a 1.50015,1.50015 0 1 0 3,0 l 0,-737.0937 a 1.50015,1.50015 0 0 0 -1.65625,-1.5 z" id="path3837" inkscape:connector-curvature="0" clip-path="url(#clipPath3831)" />
<path clip-path="url(#clipPath3831)" inkscape:connector-curvature="0" id="path3839" d="m 13.78125,411.3125 a 1.50015,1.50015 0 0 0 -1.34375,1.5 l 0,737.0937 a 1.50015,1.50015 0 1 0 3,0 l 0,-737.0937 a 1.50015,1.50015 0 0 0 -1.65625,-1.5 z" style="font-size:medium;font-style:normal;font-variant:normal;font-weight:normal;font-stretch:normal;text-indent:0;text-align:start;text-decoration:none;line-height:normal;letter-spacing:normal;word-spacing:normal;text-transform:none;direction:ltr;block-progression:tb;writing-mode:lr-tb;text-anchor:start;baseline-shift:baseline;color:#000000;fill:#000000;fill-opacity:1;stroke:none;stroke-width:3;marker:none;visibility:visible;display:inline;overflow:visible;filter:url(#filter3821);enable-background:accumulate;font-family:Sans;-inkscape-font-specification:Sans" transform="translate(-5.75,0)" />
</g>
</svg>