<?xml version="1.0" encoding="UTF-8" standalone="no"?>
<!-- Created with Inkscape (http://www.inkscape.org/) -->

<svg
   xmlns:dc="http://purl.org/dc/elements/1.1/"
   xmlns:cc="http://creativecommons.org/ns#"
   xmlns:rdf="http://www.w3.org/1999/02/22-rdf-syntax-ns#"
   xmlns:svg="http://www.w3.org/2000/svg"
   xmlns="http://www.w3.org/2000/svg"
   xmlns:sodipodi="http://sodipodi.sourceforge.net/DTD/sodipodi-0.dtd"
   xmlns:inkscape="http://www.inkscape.org/namespaces/inkscape"
   sodipodi:docname="casing2.svg"
   inkscape:version="0.48.1 r9760"
   version="1.1"
   id="svg2"
   height="450"
   width="566.92914">
  <sodipodi:namedview
     id="base"
     pagecolor="#ffffff"
     bordercolor="#666666"
     borderopacity="1.0"
     inkscape:pageopacity="0.0"
     inkscape:pageshadow="2"
     inkscape:zoom="1.8777778"
     inkscape:cx="283.46457"
     inkscape:cy="225"
     inkscape:document-units="mm"
     inkscape:current-layer="layer1"
     showgrid="true"
     units="mm"
     inkscape:window-width="1920"
     inkscape:window-height="1026"
     inkscape:window-x="0"
     inkscape:window-y="0"
     inkscape:window-maximized="1"
     fit-margin-top="5"
     fit-margin-right="5"
     fit-margin-left="5"
     fit-margin-bottom="5"
     inkscape:snap-global="true"
     inkscape:snap-grids="true">
    <inkscape:grid
       spacingy="0.125mm"
       spacingx="0.125mm"
       snapvisiblegridlinesonly="true"
       enabled="true"
       visible="true"
       empspacing="4"
       units="mm"
       id="grid2985"
       type="xygrid" />
  </sodipodi:namedview>
  <defs
     id="defs4" />
  <metadata
     id="metadata7">
    <rdf:RDF>
      <cc:Work
         rdf:about="">
        <dc:format>image/svg+xml</dc:format>
        <dc:type
           rdf:resource="http://purl.org/dc/dcmitype/StillImage" />
        <dc:title />
      </cc:Work>
    </rdf:RDF>
  </metadata>
  <g
     style="display:inline;photonsaw-power:80;photonsaw-speed:32;photonsaw-passes:1;photonsaw-assistair:1"
     transform="translate(0,-116.92918)"
     inkscape:label="Engraving"
     id="layer2"
     inkscape:groupmode="layer">
    <text
       transform="matrix(0,-1,1,0,0,0)"
       sodipodi:linespacing="125%"
       id="text4018"
       y="203.78191"
       x="-529.70911"
       style="font-size:12px;font-style:normal;font-variant:normal;font-weight:500;font-stretch:normal;line-height:125%;letter-spacing:0px;word-spacing:0px;fill:#000000;fill-opacity:1;stroke:none;font-family:Century Schoolbook L;-inkscape-font-specification:Century Schoolbook L Medium"
       xml:space="preserve"><tspan
         y="203.78191"
         x="-529.70911"
         id="tspan4020"
         sodipodi:role="line" /></text>
    <path
       inkscape:connector-curvature="0"
       id="path4034"
       d="m 109.8425,531.49604 5.31496,0 0,-35.43308 -5.31496,0"
       style="fill:none;stroke:#000000;stroke-width:0.35433072;stroke-linecap:butt;stroke-linejoin:miter;stroke-miterlimit:4;stroke-opacity:1;stroke-dasharray:none" />
    <path
       inkscape:connector-curvature="0"
       id="path4034-9"
       d="m 109.8425,492.07674 5.31496,0 0,-35.43306 -5.31496,0"
       style="fill:none;stroke:#000000;stroke-width:0.35433072;stroke-linecap:butt;stroke-linejoin:miter;stroke-miterlimit:4;stroke-opacity:1;stroke-dasharray:none" />
    <path
       inkscape:connector-curvature="0"
       id="path4034-7"
       d="m 109.8425,452.65746 5.31496,0 0,-35.43307 -5.31496,0"
       style="fill:none;stroke:#000000;stroke-width:0.35433072;stroke-linecap:butt;stroke-linejoin:miter;stroke-miterlimit:4;stroke-opacity:1;stroke-dasharray:none" />
    <path
       inkscape:connector-curvature="0"
       id="path4034-6"
       d="m 109.8425,413.23817 5.31496,0 0,-35.43307 -5.31496,0"
       style="fill:none;stroke:#000000;stroke-width:0.35433072;stroke-linecap:butt;stroke-linejoin:miter;stroke-miterlimit:4;stroke-opacity:1;stroke-dasharray:none" />
    <path
       inkscape:connector-curvature="0"
       id="path4034-3"
       d="m 109.8425,373.81887 5.31496,0 0,-35.43307 -5.31496,0"
       style="fill:none;stroke:#000000;stroke-width:0.35433072;stroke-linecap:butt;stroke-linejoin:miter;stroke-miterlimit:4;stroke-opacity:1;stroke-dasharray:none" />
    <path
       sodipodi:nodetypes="cccc"
       inkscape:connector-curvature="0"
       id="path4034-96"
       d="m 109.8425,333.07085 5.31496,0 0,-26.57481 -5.31496,0"
       style="fill:none;stroke:#000000;stroke-width:0.35433072;stroke-linecap:butt;stroke-linejoin:miter;stroke-miterlimit:4;stroke-opacity:1;stroke-dasharray:none" />
    <path
       sodipodi:nodetypes="cc"
       inkscape:connector-curvature="0"
       id="path4127"
       d="m 115.15748,313.58272 -5.31498,-7e-5"
       style="fill:none;stroke:#000000;stroke-width:0.35433072;stroke-linecap:butt;stroke-linejoin:miter;stroke-miterlimit:4;stroke-opacity:1;stroke-dasharray:none" />
    <g
       id="g5324"
       transform="matrix(-0.87,0,0,0.87,221.91426,224.13005)"
       inkscape:label="Hershey Text"
       style="stroke-width:0.40727669;stroke-miterlimit:4;stroke-dasharray:none">
      <path
         style="fill:none;stroke:#000000;stroke-width:0.40727669;stroke-miterlimit:4;stroke-dasharray:none"
         d="m 4,9 c 0,-7 0,-14 0,-21 3.2480957,0.160727 6.601847,-0.329626 9.780324,0.260108 1.950668,0.303193 3.501877,1.541411 4.077989,3.4565183 0.759844,2.491656 -0.981614,5.5721311 -3.67907,5.8902927 C 11.252569,-1.5423303 8.0788505,-2.213937 5.0488359,-2 4.6992239,-2 4.349612,-2 4,-2 m 7,0 c 2.333333,3.6666667 4.666667,7.3333333 7,11"
         id="path5326"
         inkscape:connector-curvature="0" />
      <path
         style="fill:none;stroke:#000000;stroke-width:0.40727669;stroke-miterlimit:4;stroke-dasharray:none"
         d="m 25,9 c 0,-7 0,-14 0,-21 4.333333,0 8.666667,0 13,0 M 25,-2 c 2.666667,0 5.333333,0 8,0"
         id="path5328"
         inkscape:connector-curvature="0" />
      <path
         style="fill:none;stroke:#000000;stroke-width:0.40727669;stroke-miterlimit:4;stroke-dasharray:none"
         d="m 42,-12 c 4.666667,0 9.333333,0 14,0 -3.333333,7 -6.666667,14 -10,21"
         id="path5330"
         inkscape:connector-curvature="0" />
      <path
         style="fill:none;stroke:#000000;stroke-width:0.40727669;stroke-miterlimit:4;stroke-dasharray:none"
         d="m 77,2 c -5,0 -10,0 -15,0 3.333333,-4.6666667 6.666667,-9.3333333 10,-14 0,7 0,14 0,21"
         id="path5332"
         inkscape:connector-curvature="0" />
      <path
         style="fill:none;stroke:#000000;stroke-width:0.40727669;stroke-miterlimit:4;stroke-dasharray:none"
         d="m 82,-5 c 3.666667,4.66666667 7.333333,9.3333333 11,14 M 93,-5 C 89.333333,-0.33333333 85.666667,4.3333333 82,9"
         id="path5334"
         inkscape:connector-curvature="0" />
      <path
         style="fill:none;stroke:#000000;stroke-width:0.40727669;stroke-miterlimit:4;stroke-dasharray:none"
         d="m 99,-5 c 3.66667,4.66666667 7.33333,9.3333333 11,14 m 0,-14 c -3.66667,4.66666667 -7.33333,9.3333333 -11,14"
         id="path5336"
         inkscape:connector-curvature="0" />
      <path
         style="fill:none;stroke:#000000;stroke-width:0.40727669;stroke-miterlimit:4;stroke-dasharray:none"
         d="m 117,-12 c 0,7 0,14 0,21"
         id="path5338"
         inkscape:connector-curvature="0" />
      <path
         style="fill:none;stroke:#000000;stroke-width:0.40727669;stroke-miterlimit:4;stroke-dasharray:none"
         d="m 132,9 c 1.84675,-0.485956 3.60156,-1.1206803 4.74486,-2.7448586 C 138.44434,3.7775711 139.3115,0.72434508 139,-2.2901369 139.11175,-4.8064983 138.04673,-7.375987 136.61225,-9.3877463 134.93504,-11.666293 131.92792,-12.198414 129.25822,-12 127.9793,-11.585335 124.95857,-12.912484 125,-11.177466 125,-4.4516439 125,2.2741781 125,9 c 2.33333,0 4.66667,0 7,0 z"
         id="path5340"
         inkscape:connector-curvature="0" />
    </g>
    <g
       inkscape:label="Hershey Text"
       transform="matrix(-0.45,0,0,0.45,203.76852,254.31737)"
       id="g5504"
       style="stroke-width:0.78740156;stroke-miterlimit:4;stroke-dasharray:none">
      <path
         style="fill:none;stroke:#000000;stroke-width:0.78740156;stroke-miterlimit:4;stroke-dasharray:none"
         d="m 4,-2 c 3.0369412,-0.026072 6.090803,0.052123 9.117178,-0.039059 1.000239,-0.4091662 2.156472,-0.5659282 3.057501,-1.1356193 C 17.107636,-3.9139228 17.576292,-5.0623608 18,-6.1235164 17.968203,-7.0708818 18.189438,-8.0779799 17.558094,-8.8838114 17.106915,-9.9876376 16.303462,-11.091208 15.062576,-11.312475 13.946481,-11.691535 12.846424,-12.169431 11.64132,-12 9.0942131,-12 6.5471065,-12 4,-12 4,-5 4,2 4,9 m 7,-11 c 2.333333,3.6666667 4.666667,7.3333333 7,11"
         id="path5506"
         inkscape:connector-curvature="0" />
      <path
         style="fill:none;stroke:#000000;stroke-width:0.78740156;stroke-miterlimit:4;stroke-dasharray:none"
         d="m 22,9 c 2.666667,-7 5.333333,-14 8,-21 2.666667,7 5.333333,14 8,21 M 25,2 c 3.333333,0 6.666667,0 10,0"
         id="path5508"
         inkscape:connector-curvature="0" />
      <path
         style="fill:none;stroke:#000000;stroke-width:0.78740156;stroke-miterlimit:4;stroke-dasharray:none"
         d="M 61,-12 C 59.333333,-5 57.666667,2 56,9 54.333333,2 52.666667,-5 51,-12 49.333333,-5 47.666667,2 46,9 44.333333,2 42.666667,-5 41,-12"
         id="path5510"
         inkscape:connector-curvature="0" />
    </g>
    <g
       id="g5680"
       transform="matrix(-0.45,0,0,0.45,147.0756,254.31737)"
       inkscape:label="Hershey Text"
       style="stroke-width:0.78740156;stroke-miterlimit:4;stroke-dasharray:none">
      <path
         style="fill:none;stroke:#000000;stroke-width:0.78740156;stroke-miterlimit:4;stroke-dasharray:none"
         d="m 4,9 c 0,-7 0,-14 0,-21 3.0330353,0.02346 6.081282,-0.04682 9.104855,0.03495 0.999949,0.401619 2.140359,0.575969 3.051454,1.121357 C 17.100155,-10.133127 17.47082,-9.0094382 18,-8 c -0.03491,1.0286013 0.06859,2.0898757 -0.04943,3.0988583 -0.50719,0.9896406 -0.886178,2.0716842 -1.810269,2.7608396 C 15.18813,-1.6071431 14.031734,-1.404425 13,-1 10,-1 7,-1 4,-1"
         id="path5682"
         inkscape:connector-curvature="0" />
      <path
         style="fill:none;stroke:#000000;stroke-width:0.78740156;stroke-miterlimit:4;stroke-dasharray:none"
         d="m 25,-12 c 0,7 0,14 0,21 4,0 8,0 12,0"
         id="path5684"
         inkscape:connector-curvature="0" />
      <path
         style="fill:none;stroke:#000000;stroke-width:0.78740156;stroke-miterlimit:4;stroke-dasharray:none"
         d="m 42,-12 c 0,7 0,14 0,21 4,0 8,0 12,0"
         id="path5686"
         inkscape:connector-curvature="0" />
    </g>
    <g
       inkscape:label="Hershey Text"
       transform="matrix(-0.5625,0,0,0.5625,190.5945,306.37652)"
       id="g5864"
       style="stroke-width:0.62992126;stroke-miterlimit:4;stroke-dasharray:none">
      <path
         style="fill:none;stroke:#000000;stroke-width:0.62992126;stroke-miterlimit:4;stroke-dasharray:none"
         d="m 17,-12 c -4.333333,0 -8.6666667,0 -13,0 0,7 0,14 0,21 4.3333333,0 8.666667,0 13,0 M 4,-2 c 2.6666667,0 5.3333333,0 8,0"
         id="path5866"
         inkscape:connector-curvature="0" />
      <path
         style="fill:none;stroke:#000000;stroke-width:0.62992126;stroke-miterlimit:4;stroke-dasharray:none"
         d="m 23,-5 c 0,4.66666667 0,9.3333333 0,14 m 0,-10 c 1.869575,-1.813638 3.763224,-4.4849751 6.715753,-4 1.275778,-0.1026917 3.12256,0.3813187 3.516776,1.6975884 C 34.591031,-0.26280514 33.784027,3.1282145 34,6.3532277 34,7.2354852 34,8.1177426 34,9"
         id="path5868"
         inkscape:connector-curvature="0" />
      <path
         style="fill:none;stroke:#000000;stroke-width:0.62992126;stroke-miterlimit:4;stroke-dasharray:none"
         d="M 53,-2 C 51.494129,-3.7304232 49.503664,-5.4582928 47.039139,-5 44.882706,-5.1247852 43.117863,-3.3503887 41.92249,-1.7674705 41.02465,0.3373753 40.518819,2.7225401 41.620079,4.8602358 42.187505,6.8857471 44.144602,8.1984447 46,9 47.660503,9.0291557 49.356221,9.2074836 50.753847,8.1230764 51.601496,7.573884 52.237828,6.6723375 53,6"
         id="path5870"
         inkscape:connector-curvature="0" />
      <path
         style="fill:none;stroke:#000000;stroke-width:0.62992126;stroke-miterlimit:4;stroke-dasharray:none"
         d="m 64,-5 c -2.129692,0.8699861 -4.18739,2.491163 -4.620079,4.86023582 C 58.476856,1.9872486 59.201742,4.5027307 60.346634,6.3466345 61.732361,7.9970259 63.700734,9.4039031 65.960861,9 68.117294,9.1247852 69.882137,7.3503887 71.07751,5.7674705 71.97535,3.6626247 72.481181,1.2774599 71.379921,-0.86023582 70.812495,-2.8857471 68.855398,-4.1984447 67,-5 c -1,0 -2,0 -3,0 z"
         id="path5872"
         inkscape:connector-curvature="0" />
      <path
         style="fill:none;stroke:#000000;stroke-width:0.62992126;stroke-miterlimit:4;stroke-dasharray:none"
         d="m 90,-12 c 0,7 0,14 0,21 M 90,-2 C 88.494129,-3.7304232 86.503664,-5.4582928 84.039139,-5 81.882706,-5.1247852 80.117863,-3.3503887 78.92249,-1.7674705 78.02465,0.3373753 77.518819,2.7225401 78.620079,4.8602358 79.187505,6.8857471 81.144602,8.1984447 83,9 84.660503,9.0291557 86.356221,9.2074836 87.753847,8.1230764 88.601496,7.573884 89.237828,6.6723375 90,6"
         id="path5874"
         inkscape:connector-curvature="0" />
      <path
         style="fill:none;stroke:#000000;stroke-width:0.62992126;stroke-miterlimit:4;stroke-dasharray:none"
         d="m 97,1 c 4,0 8,0 12,0 0.39527,-2.4644989 -1.15773,-4.9893886 -3.53462,-5.7673081 -1.25773,-0.3723672 -2.89875,-0.4523588 -4.12307,0.096154 -1.994541,0.8539763 -3.647157,2.5895343 -4.039898,4.763919 -0.789729,2.0691674 -0.05152,4.4782887 1.044222,6.2538692 C 99.732361,7.9970259 101.70073,9.4039031 103.96086,9 106.07229,9.1813256 107.66444,7.3857859 109,6"
         id="path5876"
         inkscape:connector-curvature="0" />
      <path
         style="fill:none;stroke:#000000;stroke-width:0.62992126;stroke-miterlimit:4;stroke-dasharray:none"
         d="m 116,-5 c 0,4.66666667 0,9.3333333 0,14 m 0,-8 c 0.50994,-1.73214808 0.99482,-3.4797873 2.55986,-4.5598552 1.34568,-1.4014887 3.29063,-1.6177314 5.13632,-1.4401448 l 0.24511,0 0.0587,0"
         id="path5878"
         inkscape:connector-curvature="0" />
    </g>
    <g
       inkscape:label="Hershey Text"
       transform="matrix(-0.5625,0,0,0.5625,204.21377,358.03371)"
       id="g9063"
       style="stroke-width:0.62992126;stroke-miterlimit:4;stroke-dasharray:none">
      <path
         style="fill:none;stroke:#000000;stroke-width:0.62992126;stroke-miterlimit:4;stroke-dasharray:none"
         d="M 4,-12 C 4,-5 4,2 4,9"
         id="path9065"
         inkscape:connector-curvature="0" />
      <path
         style="fill:none;stroke:#000000;stroke-width:0.62992126;stroke-miterlimit:4;stroke-dasharray:none"
         d="M 19,9 C 21.451171,8.5076367 23.709662,7.091109 24.653998,4.692004 26.189431,1.9439297 26.178829,-1.2445197 25.907511,-4.2774679 25.069598,-7.480371 23.413296,-11.154218 19.780257,-11.739914 17.266742,-12.319002 14.58264,-11.846879 12,-12 c 0,7 0,14 0,21 2.333333,0 4.666667,0 7,0 z"
         id="path9067"
         inkscape:connector-curvature="0" />
      <path
         style="fill:none;stroke:#000000;stroke-width:0.62992126;stroke-miterlimit:4;stroke-dasharray:none"
         d=""
         id="path9069"
         inkscape:connector-curvature="0" />
      <path
         style="fill:none;stroke:#000000;stroke-width:0.62992126;stroke-miterlimit:4;stroke-dasharray:none"
         d="m 54,-12 c -1.822448,0.471914 -3.581108,1.027342 -4.297896,2.9468433 C 48.395801,-7.157121 48.393731,-4.6284734 48,-2.4150464 c -0.09316,2.66596911 0.389733,5.4483371 1.324474,7.9017572 0.89057,1.6183821 1.906576,3.0725386 3.895269,3.2532035 1.96472,0.7105451 4.268246,0.00358 5.942494,-0.9832697 1.424471,-1.7212942 2.282431,-3.6772452 2.468717,-5.9114127 0.893915,-3.3436741 0.120691,-6.8646863 -0.793191,-10.0885873 -0.9855,-1.4940962 -1.75104,-3.2761746 -3.780038,-3.4040696 C 56.085185,-12.134378 55.048008,-11.982843 54,-12 z"
         id="path9071"
         inkscape:connector-curvature="0" />
      <path
         style="fill:none;stroke:#000000;stroke-width:0.62992126;stroke-miterlimit:4;stroke-dasharray:none"
         d="m 74,-12 c -1.822448,0.471914 -3.581108,1.027342 -4.297895,2.9468433 C 68.395801,-7.157121 68.393731,-4.6284734 68,-2.4150464 c -0.09316,2.66596911 0.389733,5.4483371 1.324474,7.9017572 0.890571,1.6183821 1.906576,3.0725386 3.895269,3.2532035 1.96472,0.7105451 4.268246,0.00358 5.942494,-0.9832697 1.424471,-1.7212942 2.282431,-3.6772452 2.468717,-5.9114127 0.893915,-3.3436741 0.120691,-6.8646863 -0.793191,-10.0885873 C 79.852264,-9.7374516 79.086723,-11.51953 77.057725,-11.647425 76.085185,-12.134378 75.048008,-11.982843 74,-12 z"
         id="path9073"
         inkscape:connector-curvature="0" />
      <path
         style="fill:none;stroke:#000000;stroke-width:0.62992126;stroke-miterlimit:4;stroke-dasharray:none"
         d="m 89,0 c 6,0 12,0 18,0"
         id="path9075"
         inkscape:connector-curvature="0" />
      <path
         style="fill:none;stroke:#000000;stroke-width:0.62992126;stroke-miterlimit:4;stroke-dasharray:none"
         d="m 120,-12 c -1.82245,0.471914 -3.58111,1.027342 -4.2979,2.9468433 -1.3063,1.8960357 -1.30837,4.4246833 -1.7021,6.6381103 -0.0932,2.66596911 0.38973,5.4483371 1.32447,7.9017572 0.89057,1.6183821 1.90658,3.0725386 3.89527,3.2532035 1.96472,0.7105451 4.26825,0.00358 5.9425,-0.9832697 1.42447,-1.7212942 2.28243,-3.6772452 2.46871,-5.9114127 0.89392,-3.3436741 0.12069,-6.8646863 -0.79319,-10.0885873 -0.9855,-1.4940962 -1.75104,-3.2761746 -3.78003,-3.4040696 C 122.08518,-12.134378 121.04801,-11.982843 120,-12 z"
         id="path9077"
         inkscape:connector-curvature="0" />
      <path
         style="fill:none;stroke:#000000;stroke-width:0.62992126;stroke-miterlimit:4;stroke-dasharray:none"
         d="m 134,-12 c 4.66667,0 9.33333,0 14,0 -3.33333,7 -6.66667,14 -10,21"
         id="path9079"
         inkscape:connector-curvature="0" />
    </g>
    <g
       id="g9291"
       transform="matrix(-0.5625,0,0,0.5625,204.22795,395.63174)"
       inkscape:label="Hershey Text"
       style="stroke-width:0.62992126;stroke-miterlimit:4;stroke-dasharray:none">
      <path
         style="fill:none;stroke:#000000;stroke-width:0.62992126;stroke-miterlimit:4;stroke-dasharray:none"
         d="M 4,-12 C 4,-5 4,2 4,9"
         id="path9293"
         inkscape:connector-curvature="0" />
      <path
         style="fill:none;stroke:#000000;stroke-width:0.62992126;stroke-miterlimit:4;stroke-dasharray:none"
         d="m 12,-12 c 3.479961,0.212814 7.424736,-0.758896 10.413625,1.413625 C 25.180016,-8.2118281 26.292012,-4.3357887 26,-0.7827552 26.101824,1.849718 25.037753,4.6134034 23.379563,6.620437 21.00932,9.6349418 16.837657,8.9385224 13.442941,9 10.946455,9.6506142 12.36917,6.3820268 12,4.9053248 12,-0.72978347 12,-6.3648917 12,-12 z"
         id="path9295"
         inkscape:connector-curvature="0" />
      <path
         style="fill:none;stroke:#000000;stroke-width:0.62992126;stroke-miterlimit:4;stroke-dasharray:none"
         d=""
         id="path9297"
         inkscape:connector-curvature="0" />
      <path
         style="fill:none;stroke:#000000;stroke-width:0.62992126;stroke-miterlimit:4;stroke-dasharray:none"
         d="m 54,-12 c -1.822448,0.471914 -3.581108,1.027342 -4.297896,2.9468433 C 48.395801,-7.157121 48.393731,-4.6284734 48,-2.4150464 c -0.09316,2.66596911 0.389733,5.4483371 1.324474,7.9017572 0.89057,1.6183821 1.906576,3.0725386 3.895269,3.2532035 1.96472,0.7105451 4.268246,0.00358 5.942494,-0.9832697 1.424471,-1.7212942 2.282431,-3.6772452 2.468717,-5.9114127 0.893915,-3.3436741 0.120691,-6.8646863 -0.793191,-10.0885873 -0.9855,-1.4940962 -1.75104,-3.2761746 -3.780038,-3.4040696 C 56.085185,-12.134378 55.048008,-11.982843 54,-12 z"
         id="path9299"
         inkscape:connector-curvature="0" />
      <path
         style="fill:none;stroke:#000000;stroke-width:0.62992126;stroke-miterlimit:4;stroke-dasharray:none"
         d="m 73,-12 c -1.786519,0.477472 -3.582309,0.944256 -4,3 -0.315461,2.0922356 0.64402,4.3789276 2.831194,4.9155972 3.100833,1.0677955 6.95074,1.0485207 9.030117,3.94571376 1.909864,2.41317874 1.58514,6.57228214 -1.138779,8.23117834 -3.13453,1.3374432 -6.940459,1.3534061 -9.929344,-0.2993016 -2.593055,-2.2306001 -2.452815,-6.7213048 0.240874,-8.8272493 2.487928,-2.5196499 6.609931,-1.9157675 9.535533,-3.750736 1.90635,-1.4203253 1.925914,-4.7995553 0.152937,-6.3076914 C 77.534875,-12.136731 75.369173,-12.060716 73,-12 z"
         id="path9301"
         inkscape:connector-curvature="0" />
      <path
         style="fill:none;stroke:#000000;stroke-width:0.62992126;stroke-miterlimit:4;stroke-dasharray:none"
         d="m 89,0 c 6,0 12,0 18,0"
         id="path9303"
         inkscape:connector-curvature="0" />
      <path
         style="fill:none;stroke:#000000;stroke-width:0.62992126;stroke-miterlimit:4;stroke-dasharray:none"
         d="m 117,-8 c 2.11917,-0.705523 3.44486,-2.511929 5,-4 0,7 0,14 0,21"
         id="path9305"
         inkscape:connector-curvature="0" />
      <path
         style="fill:none;stroke:#000000;stroke-width:0.62992126;stroke-miterlimit:4;stroke-dasharray:none"
         d="m 146,-12 c -3.33333,0 -6.66667,0 -10,0 -0.33333,3 -0.66667,6 -1,9 1.8466,-1.9874734 5.00388,-2.3328399 7.55494,-1.8150214 2.58366,0.451185 4.74352,2.4114723 5.18497,5.03476424 0.83185,2.74750146 -0.33573,5.91792486 -2.60122,7.64156816 -2.91421,1.560305 -6.80831,1.6589123 -9.55231,-0.2749357 C 134.75859,6.9370436 134.51099,5.8780594 134,5"
         id="path9307"
         inkscape:connector-curvature="0" />
    </g>
    <g
       inkscape:label="Hershey Text"
       transform="matrix(-0.5625,0,0,0.5625,204.24212,435.92977)"
       id="g9537"
       style="stroke-width:0.62992126;stroke-miterlimit:4;stroke-dasharray:none">
      <path
         style="fill:none;stroke:#000000;stroke-width:0.62992126;stroke-miterlimit:4;stroke-dasharray:none"
         d="M 4,-12 C 4,-5 4,2 4,9"
         id="path9539"
         inkscape:connector-curvature="0" />
      <path
         style="fill:none;stroke:#000000;stroke-width:0.62992126;stroke-miterlimit:4;stroke-dasharray:none"
         d="m 12,-12 c 3.479961,0.212814 7.424736,-0.758896 10.413625,1.413625 C 25.180016,-8.2118281 26.292012,-4.3357887 26,-0.7827552 26.101824,1.849718 25.037753,4.6134034 23.379563,6.620437 21.00932,9.6349418 16.837657,8.9385224 13.442941,9 10.946455,9.6506142 12.36917,6.3820268 12,4.9053248 12,-0.72978347 12,-6.3648917 12,-12 z"
         id="path9541"
         inkscape:connector-curvature="0" />
      <path
         style="fill:none;stroke:#000000;stroke-width:0.62992126;stroke-miterlimit:4;stroke-dasharray:none"
         d=""
         id="path9543"
         inkscape:connector-curvature="0" />
      <path
         style="fill:none;stroke:#000000;stroke-width:0.62992126;stroke-miterlimit:4;stroke-dasharray:none"
         d="m 51,-8 c 2.119167,-0.705523 3.444862,-2.511929 5,-4 0,7 0,14 0,21"
         id="path9545"
         inkscape:connector-curvature="0" />
      <path
         style="fill:none;stroke:#000000;stroke-width:0.62992126;stroke-miterlimit:4;stroke-dasharray:none"
         d="m 81,-9 c -0.410801,-2.063689 -2.216347,-2.519224 -4,-3 -1.82211,-0.09659 -4.019179,0.239741 -5.324474,1.486711 -1.591265,1.7557243 -2.101701,3.9591431 -2.421198,6.2416513 C 68.661766,-0.8496197 68.917182,2.6923533 70,6 c 1.425587,1.8847361 3.645358,2.9937476 6,3 2.372149,-0.5250954 4.895603,-1.8318719 5.462446,-4.3873393 1.074488,-1.9597974 0.254681,-4.33994448 -0.876071,-6.0262854 -1.348593,-1.7454658 -3.698192,-2.737838 -5.863843,-2.493886 -2.534633,0.4782334 -4.911718,2.1890125 -5.369957,4.84978569 C 69.23505,1.29485 69.117525,1.647425 69,2"
         id="path9547"
         inkscape:connector-curvature="0" />
      <path
         style="fill:none;stroke:#000000;stroke-width:0.62992126;stroke-miterlimit:4;stroke-dasharray:none"
         d="m 89,0 c 6,0 12,0 18,0"
         id="path9549"
         inkscape:connector-curvature="0" />
      <path
         style="fill:none;stroke:#000000;stroke-width:0.62992126;stroke-miterlimit:4;stroke-dasharray:none"
         d="m 115,-7 c -0.0725,-3.180039 3.29344,-5.602409 6.33981,-5 3.8573,-0.617261 7.34047,4.2962862 4.87539,7.5695952 -2.51676,4.678995 -6.96408,7.8287225 -10.48769,11.7028979 C 113.27602,9.029076 114.56778,9.2351518 116.92477,9 120.61651,9 124.30826,9 128,9"
         id="path9551"
         inkscape:connector-curvature="0" />
      <path
         style="fill:none;stroke:#000000;stroke-width:0.62992126;stroke-miterlimit:4;stroke-dasharray:none"
         d="m 136,-12 c 3.66667,0 7.33333,0 11,0 -2,2.6666667 -4,5.3333333 -6,8 2.29672,-0.2747045 5.19527,0.1982284 6.18498,2.5549357 1.26154,2.5052843 1.01712,5.6225699 -0.5986,7.858689 -1.91709,2.478735 -5.52228,3.0867004 -8.41878,2.3089074 C 136.00366,8.3956138 134.70706,7.0216788 134,5"
         id="path9553"
         inkscape:connector-curvature="0" />
    </g>
    <g
       id="g9801"
       transform="matrix(-0.5625,0,0,0.5625,203.87627,475.40576)"
       inkscape:label="Hershey Text"
       style="stroke-width:0.62992126;stroke-miterlimit:4;stroke-dasharray:none">
      <path
         style="fill:none;stroke:#000000;stroke-width:0.62992126;stroke-miterlimit:4;stroke-dasharray:none"
         d="M 4,-12 C 4,-5 4,2 4,9"
         id="path9803"
         inkscape:connector-curvature="0" />
      <path
         style="fill:none;stroke:#000000;stroke-width:0.62992126;stroke-miterlimit:4;stroke-dasharray:none"
         d="m 12,-12 c 3.417668,0.177977 7.135409,-0.649434 10.198424,1.198424 2.261907,1.7703473 3.35118,4.6273409 3.801576,7.3628048 0.139883,2.8194556 0.05417,5.6730374 -1.376484,8.1917386 C 23.723112,6.8353675 21.859719,8.4090532 19.604072,8.7986426 17.134317,9.2659134 14.524148,8.8679162 12,9 12,2 12,-5 12,-12 z"
         id="path9805"
         inkscape:connector-curvature="0" />
      <path
         style="fill:none;stroke:#000000;stroke-width:0.62992126;stroke-miterlimit:4;stroke-dasharray:none"
         d=""
         id="path9807"
         inkscape:connector-curvature="0" />
      <path
         style="fill:none;stroke:#000000;stroke-width:0.62992126;stroke-miterlimit:4;stroke-dasharray:none"
         d="m 49,-7 c -0.07038,-2.9967783 3.026646,-5.505045 5.964301,-5 C 58.192568,-12.590288 61.466069,-9.5942295 61,-6.3163136 59.421667,-1.4449021 55.051345,1.7307713 51.650421,5.3495791 50.433614,6.566386 49.216807,7.783193 48,9 c 4.666667,0 9.333333,0 14,0"
         id="path9809"
         inkscape:connector-curvature="0" />
      <path
         style="fill:none;stroke:#000000;stroke-width:0.62992126;stroke-miterlimit:4;stroke-dasharray:none"
         d="m 83,2 c -5,0 -10,0 -15,0 3.333333,-4.6666667 6.666667,-9.3333333 10,-14 0,7 0,14 0,21"
         id="path9811"
         inkscape:connector-curvature="0" />
      <path
         style="fill:none;stroke:#000000;stroke-width:0.62992126;stroke-miterlimit:4;stroke-dasharray:none"
         d="m 89,0 c 6,0 12,0 18,0"
         id="path9813"
         inkscape:connector-curvature="0" />
      <path
         style="fill:none;stroke:#000000;stroke-width:0.62992126;stroke-miterlimit:4;stroke-dasharray:none"
         d="m 116,-12 c 3.66667,0 7.33333,0 11,0 -2,2.6666667 -4,5.3333333 -6,8 2.2388,-0.2461908 4.88282,0.1529303 6.08874,2.2662142 0.99127,2.18122737 1.33807,4.6597983 0.20136,6.8634994 -0.64656,1.8782522 -2.48444,3.2082757 -4.41981,3.5801909 -2.38657,0.706182 -5.23472,0.2903671 -7.26714,-1.1067532 C 114.75049,6.9572369 114.52233,5.8851085 114,5"
         id="path9815"
         inkscape:connector-curvature="0" />
      <path
         style="fill:none;stroke:#000000;stroke-width:0.62992126;stroke-miterlimit:4;stroke-dasharray:none"
         d="m 137,-8 c 2.11496,-0.71136 3.44659,-2.509536 5,-4 0,7 0,14 0,21"
         id="path9817"
         inkscape:connector-curvature="0" />
    </g>
    <g
       inkscape:label="Hershey Text"
       transform="matrix(-0.5625,0,0,0.5625,183.87298,515.24626)"
       id="g10083"
       style="stroke-width:0.62992126;stroke-miterlimit:4;stroke-dasharray:none">
      <path
         style="fill:none;stroke:#000000;stroke-width:0.62992126;stroke-miterlimit:4;stroke-dasharray:none"
         d="M 1,-12 C 3.6666667,-5 6.3333333,2 9,9 11.666667,2 14.333333,-5 17,-12"
         id="path10085"
         inkscape:connector-curvature="0" />
      <path
         style="fill:none;stroke:#000000;stroke-width:0.62992126;stroke-miterlimit:4;stroke-dasharray:none"
         d="m 21,1 c 4,0 8,0 12,0 0.294653,-1.94759022 -0.586411,-3.9795866 -2.196744,-5.098372 C 29.54206,-5.0192159 28.087995,-5.1230547 26.580369,-5 c -1.950005,0.1592915 -3.521596,1.7348573 -4.649929,3.2086785 -0.847524,2.04815161 -1.439921,4.3689742 -0.373964,6.4607498 0.313896,1.6213905 1.726526,2.7726423 3.033756,3.6256877 1.334321,0.9873037 3.080775,0.7610743 4.606512,0.606512 C 30.807179,8.3468712 31.854204,7.2036106 33,6"
         id="path10087"
         inkscape:connector-curvature="0" />
      <path
         style="fill:none;stroke:#000000;stroke-width:0.62992126;stroke-miterlimit:4;stroke-dasharray:none"
         d="m 40,-5 c 0,4.66666667 0,9.3333333 0,14 m 0,-8 c 0.548008,-1.53844043 0.780181,-3.2720775 2.244318,-4.2443184 C 43.432981,-4.5633798 45.20894,-5.2656101 46.979698,-5 47.319799,-5 47.6599,-5 48,-5"
         id="path10089"
         inkscape:connector-curvature="0" />
      <path
         style="fill:none;stroke:#000000;stroke-width:0.62992126;stroke-miterlimit:4;stroke-dasharray:none"
         d="m 63,-2 c -0.493682,-1.3088976 -1.126792,-2.4570337 -2.669428,-2.5564761 -2.204841,-0.86819 -4.692735,-0.5095789 -6.834714,0.3911902 -0.946767,0.4852161 -1.925692,2.1665418 -1.003998,3.149006 0.531504,1.62882665 2.522375,2.01161888 4.018004,2.3182527 1.909743,0.4250155 4.104319,0.5416071 5.588508,1.8947712 0.690001,1.1497575 1.41614,2.5765058 0.409768,3.7869761 C 62.146968,8.5876846 60.207526,8.3718892 59,9 57.099272,9.1285602 55.24546,8.9680089 53.495858,8.1652859 52.575139,8.0072244 52.514637,6.6525325 52,6"
         id="path10091"
         inkscape:connector-curvature="0" />
      <path
         style="fill:none;stroke:#000000;stroke-width:0.62992126;stroke-miterlimit:4;stroke-dasharray:none"
         d="m 69,-12 c 0.574476,1.816993 2.912002,0.05673 1.222301,-0.777699 C 69.868177,-13.357054 69.373977,-12.152957 69,-12 z m 1,7 c 0,4.66666667 0,9.3333333 0,14"
         id="path10093"
         inkscape:connector-curvature="0" />
      <path
         style="fill:none;stroke:#000000;stroke-width:0.62992126;stroke-miterlimit:4;stroke-dasharray:none"
         d="m 82,-5 c -1.68839,0.6710688 -3.256262,1.8466692 -4.139119,3.4173571 -0.843799,1.97925104 -1.318135,4.2361468 -0.304405,6.2520712 0.313896,1.6213905 1.726526,2.7726423 3.033756,3.6256877 1.334321,0.9873037 3.080775,0.7610743 4.606512,0.606512 1.624268,-0.637256 3.090031,-1.8290402 3.942375,-3.3189851 0.843799,-1.979251 1.318135,-4.2361468 0.304405,-6.2520712 C 89.129628,-2.2908188 87.716998,-3.4420706 86.409768,-4.295116 85.07235,-5.3226538 83.562806,-4.9368235 82,-5 z"
         id="path10095"
         inkscape:connector-curvature="0" />
      <path
         style="fill:none;stroke:#000000;stroke-width:0.62992126;stroke-miterlimit:4;stroke-dasharray:none"
         d="m 97,-5 c 0,4.66666667 0,9.3333333 0,14 m 0,-10 c 1.809212,-1.6850145 3.53103,-4.3030746 6.3198,-4 1.35031,-0.1940395 2.83426,0.2852871 3.74976,1.2086785 0.72372,1.743192 1.13438,3.53718737 0.93044,5.4309194 0,2.4534674 0,4.9069347 0,7.3604021"
         id="path10097"
         inkscape:connector-curvature="0" />
    </g>
    <g
       id="g12946"
       transform="matrix(-1,0,0,1,464.95079,362.87406)"
       inkscape:label="Hershey Text"
       style="stroke-width:0.35433072;stroke-miterlimit:4;stroke-dasharray:none">
      <path
         style="fill:none;stroke:#000000;stroke-width:0.35433072;stroke-miterlimit:4;stroke-dasharray:none"
         d="m -5.5511816,-4.3149583 c 1.4948684,-2.3300454 2.2912158,-1.3685102 2.806296,0.9184166 2.60787507,6.7804752 5.2157502,13.5609507 7.8236253,20.3414257 3.5616798,-10.03937 7.1233593,-20.07874 10.6850393,-30.11811 39.180594,0.02797 78.361187,0.05594 117.541781,0.08391 0.54644,0.762057 1.09288,1.524114 1.63932,2.286171"
         id="path12948"
         inkscape:connector-curvature="0" />
      <path
         style="fill:none;stroke:#000000;stroke-width:0.35433072;stroke-miterlimit:4;stroke-dasharray:none"
         d="m 33,-5 c 0,4.66666667 0,9.3333333 0,14 m 0,-11 c -1.562352,-1.8849187 -3.728749,-3.4910716 -6.305744,-3 -2.502292,0.2725798 -4.820764,2.4298543 -5.332254,4.91399325 -1.20368,3.32819515 0.636816,7.41130215 3.926948,8.73048185 2.373583,0.9985324 5.346001,0.2201536 6.933855,-1.8672805 C 32.48187,6.5181297 32.740935,6.2590649 33,6"
         id="path12950"
         inkscape:connector-curvature="0" />
      <path
         style="fill:none;stroke:#000000;stroke-width:0.35433072;stroke-miterlimit:4;stroke-dasharray:none"
         d="M 52,-5 C 51.93855,0.41943378 52.122458,5.8786842 51.90886,11.273428 51.469662,13.248837 50.581774,15.199691 48.453263,15.77337 46.665357,16.317968 44.570035,16.102523 43,15 m 9,-17 c -1.562352,-1.8849187 -3.728749,-3.4910716 -6.305744,-3 -2.502292,0.2725798 -4.820764,2.4298543 -5.332254,4.91399325 -1.20368,3.32819515 0.636816,7.41130215 3.926948,8.73048185 2.373583,0.9985324 5.346001,0.2201536 6.933855,-1.8672805 C 51.48187,6.5181297 51.740935,6.2590649 52,6"
         id="path12952"
         inkscape:connector-curvature="0" />
      <path
         style="fill:none;stroke:#000000;stroke-width:0.35433072;stroke-miterlimit:4;stroke-dasharray:none"
         d="m 60,-5 c 0,4.66666667 0,9.3333333 0,14 m 0,-8 c 0.496222,-2.4421325 1.897723,-4.6973178 4.28895,-5.6444751 C 65.373181,-5.3326523 66.778705,-4.8620627 68,-5"
         id="path12954"
         inkscape:connector-curvature="0" />
      <path
         style="fill:none;stroke:#000000;stroke-width:0.35433072;stroke-miterlimit:4;stroke-dasharray:none"
         d="m 72,1 c 4,0 8,0 12,0 0.596175,-3.3712886 -2.648792,-6.6029177 -6.017526,-6 -2.249229,-0.00977 -4.396636,1.8470755 -5.255902,3.8202828 -1.441549,2.9341615 -0.686192,6.793095 1.903835,8.8101244 2.419889,2.2425007 6.616013,1.795077 8.592398,-0.8532126 C 83.48187,6.5181297 83.740935,6.2590649 84,6"
         id="path12956"
         inkscape:connector-curvature="0" />
      <path
         style="fill:none;stroke:#000000;stroke-width:0.35433072;stroke-miterlimit:4;stroke-dasharray:none"
         d="m 102,-5 c 0,4.66666667 0,9.3333333 0,14 m 0,-11 c -1.56235,-1.8849187 -3.728749,-3.4910716 -6.305744,-3 -2.502292,0.2725798 -4.820764,2.4298543 -5.332254,4.91399325 -1.20368,3.32819515 0.636816,7.41130215 3.926948,8.73048185 2.373583,0.9985324 5.346001,0.2201536 6.93386,-1.8672805 C 101.48187,6.5181297 101.74094,6.2590649 102,6"
         id="path12958"
         inkscape:connector-curvature="0" />
      <path
         style="fill:none;stroke:#000000;stroke-width:0.35433072;stroke-miterlimit:4;stroke-dasharray:none"
         d="m 110,-5 c 0,4.66666667 0,9.3333333 0,14 m 0,-8 c 0.49622,-2.4421325 1.89772,-4.6973178 4.28895,-5.6444751 C 115.37318,-5.3326523 116.77871,-4.8620627 118,-5"
         id="path12960"
         inkscape:connector-curvature="0" />
      <path
         style="fill:none;stroke:#000000;stroke-width:0.35433072;stroke-miterlimit:4;stroke-dasharray:none"
         d="m 134,-5 c -0.0615,5.41943378 0.12246,10.8786842 -0.0911,16.273428 -0.4392,1.975409 -1.32709,3.926263 -3.4556,4.499942 C 128.66536,16.317968 126.57003,16.102523 125,15 m 9,-17 c -1.56235,-1.8849187 -3.72875,-3.4910716 -6.30574,-3 -2.5023,0.2725798 -4.82077,2.4298543 -5.33226,4.91399325 -1.20368,3.32819515 0.63682,7.41130215 3.92695,8.73048185 2.37358,0.9985324 5.346,0.2201536 6.93386,-1.8672805 C 133.48187,6.5181297 133.74094,6.2590649 134,6"
         id="path12962"
         inkscape:connector-curvature="0" />
    </g>
    <g
       inkscape:label="Hershey Text"
       transform="matrix(-0.3,0,0,0.3,467.87054,349.83945)"
       id="g13279"
       style="stroke-width:1.1811024;stroke-miterlimit:4;stroke-dasharray:none">
      <path
         style="fill:none;stroke:#000000;stroke-width:1.1811024;stroke-miterlimit:4;stroke-dasharray:none"
         d="M 6,-8 C 6.8882341,-8.5097904 7.9534209,-8.7740721 8.6080174,-9.6080174 9.405345,-10.405345 10.202672,-11.202672 11,-12 c 0,7 0,14 0,21"
         id="path13281"
         inkscape:connector-curvature="0" />
      <path
         style="fill:none;stroke:#000000;stroke-width:1.1811024;stroke-miterlimit:4;stroke-dasharray:none"
         d="m 25,-12 c 3.666667,0 7.333333,0 11,0 -2,2.6666667 -4,5.3333333 -6,8 1.020409,0.023921 2.063314,-0.04745 3.069917,0.034959 0.867609,0.4944186 1.902435,0.7568357 2.5381,1.5730589 0.633897,0.4755062 0.628868,1.3458896 0.93581,2.02346458 C 36.78452,0.35989324 37.112504,1.0741392 37,1.8598665 37.038775,2.558882 37.005734,3.2462434 36.703367,3.8898993 36.439572,4.6049455 36.25972,5.371871 35.944726,6.0552743 35.264983,6.7007831 34.637234,7.4304203 33.925842,8.0247194 32.895739,8.3331191 31.887153,8.7741086 30.843661,9 29.849067,8.966686 28.832878,9.0664449 27.851683,8.9505612 26.889283,8.6046266 25.875547,8.3417564 24.944726,7.9447257 24.421318,7.4313444 23.854234,6.9494428 23.615456,6.230912 23.410304,5.820608 23.205152,5.410304 23,5"
         id="path13283"
         inkscape:connector-curvature="0" />
    </g>
    <g
       style="stroke-width:0.62992126;stroke-miterlimit:4;stroke-dasharray:none;display:inline"
       id="g13614"
       transform="matrix(-0.5625,0,0,0.5625,198.38533,324.81058)"
       inkscape:label="Hershey Text">
      <path
         style="fill:none;stroke:#000000;stroke-width:0.62992126;stroke-miterlimit:4;stroke-dasharray:none"
         d="m 4,-2 c 3.1616005,0.1164159 6.398568,-0.2315975 9.51369,0.17123 1.869122,0.3884193 3.664626,1.30401727 4.212777,3.2817044 0.56014,1.6731928 0.475542,3.7347249 -0.574012,5.2421557 C 16.062026,8.5030345 13.610022,8.9589517 11.646308,9 9.0975389,9 6.5487694,9 4,9 4,2 4,-5 4,-12 c 3.1616005,0.116416 6.398568,-0.231598 9.51369,0.17123 1.869122,0.388419 3.664626,1.304017 4.212777,3.2817044 1.0227,2.3700359 -0.625794,5.6689505 -3.267537,6.0607555 C 13.97262,-2.3242068 13.48631,-2.1621034 13,-2"
         id="path13616"
         inkscape:connector-curvature="0" />
      <path
         style="fill:none;stroke:#000000;stroke-width:0.62992126;stroke-miterlimit:4;stroke-dasharray:none"
         d="m 36,-5 c 0,4.66666667 0,9.3333333 0,14 M 36,-2 C 34.463115,-3.8210965 32.366372,-5.487163 29.834093,-5 27.720244,-4.967859 25.814408,-3.2219714 24.82877,-1.4863101 23.795445,0.68096209 23.689866,3.138637 24.770535,5.3116044 25.614474,7.1147311 27.527925,8.7330926 29.541477,9 31.775965,9.3720496 33.956365,8.4341371 35.340086,6.6599136 35.560058,6.4399424 35.780029,6.2199712 36,6"
         id="path13618"
         inkscape:connector-curvature="0" />
      <path
         style="fill:none;stroke:#000000;stroke-width:0.62992126;stroke-miterlimit:4;stroke-dasharray:none"
         d="M 44,-5 C 44.111013,-1.5041893 43.775917,2.0640147 44.17123,5.5136899 44.496226,7.2117183 45.208993,8.5734359 47,9 49.08571,9.2015285 51.353256,8.9696181 52.765764,7.2342364 53.510509,6.4894909 54.255254,5.7447455 55,5 m 0,-10 c 0,4.66666667 0,9.3333333 0,14"
         id="path13620"
         inkscape:connector-curvature="0" />
      <path
         style="fill:none;stroke:#000000;stroke-width:0.62992126;stroke-miterlimit:4;stroke-dasharray:none"
         d="m 74,-12 c 0,7 0,14 0,21 M 74,-2 C 72.463115,-3.8210965 70.366372,-5.487163 67.834093,-5 65.720244,-4.967859 63.814408,-3.2219714 62.82877,-1.4863101 61.795445,0.68096209 61.689866,3.138637 62.770535,5.3116044 63.614474,7.1147311 65.527925,8.7330926 67.541477,9 69.775965,9.3720496 71.956365,8.4341371 73.340086,6.6599136 73.560058,6.4399424 73.780029,6.2199712 74,6"
         id="path13622"
         inkscape:connector-curvature="0" />
      <path
         style="fill:none;stroke:#000000;stroke-width:0.62992126;stroke-miterlimit:4;stroke-dasharray:none"
         d="m 82,-5 c 0,4.66666667 0,9.3333333 0,14 m 0,-8 c 0.489185,-1.83295234 1.107599,-3.5860362 2.722968,-4.7229682 C 86.218665,-5.1272735 88.070388,-5.0981022 90,-5"
         id="path13624"
         inkscape:connector-curvature="0" />
      <path
         style="fill:none;stroke:#000000;stroke-width:0.62992126;stroke-miterlimit:4;stroke-dasharray:none"
         d="m 106,-5 c 0,4.66666667 0,9.3333333 0,14 m 0,-11 c -1.53689,-1.8210965 -3.63363,-3.487163 -6.165907,-3 -2.113849,0.032141 -4.019685,1.7780286 -5.005323,3.5136899 C 93.795445,0.68096209 93.689866,3.138637 94.770535,5.3116044 95.614474,7.1147311 97.527925,8.7330926 99.541477,9 101.77596,9.3720496 103.95637,8.4341371 105.34009,6.6599136 105.56006,6.4399424 105.78003,6.2199712 106,6"
         id="path13626"
         inkscape:connector-curvature="0" />
      <path
         style="fill:none;stroke:#000000;stroke-width:0.62992126;stroke-miterlimit:4;stroke-dasharray:none"
         d="m 115,-12 c 0.0573,5.7476199 -0.11441,11.53239173 0.0856,17.2568449 0.41429,1.7023513 0.93821,3.3096223 2.85164,3.711778 C 118.60873,9.0430119 119.31583,8.9781404 120,9 m -8,-14 c 2.33333,0 4.66667,0 7,0"
         id="path13628"
         inkscape:connector-curvature="0" />
      <path
         style="fill:none;stroke:#000000;stroke-width:0.62992126;stroke-miterlimit:4;stroke-dasharray:none"
         d="m 125,1 c 4,0 8,0 12,0 0.57356,-3.1867974 -2.38284,-6.4450497 -5.62443,-6 -2.3415,-0.2466444 -4.47004,1.6298921 -5.5468,3.5136899 -1.03332,2.16727219 -1.1389,4.6249471 -0.0582,6.7979145 C 126.61451,7.1147311 128.52796,8.7330926 130.54152,9 132.776,9.3720496 134.95641,8.4341371 136.34013,6.6599136 136.56006,6.4399424 136.78003,6.2199712 137,6"
         id="path13630"
         inkscape:connector-curvature="0" />
    </g>
  </g>
  <g
     style="display:inline;photonsaw-power:80;photonsaw-speed:16;photonsaw-passes:2;photonsaw-assistair:1"
     transform="translate(-148.64173,-173.79926)"
     id="layer1"
     inkscape:groupmode="layer"
     inkscape:label="Cutting">
    <path
       sodipodi:nodetypes="ccccc"
       inkscape:connector-curvature="0"
       inkscape:label="#rect3876-3-1"
       id="top_mount_1"
       d="m 391.35828,607.85431 -10e-6,-7.08655 -17.71654,0 1e-5,7.08655 z"
       style="fill:none;stroke:#000000;stroke-width:0.35433072;stroke-linecap:round;stroke-linejoin:round;stroke-miterlimit:4;stroke-opacity:1;stroke-dashoffset:0" />
    <path
       sodipodi:nodetypes="ccccc"
       inkscape:connector-curvature="0"
       inkscape:label="#rect3876"
       id="top_mount_2"
       d="m 405.5315,600.76769 0,-17.71653 -7.08662,7e-5 0,17.71653 z"
       style="fill:none;stroke:#000000;stroke-width:0.35433069;stroke-linecap:round;stroke-linejoin:round;stroke-miterlimit:4;stroke-opacity:1;stroke-dashoffset:0" />
    <path
       sodipodi:nodetypes="ccccc"
       inkscape:connector-curvature="0"
       inkscape:label="#rect3876-7"
       id="top_mount_3"
       d="m 405.5315,430.68895 0,-17.71653 -7.08662,7e-5 0,17.71653 z"
       style="fill:none;stroke:#000000;stroke-width:0.35433069;stroke-linecap:round;stroke-linejoin:round;stroke-miterlimit:4;stroke-opacity:1;stroke-dashoffset:0" />
    <path
       sodipodi:nodetypes="ccccc"
       inkscape:connector-curvature="0"
       inkscape:label="#rect3876-6"
       id="top_mount_4"
       d="m 405.5315,260.61021 0,-17.71653 -7.08662,7e-5 0,17.71653 z"
       style="fill:none;stroke:#000000;stroke-width:0.35433069;stroke-linecap:round;stroke-linejoin:round;stroke-miterlimit:4;stroke-opacity:1;stroke-dashoffset:0" />
    <path
       sodipodi:nodetypes="ccccc"
       inkscape:connector-curvature="0"
       inkscape:label="#rect3876-3"
       id="top_mount_5"
       d="m 391.35827,242.89375 10e-6,-7.08669 -17.71654,0 -1e-5,7.08669 z"
       style="fill:none;stroke:#000000;stroke-width:0.35433072;stroke-linecap:round;stroke-linejoin:round;stroke-miterlimit:4;stroke-opacity:1;stroke-dashoffset:0" />
    <path
       sodipodi:nodetypes="ccccc"
       inkscape:connector-curvature="0"
       inkscape:label="#rect3876-3-2"
       id="top_mount_6"
       d="m 242.53937,242.89375 1e-5,-7.08669 -17.71654,0 -1e-5,7.08669 z"
       style="fill:none;stroke:#000000;stroke-width:0.35433072;stroke-linecap:round;stroke-linejoin:round;stroke-miterlimit:4;stroke-opacity:1;stroke-dashoffset:0" />
    <path
       sodipodi:nodetypes="ccccc"
       inkscape:connector-curvature="0"
       inkscape:label="#rect3876-0"
       id="top_mount_7"
       d="m 217.73622,260.61028 0,-17.71653 -7.0866,-7e-5 0,17.71653 z"
       style="fill:none;stroke:#000000;stroke-width:0.35433069;stroke-linecap:round;stroke-linejoin:round;stroke-miterlimit:4;stroke-opacity:1;stroke-dashoffset:0" />
    <path
       sodipodi:nodetypes="ccccc"
       inkscape:connector-curvature="0"
       inkscape:label="#rect3876-7-2"
       id="top_mount_8"
       d="m 217.73622,430.68902 0,-17.71653 -7.0866,-7e-5 0,17.71653 z"
       style="fill:none;stroke:#000000;stroke-width:0.35433069;stroke-linecap:round;stroke-linejoin:round;stroke-miterlimit:4;stroke-opacity:1;stroke-dashoffset:0" />
    <path
       sodipodi:nodetypes="ccccc"
       inkscape:connector-curvature="0"
       inkscape:label="#rect3876-4"
       id="top_mount_9"
       d="m 217.73622,600.76776 0,-17.71653 -7.0866,-7e-5 0,17.71653 z"
       style="fill:none;stroke:#000000;stroke-width:0.35433069;stroke-linecap:round;stroke-linejoin:round;stroke-miterlimit:4;stroke-opacity:1;stroke-dashoffset:0" />
    <path
       sodipodi:nodetypes="ccccc"
       inkscape:connector-curvature="0"
       inkscape:label="#rect3876-3-24"
       id="top_mount_10"
       d="m 242.53938,607.85431 -1e-5,-7.08655 -17.71654,0 1e-5,7.08655 z"
       style="fill:none;stroke:#000000;stroke-width:0.35433072;stroke-linecap:round;stroke-linejoin:round;stroke-miterlimit:4;stroke-opacity:1;stroke-dashoffset:0" />
    <path
       inkscape:connector-curvature="0"
       inkscape:label="#path3759-59-8"
       id="top_hole_left"
       d="m 308.09055,590.13784 c -2.44614,0 -4.42913,1.98299 -4.42913,4.42913 0,2.44614 1.98299,4.42913 4.42913,4.42913 2.44614,0 4.42913,-1.98299 4.42913,-4.42913 0,-2.44614 -1.98299,-4.42913 -4.42913,-4.42913 z"
       style="fill:none;stroke:#000000;stroke-width:0.35433072;stroke-linecap:round;stroke-linejoin:round;stroke-miterlimit:4;stroke-opacity:1;stroke-dashoffset:0" />
    <path
       inkscape:connector-curvature="0"
       inkscape:label="#path3759-3"
       id="top_hole_button"
       d="m 382.67716,294.09446 c -3.91382,0 -7.08661,3.17279 -7.08661,7.08662 0,3.91382 3.17279,7.08661 7.08661,7.08661 3.91383,0 7.08662,-3.17279 7.08662,-7.08661 0,-3.91383 -3.17279,-7.08662 -7.08662,-7.08662 z"
       style="fill:none;stroke:#000000;stroke-width:0.35433072;stroke-linecap:round;stroke-linejoin:round;stroke-miterlimit:4;stroke-opacity:1;stroke-dashoffset:0" />
    <path
       sodipodi:nodetypes="ccccccccc"
       inkscape:connector-curvature="0"
       inkscape:label="#path4241-2-14-7"
       d="m 299.40944,306.05313 0,8.85826 c 10e-4,0.48948 0.39723,0.88583 0.88583,0.88583 l 15.94488,0 c 0.48949,-10e-4 0.88583,-0.39722 0.88583,-0.88582 l 0,-8.85828 c -0.001,-0.48948 -0.39722,-0.88582 -0.88583,-0.88582 l -15.94488,0 c -0.48949,10e-4 -0.88583,0.39722 -0.88583,0.88583 z"
       style="fill:none;stroke:#000000;stroke-width:0.35433072;stroke-linecap:round;stroke-linejoin:round;stroke-miterlimit:4;stroke-opacity:1;stroke-dashoffset:0"
       id="top_hole_slider" />
    <path
       inkscape:connector-curvature="0"
       inkscape:label="#path3759-59"
       id="top_hole_right"
       d="m 308.09055,249.09454 c -2.44614,0 -4.42913,1.98299 -4.42913,4.42913 0,2.44614 1.98299,4.42914 4.42913,4.42914 2.44614,0 4.42913,-1.983 4.42913,-4.42914 0,-2.44614 -1.98299,-4.42913 -4.42913,-4.42913 z"
       style="fill:none;stroke:#000000;stroke-width:0.35433072;stroke-linecap:round;stroke-linejoin:round;stroke-miterlimit:4;stroke-opacity:1;stroke-dashoffset:0" />
    <path
       sodipodi:nodetypes="ccccccccc"
       inkscape:connector-curvature="0"
       inkscape:label="#path4241-5"
       d="m 254.05512,359.82288 c -0.002,-0.97896 -0.79446,-1.77165 -1.77166,-1.77165 l -19.48819,0 c -0.97898,0.002 -1.77166,0.79444 -1.77165,1.77165 l 0,234.30118 c 0.002,0.97897 0.79444,1.77166 1.77165,1.77166 l 19.48819,0 c 0.97897,-0.002 1.77167,-0.79446 1.77166,-1.77166 z"
       style="fill:none;stroke:#000000;stroke-width:0.35433069;stroke-linecap:round;stroke-linejoin:round;stroke-miterlimit:4;stroke-opacity:1;stroke-dashoffset:0"
       id="top_hole_dip" />
    <path
       sodipodi:nodetypes="ccccc"
       inkscape:connector-curvature="0"
       inkscape:label="#rect3876-06"
       id="bottom_mount_2"
       d="m 451.59448,600.76769 0,-17.71653 7.08662,7e-5 0,17.71653 z"
       style="fill:none;stroke:#000000;stroke-width:0.35433069;stroke-linecap:round;stroke-linejoin:round;stroke-miterlimit:4;stroke-opacity:1;stroke-dashoffset:0" />
    <path
       sodipodi:nodetypes="ccccc"
       inkscape:connector-curvature="0"
       inkscape:label="#rect3876-7-5"
       id="bottom_mount_3"
       d="m 453.36613,430.68895 0,-17.71653 7.08662,7e-5 0,17.71653 z"
       style="fill:none;stroke:#000000;stroke-width:0.35433069;stroke-linecap:round;stroke-linejoin:round;stroke-miterlimit:4;stroke-opacity:1;stroke-dashoffset:0" />
    <path
       sodipodi:nodetypes="ccccc"
       inkscape:connector-curvature="0"
       inkscape:label="#rect3876-6-4"
       id="bottom_mount_4"
       d="m 451.59448,260.61021 0,-17.71653 7.08662,7e-5 0,17.71653 z"
       style="fill:none;stroke:#000000;stroke-width:0.35433069;stroke-linecap:round;stroke-linejoin:round;stroke-miterlimit:4;stroke-opacity:1;stroke-dashoffset:0" />
    <path
       sodipodi:nodetypes="ccccc"
       inkscape:connector-curvature="0"
       inkscape:label="#rect3876-3-28"
       id="bottom_mount_5"
       d="m 465.76771,242.89375 0,-7.08669 17.71654,0 0,7.08669 z"
       style="fill:none;stroke:#000000;stroke-width:0.35433072;stroke-linecap:round;stroke-linejoin:round;stroke-miterlimit:4;stroke-opacity:1;stroke-dashoffset:0" />
    <path
       sodipodi:nodetypes="ccccccccc"
       inkscape:connector-curvature="0"
       inkscape:label="#path4241-2-14-7-6"
       d="m 485.96458,248.9173 -1e-5,8.85826 c -10e-4,0.48949 -0.39722,0.88584 -0.88583,0.88584 l -17.71653,-1e-5 c -0.48948,-10e-4 -0.88583,-0.39722 -0.88583,-0.88583 l 0,-8.85826 c 10e-4,-0.4895 0.39722,-0.88584 0.88583,-0.88583 l 17.71654,0 c 0.48948,10e-4 0.88583,0.39722 0.88583,0.88583 z"
       style="fill:none;stroke:#000000;stroke-width:0.35433072;stroke-linecap:round;stroke-linejoin:round;stroke-miterlimit:4;stroke-opacity:1;stroke-dashoffset:0"
       id="bottom_hole_power" />
    <path
       inkscape:connector-curvature="0"
       inkscape:label="#path3986"
       id="bottom_hole_top"
       d="m 520.68897,299.14375 c 2.20152,0 3.9862,1.78469 3.9862,3.98621 0,2.20154 -1.78468,3.98623 -3.9862,3.98623 -2.20153,0 -3.98622,-1.78469 -3.98622,-3.98623 0,-2.20152 1.78469,-3.98621 3.98622,-3.98621 z"
       style="fill:none;stroke:#000000;stroke-width:0.35433075;stroke-linecap:round;stroke-linejoin:round;stroke-miterlimit:4;stroke-opacity:1;stroke-dashoffset:0" />
    <path
       style="fill:none;stroke:#000000;stroke-width:0.35433072;stroke-linecap:round;stroke-linejoin:round;stroke-miterlimit:4;stroke-opacity:1;stroke-dashoffset:0;display:inline"
       d="m 552.13583,253.52366 c 0,1.7123 -1.3881,3.1004 -3.1004,3.1004 -1.7123,0 -3.10039,-1.3881 -3.10039,-3.1004 0,-1.7123 1.38809,-3.10039 3.10039,-3.10039 1.7123,0 3.1004,1.38809 3.1004,3.10039"
       id="hole_bottom_top"
       inkscape:connector-curvature="0"
       inkscape:label="#path14108-8" />
    <path
       inkscape:connector-curvature="0"
       inkscape:label="#path3986-2"
       id="bottom_hole_bottom"
       d="m 577.38189,299.14375 c 2.20153,0 3.98621,1.78469 3.98621,3.98621 0,2.20154 -1.78468,3.98623 -3.98621,3.98623 -2.20152,0 -3.98621,-1.78469 -3.98621,-3.98623 0,-2.20152 1.78469,-3.98621 3.98621,-3.98621 z"
       style="fill:none;stroke:#000000;stroke-width:0.35433075;stroke-linecap:round;stroke-linejoin:round;stroke-miterlimit:4;stroke-opacity:1;stroke-dashoffset:0" />
    <path
       sodipodi:nodetypes="ccccc"
       inkscape:connector-curvature="0"
       inkscape:label="#rect3876-3-2-6"
       id="bottom_mount_6"
       d="m 614.58661,242.89375 0,-7.08669 17.71653,0 10e-6,7.08669 z"
       style="fill:none;stroke:#000000;stroke-width:0.35433072;stroke-linecap:round;stroke-linejoin:round;stroke-miterlimit:4;stroke-opacity:1;stroke-dashoffset:0" />
    <path
       sodipodi:nodetypes="ccccc"
       inkscape:connector-curvature="0"
       inkscape:label="#rect3876-0-5"
       id="bottom_mount_7"
       d="m 639.38976,260.61028 0,-17.71653 7.08661,-7e-5 0,17.71653 z"
       style="fill:none;stroke:#000000;stroke-width:0.35433069;stroke-linecap:round;stroke-linejoin:round;stroke-miterlimit:4;stroke-opacity:1;stroke-dashoffset:0" />
    <path
       sodipodi:nodetypes="ccccc"
       inkscape:connector-curvature="0"
       inkscape:label="#rect3876-7-2-2"
       id="bottom_mount_8"
       d="m 641.16142,430.68902 0,-17.71653 7.0866,-7e-5 0,17.71653 z"
       style="fill:none;stroke:#000000;stroke-width:0.35433069;stroke-linecap:round;stroke-linejoin:round;stroke-miterlimit:4;stroke-opacity:1;stroke-dashoffset:0" />
    <path
       sodipodi:nodetypes="ccccc"
       inkscape:connector-curvature="0"
       inkscape:label="#rect3876-4-8"
       id="bottom_mount_9"
       d="m 639.38976,600.76776 0,-17.71653 7.08661,-7e-5 0,17.71653 z"
       style="fill:none;stroke:#000000;stroke-width:0.35433069;stroke-linecap:round;stroke-linejoin:round;stroke-miterlimit:4;stroke-opacity:1;stroke-dashoffset:0" />
    <path
       sodipodi:nodetypes="ccccc"
       inkscape:connector-curvature="0"
       inkscape:label="#rect3876-3-24-4"
       id="bottom_mount_10"
       d="m 614.58661,607.85431 0,-7.08655 17.71654,0 -10e-6,7.08655 z"
       style="fill:none;stroke:#000000;stroke-width:0.35433072;stroke-linecap:round;stroke-linejoin:round;stroke-miterlimit:4;stroke-opacity:1;stroke-dashoffset:0" />
    <path
       style="fill:none;stroke:#000000;stroke-width:0.35433072;stroke-linecap:round;stroke-linejoin:round;stroke-miterlimit:4;stroke-opacity:1;stroke-dashoffset:0;display:inline"
       d="m 552.13583,594.56697 c 0,1.7123 -1.3881,3.1004 -3.1004,3.1004 -1.7123,0 -3.10039,-1.3881 -3.10039,-3.1004 0,-1.7123 1.38809,-3.10039 3.10039,-3.10039 1.7123,0 3.1004,1.38809 3.1004,3.10039"
       id="hole_bottom_bot"
       inkscape:connector-curvature="0"
       inkscape:label="#path14108" />
    <path
       sodipodi:nodetypes="ccccc"
       inkscape:connector-curvature="0"
       inkscape:label="#rect3876-3-1-0"
       id="bottom_mount_1"
       d="m 465.76771,607.85431 0,-7.08655 17.71654,0 0,7.08655 z"
       style="fill:none;stroke:#000000;stroke-width:0.35433072;stroke-linecap:round;stroke-linejoin:round;stroke-miterlimit:4;stroke-opacity:1;stroke-dashoffset:0" />
    <path
       sodipodi:nodetypes="ccccccccccccccccccccccccccccc"
       inkscape:label="#rect3935-4"
       d="m 184.0748,260.61021 0,-17.71653 -14.17323,7e-5 0,-5.31496 -7.08661,0 0,5.31496 -14.17323,0 0,17.71653 7.08661,0 0,152.36221 -7.08661,0 0,17.71653 7.08661,0 0,152.36221 -7.08661,0 0,17.71653 14.17323,0 0,5.31496 7.08661,0 0,-5.31496 14.17323,-7e-5 0,-17.71653 -7.08661,0 0,-152.36221 7.08661,0 0,-17.71653 -7.08661,0 0,-152.36221 z"
       style="fill:none;stroke:#000000;stroke-width:0.35433072;stroke-linecap:round;stroke-linejoin:round;stroke-miterlimit:4;stroke-opacity:1;stroke-dashoffset:0"
       id="side_top"
       inkscape:connector-curvature="0" />
    <path
       inkscape:label="#path3982"
       sodipodi:nodetypes="ccccccccccccccccccccccccccccccccc"
       inkscape:connector-curvature="0"
       d="m 242.53937,186.20083 0,-7.08661 -17.71654,0 0,7.08661 -12.40157,0 3e-5,7.08655 5.31493,0 0,7.08668 -5.31496,0 3e-5,7.08655 12.40154,0 0,7.08661 17.71654,0 -1e-5,-7.08661 131.10237,0 0,7.08661 17.71654,0 -1e-5,-7.08661 12.40161,0 -3e-5,-7.08655 -5.31496,0 0,-7.08668 5.31499,0 -3e-5,-7.08655 -12.40157,0 0,-7.08661 -17.71654,0 0,7.08661 -70.86614,0 0,5.31497 -5.31496,0 0,-5.31497 z"
       style="fill:none;stroke:#000000;stroke-width:0.35433072;stroke-linecap:round;stroke-linejoin:round;stroke-miterlimit:4;stroke-opacity:1;stroke-dasharray:none"
       id="side_right" />
    <path
       sodipodi:nodetypes="ccccccccccccccccccccccccccccc"
       inkscape:connector-curvature="0"
       inkscape:label="#rect3935-7-6"
       d="m 632.30315,186.20083 0,-7.08661 -17.71654,0 0,7.08661 -131.10236,0 0,-7.08661 -17.71654,0 0,7.08661 -12.40157,0 0,7.08662 5.31496,0 0,7.08661 -5.31496,0 3e-5,7.08655 12.40154,0 0,7.08661 17.71654,0 -10e-6,-7.08661 131.10237,0 0,7.08661 17.71653,0 0,-7.08661 12.40161,0 -3e-5,-7.08655 -5.31496,0 0,-7.08661 5.31496,0 0,-7.08662 z"
       style="fill:none;stroke:#000000;stroke-width:0.35433069;stroke-linecap:round;stroke-linejoin:round;stroke-miterlimit:4;stroke-opacity:1;stroke-dashoffset:0"
       id="side_left" />
    <path
       sodipodi:nodetypes="ccccccccccccccccccccccccccccc"
       inkscape:label="#rect3935"
       inkscape:connector-curvature="0"
       d="m 708.48425,260.61028 0,-17.71653 -14.17323,0 0,-5.31496 -7.08661,0 0,5.31496 -14.17324,-7e-5 0,17.71653 7.08662,0 0,152.36221 -7.08662,0 0,17.71653 7.08662,0 0,152.36221 -7.08662,0 0,17.71653 14.17324,7e-5 0,5.31496 7.08661,0 0,-5.31496 14.17323,0 0,-17.71653 -7.08661,0 0,-152.36221 7.08661,0 0,-17.71653 -7.08661,0 0,-152.36221 z"
       style="fill:none;stroke:#000000;stroke-width:0.35433072;stroke-linecap:round;stroke-linejoin:round;stroke-miterlimit:4;stroke-opacity:1;stroke-dashoffset:0"
       id="side_bottom" />
    <path
       inkscape:label="#path3039-6-1"
       sodipodi:nodetypes="czcczcczcczcc"
       inkscape:connector-curvature="0"
       d="m 657.10588,232.26191 c 0,0 7.08678,126.37937 7.08661,189.56835 -1.6e-4,63.18897 -7.08761,189.56693 -7.08761,189.56693 -0.2254,4.0043 -3.08824,6.75923 -7.0852,7.08661 0,0 -67.32325,3.54347 -100.98467,3.54331 -33.66141,-1.7e-4 -100.98383,-3.54431 -100.98383,-3.54431 -3.99676,-0.33841 -6.84775,-3.08202 -7.08662,-7.08519 0,0 -7.08703,-126.37838 -7.08703,-189.56735 0,-63.18898 7.08803,-189.56673 7.08803,-189.56673 0.23758,-4.00367 3.08865,-6.74618 7.08498,-7.08682 0,0 67.32306,-3.5433 100.98447,-3.5433 33.66142,0 100.98425,3.5433 100.98425,3.5433 3.99728,0.32857 6.83374,3.08384 7.08662,7.0852 z"
       style="fill:none;stroke:#000000;stroke-width:0.35433072;stroke-linecap:round;stroke-linejoin:round;stroke-miterlimit:4;stroke-opacity:1;stroke-dashoffset:0"
       id="contour_bottom" />
    <path
       inkscape:label="#path3039-6"
       sodipodi:nodetypes="czcczcczcczcc"
       inkscape:connector-curvature="0"
       d="m 409.07502,225.17714 c 0,0 -67.32305,-3.5433 -100.98446,-3.5433 -33.66142,0 -100.98425,3.5433 -100.98425,3.5433 -3.99531,0.35166 -6.84646,3.08305 -7.08662,7.0852 0,0 -7.08678,126.37937 -7.08661,189.56835 1.6e-4,63.18897 7.08761,189.56692 7.08761,189.56692 0.22622,4.00426 3.08914,6.74843 7.0852,7.08662 0,0 67.32325,3.54347 100.98467,3.54331 33.66141,-1.7e-4 100.98382,-3.54431 100.98382,-3.54431 3.99655,-0.34087 6.83139,-3.08303 7.08663,-7.0852 0,0 7.08702,-126.37837 7.08702,-189.56734 0,-63.18898 -7.08802,-189.56672 -7.08802,-189.56672 -0.23882,-4.00361 -3.08956,-6.73575 -7.08499,-7.08683 z"
       style="fill:none;stroke:#000000;stroke-width:0.35433072;stroke-linecap:round;stroke-linejoin:round;stroke-miterlimit:4;stroke-opacity:1;stroke-dashoffset:0"
       id="contour_top" />
  </g>
</svg>
