<?xml version="1.0" encoding="UTF-8" standalone="no"?>
<!-- Created with Inkscape (http://www.inkscape.org/) -->
<svg id="svg2" xmlns:rdf="http://www.w3.org/1999/02/22-rdf-syntax-ns#" xmlns="http://www.w3.org/2000/svg" height="450" width="566.93" version="1.1" xmlns:cc="http://creativecommons.org/ns#" xmlns:dc="http://purl.org/dc/elements/1.1/">
	<metadata id="metadata7">
		<rdf:RDF>
			<cc:Work rdf:about="">
				<dc:format>image/svg+xml</dc:format>
				<dc:type rdf:resource="http://purl.org/dc/dcmitype/StillImage"/>
				<dc:title/>
			</cc:Work>
		</rdf:RDF>
	</metadata>
	<g id="layer2" style="photonsaw-power:80;photonsaw-speed:32;photonsaw-assistair:1;photonsaw-passes:1;" transform="translate(0,-116.92918)">
		<text id="text4018" style="letter-spacing:0px;word-spacing:0px;" font-weight="500" transform="matrix(0,-1,1,0,0,0)" font-style="normal" font-stretch="normal" xml:space="preserve" line-height="125%" font-size="12px" font-variant="normal" y="203.78191" x="-529.70911" font-family="Century Schoolbook L" fill="#000000"><tspan id="tspan4020" y="203.78191" x="-529.70911"/></text>
		<path id="path4034" stroke-linejoin="miter" d="m109.84,531.5,5.315,0,0-35.433-5.315,0" stroke="#000" stroke-linecap="butt" stroke-miterlimit="4" stroke-dasharray="none" stroke-width="0.35433072" fill="none"/>
		<path id="path4034-9" stroke-linejoin="miter" d="m109.84,492.08,5.315,0,0-35.433-5.315,0" stroke="#000" stroke-linecap="butt" stroke-miterlimit="4" stroke-dasharray="none" stroke-width="0.35433072" fill="none"/>
		<path id="path4034-7" stroke-linejoin="miter" d="m109.84,452.66,5.315,0,0-35.433-5.315,0" stroke="#000" stroke-linecap="butt" stroke-miterlimit="4" stroke-dasharray="none" stroke-width="0.35433072" fill="none"/>
		<path id="path4034-6" stroke-linejoin="miter" d="m109.84,413.24,5.315,0,0-35.433-5.315,0" stroke="#000" stroke-linecap="butt" stroke-miterlimit="4" stroke-dasharray="none" stroke-width="0.35433072" fill="none"/>
		<path id="path4034-3" stroke-linejoin="miter" d="m109.84,373.82,5.315,0,0-35.433-5.315,0" stroke="#000" stroke-linecap="butt" stroke-miterlimit="4" stroke-dasharray="none" stroke-width="0.35433072" fill="none"/>
		<path id="path4034-96" stroke-linejoin="miter" d="m109.84,333.07,5.315,0,0-26.575-5.315,0" stroke="#000" stroke-linecap="butt" stroke-miterlimit="4" stroke-dasharray="none" stroke-width="0.35433072" fill="none"/>
		<path id="path4127" stroke-linejoin="miter" d="m115.16,313.58-5.315-0.00007" stroke="#000" stroke-linecap="butt" stroke-miterlimit="4" stroke-dasharray="none" stroke-width="0.35433072" fill="none"/>
		<path id="path5326" d="m218.43,231.96v-18.27c-2.8258,0.13983-5.7436-0.28677-8.5089,0.22629-1.6971,0.26378-3.0466,1.341-3.5478,3.0072-0.66107,2.1678,0.854,4.8478,3.2008,5.1246,2.5462,0.74015,5.3073,0.15585,7.9434,0.34198h0.91249m-6.09,0c-2.03,3.19-4.06,6.38-6.09,9.57" stroke="#000" stroke-dasharray="none" stroke-miterlimit="4" stroke-width="0.35433072" fill="none"/>
		<path id="path5328" d="m200.16,231.96v-18.27h-11.31m11.31,8.7h-6.96" stroke="#000" stroke-dasharray="none" stroke-miterlimit="4" stroke-width="0.35433072" fill="none"/>
		<path id="path5330" d="m185.37,213.69h-12.18c2.9,6.09,5.8,12.18,8.7,18.27" stroke="#000" stroke-dasharray="none" stroke-miterlimit="4" stroke-width="0.35433072" fill="none"/>
		<path id="path5332" d="m154.92,225.87h13.05c-2.9-4.06-5.8-8.12-8.7-12.18v18.27" stroke="#000" stroke-dasharray="none" stroke-miterlimit="4" stroke-width="0.35433072" fill="none"/>
		<path id="path5334" d="m150.57,219.78c-3.19,4.06-6.38,8.12-9.57,12.18m0-12.18c3.19,4.06,6.38,8.12,9.57,12.18" stroke="#000" stroke-dasharray="none" stroke-miterlimit="4" stroke-width="0.35433072" fill="none"/>
		<path id="path5336" d="m135.78,219.78c-3.19,4.06-6.38,8.12-9.57,12.18m0-12.18c3.19,4.06,6.38,8.12,9.57,12.18" stroke="#000" stroke-dasharray="none" stroke-miterlimit="4" stroke-width="0.35433072" fill="none"/>
		<path id="path5338" d="m120.12,213.69v18.27" stroke="#000" stroke-dasharray="none" stroke-miterlimit="4" stroke-width="0.35433072" fill="none"/>
		<path id="path5340" d="m107.07,231.96c-1.6067-0.42278-3.1334-0.97499-4.128-2.388-1.4786-2.1555-2.233-4.8118-1.962-7.4344-0.0972-2.1892,0.82934-4.4247,2.0773-6.1749,1.4592-1.9823,4.0754-2.4453,6.398-2.2727,1.1127,0.36076,3.7407-0.79386,3.7046,0.7156v17.554h-6.09z" stroke="#000" stroke-dasharray="none" stroke-miterlimit="4" stroke-width="0.35433072" fill="none"/>
		<path id="path5506" d="m201.97,253.42c-1.3666-0.0117-2.7409,0.0235-4.1027-0.0176-0.45011-0.18412-0.97041-0.25466-1.3759-0.51103-0.41983-0.33266-0.63072-0.84945-0.82139-1.327,0.0143-0.42632-0.0853-0.87951,0.19886-1.2421,0.20303-0.49672,0.56458-0.99332,1.123-1.0929,0.50224-0.17058,0.99727-0.38563,1.5396-0.30939h3.4386v9.45m-3.15-4.95c-1.05,1.65-2.1,3.3-3.15,4.95" stroke="#000" stroke-dasharray="none" stroke-miterlimit="4" stroke-width="0.35433069" fill="none"/>
		<path id="path5508" d="m193.87,258.37c-1.2-3.15-2.4-6.3-3.6-9.45-1.2,3.15-2.4,6.3-3.6,9.45m5.85-3.15h-4.5" stroke="#000" stroke-dasharray="none" stroke-miterlimit="4" stroke-width="0.35433069" fill="none"/>
		<path id="path5510" d="m176.32,248.92c0.75,3.15,1.5,6.3,2.25,9.45,0.75-3.15,1.5-6.3,2.25-9.45,0.75,3.15,1.5,6.3,2.25,9.45,0.75-3.15,1.5-6.3,2.25-9.45" stroke="#000" stroke-dasharray="none" stroke-miterlimit="4" stroke-width="0.35433069" fill="none"/>
		<path id="path5682" d="m145.28,258.37v-9.45c-1.3649,0.0106-2.7366-0.0211-4.0972,0.0157-0.44998,0.18073-0.96317,0.25918-1.3732,0.50461-0.42473,0.31975-0.59153,0.82541-0.82966,1.2797,0.0157,0.46287-0.0309,0.94044,0.0222,1.3945,0.22824,0.44533,0.39878,0.93225,0.81462,1.2424,0.42848,0.23993,0.94886,0.33115,1.4131,0.51314h4.05" stroke="#000" stroke-dasharray="none" stroke-miterlimit="4" stroke-width="0.35433069" fill="none"/>
		<path id="path5684" d="m135.83,248.92v9.45h-5.4" stroke="#000" stroke-dasharray="none" stroke-miterlimit="4" stroke-width="0.35433069" fill="none"/>
		<path id="path5686" d="m128.18,248.92v9.45h-5.4" stroke="#000" stroke-dasharray="none" stroke-miterlimit="4" stroke-width="0.35433069" fill="none"/>
		<path id="path5866" d="m181.03,299.63h7.3125v11.812h-7.3125m7.3125-6.1875h-4.5" stroke="#000" stroke-dasharray="none" stroke-miterlimit="4" stroke-width="0.35433072" fill="none"/>
		<path id="path5868" d="m177.66,303.56v7.875m0-5.625c-1.0516-1.0202-2.1168-2.5228-3.7776-2.25-0.71763-0.0578-1.7564,0.21449-1.9782,0.95489-0.76415,1.7098-0.31022,3.6172-0.4317,5.4313v1.4888" stroke="#000" stroke-dasharray="none" stroke-miterlimit="4" stroke-width="0.35433072" fill="none"/>
		<path id="path5870" d="m160.78,305.25c0.84705-0.97336,1.9667-1.9453,3.353-1.6875,1.213-0.0702,2.2057,0.92791,2.8781,1.8183,0.50503,1.184,0.78956,2.5256,0.17011,3.7281-0.31918,1.1394-1.42,1.8778-2.4637,2.3286-0.93403,0.0164-1.8879,0.11671-2.674-0.49327-0.4768-0.30892-0.83474-0.81604-1.2635-1.1942" stroke="#000" stroke-dasharray="none" stroke-miterlimit="4" stroke-width="0.35433072" fill="none"/>
		<path id="path5872" d="m154.59,303.56c1.198,0.48937,2.3554,1.4013,2.5988,2.7339,0.50798,1.1964,0.10023,2.6114-0.54377,3.6486-0.77947,0.92835-1.8867,1.7197-3.158,1.4925-1.213,0.0702-2.2057-0.92791-2.8781-1.8183-0.50503-1.184-0.78956-2.5256-0.17011-3.7281,0.31918-1.1394,1.42-1.8778,2.4637-2.3286h1.6875z" stroke="#000" stroke-dasharray="none" stroke-miterlimit="4" stroke-width="0.35433072" fill="none"/>
		<path id="path5874" d="m139.97,299.63v11.812m0-6.1875c0.84705-0.97336,1.9667-1.9453,3.353-1.6875,1.213-0.0702,2.2057,0.92791,2.8781,1.8183,0.50503,1.184,0.78956,2.5256,0.17011,3.7281-0.31918,1.1394-1.42,1.8778-2.4637,2.3286-0.93403,0.0164-1.8879,0.11671-2.674-0.49327-0.4768-0.30892-0.83474-0.81604-1.2635-1.1942" stroke="#000" stroke-dasharray="none" stroke-miterlimit="4" stroke-width="0.35433072" fill="none"/>
		<path id="path5876" d="m136.03,306.94h-6.75c-0.22234-1.3863,0.65122-2.8065,1.9882-3.2441,0.70748-0.20946,1.6306-0.25445,2.3192,0.0541,1.1219,0.48036,2.0515,1.4566,2.2724,2.6797,0.44423,1.1639,0.029,2.519-0.58737,3.5178-0.77947,0.92835-1.8867,1.7197-3.158,1.4925-1.1877,0.102-2.0833-0.908-2.8345-1.6875" stroke="#000" stroke-dasharray="none" stroke-miterlimit="4" stroke-width="0.35433072" fill="none"/>
		<path id="path5878" d="m125.34,303.56v7.875m0-4.5c-0.28684-0.97433-0.55959-1.9574-1.4399-2.5649-0.75695-0.78834-1.851-0.90997-2.8892-0.81008h-0.13788-0.033" stroke="#000" stroke-dasharray="none" stroke-miterlimit="4" stroke-width="0.35433072" fill="none"/>
		<path id="path9065" d="m201.96,351.28v11.812" stroke="#000" stroke-dasharray="none" stroke-miterlimit="4" stroke-width="0.35433072" fill="none"/>
		<path id="path9067" d="m193.53,363.1c-1.3788-0.27695-2.6492-1.0738-3.1804-2.4232-0.86368-1.5458-0.85772-3.3393-0.7051-5.0453,0.47132-1.8016,1.403-3.8682,3.4466-4.1976,1.4138-0.32574,2.9237-0.0602,4.3764-0.1463v11.812h-3.9375z" stroke="#000" stroke-dasharray="none" stroke-miterlimit="4" stroke-width="0.35433072" fill="none"/>
		<path id="path9071" d="m173.84,351.28c1.0251,0.26545,2.0144,0.57788,2.4176,1.6576,0.73479,1.0665,0.73596,2.4889,0.95743,3.7339,0.0524,1.4996-0.21922,3.0647-0.74502,4.4447-0.50094,0.91034-1.0724,1.7283-2.1911,1.8299-1.1052,0.39968-2.4009,0.002-3.3426-0.55309-0.80126-0.96823-1.2839-2.0684-1.3886-3.3252-0.50283-1.8808-0.0679-3.8614,0.44617-5.6748,0.55434-0.84043,0.98496-1.8428,2.1263-1.9148,0.54705-0.27391,1.1305-0.18867,1.72-0.19832z" stroke="#000" stroke-dasharray="none" stroke-miterlimit="4" stroke-width="0.35433072" fill="none"/>
		<path id="path9073" d="m162.59,351.28c1.0251,0.26545,2.0144,0.57788,2.4176,1.6576,0.73479,1.0665,0.73596,2.4889,0.95743,3.7339,0.0524,1.4996-0.21922,3.0647-0.74502,4.4447-0.50094,0.91034-1.0724,1.7283-2.1911,1.8299-1.1052,0.39968-2.4009,0.002-3.3426-0.55309-0.80126-0.96823-1.2839-2.0684-1.3886-3.3252-0.50283-1.8808-0.0679-3.8614,0.44617-5.6748,0.55434-0.84043,0.98496-1.8428,2.1263-1.9148,0.54705-0.27391,1.1305-0.18867,1.72-0.19832z" stroke="#000" stroke-dasharray="none" stroke-miterlimit="4" stroke-width="0.35433072" fill="none"/>
		<path id="path9075" d="m154.15,358.03h-10.125" stroke="#000" stroke-dasharray="none" stroke-miterlimit="4" stroke-width="0.35433072" fill="none"/>
		<path id="path9077" d="m136.71,351.28c1.0251,0.26545,2.0144,0.57788,2.4176,1.6576,0.73479,1.0665,0.73596,2.4889,0.95743,3.7339,0.0524,1.4996-0.21922,3.0647-0.74501,4.4447-0.50095,0.91034-1.0725,1.7283-2.1911,1.8299-1.1052,0.39968-2.4009,0.002-3.3427-0.55309-0.80126-0.96823-1.2839-2.0684-1.3886-3.3252-0.50283-1.8808-0.0679-3.8614,0.44617-5.6748,0.55434-0.84043,0.98496-1.8428,2.1263-1.9148,0.54706-0.27391,1.1305-0.18867,1.72-0.19832z" stroke="#000" stroke-dasharray="none" stroke-miterlimit="4" stroke-width="0.35433072" fill="none"/>
		<path id="path9079" d="m128.84,351.28h-7.875c1.875,3.9375,3.75,7.875,5.625,11.812" stroke="#000" stroke-dasharray="none" stroke-miterlimit="4" stroke-width="0.35433072" fill="none"/>
		<path id="path9293" d="m201.98,388.88v11.812" stroke="#000" stroke-dasharray="none" stroke-miterlimit="4" stroke-width="0.35433072" fill="none"/>
		<path id="path9295" d="m197.48,388.88c-1.9575,0.11971-4.1764-0.42688-5.8577,0.79516-1.5561,1.3357-2.1816,3.516-2.0173,5.5145-0.0573,1.4808,0.54126,3.0353,1.474,4.1643,1.3333,1.6956,3.6798,1.3039,5.5894,1.3385,1.4043,0.36597,0.60399-1.4726,0.81165-2.3032v-9.5092z" stroke="#000" stroke-dasharray="none" stroke-miterlimit="4" stroke-width="0.35433072" fill="none"/>
		<path id="path9299" d="m173.85,388.88c1.0251,0.26545,2.0144,0.57788,2.4176,1.6576,0.73479,1.0665,0.73596,2.4889,0.95743,3.7339,0.0524,1.4996-0.21922,3.0647-0.74502,4.4447-0.50094,0.91034-1.0724,1.7283-2.1911,1.8299-1.1052,0.39968-2.4009,0.002-3.3426-0.55309-0.80126-0.96823-1.2839-2.0684-1.3886-3.3252-0.50283-1.8808-0.0679-3.8614,0.44617-5.6748,0.55434-0.84043,0.98496-1.8428,2.1263-1.9148,0.54705-0.27391,1.1305-0.18867,1.72-0.19832z" stroke="#000" stroke-dasharray="none" stroke-miterlimit="4" stroke-width="0.35433072" fill="none"/>
		<path id="path9301" d="m163.17,388.88c1.0049,0.26858,2.015,0.53114,2.25,1.6875,0.17745,1.1769-0.36226,2.4632-1.5926,2.765-1.7442,0.60064-3.9098,0.5898-5.0794,2.2195-1.0743,1.3574-0.89164,3.6969,0.64057,4.63,1.7632,0.75231,3.904,0.76129,5.5852-0.16836,1.4586-1.2547,1.3797-3.7807-0.13549-4.9653-1.3995-1.4173-3.7181-1.0776-5.3637-2.1098-1.0723-0.79893-1.0833-2.6998-0.086-3.5481,1.2306-0.58738,2.4488-0.54462,3.7814-0.51047z" stroke="#000" stroke-dasharray="none" stroke-miterlimit="4" stroke-width="0.35433072" fill="none"/>
		<path id="path9303" d="m154.17,395.63h-10.125" stroke="#000" stroke-dasharray="none" stroke-miterlimit="4" stroke-width="0.35433072" fill="none"/>
		<path id="path9305" d="m138.42,391.13c-1.192-0.39686-1.9377-1.413-2.8125-2.25v11.812" stroke="#000" stroke-dasharray="none" stroke-miterlimit="4" stroke-width="0.35433072" fill="none"/>
		<path id="path9307" d="m122.1,388.88h5.625c0.1875,1.6875,0.375,3.375,0.5625,5.0625-1.0387-1.118-2.8147-1.3122-4.2496-1.021-1.4533,0.25379-2.6682,1.3564-2.9166,2.8321-0.46791,1.5455,0.18885,3.3288,1.4632,4.2984,1.6392,0.87767,3.8297,0.93314,5.3732-0.15465,0.46563-0.36525,0.60491-0.96093,0.89234-1.4548" stroke="#000" stroke-dasharray="none" stroke-miterlimit="4" stroke-width="0.35433072" fill="none"/>
		<path id="path9539" d="m201.99,429.18v11.812" stroke="#000" stroke-dasharray="none" stroke-miterlimit="4" stroke-width="0.35433072" fill="none"/>
		<path id="path9541" d="m197.49,429.18c-1.9575,0.11971-4.1764-0.42688-5.8577,0.79516-1.5561,1.3357-2.1816,3.516-2.0173,5.5145-0.0573,1.4808,0.54126,3.0353,1.474,4.1643,1.3333,1.6956,3.6798,1.3039,5.5894,1.3385,1.4043,0.36597,0.60399-1.4726,0.81165-2.3032v-9.5092z" stroke="#000" stroke-dasharray="none" stroke-miterlimit="4" stroke-width="0.35433072" fill="none"/>
		<path id="path9545" d="m175.55,431.43c-1.192-0.39686-1.9377-1.413-2.8125-2.25v11.812" stroke="#000" stroke-dasharray="none" stroke-miterlimit="4" stroke-width="0.35433072" fill="none"/>
		<path id="path9547" d="m158.68,430.87c0.23108-1.1608,1.2467-1.4171,2.25-1.6875,1.0249-0.0543,2.2608,0.13485,2.995,0.83627,0.89508,0.9876,1.1822,2.227,1.3619,3.5109,0.33332,1.9249,0.18965,3.9172-0.41944,5.7778-0.80189,1.0602-2.0505,1.684-3.375,1.6875-1.3343-0.29537-2.7538-1.0304-3.0726-2.4679-0.6044-1.1024-0.14325-2.4412,0.49279-3.3898,0.75859-0.98183,2.0802-1.54,3.2984-1.4028,1.4257,0.269,2.7628,1.2313,3.0206,2.728,0.0661,0.19832,0.13221,0.39665,0.19832,0.59497" stroke="#000" stroke-dasharray="none" stroke-miterlimit="4" stroke-width="0.35433072" fill="none"/>
		<path id="path9549" d="m154.18,435.93h-10.125" stroke="#000" stroke-dasharray="none" stroke-miterlimit="4" stroke-width="0.35433072" fill="none"/>
		<path id="path9551" d="m139.55,431.99c0.0408-1.7888-1.8526-3.1514-3.5661-2.8125-2.1697-0.34721-4.129,2.4167-2.7424,4.2579,1.4157,2.6319,3.9173,4.4036,5.8993,6.5829,1.379,0.98808,0.65234,1.104-0.67346,0.97172h-6.2298" stroke="#000" stroke-dasharray="none" stroke-miterlimit="4" stroke-width="0.35433072" fill="none"/>
		<path id="path9553" d="m127.74,429.18h-6.1875c1.125,1.5,2.25,3,3.375,4.5-1.2919-0.15452-2.9223,0.1115-3.479,1.4372-0.70962,1.4092-0.57213,3.1627,0.33671,4.4205,1.0784,1.3943,3.1063,1.7363,4.7356,1.2988,1.2172-0.18389,1.9466-0.95673,2.3443-2.0939" stroke="#000" stroke-dasharray="none" stroke-miterlimit="4" stroke-width="0.35433072" fill="none"/>
		<path id="path9803" d="m201.63,468.66v11.812" stroke="#000" stroke-dasharray="none" stroke-miterlimit="4" stroke-width="0.35433072" fill="none"/>
		<path id="path9805" d="m197.13,468.66c-1.9224,0.10011-4.0137-0.36531-5.7366,0.67411-1.2723,0.99582-1.885,2.6029-2.1384,4.1416-0.0787,1.5859-0.0305,3.1911,0.77427,4.6078,0.50648,1.1714,1.5546,2.0566,2.8234,2.2757,1.3892,0.26284,2.8575,0.039,4.2773,0.11326v-11.812z" stroke="#000" stroke-dasharray="none" stroke-miterlimit="4" stroke-width="0.35433072" fill="none"/>
		<path id="path9809" d="m176.31,471.47c0.0396-1.6857-1.7025-3.0966-3.3549-2.8125-1.8159-0.33204-3.6572,1.3532-3.3951,3.1971,0.88781,2.7402,3.3461,4.5265,5.2591,6.5621l2.0534,2.0534h-7.875" stroke="#000" stroke-dasharray="none" stroke-miterlimit="4" stroke-width="0.35433072" fill="none"/>
		<path id="path9811" d="m157.19,476.53h8.4375c-1.875-2.625-3.75-5.25-5.625-7.875v11.812" stroke="#000" stroke-dasharray="none" stroke-miterlimit="4" stroke-width="0.35433072" fill="none"/>
		<path id="path9813" d="m153.81,475.41h-10.125" stroke="#000" stroke-dasharray="none" stroke-miterlimit="4" stroke-width="0.35433072" fill="none"/>
		<path id="path9815" d="m138.63,468.66h-6.1875c1.125,1.5,2.25,3,3.375,4.5-1.2593-0.13848-2.7466,0.086-3.4249,1.2748-0.55759,1.2269-0.75266,2.6211-0.11326,3.8607,0.36369,1.0565,1.3975,1.8047,2.4861,2.0139,1.3424,0.39723,2.9445,0.16333,4.0878-0.62255,0.47962-0.36332,0.60796-0.9664,0.90177-1.4643" stroke="#000" stroke-dasharray="none" stroke-miterlimit="4" stroke-width="0.35433072" fill="none"/>
		<path id="path9817" d="m126.81,470.91c-1.1897-0.40014-1.9387-1.4116-2.8125-2.25v11.812" stroke="#000" stroke-dasharray="none" stroke-miterlimit="4" stroke-width="0.35433072" fill="none"/>
		<path id="path10085" d="m183.31,508.5c-1.5,3.9375-3,7.875-4.5,11.812-1.5-3.9375-3-7.875-4.5-11.812" stroke="#000" stroke-dasharray="none" stroke-miterlimit="4" stroke-width="0.35433072" fill="none"/>
		<path id="path10087" d="m172.06,515.81h-6.75c-0.16574-1.0955,0.32986-2.2385,1.2357-2.8678,0.70942-0.51798,1.5273-0.57639,2.3754-0.50717,1.0969,0.0896,1.9809,0.97586,2.6156,1.8049,0.47673,1.1521,0.80995,2.4576,0.21035,3.6342-0.17656,0.91204-0.97117,1.5596-1.7065,2.0394-0.75055,0.55536-1.7329,0.42811-2.5912,0.34117-0.90587-0.31205-1.4948-0.95514-2.1393-1.6322" stroke="#000" stroke-dasharray="none" stroke-miterlimit="4" stroke-width="0.35433072" fill="none"/>
		<path id="path10089" d="m161.37,512.43v7.875m0-4.5c-0.30825-0.86537-0.43885-1.8405-1.2624-2.3874-0.66862-0.74197-1.6676-1.137-2.6636-0.98757h-0.57392" stroke="#000" stroke-dasharray="none" stroke-miterlimit="4" stroke-width="0.35433072" fill="none"/>
		<path id="path10091" d="m148.44,514.12c0.2777-0.73625,0.63382-1.3821,1.5016-1.438,1.2402-0.48835,2.6397-0.28664,3.8445,0.22005,0.53256,0.27293,1.0832,1.2187,0.56475,1.7713-0.29897,0.91622-1.4188,1.1315-2.2601,1.304-1.0742,0.23907-2.3087,0.30465-3.1435,1.0658-0.38813,0.64674-0.79658,1.4493-0.2305,2.1302,0.20316,0.90223,1.2941,0.78085,1.9733,1.1342,1.0692,0.0723,2.1119-0.018,3.0961-0.46953,0.5179-0.0889,0.55194-0.85092,0.84142-1.218" stroke="#000" stroke-dasharray="none" stroke-miterlimit="4" stroke-width="0.35433072" fill="none"/>
		<path id="path10093" d="m145.06,508.5c-0.32314,1.0221-1.638,0.0319-0.68754-0.43746,0.19919-0.32588,0.47718,0.35142,0.68754,0.43746zm-0.5625,3.9375v7.875" stroke="#000" stroke-dasharray="none" stroke-miterlimit="4" stroke-width="0.35433072" fill="none"/>
		<path id="path10095" d="m137.75,512.43c0.94972,0.37748,1.8316,1.0388,2.3282,1.9223,0.47464,1.1133,0.74146,2.3828,0.17123,3.5168-0.17656,0.91204-0.97117,1.5596-1.7065,2.0394-0.75055,0.55536-1.7329,0.42811-2.5912,0.34117-0.91365-0.35846-1.7381-1.0288-2.2176-1.8669-0.47464-1.1133-0.74146-2.3828-0.17123-3.5168,0.17656-0.91204,0.97117-1.5596,1.7065-2.0394,0.75229-0.57799,1.6014-0.36096,2.4805-0.3965z" stroke="#000" stroke-dasharray="none" stroke-miterlimit="4" stroke-width="0.35433072" fill="none"/>
		<path id="path10097" d="m129.31,512.43v7.875m0-5.625c-1.0177-0.94782-1.9862-2.4205-3.5549-2.25-0.75955-0.10915-1.5943,0.16047-2.1092,0.67988-0.40709,0.98055-0.63809,1.9897-0.52337,3.0549v4.1402" stroke="#000" stroke-dasharray="none" stroke-miterlimit="4" stroke-width="0.35433072" fill="none"/>
		<path id="path12948" d="m470.5,358.56c-1.4949-2.33-2.2912-1.3685-2.8063,0.91842-2.6079,6.7805-5.2158,13.561-7.8236,20.341-3.5617-10.039-7.1234-20.079-10.685-30.118-39.181,0.028-78.361,0.0559-117.54,0.0839-0.54644,0.76206-1.0929,1.5241-1.6393,2.2862" stroke="#000" stroke-dasharray="none" stroke-miterlimit="4" stroke-width="0.35433072" fill="none"/>
		<path id="path12950" d="m431.95,357.87v14m0-11c1.5624-1.8849,3.7288-3.4911,6.3057-3,2.5023,0.27258,4.8208,2.4298,5.3323,4.914,1.2037,3.3282-0.63682,7.4113-3.927,8.7305-2.3736,0.99853-5.346,0.22015-6.9339-1.8673l-0.77719-0.77719" stroke="#000" stroke-dasharray="none" stroke-miterlimit="4" stroke-width="0.35433072" fill="none"/>
		<path id="path12952" d="m412.95,357.87c0.0615,5.4194-0.12246,10.879,0.0911,16.273,0.4392,1.9754,1.3271,3.9263,3.4556,4.4999,1.7879,0.5446,3.8832,0.32915,5.4533-0.77337m-9-17c1.5624-1.8849,3.7288-3.4911,6.3057-3,2.5023,0.27258,4.8208,2.4298,5.3323,4.914,1.2037,3.3282-0.63682,7.4113-3.927,8.7305-2.3736,0.99853-5.346,0.22015-6.9339-1.8673l-0.77719-0.77719" stroke="#000" stroke-dasharray="none" stroke-miterlimit="4" stroke-width="0.35433072" fill="none"/>
		<path id="path12954" d="m404.95,357.87v14m0-8c-0.49622-2.4421-1.8977-4.6973-4.289-5.6445-1.0842-0.68817-2.4898-0.21758-3.711-0.35552" stroke="#000" stroke-dasharray="none" stroke-miterlimit="4" stroke-width="0.35433072" fill="none"/>
		<path id="path12956" d="m392.95,363.87h-12c-0.59618-3.3713,2.6488-6.6029,6.0175-6,2.2492-0.01,4.3966,1.8471,5.2559,3.8203,1.4416,2.9342,0.68619,6.7931-1.9038,8.8101-2.4199,2.2425-6.616,1.7951-8.5924-0.85322l-0.77719-0.77719" stroke="#000" stroke-dasharray="none" stroke-miterlimit="4" stroke-width="0.35433072" fill="none"/>
		<path id="path12958" d="m362.95,357.87v14m0-11c1.5624-1.8849,3.7288-3.4911,6.3057-3,2.5023,0.27258,4.8208,2.4298,5.3323,4.914,1.2037,3.3282-0.63682,7.4113-3.927,8.7305-2.3736,0.99853-5.346,0.22015-6.9339-1.8673l-0.77719-0.77719" stroke="#000" stroke-dasharray="none" stroke-miterlimit="4" stroke-width="0.35433072" fill="none"/>
		<path id="path12960" d="m354.95,357.87v14m0-8c-0.49622-2.4421-1.8977-4.6973-4.289-5.6445-1.0842-0.68817-2.4898-0.21758-3.711-0.35552" stroke="#000" stroke-dasharray="none" stroke-miterlimit="4" stroke-width="0.35433072" fill="none"/>
		<path id="path12962" d="m330.95,357.87c0.0615,5.4194-0.12246,10.879,0.0911,16.273,0.4392,1.9754,1.3271,3.9263,3.4556,4.4999,1.7879,0.5446,3.8833,0.32915,5.4533-0.77337m-9-17c1.5624-1.8849,3.7288-3.4911,6.3057-3,2.5023,0.27258,4.8208,2.4298,5.3323,4.914,1.2037,3.3282-0.63682,7.4113-3.927,8.7305-2.3736,0.99853-5.346,0.22015-6.9339-1.8673l-0.77719-0.77719" stroke="#000" stroke-dasharray="none" stroke-miterlimit="4" stroke-width="0.35433072" fill="none"/>
		<path id="path13281" d="m466.07,347.44c-0.26647-0.15294-0.58603-0.23222-0.78241-0.48241l-0.71759-0.71759v6.3" stroke="#000" stroke-dasharray="none" stroke-miterlimit="4" stroke-width="0.35433072" fill="none"/>
		<path id="path13283" d="m460.37,346.24h-3.3c0.6,0.8,1.2,1.6,1.8,2.4-0.30612,0.007-0.61899-0.0142-0.92098,0.0105-0.26028,0.14832-0.57073,0.22705-0.76143,0.47192-0.19016,0.14265-0.18866,0.40376-0.28074,0.60703-0.0722,0.21853-0.1706,0.4328-0.13685,0.66852-0.0116,0.2097-0.002,0.41591,0.089,0.60901,0.0791,0.21451,0.13309,0.44459,0.22759,0.64961,0.20393,0.19365,0.39225,0.41255,0.60567,0.59084,0.30903,0.0925,0.6116,0.22481,0.92465,0.29258,0.29838-0.01,0.60324,0.0199,0.8976-0.0148,0.28872-0.10378,0.59284-0.18264,0.87208-0.30175,0.15702-0.15402,0.32715-0.29859,0.39878-0.51415,0.0615-0.12309,0.12309-0.24618,0.18464-0.36927" stroke="#000" stroke-dasharray="none" stroke-miterlimit="4" stroke-width="0.35433072" fill="none"/>
		<path id="path13616" d="m196.14,323.69c-1.7784,0.0655-3.5992-0.13027-5.3514,0.0963-1.0514,0.21848-2.0614,0.73351-2.3697,1.846-0.31508,0.94117-0.26749,2.1008,0.32288,2.9487,0.61337,1.017,1.9926,1.2734,3.0972,1.2965h4.301v-11.812c-1.7784,0.0655-3.5992-0.13027-5.3514,0.0963-1.0514,0.21848-2.0614,0.73351-2.3697,1.846-0.57527,1.3331,0.35201,3.1888,1.838,3.4092,0.27355,0.0912,0.5471,0.18237,0.82065,0.27355" stroke="#000" stroke-dasharray="none" stroke-miterlimit="4" stroke-width="0.35433072" fill="none"/>
		<path id="path13618" d="m178.14,322v7.875m0-6.1875c0.8645-1.0244,2.0439-1.9615,3.4683-1.6875,1.189,0.0181,2.2611,1.0001,2.8155,1.9764,0.58124,1.2191,0.64063,2.6015,0.0327,3.8238-0.47471,1.0143-1.551,1.9246-2.6836,2.0747-1.2569,0.20928-2.4834-0.3183-3.2617-1.3163l-0.3712-0.3712" stroke="#000" stroke-dasharray="none" stroke-miterlimit="4" stroke-width="0.35433072" fill="none"/>
		<path id="path13620" d="m173.64,322c-0.0624,1.9664,0.12605,3.9735-0.0963,5.914-0.18281,0.95514-0.58374,1.7211-1.5912,1.961-1.1732,0.11336-2.4487-0.0171-3.2432-0.99324l-1.2568-1.2568m0-5.625v7.875" stroke="#000" stroke-dasharray="none" stroke-miterlimit="4" stroke-width="0.35433072" fill="none"/>
		<path id="path13622" d="m156.76,318.06v11.812m0-6.1875c0.8645-1.0244,2.0439-1.9615,3.4683-1.6875,1.189,0.0181,2.2611,1.0001,2.8155,1.9764,0.58124,1.2191,0.64063,2.6015,0.0327,3.8238-0.47471,1.0143-1.551,1.9246-2.6836,2.0747-1.2569,0.20928-2.4834-0.3183-3.2617-1.3163l-0.3712-0.3712" stroke="#000" stroke-dasharray="none" stroke-miterlimit="4" stroke-width="0.35433072" fill="none"/>
		<path id="path13624" d="m152.26,322v7.875m0-4.5c-0.27517-1.031-0.62302-2.0172-1.5317-2.6567-0.84133-0.78992-1.8829-0.77351-2.9683-0.71833" stroke="#000" stroke-dasharray="none" stroke-miterlimit="4" stroke-width="0.35433072" fill="none"/>
		<path id="path13626" d="m138.76,322v7.875m0-6.1875c0.8645-1.0244,2.0439-1.9615,3.4683-1.6875,1.189,0.0181,2.2611,1.0001,2.8155,1.9764,0.58124,1.2191,0.64063,2.6015,0.0327,3.8238-0.47471,1.0143-1.551,1.9246-2.6836,2.0747-1.2569,0.20928-2.4834-0.3183-3.2617-1.3163l-0.3712-0.3712" stroke="#000" stroke-dasharray="none" stroke-miterlimit="4" stroke-width="0.35433072" fill="none"/>
		<path id="path13628" d="m133.7,318.06c-0.0322,3.233,0.0644,6.487-0.0482,9.707-0.23304,0.95757-0.52774,1.8617-1.604,2.0879-0.37771,0.0418-0.77545,0.005-1.1603,0.0177m4.5-7.875h-3.9375" stroke="#000" stroke-dasharray="none" stroke-miterlimit="4" stroke-width="0.35433072" fill="none"/>
		<path id="path13630" d="m128.07,325.37h-6.75c-0.32263-1.7926,1.3404-3.6253,3.1637-3.375,1.3171-0.13874,2.5144,0.91681,3.1201,1.9764,0.58124,1.2191,0.64063,2.6015,0.0327,3.8238-0.47471,1.0143-1.551,1.9246-2.6836,2.0747-1.2569,0.20928-2.4834-0.3183-3.2617-1.3163-0.12371-0.12373-0.24745-0.24747-0.37118-0.3712" stroke="#000" stroke-dasharray="none" stroke-miterlimit="4" stroke-width="0.35433072" fill="none"/>
	</g>
	<g id="layer1" stroke-linejoin="round" style="photonsaw-power:80;photonsaw-speed:16;photonsaw-assistair:1;photonsaw-passes:2;" transform="translate(-148.64173,-173.79926)" stroke="#000" stroke-linecap="round" stroke-miterlimit="4" fill="none">
		<path id="top_mount_1" d="m391.36,607.85-0.00001-7.0866-17.717,0,0.00001,7.0866z" stroke-dashoffset="0" stroke-width="0.35433072"/>
		<path id="top_mount_2" d="m405.53,600.77,0-17.717-7.0866,0.00007,0,17.717z" stroke-dashoffset="0" stroke-width="0.35433069"/>
		<path id="top_mount_3" d="m405.53,430.69,0-17.717-7.0866,0.00007,0,17.717z" stroke-dashoffset="0" stroke-width="0.35433069"/>
		<path id="top_mount_4" d="m405.53,260.61,0-17.717-7.0866,0.00007,0,17.717z" stroke-dashoffset="0" stroke-width="0.35433069"/>
		<path id="top_mount_5" d="m391.36,242.89,0.00001-7.0867-17.717,0-0.00001,7.0867z" stroke-dashoffset="0" stroke-width="0.35433072"/>
		<path id="top_mount_6" d="m242.54,242.89,0.00001-7.0867-17.717,0-0.00001,7.0867z" stroke-dashoffset="0" stroke-width="0.35433072"/>
		<path id="top_mount_7" d="m217.74,260.61,0-17.717-7.0866-0.00007,0,17.717z" stroke-dashoffset="0" stroke-width="0.35433069"/>
		<path id="top_mount_8" d="m217.74,430.69,0-17.717-7.0866-0.00007,0,17.717z" stroke-dashoffset="0" stroke-width="0.35433069"/>
		<path id="top_mount_9" d="m217.74,600.77,0-17.717-7.0866-0.00007,0,17.717z" stroke-dashoffset="0" stroke-width="0.35433069"/>
		<path id="top_mount_10" d="m242.54,607.85-0.00001-7.0866-17.717,0,0.00001,7.0866z" stroke-dashoffset="0" stroke-width="0.35433072"/>
		<path id="top_hole_left" d="m308.09,590.14c-2.4461,0-4.4291,1.983-4.4291,4.4291s1.983,4.4291,4.4291,4.4291,4.4291-1.983,4.4291-4.4291-1.983-4.4291-4.4291-4.4291z" stroke-dashoffset="0" stroke-width="0.35433072"/>
		<path id="top_hole_button" d="m382.68,294.09c-3.9138,0-7.0866,3.1728-7.0866,7.0866s3.1728,7.0866,7.0866,7.0866,7.0866-3.1728,7.0866-7.0866-3.1728-7.0866-7.0866-7.0866z" stroke-dashoffset="0" stroke-width="0.35433072"/>
		<path id="top_hole_slider" d="m299.41,306.05,0,8.8583c0.001,0.48948,0.39723,0.88583,0.88583,0.88583h15.945c0.48949-0.001,0.88583-0.39722,0.88583-0.88582v-8.8583c-0.001-0.48948-0.39722-0.88582-0.88583-0.88582h-15.945c-0.48949,0.001-0.88583,0.39722-0.88583,0.88583z" stroke-dashoffset="0" stroke-width="0.35433072"/>
		<path id="top_hole_right" d="m308.09,249.09c-2.4461,0-4.4291,1.983-4.4291,4.4291s1.983,4.4291,4.4291,4.4291,4.4291-1.983,4.4291-4.4291-1.983-4.4291-4.4291-4.4291z" stroke-dashoffset="0" stroke-width="0.35433072"/>
		<path id="top_hole_dip" d="m254.06,359.82c-0.002-0.97896-0.79446-1.7716-1.7717-1.7716h-19.488c-0.97898,0.002-1.7717,0.79444-1.7716,1.7716v234.3c0.002,0.97897,0.79444,1.7717,1.7716,1.7717h19.488c0.97897-0.002,1.7717-0.79446,1.7717-1.7717z" stroke-dashoffset="0" stroke-width="0.35433069"/>
		<path id="bottom_mount_2" d="m451.59,600.77,0-17.717,7.0866,0.00007,0,17.717z" stroke-dashoffset="0" stroke-width="0.35433069"/>
		<path id="bottom_mount_3" d="m453.37,430.69,0-17.717,7.0866,0.00007,0,17.717z" stroke-dashoffset="0" stroke-width="0.35433069"/>
		<path id="bottom_mount_4" d="m451.59,260.61,0-17.717,7.0866,0.00007,0,17.717z" stroke-dashoffset="0" stroke-width="0.35433069"/>
		<path id="bottom_mount_5" d="m465.77,242.89,0-7.0867,17.717,0,0,7.0867z" stroke-dashoffset="0" stroke-width="0.35433072"/>
		<path id="bottom_hole_power" d="m485.96,248.92-0.00001,8.8583c-0.001,0.48949-0.39722,0.88584-0.88583,0.88584l-17.717-0.00001c-0.48948-0.001-0.88583-0.39722-0.88583-0.88583v-8.8583c0.001-0.4895,0.39722-0.88584,0.88583-0.88583h17.717c0.48948,0.001,0.88583,0.39722,0.88583,0.88583z" stroke-dashoffset="0" stroke-width="0.35433072"/>
		<path id="bottom_hole_top" d="m520.69,299.14c2.2015,0,3.9862,1.7847,3.9862,3.9862s-1.7847,3.9862-3.9862,3.9862-3.9862-1.7847-3.9862-3.9862,1.7847-3.9862,3.9862-3.9862z" stroke-dashoffset="0" stroke-width="0.35433075"/>
		<path id="hole_bottom_top" d="m552.14,253.52c0,1.7123-1.3881,3.1004-3.1004,3.1004s-3.1004-1.3881-3.1004-3.1004,1.3881-3.1004,3.1004-3.1004,3.1004,1.3881,3.1004,3.1004" stroke-dashoffset="0" stroke-width="0.35433072"/>
		<path id="bottom_hole_bottom" d="m577.38,299.14c2.2015,0,3.9862,1.7847,3.9862,3.9862s-1.7847,3.9862-3.9862,3.9862-3.9862-1.7847-3.9862-3.9862,1.7847-3.9862,3.9862-3.9862z" stroke-dashoffset="0" stroke-width="0.35433075"/>
		<path id="bottom_mount_6" d="m614.59,242.89,0-7.0867,17.717,0,0.00001,7.0867z" stroke-dashoffset="0" stroke-width="0.35433072"/>
		<path id="bottom_mount_7" d="m639.39,260.61,0-17.717,7.0866-0.00007,0,17.717z" stroke-dashoffset="0" stroke-width="0.35433069"/>
		<path id="bottom_mount_8" d="m641.16,430.69,0-17.717,7.0866-0.00007,0,17.717z" stroke-dashoffset="0" stroke-width="0.35433069"/>
		<path id="bottom_mount_9" d="m639.39,600.77,0-17.717,7.0866-0.00007,0,17.717z" stroke-dashoffset="0" stroke-width="0.35433069"/>
		<path id="bottom_mount_10" d="m614.59,607.85,0-7.0866,17.717,0-0.00001,7.0866z" stroke-dashoffset="0" stroke-width="0.35433072"/>
		<path id="hole_bottom_bot" d="m552.14,594.57c0,1.7123-1.3881,3.1004-3.1004,3.1004s-3.1004-1.3881-3.1004-3.1004,1.3881-3.1004,3.1004-3.1004,3.1004,1.3881,3.1004,3.1004" stroke-dashoffset="0" stroke-width="0.35433072"/>
		<path id="bottom_mount_1" d="m465.77,607.85,0-7.0866,17.717,0,0,7.0866z" stroke-dashoffset="0" stroke-width="0.35433072"/>
		<path id="side_top" d="m184.07,260.61,0-17.717-14.173,0.00007,0-5.315-7.0866,0,0,5.315-14.173,0,0,17.717,7.0866,0,0,152.36-7.0866,0,0,17.717,7.0866,0,0,152.36-7.0866,0,0,17.717,14.173,0,0,5.315,7.0866,0,0-5.315,14.173-0.00007,0-17.717-7.0866,0,0-152.36,7.0866,0,0-17.717-7.0866,0,0-152.36z" stroke-dashoffset="0" stroke-width="0.35433072"/>
		<path id="side_right" d="m242.54,186.2,0-7.0866-17.717,0,0,7.0866-12.402,0,0.00003,7.0866,5.3149,0,0,7.0867-5.315,0,0.00003,7.0866,12.402,0,0,7.0866,17.717,0-0.00001-7.0866,131.1,0,0,7.0866,17.717,0-0.00001-7.0866,12.402,0-0.00003-7.0866-5.315,0,0-7.0867,5.315,0-0.00003-7.0866-12.402,0,0-7.0866-17.717,0,0,7.0866-70.866,0,0,5.315-5.315,0,0-5.315z" stroke-dasharray="none" stroke-width="0.35433072"/>
		<path id="side_left" d="m632.3,186.2,0-7.0866-17.717,0,0,7.0866-131.1,0,0-7.0866-17.717,0,0,7.0866-12.402,0,0,7.0866,5.315,0,0,7.0866-5.315,0,0.00003,7.0866,12.402,0,0,7.0866,17.717,0-0.00001-7.0866,131.1,0,0,7.0866,17.717,0,0-7.0866,12.402,0-0.00003-7.0866-5.315,0,0-7.0866,5.315,0,0-7.0866z" stroke-dashoffset="0" stroke-width="0.35433069"/>
		<path id="side_bottom" d="m708.48,260.61,0-17.717-14.173,0,0-5.315-7.0866,0,0,5.315-14.173-0.00007,0,17.717,7.0866,0,0,152.36-7.0866,0,0,17.717,7.0866,0,0,152.36-7.0866,0,0,17.717,14.173,0.00007,0,5.315,7.0866,0,0-5.315,14.173,0,0-17.717-7.0866,0,0-152.36,7.0866,0,0-17.717-7.0866,0,0-152.36z" stroke-dashoffset="0" stroke-width="0.35433072"/>
		<path id="contour_bottom" d="m657.11,232.26s7.0868,126.38,7.0866,189.57c-0.00016,63.189-7.0876,189.57-7.0876,189.57-0.2254,4.0043-3.0882,6.7592-7.0852,7.0866,0,0-67.323,3.5435-100.98,3.5433-33.661-0.00017-100.98-3.5443-100.98-3.5443-3.9968-0.33841-6.8478-3.082-7.0866-7.0852,0,0-7.087-126.38-7.087-189.57,0-63.189,7.088-189.57,7.088-189.57,0.23758-4.0037,3.0886-6.7462,7.085-7.0868,0,0,67.323-3.5433,100.98-3.5433,33.661,0,100.98,3.5433,100.98,3.5433,3.9973,0.32857,6.8337,3.0838,7.0866,7.0852z" stroke-dashoffset="0" stroke-width="0.35433072"/>
		<path id="contour_top" d="m409.08,225.18s-67.323-3.5433-100.98-3.5433c-33.661,0-100.98,3.5433-100.98,3.5433-3.9953,0.35166-6.8465,3.083-7.0866,7.0852,0,0-7.0868,126.38-7.0866,189.57,0.00016,63.189,7.0876,189.57,7.0876,189.57,0.22622,4.0043,3.0891,6.7484,7.0852,7.0866,0,0,67.323,3.5435,100.98,3.5433,33.661-0.00017,100.98-3.5443,100.98-3.5443,3.9966-0.34087,6.8314-3.083,7.0866-7.0852,0,0,7.087-126.38,7.087-189.57,0-63.189-7.088-189.57-7.088-189.57-0.23882-4.0036-3.0896-6.7358-7.085-7.0868z" stroke-dashoffset="0" stroke-width="0.35433072"/>
		<path id="contour_bottom" d="m657.11,232.26s7.0868,126.38,7.0866,189.57c-0.00016,63.189-7.0876,189.57-7.0876,189.57-0.2254,4.0043-3.0882,6.7592-7.0852,7.0866,0,0-67.323,3.5435-100.98,3.5433-33.661-0.00017-100.98-3.5443-100.98-3.5443-3.9968-0.33841-6.8478-3.082-7.0866-7.0852,0,0-7.087-126.38-7.087-189.57,0-63.189,7.088-189.57,7.088-189.57,0.23758-4.0037,3.0886-6.7462,7.085-7.0868,0,0,67.323-3.5433,100.98-3.5433,33.661,0,100.98,3.5433,100.98,3.5433,3.9973,0.32857,6.8337,3.0838,7.0866,7.0852z" stroke-dashoffset="0" stroke-width="0.35433072"/>
	</g>
</svg>
