<?xml version="1.0" encoding="utf-8"?>
<!-- Generator: Adobe Illustrator 16.0.0, SVG Export Plug-In . SVG Version: 6.00 Build 0)  -->
<!DOCTYPE svg PUBLIC "-//W3C//DTD SVG 1.1//EN" "http://www.w3.org/Graphics/SVG/1.1/DTD/svg11.dtd">
<svg version="1.1" id="Layer_1" xmlns="http://www.w3.org/2000/svg" xmlns:xlink="http://www.w3.org/1999/xlink" x="0px" y="0px"
	 width="32px" height="32px" enable-background="new 0 0 32 32" xml:space="preserve">
    <!--
     viewBox="0 0 32 32"
    -->
<g>
	<radialGradient id="SVGID_1_" cx="16" cy="16" r="15.0744" gradientUnits="userSpaceOnUse">
		<stop  offset="0" style="stop-color:#D7FF8D"/>
		<stop  offset="1" style="stop-color:#4A8200"/>
	</radialGradient>
	<path fill-rule="evenodd" clip-rule="evenodd" fill="url(#SVGID_1_)" d="M21.461,0.852c2.784-0.019,4.431,1.935,5.222,4.063
		c0.235,1.01,0.573,2.688,0.708,3.031c0.238,0.612,0.641,0.965,1.135,1.165c0.335,0.136,0.529,0.056,1.136,0.509
		c0.764,0.572,1.204,1.364,1.293,2.948c0.341,6.169-1.216,11.069-4.048,14.748c-1.218,1.58-2.963,3.002-5.034,3.655
		c-1.372,0.433-3.598-0.036-4.874-0.264c-1.367-0.245-2.464-0.719-3.603-1.166c-2.962-1.163-6.292-3.619-7.385-5.359
		c-0.555-0.883-0.905-1.488-1.04-2.534c-0.088-0.691,0.276-1.032-0.004-1.69c-0.256-0.522-1.047-1.034-1.724-1.5
		c-1.686-1.159-2.995-3.911-1.749-6.869c0.817-1.946,2.924-3.485,6.494-2.986c0.848,0.119,1.321,0.559,2.065,0.295
		c1.026-0.625,1.359-0.909,2.432-1.376c0.825-0.358,1.279-0.332,2.223-0.654c0.464-0.254,1.142-2.2,1.963-3.285
		c0.748-0.989,2.277-2.191,3.593-2.548C20.662,0.973,21.061,0.913,21.461,0.852z"/>
	<path fill-rule="evenodd" clip-rule="evenodd" fill="#213D00" d="M6.729,22.748c0.217-0.355,1.264-0.164,2.708-0.452
		c1.445-0.29,4.24-2.918,6.841-3.424c2.602-0.506,6.521-1.922,8.399-3.295c1.878-1.372,3.582-3.733,4.288-3.602
		c0.706,0.133-1.485,6.11-3.507,8.856c-2.023,2.745-5.971,6.711-11.027,5.988C9.376,26.097,6.513,23.104,6.729,22.748z"/>
	<g>
		<g>
			<path fill-rule="evenodd" clip-rule="evenodd" fill="#F0FF96" d="M6.809,10.665c-1.54-0.447-3.787,0.139-4.307,1.808
				c-0.518,1.668,0.311,3.7,1.731,4.323c0.692,0.303,1.585,0.415,2.222-0.467c0.656-0.908,1.745-2.379,2.079-3.799
				C8.695,11.845,8.218,11.073,6.809,10.665z M24.531,5.687c-0.075-1.005-0.979-2.437-2.485-2.94
				c-1.506-0.503-3.39,0.588-4.066,2.099c-0.679,1.512-0.456,2.537,0.297,3.125c0.753,0.587,3.763,1.229,4.817,0.894
				C24.148,8.529,24.683,7.701,24.531,5.687z"/>
		</g>
	</g>
	<path fill-rule="evenodd" clip-rule="evenodd" fill="#AFD46A" d="M28.966,11.975c0.434-0.143,0.548,0.856-0.341,5.256
		c-0.521,2.577-2.736,5.574-4.864,7.742c-2.009,2.046-4.664,3.857-7.986,3.134c-3.322-0.722-5.235-1.25-7.258-3.056
		c-2.022-1.805-2.229-2.528-1.508-2.384c0.722,0.145,2.049,2.25,4.512,3.146c1.702,0.619,5.188,1.22,7.501,0.279
		c2.311-0.939,3.749-2.407,5.933-4.813c1.099-1.512,2.553-4.023,2.981-6.069C28.44,12.799,28.533,12.121,28.966,11.975z"/>
	<g>
		<g>
			<path fill-rule="evenodd" clip-rule="evenodd" fill="#213D00" d="M6.128,11.864c-1.195,0-2.164,0.849-2.164,1.896
				c0,1.047,1.036,1.78,1.898,1.896C6.8,15.785,7.2,15.23,7.629,14.382c0.481-0.95,0.075-1.658-0.236-1.981
				C7.14,12.136,6.496,11.864,6.128,11.864z M21.005,4.226c-1.04,0-1.884,0.94-1.884,2.099s0.844,2.1,1.884,2.1
				s1.883-0.94,1.883-2.1S22.045,4.226,21.005,4.226z"/>
		</g>
	</g>
	<path fill-rule="evenodd" clip-rule="evenodd" fill="#172900" d="M8.917,16.603c-0.048-0.625,1.344-0.717,1.165,0
		C9.903,17.318,9.008,17.767,8.917,16.603z"/>
	<path fill-rule="evenodd" clip-rule="evenodd" fill="#172900" d="M18.624,13.235c-0.737,0.149-1.026-1.213,0-1.12
		C19.651,12.208,19.091,13.143,18.624,13.235z"/>
</g>
</svg>
