<?xml version="1.0" standalone="no"?>
<!DOCTYPE svg PUBLIC "-//W3C//DTD SVG 20010904//EN"
 "http://www.w3.org/TR/2001/REC-SVG-20010904/DTD/svg10.dtd">
<svg version="1.0" xmlns="http://www.w3.org/2000/svg" width="58" height="48">
<metadata>M527x524S36d00479x476S20500472x485S20500517x486S2d608489x503S1f552469x500</metadata>
<g transform="translate(10,0)" ><g>
  <path id="rect2813" d="M 0,0 42,0 42,4 0,4 0,0 z" fill="#000000" />
</g></g>
<g transform="translate(3,9)" ><g transform="scale(0.909 1)">
  <path id="rect2815" d="m 4.75,0 0,4.1875 L 1.125,2.09375 0.375,3.40625 4,5.5 0.375,7.59375 1.125,8.90625 4.75,6.8125 4.75,11 l 1.5,0 0,-4.1875 3.625,2.09375 0.75,-1.3125 L 7,5.5 10.625,3.40625 9.875,2.09375 6.25,4.1875 6.25,0 4.75,0 z" fill="#000000" />
</g></g>
<g transform="translate(48,10)" ><g transform="scale(0.909 1)">
  <path id="rect2815" d="m 4.75,0 0,4.1875 L 1.125,2.09375 0.375,3.40625 4,5.5 0.375,7.59375 1.125,8.90625 4.75,6.8125 4.75,11 l 1.5,0 0,-4.1875 3.625,2.09375 0.75,-1.3125 L 7,5.5 10.625,3.40625 9.875,2.09375 6.25,4.1875 6.25,0 4.75,0 z" fill="#000000" />
</g></g>
<g transform="translate(20,27)" ><g>
  <path id="path2814" d="M 29,1.0000003 18,12 29,12 29,1.0000003 z" fill="#000000" />
  <path id="rect2819" d="m 13,0 c 3.589851,0 6.834963,1.4599627 9.1875,3.8125 l 2,2 -1.375,1.375 -2.03125,-1.96875 C 18.790641,3.2281415 16.037566,2 13,2 9.962434,2 7.209359,3.2281415 5.21875,5.21875 L 1.40625,9 0,7.59375 3.8125,3.8125 C 6.165037,1.4599627 9.410149,0 13,0 z" fill="#000000" />
</g></g>
<g transform="translate(0,24)" ><g transform="translate(0 24) rotate(270)">
  <rect id="base" x="9" y="0" width="15" height="15" fill="#000000" />
  <path id="fill" d="M 9,3 9,6 24,6 24,3 9,3 z" fill="#ffffff" />
  <rect id="thumb" x="0" y="7" width="9" height="2" fill="#000000" />
</g></g>
</svg>

