<?xml version="1.0" encoding="UTF-8" standalone="no"?>
<!DOCTYPE svg PUBLIC "-//W3C//DTD SVG 1.1//EN" "http://www.w3.org/Graphics/SVG/1.1/DTD/svg11.dtd">
<!-- 由 Microsoft Visio, SVG Export 產生 svg_test.svg Page-1 -->
<svg xmlns="http://www.w3.org/2000/svg" xmlns:xlink="http://www.w3.org/1999/xlink" xmlns:ev="http://www.w3.org/2001/xml-events"
		xmlns:v="http://schemas.microsoft.com/visio/2003/SVGExtensions/" width="11.6929in" height="8.26772in"
		viewBox="0 0 841.89 595.276" xml:space="preserve" color-interpolation-filters="sRGB" class="st27">
	<title>瘛勗??喟????孵?</title>
	<v:documentProperties v:langID="1028" v:metric="true" v:viewMarkup="false">
		<v:userDefs>
			<v:ud v:nameU="msvConvertTheme"/>
			<v:ud v:nameU="msvNoAutoConnect" v:val="VT0(1):26"/>
		</v:userDefs>
	</v:documentProperties>

	<style type="text/css">
	<![CDATA[
		.st1 {fill:#000000;font-family:標楷體;font-size:1.99999em}
		.st2 {stroke:#000000;stroke-linecap:round;stroke-linejoin:round;stroke-width:4.08}
		.st3 {fill:#ffffff;stroke:#000000;stroke-linecap:round;stroke-linejoin:round;stroke-width:0.24}
		.st4 {stroke:#000000;stroke-dasharray:8.4,6;stroke-linecap:round;stroke-linejoin:round;stroke-width:1.2}
		.st5 {marker-start:url(#mrkr13-28);stroke:#000000;stroke-linecap:round;stroke-linejoin:round;stroke-width:2.16}
		.st6 {fill:#000000;fill-opacity:1;stroke:#000000;stroke-opacity:1;stroke-width:0.46153846153846}
		.st7 {marker-end:url(#mrkr13-45);stroke:#000000;stroke-linecap:round;stroke-linejoin:round;stroke-width:2.16}
		.st8 {marker-end:url(#mrkr13-56);stroke:#000000;stroke-linecap:round;stroke-linejoin:round;stroke-width:2.16}
		.st9 {stroke:#000000;stroke-linecap:round;stroke-linejoin:round;stroke-width:0.24}
		.st10 {stroke:#000000;stroke-linecap:round;stroke-linejoin:round;stroke-width:1.2}
		.st11 {stroke:#000000;stroke-dasharray:1.68,1.2;stroke-linecap:round;stroke-linejoin:round;stroke-width:0.24}
		.st12 {fill:#ffffff;stroke:#000000;stroke-linecap:round;stroke-linejoin:round;stroke-width:0.72}
		.st13 {fill:#000000;font-family:新細明體;font-size:0.666664em}
		.st14 {stroke:#000000;stroke-linecap:round;stroke-linejoin:round;stroke-width:0.72}
		.st15 {fill:#000000;font-family:標楷體;font-size:1.00001em}
		.st16 {fill:#ff0000;font-family:標楷體;font-size:0.666664em}
		.st17 {font-size:1em}
		.st18 {marker-end:url(#mrkr13-186);stroke:#000000;stroke-dasharray:0.72,1.44;stroke-linecap:round;stroke-linejoin:round;stroke-width:0.72}
		.st19 {fill:#000000;fill-opacity:1;stroke:#000000;stroke-opacity:1;stroke-width:0.22222222222222}
		.st20 {fill:#ffffff;stroke:#000000;stroke-dasharray:0.72,1.44;stroke-linecap:round;stroke-linejoin:round;stroke-width:0.72}
		.st21 {stroke:#000000;stroke-linecap:round;stroke-linejoin:round;stroke-width:2.16}
		.st22 {marker-start:url(#mrkr1-233);stroke:#000000;stroke-linecap:round;stroke-linejoin:round;stroke-width:0.72}
		.st23 {marker-end:url(#mrkr1-249);stroke:#000000;stroke-linecap:round;stroke-linejoin:round;stroke-width:0.72}
		.st24 {stroke:#ff0000;stroke-linecap:round;stroke-linejoin:round;stroke-width:0.72}
		.st25 {fill:#ff0000;font-family:新細明體;font-size:0.666664em}
		.st26 {stroke:#000000;stroke-dasharray:3.6,2.16;stroke-linecap:round;stroke-linejoin:round;stroke-width:0.24}
		.st27 {fill:none;fill-rule:evenodd;font-size:12px;overflow:visible;stroke-linecap:square;stroke-miterlimit:3}
	]]>
	</style>

	<defs id="Markers">
		<g id="lend13">
			<path d="M 3 1 L 0 0 L 3 -1 L 3 1 " style="stroke:none"/>
		</g>
		<marker id="mrkr13-28" class="st6" v:arrowType="13" v:arrowSize="2" v:setback="6.33333" refX="6.3333333333333"
				orient="auto" markerUnits="strokeWidth" overflow="visible">
			<use xlink:href="#lend13" transform="scale(2.1666666666667) "/>
		</marker>
		<marker id="mrkr13-45" class="st6" v:arrowType="13" v:arrowSize="2" v:setback="6.5" refX="-6.5" orient="auto"
				markerUnits="strokeWidth" overflow="visible">
			<use xlink:href="#lend13" transform="scale(-2.1666666666667,-2.1666666666667) "/>
		</marker>
		<marker id="mrkr13-56" class="st6" v:arrowType="13" v:arrowSize="2" v:setback="6.33333" refX="-6.3333333333333"
				orient="auto" markerUnits="strokeWidth" overflow="visible">
			<use xlink:href="#lend13" transform="scale(-2.1666666666667,-2.1666666666667) "/>
		</marker>
		<marker id="mrkr13-186" class="st19" v:arrowType="13" v:arrowSize="2" v:setback="13.5" refX="-13.5" orient="auto"
				markerUnits="strokeWidth" overflow="visible">
			<use xlink:href="#lend13" transform="scale(-4.5,-4.5) "/>
		</marker>
		<g id="lend1">
			<path d="M 1 -1 L 0 0 L 1 1 " style="stroke-linecap:round;stroke-linejoin:round;fill:none"/>
		</g>
		<marker id="mrkr1-233" class="st19" v:arrowType="1" v:arrowSize="2" orient="auto" markerUnits="strokeWidth"
				overflow="visible">
			<use xlink:href="#lend1" transform="scale(4.5) "/>
		</marker>
		<marker id="mrkr1-249" class="st19" v:arrowType="1" v:arrowSize="2" orient="auto" markerUnits="strokeWidth"
				overflow="visible">
			<use xlink:href="#lend1" transform="scale(-4.5,-4.5) "/>
		</marker>
	</defs>
	<g v:mID="0" v:index="1" v:groupContext="foregroundPage">
		<v:userDefs>
			<v:ud v:nameU="SchemeName" v:val="VT4(Black &#38; White)"/>
		</v:userDefs>
		<title>Page-1</title>
		<v:pageProperties v:drawingScale="1" v:pageScale="1" v:drawingUnits="19" v:shadowOffsetX="9" v:shadowOffsetY="-9"/>
		<v:layer v:name="流程圖" v:index="0"/>
		<v:layer v:name="連接器" v:index="1"/>
		<g id="shape64-1" v:mID="64" v:groupContext="shape" transform="translate(63,-486)">
			<title>工作表.64</title>
			<desc>石碇交流道連絡道路至段</desc>
			<v:textBlock v:margins="rect(4,4,4,4)" v:tabSpace="42.5197"/>
			<v:textRect cx="351" cy="550.276" width="702" height="90"/>
			<text x="87" y="557.48" class="st1" v:langID="1028"><v:paragraph v:horizAlign="1"/><v:tabList/>石碇交流道連絡道路０＋０００至１ｋ＋８００段</text>		</g>
		<g id="shape3-3" v:mID="3" v:groupContext="shape" transform="translate(27,-54)">
			<title>工作表.3</title>
			<path d="M0 595.28 L783 595.28" class="st2"/>
		</g>
		<g id="shape1-6" v:mID="1" v:groupContext="shape" transform="translate(769.306,570.101) rotate(138.24)">
			<title>工作表.1</title>
			<path d="M-0 595.28 A245.801 217.715 55.95 0 1 318.85 595.28" class="st2"/>
		</g>
		<g id="shape2-9" v:mID="2" v:groupContext="shape" transform="translate(922.151,-247.8) rotate(46.0809)">
			<title>工作表.2</title>
			<path d="M0 526.74 A225.141 234 -180 0 0 318.4 526.74" class="st2"/>
		</g>
		<g id="shape8-12" v:mID="8" v:groupContext="shape" transform="translate(531,-146.427)">
			<title>工作表.8</title>
			<rect x="0" y="578.287" width="83.9326" height="16.9888" rx="8.49438" ry="8.49438" class="st3"/>
		</g>
		<g id="shape10-14" v:mID="10" v:groupContext="shape" transform="translate(562.5,-108)">
			<title>工作表.10</title>
			<path d="M0 595.28 L247.5 595.28" class="st4"/>
		</g>
		<g id="shape11-17" v:mID="11" v:groupContext="shape" transform="translate(620.576,-204.784) rotate(-0.683195)">
			<title>工作表.11</title>
			<path d="M0 595.28 L182.34 595.28" class="st4"/>
		</g>
		<g id="shape12-20" v:mID="12" v:groupContext="shape" transform="translate(774.606,-248.258) rotate(1.06091)">
			<title>工作表.12</title>
			<path d="M0 595.28 L46.42 595.28" class="st2"/>
		</g>
		<g id="shape14-23" v:mID="14" v:groupContext="shape" transform="translate(571.5,-231.75)">
			<title>工作表.14</title>
			<path d="M13.68 595.28 L14.04 595.28 L50.97 595.28" class="st5"/>
		</g>
		<g id="shape9-29" v:mID="9" v:groupContext="shape" transform="translate(691.382,-146.427)">
			<title>工作表.9</title>
			<rect x="0" y="578.287" width="114.118" height="16.9888" rx="8.49438" ry="8.49438" class="st3"/>
		</g>
		<g id="shape17-31" v:mID="17" v:groupContext="shape" transform="translate(-33.1506,431.86) rotate(-90)">
			<title>工作表.17</title>
			<path d="M0 595.28 L84.94 595.28" class="st2"/>
		</g>
		<g id="shape18-34" v:mID="18" v:groupContext="shape" transform="translate(142.965,760.876) rotate(-153.208)">
			<title>工作表.18</title>
			<path d="M0 595.28 L60.74 595.28" class="st2"/>
		</g>
		<g id="shape19-37" v:mID="19" v:groupContext="shape" transform="translate(527.735,-354.566) rotate(11.2684)">
			<title>工作表.19</title>
			<path d="M0 595.28 L28.85 595.28" class="st2"/>
		</g>
		<g id="shape25-40" v:mID="25" v:groupContext="shape" transform="translate(936.976,407.272) rotate(113.199)">
			<title>工作表.25</title>
			<path d="M0 595.28 L18.31 595.28" class="st7"/>
		</g>
		<g id="shape26-46" v:mID="26" v:groupContext="shape" transform="translate(963.767,415.097) rotate(111.801)">
			<title>工作表.26</title>
			<path d="M0 595.28 L8.83 595.28" class="st7"/>
		</g>
		<g id="shape27-51" v:mID="27" v:groupContext="shape" transform="translate(985.727,13.0818) rotate(71.5651)">
			<title>工作表.27</title>
			<path d="M0 585.6 C1.04 586.3 10.76 595.14 16.72 595.3 L16.98 595.05" class="st8"/>
		</g>
		<g id="shape30-57" v:mID="30" v:groupContext="shape" transform="translate(206.751,752.485) rotate(-135)">
			<title>工作表.30</title>
			<path d="M0 595.28 L34.01 595.28" class="st7"/>
		</g>
		<g id="shape31-62" v:mID="31" v:groupContext="shape" transform="translate(576.77,938.867) rotate(177.984)">
			<title>工作表.31</title>
			<path d="M0 595.28 L56.73 595.28" class="st9"/>
		</g>
		<g id="shape32-65" v:mID="32" v:groupContext="shape" transform="translate(-44.6234,102.5) rotate(-65.7579)">
			<title>工作表.32</title>
			<path d="M0 595.28 L110.02 595.28" class="st9"/>
		</g>
		<g id="shape35-68" v:mID="35" v:groupContext="shape" transform="translate(14.26,-155.25) rotate(0.0731531)">
			<title>工作表.35</title>
			<path d="M0 595.28 L257.41 595.28" class="st10"/>
		</g>
		<g id="shape37-71" v:mID="37" v:groupContext="shape" transform="translate(866.186,440.354) rotate(90)">
			<title>工作表.37</title>
			<path d="M0 595.28 L101.93 595.28" class="st2"/>
		</g>
		<g id="shape38-74" v:mID="38" v:groupContext="shape" transform="translate(406.791,945.654) rotate(165.964)">
			<title>工作表.38</title>
			<path d="M0 595.28 A87.3006 29.5979 2.48 0 1 122.58 595.28" class="st11"/>
		</g>
		<g id="shape39-77" v:mID="39" v:groupContext="shape" transform="translate(566.25,846.771) rotate(150.255)">
			<title>工作表.39</title>
			<path d="M0 595.28 L20.2 595.28" class="st7"/>
		</g>
		<g id="shape40-82" v:mID="40" v:groupContext="shape" transform="translate(595.98,906.232) rotate(150.255)">
			<title>工作表.40</title>
			<path d="M0 595.28 L20.2 595.28" class="st7"/>
		</g>
		<g id="group118-87" transform="translate(872.473,495.401) rotate(90)" v:mID="118" v:groupContext="group">
			<title>四色燈.118</title>
			<g id="shape119-88" v:mID="119" v:groupContext="shape" v:layerMember="0">
				<title>單燈.6</title>
				<desc>R</desc>
				<v:custProps>
					<v:cp v:nameU="Cost" v:lbl="成本" v:prompt="輸入與本處理程序相關的成本。" v:type="2" v:format="$###,###.00" v:langID="1028"/>
					<v:cp v:nameU="Duration" v:lbl="期間" v:prompt="輸入本步驟的期間。" v:type="2" v:langID="1028"/>
					<v:cp v:nameU="Resources" v:lbl="資源" v:prompt="輸入完成本任務所需的人數。" v:langID="1028"/>
				</v:custProps>
				<v:textBlock v:margins="rect(2,2,2,2)"/>
				<v:textRect cx="5.35079" cy="589.925" width="10.71" height="10.7016"/>
				<path d="M0 589.92 A5.35079 5.35079 0 0 1 10.7 589.92 A5.35079 5.35079 0 0 1 0 589.92 Z" class="st12"/>
				<text x="2.84" y="592.32" class="st13" v:langID="1028"><v:paragraph v:horizAlign="1"/><v:tabList/>R</text>			</g>
			<g id="shape120-91" v:mID="120" v:groupContext="shape" v:layerMember="0" transform="translate(10.7016,0)">
				<title>單燈.7</title>
				<desc>Y</desc>
				<v:custProps>
					<v:cp v:nameU="Cost" v:lbl="成本" v:prompt="輸入與本處理程序相關的成本。" v:type="2" v:format="$###,###.00" v:langID="1028"/>
					<v:cp v:nameU="Duration" v:lbl="期間" v:prompt="輸入本步驟的期間。" v:type="2" v:langID="1028"/>
					<v:cp v:nameU="Resources" v:lbl="資源" v:prompt="輸入完成本任務所需的人數。" v:langID="1028"/>
				</v:custProps>
				<v:textBlock v:margins="rect(2,2,2,2)"/>
				<v:textRect cx="5.35079" cy="589.925" width="10.71" height="10.7016"/>
				<path d="M0 589.92 A5.35079 5.35079 0 0 1 10.7 589.92 A5.35079 5.35079 0 0 1 0 589.92 Z" class="st12"/>
				<text x="2.64" y="592.32" class="st13" v:langID="1028"><v:paragraph v:horizAlign="1"/><v:tabList/>Y</text>			</g>
			<g id="shape122-94" v:mID="122" v:groupContext="shape" v:layerMember="0" transform="translate(21.4032,-1.13687E-013)">
				<title>單燈</title>
				<desc>G</desc>
				<v:custProps>
					<v:cp v:nameU="Cost" v:lbl="成本" v:prompt="輸入與本處理程序相關的成本。" v:type="2" v:format="$###,###.00" v:langID="1028"/>
					<v:cp v:nameU="Duration" v:lbl="期間" v:prompt="輸入本步驟的期間。" v:type="2" v:langID="1028"/>
					<v:cp v:nameU="Resources" v:lbl="資源" v:prompt="輸入完成本任務所需的人數。" v:langID="1028"/>
				</v:custProps>
				<v:textBlock v:margins="rect(2,2,2,2)"/>
				<v:textRect cx="5.35079" cy="589.925" width="10.71" height="10.7016"/>
				<path d="M0 589.92 A5.35079 5.35079 0 0 1 10.7 589.92 A5.35079 5.35079 0 0 1 0 589.92 Z" class="st12"/>
				<text x="2.64" y="592.32" class="st13" v:langID="1028"><v:paragraph v:horizAlign="1"/><v:tabList/>G</text>			</g>
		</g>
		<g id="shape111-97" v:mID="111" v:groupContext="shape" v:layerMember="1"
				transform="translate(-308.648,486.572) rotate(-90) scale(-1,1)">
			<title>線型連接器</title>
			<path d="M0 595.28 L53.51 595.28" class="st14"/>
		</g>
		<g id="shape112-100" v:mID="112" v:groupContext="shape" v:layerMember="0" transform="translate(281.277,-44.4944)">
			<title>連接器</title>
			<v:custProps>
				<v:cp v:nameU="Cost" v:lbl="成本" v:prompt="輸入與本處理程序相關的成本。" v:type="2" v:format="$###,###.00" v:langID="1028"/>
				<v:cp v:nameU="Duration" v:lbl="期間" v:prompt="輸入本步驟的期間。" v:type="2" v:langID="1028"/>
				<v:cp v:nameU="Resources" v:lbl="資源" v:prompt="輸入完成本任務所需的人數。" v:langID="1028"/>
			</v:custProps>
			<path d="M0 589.92 A5.35079 5.35079 0 1 1 10.7 589.92 A5.35079 5.35079 0 1 1 0 589.92 Z" class="st12"/>
		</g>
		<g id="group129-102" transform="translate(864.062,511.705) rotate(120)" v:mID="129" v:groupContext="group">
			<title>單桿.9</title>
			<g id="shape130-103" v:mID="130" v:groupContext="shape" v:layerMember="1"
					transform="translate(599.509,513.397) rotate(86.4884)">
				<title>線型連接器</title>
				<path d="M0 595.28 L41.52 595.28" class="st14"/>
			</g>
			<g id="shape131-106" v:mID="131" v:groupContext="shape" v:layerMember="0" transform="translate(5.08671,0)">
				<title>連接器</title>
				<v:custProps>
					<v:cp v:nameU="Cost" v:lbl="成本" v:prompt="輸入與本處理程序相關的成本。" v:type="2" v:format="$###,###.00" v:langID="1028"/>
					<v:cp v:nameU="Duration" v:lbl="期間" v:prompt="輸入本步驟的期間。" v:type="2" v:langID="1028"/>
					<v:cp v:nameU="Resources" v:lbl="資源" v:prompt="輸入完成本任務所需的人數。" v:langID="1028"/>
				</v:custProps>
				<path d="M0 593.29 A2.80744 1.98577 0 1 1 5.61 593.29 A2.80744 1.98577 0 1 1 0 593.29 Z" class="st12"/>
			</g>
		</g>
		<g id="shape59-108" v:mID="59" v:groupContext="shape" transform="translate(245.427,1120.57) rotate(180)">
			<title>工作表.59</title>
			<path d="M13.68 595.28 L14.04 595.28 L50.97 595.28" class="st5"/>
		</g>
		<g id="group49-113" transform="translate(94.1522,750.222) rotate(-150)" v:mID="49" v:groupContext="group">
			<title>四色燈.11</title>
			<g id="shape60-114" v:mID="60" v:groupContext="shape" v:layerMember="0">
				<title>單燈.6</title>
				<desc>R</desc>
				<v:custProps>
					<v:cp v:nameU="Cost" v:lbl="成本" v:prompt="輸入與本處理程序相關的成本。" v:type="2" v:format="$###,###.00" v:langID="1028"/>
					<v:cp v:nameU="Duration" v:lbl="期間" v:prompt="輸入本步驟的期間。" v:type="2" v:langID="1028"/>
					<v:cp v:nameU="Resources" v:lbl="資源" v:prompt="輸入完成本任務所需的人數。" v:langID="1028"/>
				</v:custProps>
				<v:textBlock v:margins="rect(2,2,2,2)"/>
				<v:textRect cx="5.35079" cy="589.925" width="10.71" height="10.7016"/>
				<path d="M0 589.92 A5.35079 5.35079 0 0 1 10.7 589.92 A5.35079 5.35079 0 1 1 0 589.92 Z" class="st12"/>
				<text x="2.84" y="592.32" class="st13" v:langID="1028"><v:paragraph v:horizAlign="1"/><v:tabList/>R</text>			</g>
			<g id="shape61-117" v:mID="61" v:groupContext="shape" v:layerMember="0" transform="translate(10.7016,0)">
				<title>單燈.7</title>
				<desc>Y</desc>
				<v:custProps>
					<v:cp v:nameU="Cost" v:lbl="成本" v:prompt="輸入與本處理程序相關的成本。" v:type="2" v:format="$###,###.00" v:langID="1028"/>
					<v:cp v:nameU="Duration" v:lbl="期間" v:prompt="輸入本步驟的期間。" v:type="2" v:langID="1028"/>
					<v:cp v:nameU="Resources" v:lbl="資源" v:prompt="輸入完成本任務所需的人數。" v:langID="1028"/>
				</v:custProps>
				<v:textBlock v:margins="rect(2,2,2,2)"/>
				<v:textRect cx="5.35079" cy="589.925" width="10.71" height="10.7016"/>
				<path d="M0 589.92 A5.35079 5.35079 0 0 1 10.7 589.92 A5.35079 5.35079 0 1 1 0 589.92 Z" class="st12"/>
				<text x="2.64" y="592.32" class="st13" v:langID="1028"><v:paragraph v:horizAlign="1"/><v:tabList/>Y</text>			</g>
			<g id="shape62-120" v:mID="62" v:groupContext="shape" v:layerMember="0" transform="translate(22.1827,0.161815)">
				<title>單燈.8</title>
				<desc>←</desc>
				<v:custProps>
					<v:cp v:nameU="Cost" v:lbl="成本" v:prompt="輸入與本處理程序相關的成本。" v:type="2" v:format="$###,###.00" v:langID="1028"/>
					<v:cp v:nameU="Duration" v:lbl="期間" v:prompt="輸入本步驟的期間。" v:type="2" v:langID="1028"/>
					<v:cp v:nameU="Resources" v:lbl="資源" v:prompt="輸入完成本任務所需的人數。" v:langID="1028"/>
				</v:custProps>
				<v:textBlock v:margins="rect(2,2,2,2)"/>
				<v:textRect cx="5.35079" cy="589.925" width="10.71" height="10.7016"/>
				<path d="M0 589.92 A5.35079 5.35079 0 0 1 10.7 589.92 A5.35079 5.35079 0 1 1 0 589.92 Z" class="st12"/>
				<text x="2" y="592.32" class="st13" v:langID="1028"><v:paragraph v:horizAlign="1"/><v:tabList/>←</text>			</g>
		</g>
		<g id="shape66-123" v:mID="66" v:groupContext="shape" transform="translate(135,-222.704)">
			<title>工作表.66</title>
			<desc>往北二高深坑交流道</desc>
			<v:textBlock v:margins="rect(4,4,4,4)" v:tabSpace="42.5197"/>
			<v:textRect cx="59.4607" cy="586.609" width="118.93" height="17.3336"/>
			<text x="5.46" y="590.21" class="st15" v:langID="1028"><v:paragraph v:horizAlign="1"/><v:tabList/>往北二高深坑交流道</text>		</g>
		<g id="shape82-125" v:mID="82" v:groupContext="shape" transform="translate(270.91,-367.281)">
			<title>工作表.82</title>
			<desc>遷移約二十五公尺並加裝左轉燈號</desc>
			<v:textBlock v:margins="rect(4,4,4,4)" v:tabSpace="42.5197"/>
			<v:textRect cx="37.7949" cy="585.96" width="75.59" height="18.6311"/>
			<text x="5.8" y="583.56" class="st16" v:langID="1028"><v:paragraph v:horizAlign="1"/><v:tabList/>遷移約二十五公尺<tspan x="9.8"
						dy="1.2em" class="st17">並加裝左轉燈號</tspan></text>		</g>
		<g id="shape4-128" v:mID="4" v:groupContext="shape" transform="translate(986.23,-127.275) rotate(50.1944)">
			<title>工作表.4</title>
			<path d="M0 577.31 A93.8235 61.3498 -180 0 0 132.69 577.31" class="st9"/>
		</g>
		<g id="shape5-131" v:mID="5" v:groupContext="shape" transform="translate(1040.96,-1.06711) rotate(60.4998)">
			<title>工作表.5</title>
			<path d="M0 595.28 L41.57 595.28" class="st9"/>
		</g>
		<g id="shape6-134" v:mID="6" v:groupContext="shape" transform="translate(1138,240.195) rotate(89.7967)">
			<title>工作表.6</title>
			<path d="M0 595.28 A72.6548 1.84463 0.16 0 1 102.1 595.28" class="st9"/>
		</g>
		<g id="shape7-137" v:mID="7" v:groupContext="shape" transform="translate(552.89,-251.342) rotate(-0.280354)">
			<title>工作表.7</title>
			<path d="M0 595.28 L69.99 595.28" class="st9"/>
		</g>
		<g id="shape91-140" v:mID="91" v:groupContext="shape" transform="translate(1010.34,16.2634) rotate(58.0642)">
			<title>工作表.91</title>
			<path d="M0 595.28 L17.6 595.28" class="st9"/>
		</g>
		<g id="shape92-143" v:mID="92" v:groupContext="shape" transform="translate(1037.31,39.5876) rotate(62.1318)">
			<title>工作表.92</title>
			<path d="M0 595.28 L31.29 595.28" class="st9"/>
		</g>
		<g id="shape93-146" v:mID="93" v:groupContext="shape" transform="translate(1025,-4.52983) rotate(58.6431)">
			<title>工作表.93</title>
			<path d="M0 595.28 L46.26 595.28" class="st9"/>
		</g>
		<g id="group52-149" transform="translate(562.5,-204.826)" v:mID="52" v:groupContext="group">
			<title>工作表.52</title>
			<g id="shape13-150" v:mID="13" v:groupContext="shape" transform="translate(0,-2.1236)">
				<title>工作表.13</title>
				<path d="M0 595.28 L65.17 595.28" class="st14"/>
			</g>
			<g id="shape51-153" v:mID="51" v:groupContext="shape">
				<title>工作表.51</title>
				<path d="M0 595.28 L65.17 595.28" class="st14"/>
			</g>
		</g>
		<g id="shape55-156" v:mID="55" v:groupContext="shape" transform="translate(1092.47,234.311) rotate(101.31)">
			<title>工作表.55</title>
			<path d="M-0 595.28 A92.5061 23.8968 1.79 0 1 129.94 595.28" class="st11"/>
		</g>
		<g id="group57-159" transform="translate(381.337,-381.084)" v:mID="57" v:groupContext="group">
			<title>工作表.57</title>
			<g id="shape23-160" v:mID="23" v:groupContext="shape" transform="translate(603.075,603.907) rotate(100.081)">
				<title>工作表.23</title>
				<path d="M-0 595.28 A69.1825 31.4201 3.71 0 1 97.06 595.28" class="st9"/>
			</g>
			<g id="shape56-163" v:mID="56" v:groupContext="shape" transform="translate(605.198,603.907) rotate(100.081)">
				<title>工作表.56</title>
				<path d="M-0 595.28 A69.1825 31.4201 3.71 0 1 97.06 595.28" class="st9"/>
			</g>
		</g>
		<g id="group22-166" transform="translate(437.143,-358.787)" v:mID="22" v:groupContext="group">
			<title>工作表.22</title>
			<g id="shape21-167" v:mID="21" v:groupContext="shape" transform="translate(608.915,580.196) rotate(100.046)">
				<title>工作表.21</title>
				<path d="M-0 595.28 A86.0262 31.442 2.73 0 1 120.77 595.28" class="st9"/>
			</g>
			<g id="shape20-170" v:mID="20" v:groupContext="shape" transform="translate(607.148,578.164) rotate(99.8477)">
				<title>工作表.20</title>
				<path d="M-0 595.28 A85.9741 31.4419 2.73 0 1 120.7 595.28" class="st9"/>
			</g>
		</g>
		<g id="group29-173" transform="translate(406.16,-367.281)" v:mID="29" v:groupContext="group">
			<title>工作表.29</title>
			<g id="shape67-174" v:mID="67" v:groupContext="shape" transform="translate(605.804,600.628) rotate(101.215)">
				<title>工作表.67</title>
				<path d="M-0 595.28 A80.2021 31.436 3 0 1 112.58 595.28" class="st9"/>
			</g>
			<g id="shape68-177" v:mID="68" v:groupContext="shape" transform="translate(607.927,600.628) rotate(101.215)">
				<title>工作表.68</title>
				<path d="M-0 595.28 A80.2021 31.436 3 0 1 112.58 595.28" class="st9"/>
			</g>
		</g>
		<g id="group72-180" transform="translate(787.147,583.135) rotate(120)" v:mID="72" v:groupContext="group">
			<title>單桿.72</title>
			<g id="shape73-181" v:mID="73" v:groupContext="shape" v:layerMember="1"
					transform="translate(-589.925,531.066) rotate(-90) scale(-1,1)">
				<title>線型連接器</title>
				<path d="M0 595.28 L43.79 595.28" class="st18"/>
			</g>
			<g id="shape74-187" v:mID="74" v:groupContext="shape" v:layerMember="0">
				<title>連接器</title>
				<v:custProps>
					<v:cp v:nameU="Cost" v:lbl="成本" v:prompt="輸入與本處理程序相關的成本。" v:type="2" v:format="$###,###.00" v:langID="1028"/>
					<v:cp v:nameU="Duration" v:lbl="期間" v:prompt="輸入本步驟的期間。" v:type="2" v:langID="1028"/>
					<v:cp v:nameU="Resources" v:lbl="資源" v:prompt="輸入完成本任務所需的人數。" v:langID="1028"/>
				</v:custProps>
				<path d="M0 589.92 A5.35079 5.35079 0 0 1 10.7 589.92 A5.35079 5.35079 0 1 1 0 589.92 Z" class="st20"/>
			</g>
		</g>
		<g id="group75-190" transform="translate(575.499,-220.592) rotate(30)" v:mID="75" v:groupContext="group">
			<title>四色燈.75</title>
			<g id="shape76-191" v:mID="76" v:groupContext="shape" v:layerMember="0" transform="translate(3.85119,1.21334)">
				<title>單燈.6</title>
				<v:custProps>
					<v:cp v:nameU="Cost" v:lbl="成本" v:prompt="輸入與本處理程序相關的成本。" v:type="2" v:format="$###,###.00" v:langID="1028"/>
					<v:cp v:nameU="Duration" v:lbl="期間" v:prompt="輸入本步驟的期間。" v:type="2" v:langID="1028"/>
					<v:cp v:nameU="Resources" v:lbl="資源" v:prompt="輸入完成本任務所需的人數。" v:langID="1028"/>
				</v:custProps>
				<path d="M0 589.92 A5.35079 5.35079 0 1 1 10.7 589.92 A5.35079 5.35079 0 1 1 0 589.92 Z" class="st20"/>
			</g>
			<g id="shape77-194" v:mID="77" v:groupContext="shape" v:layerMember="0" transform="translate(13.8829,1.60007)">
				<title>單燈.7</title>
				<v:custProps>
					<v:cp v:nameU="Cost" v:lbl="成本" v:prompt="輸入與本處理程序相關的成本。" v:type="2" v:format="$###,###.00" v:langID="1028"/>
					<v:cp v:nameU="Duration" v:lbl="期間" v:prompt="輸入本步驟的期間。" v:type="2" v:langID="1028"/>
					<v:cp v:nameU="Resources" v:lbl="資源" v:prompt="輸入完成本任務所需的人數。" v:langID="1028"/>
				</v:custProps>
				<path d="M0 589.92 A5.35079 5.35079 0 1 1 10.7 589.92 A5.35079 5.35079 0 1 1 0 589.92 Z" class="st20"/>
			</g>
		</g>
		<g id="group54-197" transform="translate(194.461,-137.933)" v:mID="54" v:groupContext="group">
			<title>工作表.54</title>
			<g id="shape50-198" v:mID="50" v:groupContext="shape">
				<title>工作表.50</title>
				<path d="M0 595.28 L29.73 595.28" class="st21"/>
			</g>
			<g id="shape53-201" v:mID="53" v:groupContext="shape" transform="translate(403.884,1058.75) rotate(143.13)">
				<title>工作表.53</title>
				<path d="M13.13 591.44 L13.48 591.34 A17.3962 13.1838 42.8 0 1 21.24 595.28" class="st5"/>
			</g>
		</g>
		<g id="group33-206" transform="translate(185.966,-101.831)" v:mID="33" v:groupContext="group">
			<title>工作表.33</title>
			<g id="shape28-207" v:mID="28" v:groupContext="shape" transform="translate(59.4607,1190.55) rotate(180)">
				<title>工作表.28</title>
				<path d="M13.68 595.28 L14.04 595.28 L50.97 595.28" class="st5"/>
			</g>
			<g id="shape34-212" v:mID="34" v:groupContext="shape">
				<title>工作表.34</title>
				<path d="M0 595.28 L29.73 595.28" class="st21"/>
			</g>
			<g id="shape58-215" v:mID="58" v:groupContext="shape" transform="translate(471.89,994.963) rotate(135)">
				<title>工作表.58</title>
				<path d="M12.97 590.92 L13.31 590.8 A22.7055 14.2849 17.84 0 1 30.03 595.28" class="st5"/>
			</g>
		</g>
		<g id="shape94-220" v:mID="94" v:groupContext="shape" transform="translate(571.5,-180)">
			<title>工作表.94</title>
			<path d="M13.68 595.28 L14.04 595.28 L50.97 595.28" class="st5"/>
		</g>
		<g id="shape98-225" v:mID="98" v:groupContext="shape" transform="translate(576,-108.506)">
			<title>工作表.98</title>
			<desc>新設乙組雙旋臂三色號誌 設於路燈後中央分隔島上</desc>
			<v:textBlock v:margins="rect(4,4,4,4)" v:tabSpace="42.5197"/>
			<v:textRect cx="58.6264" cy="586.781" width="117.26" height="16.9888"/>
			<text x="14.63" y="584.38" class="st16" v:langID="1028"><v:paragraph v:horizAlign="1"/><v:tabList/>新設乙組雙旋臂三色號誌<v:newlineChar/><tspan
						x="6.63" dy="1.2em" class="st17">（</tspan>設於路燈後中央分隔島上）</text>		</g>
		<g id="shape99-228" v:mID="99" v:groupContext="shape" transform="translate(945.492,-5.71495) rotate(41.1859)">
			<title>工作表.99</title>
			<path d="M0 595.28 L45.15 595.28" class="st22"/>
		</g>
		<g id="shape100-234" v:mID="100" v:groupContext="shape" transform="translate(355.5,-136.797)">
			<title>工作表.100</title>
			<desc>原有直立式號誌拆除移至新設號誌上並加裝左轉燈號</desc>
			<v:textBlock v:margins="rect(4,4,4,4)" v:tabSpace="42.5197"/>
			<v:textRect cx="31.9045" cy="579.073" width="63.81" height="32.4057"/>
			<text x="7.9" y="567.07" class="st16" v:langID="1028"><v:paragraph v:horizAlign="1"/><v:tabList/>原有直立式號<tspan x="7.9"
						dy="1.2em" class="st17">誌拆除移至新</tspan><tspan x="7.9" dy="1.2em" class="st17">設號誌上並加</tspan><tspan x="11.9"
						dy="1.2em" class="st17">裝左轉燈號</tspan></text>		</g>
		<g id="shape101-239" v:mID="101" v:groupContext="shape" transform="translate(549.072,1018.56) rotate(177.992)">
			<title>工作表.101</title>
			<path d="M0 595.28 L112.97 595.28" class="st22"/>
		</g>
		<g id="shape107-244" v:mID="107" v:groupContext="shape" transform="translate(-165.466,138.799) rotate(-51.2223)">
			<title>工作表.107</title>
			<path d="M0 595.28 L91.42 595.28" class="st23"/>
		</g>
		<g id="shape15-250" v:mID="15" v:groupContext="shape" v:layerMember="0" transform="translate(299.537,-282.337)">
			<title>單燈.15</title>
			<v:custProps>
				<v:cp v:nameU="Cost" v:lbl="成本" v:prompt="輸入與本處理程序相關的成本。" v:type="2" v:format="$###,###.00" v:langID="1028"/>
				<v:cp v:nameU="Duration" v:lbl="期間" v:prompt="輸入本步驟的期間。" v:type="2" v:langID="1028"/>
				<v:cp v:nameU="Resources" v:lbl="資源" v:prompt="輸入完成本任務所需的人數。" v:langID="1028"/>
			</v:custProps>
			<path d="M0 589.92 A5.35079 5.35079 0 0 1 10.7 589.92 A5.35079 5.35079 0 1 1 0 589.92 Z" class="st12"/>
		</g>
		<g id="group106-252" transform="translate(-296.675,527.672) rotate(-90)" v:mID="106" v:groupContext="group">
			<title>三色燈.13</title>
			<g id="shape108-253" v:mID="108" v:groupContext="shape" v:layerMember="0">
				<title>單燈</title>
				<desc>R</desc>
				<v:custProps>
					<v:cp v:nameU="Cost" v:lbl="成本" v:prompt="輸入與本處理程序相關的成本。" v:type="2" v:format="$###,###.00" v:langID="1028"/>
					<v:cp v:nameU="Duration" v:lbl="期間" v:prompt="輸入本步驟的期間。" v:type="2" v:langID="1028"/>
					<v:cp v:nameU="Resources" v:lbl="資源" v:prompt="輸入完成本任務所需的人數。" v:langID="1028"/>
				</v:custProps>
				<v:textBlock v:margins="rect(2,2,2,2)"/>
				<v:textRect cx="5.35079" cy="589.925" width="10.71" height="10.7016"/>
				<path d="M0 589.92 A5.35079 5.35079 0 0 1 10.7 589.92 A5.35079 5.35079 0 1 1 0 589.92 Z" class="st12"/>
				<text x="2.84" y="592.32" class="st13" v:langID="1028"><v:paragraph v:horizAlign="1"/><v:tabList/>R</text>			</g>
			<g id="shape109-256" v:mID="109" v:groupContext="shape" v:layerMember="0" transform="translate(10.7016,0)">
				<title>單燈.6</title>
				<desc>Y</desc>
				<v:custProps>
					<v:cp v:nameU="Cost" v:lbl="成本" v:prompt="輸入與本處理程序相關的成本。" v:type="2" v:format="$###,###.00" v:langID="1028"/>
					<v:cp v:nameU="Duration" v:lbl="期間" v:prompt="輸入本步驟的期間。" v:type="2" v:langID="1028"/>
					<v:cp v:nameU="Resources" v:lbl="資源" v:prompt="輸入完成本任務所需的人數。" v:langID="1028"/>
				</v:custProps>
				<v:textBlock v:margins="rect(2,2,2,2)"/>
				<v:textRect cx="5.35079" cy="589.925" width="10.71" height="10.7016"/>
				<path d="M0 589.92 A5.35079 5.35079 0 0 1 10.7 589.92 A5.35079 5.35079 0 1 1 0 589.92 Z" class="st12"/>
				<text x="2.64" y="592.32" class="st13" v:langID="1028"><v:paragraph v:horizAlign="1"/><v:tabList/>Y</text>			</g>
			<g id="shape110-259" v:mID="110" v:groupContext="shape" v:layerMember="0" transform="translate(21.4032,0)">
				<title>單燈.7</title>
				<desc>G</desc>
				<v:custProps>
					<v:cp v:nameU="Cost" v:lbl="成本" v:prompt="輸入與本處理程序相關的成本。" v:type="2" v:format="$###,###.00" v:langID="1028"/>
					<v:cp v:nameU="Duration" v:lbl="期間" v:prompt="輸入本步驟的期間。" v:type="2" v:langID="1028"/>
					<v:cp v:nameU="Resources" v:lbl="資源" v:prompt="輸入完成本任務所需的人數。" v:langID="1028"/>
				</v:custProps>
				<v:textBlock v:margins="rect(2,2,2,2)"/>
				<v:textRect cx="5.35079" cy="589.925" width="10.71" height="10.7016"/>
				<path d="M0 589.92 A5.35079 5.35079 0 0 1 10.7 589.92 A5.35079 5.35079 0 1 1 0 589.92 Z" class="st12"/>
				<text x="2.64" y="592.32" class="st13" v:langID="1028"><v:paragraph v:horizAlign="1"/><v:tabList/>G</text>			</g>
		</g>
		<g id="group104-262" transform="translate(139.247,-120.944)" v:mID="104" v:groupContext="group">
			<title>工作表.104</title>
			<g id="shape114-263" v:mID="114" v:groupContext="shape" transform="translate(0,-2.1236)">
				<title>工作表.114</title>
				<path d="M0 595.28 L131.66 595.28" class="st14"/>
			</g>
			<g id="shape115-266" v:mID="115" v:groupContext="shape">
				<title>工作表.115</title>
				<path d="M0 595.28 L131.66 595.28" class="st14"/>
			</g>
		</g>
		<g id="group16-269" transform="translate(139.247,-86.9663)" v:mID="16" v:groupContext="group">
			<title>工作表.16</title>
			<g id="shape36-270" v:mID="36" v:groupContext="shape" transform="translate(0,-2.1236)">
				<title>工作表.36</title>
				<path d="M0 595.28 L131.66 595.28" class="st14"/>
			</g>
			<g id="shape116-273" v:mID="116" v:groupContext="shape">
				<title>工作表.116</title>
				<path d="M0 595.28 L131.66 595.28" class="st14"/>
			</g>
		</g>
		<g id="shape117-276" v:mID="117" v:groupContext="shape" transform="translate(202.955,-299.326)">
			<title>工作表.117</title>
			<desc>原位置設置乙根拉線裝置架</desc>
			<v:textBlock v:margins="rect(4,4,4,4)" v:tabSpace="42.5197"/>
			<v:textRect cx="29.7303" cy="582.534" width="59.47" height="25.4831"/>
			<text x="5.73" y="580.13" class="st16" v:langID="1028"><v:paragraph v:horizAlign="1"/><v:tabList/>原位置設置乙<tspan x="5.73"
						dy="1.2em" class="st17">根拉線裝置架</tspan></text>		</g>
		<g id="shape121-279" v:mID="121" v:groupContext="shape" transform="translate(588.368,-216.338) rotate(33.6901)">
			<title>工作表.121</title>
			<path d="M0 595.28 L15.31 595.28" class="st23"/>
		</g>
		<g id="shape123-284" v:mID="123" v:groupContext="shape" transform="translate(-73.8077,-190.986) rotate(-35.7728)">
			<title>工作表.123</title>
			<desc>4c30m</desc>
			<v:textBlock v:margins="rect(4,4,4,4)" v:tabSpace="42.5197"/>
			<v:textRect cx="55.3446" cy="589.692" width="110.69" height="11.1678"/>
			<path d="M0 595.28 L110.69 595.28" class="st24"/>
			<text x="45.11" y="592.09" class="st25" v:langID="1028"><v:paragraph v:horizAlign="1"/><v:tabList/>4c30m</text>		</g>
		<g id="shape81-288" v:mID="81" v:groupContext="shape" v:layerMember="0" transform="translate(489.64,-40.2472)">
			<title>單燈.15.81</title>
			<v:custProps>
				<v:cp v:nameU="Cost" v:lbl="成本" v:prompt="輸入與本處理程序相關的成本。" v:type="2" v:format="$###,###.00" v:langID="1028"/>
				<v:cp v:nameU="Duration" v:lbl="期間" v:prompt="輸入本步驟的期間。" v:type="2" v:langID="1028"/>
				<v:cp v:nameU="Resources" v:lbl="資源" v:prompt="輸入完成本任務所需的人數。" v:langID="1028"/>
			</v:custProps>
			<path d="M0 593.15 A2.1236 2.1236 0 1 1 4.25 593.15 A2.1236 2.1236 0 1 1 -0 593.15 Z" class="st12"/>
		</g>
		<g id="shape132-290" v:mID="132" v:groupContext="shape" transform="translate(513,-36)">
			<title>工作表.132</title>
			<desc>設立乙根拉線裝置架</desc>
			<v:textBlock v:margins="rect(4,4,4,4)" v:tabSpace="42.5197"/>
			<v:textRect cx="27" cy="588.905" width="54" height="12.7416"/>
			<text x="7" y="586.5" class="st16" v:langID="1028"><v:paragraph v:horizAlign="1"/><v:tabList/>設立乙根拉<tspan x="11"
						dy="1.2em" class="st17">線裝置架</tspan></text>		</g>
		<g id="shape133-293" v:mID="133" v:groupContext="shape" transform="translate(475.839,1148.55) rotate(-175.601)">
			<title>工作表.133</title>
			<path d="M0 595.28 L27.69 595.28" class="st23"/>
		</g>
		<g id="shape134-298" v:mID="134" v:groupContext="shape" transform="translate(314.369,-46.6728) rotate(2.16555)">
			<title>工作表.134</title>
			<desc>12c60m</desc>
			<v:textBlock v:margins="rect(4,4,4,4)" v:tabSpace="42.5197"/>
			<v:textRect cx="98.9014" cy="592.526" width="197.81" height="5.4984"/>
			<path d="M0 595.28 L197.8 595.28" class="st24"/>
			<text x="86.79" y="594.93" class="st25" v:langID="1028"><v:paragraph v:horizAlign="1"/><v:tabList/>12c60m</text>		</g>
		<g id="shape135-302" v:mID="135" v:groupContext="shape" transform="translate(-35.781,279.733) rotate(-62.8062)">
			<title>工作表.135</title>
			<desc>12c15m</desc>
			<v:textBlock v:margins="rect(4,4,4,4)" v:tabSpace="42.5197"/>
			<v:textRect cx="60.5764" cy="593.103" width="121.16" height="4.34527"/>
			<path d="M0 595.28 L121.15 595.28" class="st24"/>
			<text x="48.47" y="595.5" class="st25" v:langID="1028"><v:paragraph v:horizAlign="1"/><v:tabList/>12c15m</text>		</g>
		<g id="group78-306" transform="translate(1134.16,450.365) rotate(90)" v:mID="78" v:groupContext="group">
			<title>四色燈.78</title>
			<g id="shape102-307" v:mID="102" v:groupContext="shape" v:layerMember="0">
				<title>單燈.6</title>
				<desc>R</desc>
				<v:custProps>
					<v:cp v:nameU="Cost" v:lbl="成本" v:prompt="輸入與本處理程序相關的成本。" v:type="2" v:format="$###,###.00" v:langID="1028"/>
					<v:cp v:nameU="Duration" v:lbl="期間" v:prompt="輸入本步驟的期間。" v:type="2" v:langID="1028"/>
					<v:cp v:nameU="Resources" v:lbl="資源" v:prompt="輸入完成本任務所需的人數。" v:langID="1028"/>
				</v:custProps>
				<v:textBlock v:margins="rect(2,2,2,2)"/>
				<v:textRect cx="4.55743" cy="589.925" width="9.12" height="10.7016"/>
				<path d="M0 589.92 A4.55743 5.35079 0 0 1 9.11 589.92 A4.55743 5.35079 0 0 1 0 589.92 Z" class="st12"/>
				<text x="2.05" y="592.32" class="st13" v:langID="1028"><v:paragraph v:horizAlign="1"/><v:tabList/>R</text>			</g>
			<g id="shape103-310" v:mID="103" v:groupContext="shape" v:layerMember="0" transform="translate(9.11486,0)">
				<title>單燈.7</title>
				<desc>Y</desc>
				<v:custProps>
					<v:cp v:nameU="Cost" v:lbl="成本" v:prompt="輸入與本處理程序相關的成本。" v:type="2" v:format="$###,###.00" v:langID="1028"/>
					<v:cp v:nameU="Duration" v:lbl="期間" v:prompt="輸入本步驟的期間。" v:type="2" v:langID="1028"/>
					<v:cp v:nameU="Resources" v:lbl="資源" v:prompt="輸入完成本任務所需的人數。" v:langID="1028"/>
				</v:custProps>
				<v:textBlock v:margins="rect(2,2,2,2)"/>
				<v:textRect cx="4.55743" cy="589.925" width="9.12" height="10.7016"/>
				<path d="M0 589.92 A4.55743 5.35079 0 0 1 9.11 589.92 A4.55743 5.35079 0 0 1 0 589.92 Z" class="st12"/>
				<text x="2" y="592.32" class="st13" v:langID="1028"><v:paragraph v:horizAlign="1"/><v:tabList/>Y</text>			</g>
			<g id="shape105-313" v:mID="105" v:groupContext="shape" v:layerMember="0" transform="translate(18.2297,-1.13687E-013)">
				<title>單燈</title>
				<desc>G</desc>
				<v:custProps>
					<v:cp v:nameU="Cost" v:lbl="成本" v:prompt="輸入與本處理程序相關的成本。" v:type="2" v:format="$###,###.00" v:langID="1028"/>
					<v:cp v:nameU="Duration" v:lbl="期間" v:prompt="輸入本步驟的期間。" v:type="2" v:langID="1028"/>
					<v:cp v:nameU="Resources" v:lbl="資源" v:prompt="輸入完成本任務所需的人數。" v:langID="1028"/>
				</v:custProps>
				<v:textBlock v:margins="rect(2,2,2,2)"/>
				<v:textRect cx="4.55743" cy="589.925" width="9.12" height="10.7016"/>
				<path d="M0 589.92 A4.55743 5.35079 0 0 1 9.11 589.92 A4.55743 5.35079 0 0 1 0 589.92 Z" class="st12"/>
				<text x="2" y="592.32" class="st13" v:langID="1028"><v:paragraph v:horizAlign="1"/><v:tabList/>G</text>			</g>
		</g>
		<g id="group69-316" transform="translate(538.884,-115.18)" v:mID="69" v:groupContext="group">
			<title>工作表.69</title>
			<g id="group41-317" transform="translate(5.90259,0)" v:mID="41" v:groupContext="group">
				<title>180度雙桿.12</title>
				<g id="shape42-318" v:mID="42" v:groupContext="shape" v:layerMember="1"
						transform="translate(-589.925,512.455) rotate(-90) scale(-1,1)">
					<title>線型連接器</title>
					<path d="M0 595.28 L37.65 595.28" class="st14"/>
				</g>
				<g id="shape43-321" v:mID="43" v:groupContext="shape" v:layerMember="0" transform="translate(5.9952E-015,-37.6456)">
					<title>連接器</title>
					<v:custProps>
						<v:cp v:nameU="Cost" v:lbl="成本" v:prompt="輸入與本處理程序相關的成本。" v:type="2" v:format="$###,###.00" v:langID="1028"/>
						<v:cp v:nameU="Duration" v:lbl="期間" v:prompt="輸入本步驟的期間。" v:type="2" v:langID="1028"/>
						<v:cp v:nameU="Resources" v:lbl="資源" v:prompt="輸入完成本任務所需的人數。" v:langID="1028"/>
					</v:custProps>
					<path d="M0 591.51 A5.35079 3.76456 0 1 1 10.7 591.51 A5.35079 3.76456 0 1 1 0 591.51 Z" class="st12"/>
				</g>
				<g id="shape44-323" v:mID="44" v:groupContext="shape" v:layerMember="1"
						transform="translate(-589.925,557.63) rotate(-90) scale(-1,1)">
					<title>線型連接器.5</title>
					<path d="M0 595.28 L37.65 595.28" class="st14"/>
				</g>
			</g>
			<g id="group45-326" transform="translate(-576.799,544.834) rotate(-90)" v:mID="45" v:groupContext="group">
				<title>三色燈.13</title>
				<g id="shape46-327" v:mID="46" v:groupContext="shape" v:layerMember="0">
					<title>單燈</title>
					<desc>R</desc>
					<v:custProps>
						<v:cp v:nameU="Cost" v:lbl="成本" v:prompt="輸入與本處理程序相關的成本。" v:type="2" v:format="$###,###.00" v:langID="1028"/>
						<v:cp v:nameU="Duration" v:lbl="期間" v:prompt="輸入本步驟的期間。" v:type="2" v:langID="1028"/>
						<v:cp v:nameU="Resources" v:lbl="資源" v:prompt="輸入完成本任務所需的人數。" v:langID="1028"/>
					</v:custProps>
					<v:textBlock v:margins="rect(2,2,2,2)"/>
					<v:textRect cx="4.96859" cy="589.925" width="9.94" height="10.7016"/>
					<path d="M0 589.92 A4.96859 5.35079 0 0 1 9.94 589.92 A4.96859 5.35079 0 0 1 0 589.92 Z" class="st12"/>
					<text x="2.46" y="592.32" class="st13" v:langID="1028"><v:paragraph v:horizAlign="1"/><v:tabList/>R</text>				</g>
				<g id="shape47-330" v:mID="47" v:groupContext="shape" v:layerMember="0" transform="translate(9.93718,0)">
					<title>單燈.6</title>
					<desc>Y</desc>
					<v:custProps>
						<v:cp v:nameU="Cost" v:lbl="成本" v:prompt="輸入與本處理程序相關的成本。" v:type="2" v:format="$###,###.00" v:langID="1028"/>
						<v:cp v:nameU="Duration" v:lbl="期間" v:prompt="輸入本步驟的期間。" v:type="2" v:langID="1028"/>
						<v:cp v:nameU="Resources" v:lbl="資源" v:prompt="輸入完成本任務所需的人數。" v:langID="1028"/>
					</v:custProps>
					<v:textBlock v:margins="rect(2,2,2,2)"/>
					<v:textRect cx="4.96859" cy="589.925" width="9.94" height="10.7016"/>
					<path d="M0 589.92 A4.96859 5.35079 0 0 1 9.94 589.92 A4.96859 5.35079 0 0 1 0 589.92 Z" class="st12"/>
					<text x="2.26" y="592.32" class="st13" v:langID="1028"><v:paragraph v:horizAlign="1"/><v:tabList/>Y</text>				</g>
				<g id="shape48-333" v:mID="48" v:groupContext="shape" v:layerMember="0" transform="translate(19.8744,0)">
					<title>單燈.7</title>
					<desc>G</desc>
					<v:custProps>
						<v:cp v:nameU="Cost" v:lbl="成本" v:prompt="輸入與本處理程序相關的成本。" v:type="2" v:format="$###,###.00" v:langID="1028"/>
						<v:cp v:nameU="Duration" v:lbl="期間" v:prompt="輸入本步驟的期間。" v:type="2" v:langID="1028"/>
						<v:cp v:nameU="Resources" v:lbl="資源" v:prompt="輸入完成本任務所需的人數。" v:langID="1028"/>
					</v:custProps>
					<v:textBlock v:margins="rect(2,2,2,2)"/>
					<v:textRect cx="4.96859" cy="589.925" width="9.94" height="10.7016"/>
					<path d="M0 589.92 A4.96859 5.35079 0 0 1 9.94 589.92 A4.96859 5.35079 0 0 1 0 589.92 Z" class="st12"/>
					<text x="2.26" y="592.32" class="st13" v:langID="1028"><v:paragraph v:horizAlign="1"/><v:tabList/>G</text>				</g>
			</g>
		</g>
		<g id="group113-336" transform="translate(513,-151.994)" v:mID="113" v:groupContext="group">
			<title>工作表.113</title>
			<g id="group124-337" transform="translate(464.994,186.922) rotate(51.7)" v:mID="124" v:groupContext="group">
				<title>四色燈.124</title>
				<g id="shape125-338" v:mID="125" v:groupContext="shape" v:layerMember="0" transform="translate(32.4424,-2.31441)">
					<title>單燈.6</title>
					<desc>R</desc>
					<v:custProps>
						<v:cp v:nameU="Cost" v:lbl="成本" v:prompt="輸入與本處理程序相關的成本。" v:type="2" v:format="$###,###.00" v:langID="1028"/>
						<v:cp v:nameU="Duration" v:lbl="期間" v:prompt="輸入本步驟的期間。" v:type="2" v:langID="1028"/>
						<v:cp v:nameU="Resources" v:lbl="資源" v:prompt="輸入完成本任務所需的人數。" v:langID="1028"/>
					</v:custProps>
					<v:textBlock v:margins="rect(2,2,2,2)"/>
					<v:textRect cx="5.35079" cy="589.925" width="10.71" height="10.7016"/>
					<path d="M0 589.92 A5.35079 5.35079 0 1 1 10.7 589.92 A5.35079 5.35079 0 0 1 0 589.92 Z" class="st12"/>
					<text x="2.84" y="592.32" class="st13" v:langID="1028"><v:paragraph v:horizAlign="1"/><v:tabList/>R</text>				</g>
				<g id="shape126-341" v:mID="126" v:groupContext="shape" v:layerMember="0" transform="translate(20.9488,-1.37473)">
					<title>單燈.7</title>
					<desc>Y</desc>
					<v:custProps>
						<v:cp v:nameU="Cost" v:lbl="成本" v:prompt="輸入與本處理程序相關的成本。" v:type="2" v:format="$###,###.00" v:langID="1028"/>
						<v:cp v:nameU="Duration" v:lbl="期間" v:prompt="輸入本步驟的期間。" v:type="2" v:langID="1028"/>
						<v:cp v:nameU="Resources" v:lbl="資源" v:prompt="輸入完成本任務所需的人數。" v:langID="1028"/>
					</v:custProps>
					<v:textBlock v:margins="rect(2,2,2,2)"/>
					<v:textRect cx="5.35079" cy="589.925" width="10.71" height="10.7016"/>
					<path d="M0 589.92 A5.35079 5.35079 0 1 1 10.7 589.92 A5.35079 5.35079 0 0 1 0 589.92 Z" class="st12"/>
					<text x="2.64" y="592.32" class="st13" v:langID="1028"><v:paragraph v:horizAlign="1"/><v:tabList/>Y</text>				</g>
				<g id="shape127-344" v:mID="127" v:groupContext="shape" v:layerMember="0"
						transform="translate(605.195,583.108) rotate(90)">
					<title>單燈.8</title>
					<desc>←</desc>
					<v:custProps>
						<v:cp v:nameU="Cost" v:lbl="成本" v:prompt="輸入與本處理程序相關的成本。" v:type="2" v:format="$###,###.00" v:langID="1028"/>
						<v:cp v:nameU="Duration" v:lbl="期間" v:prompt="輸入本步驟的期間。" v:type="2" v:langID="1028"/>
						<v:cp v:nameU="Resources" v:lbl="資源" v:prompt="輸入完成本任務所需的人數。" v:langID="1028"/>
					</v:custProps>
					<v:textBlock v:margins="rect(2,2,2,2)"/>
					<v:textRect cx="5.35079" cy="589.925" width="10.71" height="10.7016"/>
					<path d="M0 589.92 A5.35079 5.35079 0 1 1 10.7 589.92 A5.35079 5.35079 0 0 1 0 589.92 Z" class="st12"/>
					<text x="2" y="592.32" class="st13" v:langID="1028"><v:paragraph v:horizAlign="1"/><v:tabList/>←</text>				</g>
			</g>
			<g id="shape95-347" v:mID="95" v:groupContext="shape" transform="translate(-397.86,1004.57) rotate(-133.438)">
				<title>工作表.95</title>
				<path d="M0 595.28 L48.74 595.28" class="st14"/>
			</g>
		</g>
		<g id="shape24-350" v:mID="24" v:groupContext="shape" transform="translate(1051.03,-8.87518) rotate(61.2166)">
			<title>工作表.24</title>
			<path d="M0 595.28 L29.4 595.28" class="st9"/>
		</g>
		<g id="shape138-353" v:mID="138" v:groupContext="shape" transform="translate(1043.75,-47.6861) rotate(58.5423)">
			<title>工作表.138</title>
			<path d="M0 595.28 L14.15 595.28" class="st9"/>
		</g>
		<g id="shape139-356" v:mID="139" v:groupContext="shape" transform="translate(136.801,933.695) rotate(179.827)">
			<title>工作表.139</title>
			<path d="M0 595.28 L117 595.28" class="st2"/>
		</g>
		<g id="shape140-359" v:mID="140" v:groupContext="shape" transform="translate(139.5,1069.05) rotate(180)">
			<title>工作表.140</title>
			<path d="M0 595.28 L121.5 595.28" class="st26"/>
		</g>
		<g id="shape141-362" v:mID="141" v:groupContext="shape" transform="translate(139.5,1102.8) rotate(180)">
			<title>工作表.141</title>
			<path d="M0 595.28 L121.5 595.28" class="st26"/>
		</g>
		<g id="shape63-365" v:mID="63" v:groupContext="shape" v:layerMember="0" transform="translate(646.679,-292.64) rotate(30)">
			<title>單燈.8</title>
			<desc>←</desc>
			<v:custProps>
				<v:cp v:nameU="Cost" v:lbl="成本" v:prompt="輸入與本處理程序相關的成本。" v:type="2" v:format="$###,###.00" v:langID="1028"/>
				<v:cp v:nameU="Duration" v:lbl="期間" v:prompt="輸入本步驟的期間。" v:type="2" v:langID="1028"/>
				<v:cp v:nameU="Resources" v:lbl="資源" v:prompt="輸入完成本任務所需的人數。" v:langID="1028"/>
			</v:custProps>
			<v:textBlock v:margins="rect(2,2,2,2)"/>
			<v:textRect cx="5.35079" cy="589.925" width="10.71" height="10.7016"/>
			<path d="M0 589.92 A5.35079 5.35079 0 0 1 10.7 589.92 A5.35079 5.35079 0 1 1 0 589.92 Z" class="st12"/>
			<text x="2" y="592.32" class="st13" v:langID="1028"><v:paragraph v:horizAlign="1"/><v:tabList/>←</text>		</g>
		<g id="shape143-368" v:mID="143" v:groupContext="shape" v:layerMember="0"
				transform="translate(148.246,-55.0655) rotate(-38.3)">
			<title>單燈.143</title>
			<desc>←</desc>
			<v:custProps>
				<v:cp v:nameU="Cost" v:lbl="成本" v:prompt="輸入與本處理程序相關的成本。" v:type="2" v:format="$###,###.00" v:langID="1028"/>
				<v:cp v:nameU="Duration" v:lbl="期間" v:prompt="輸入本步驟的期間。" v:type="2" v:langID="1028"/>
				<v:cp v:nameU="Resources" v:lbl="資源" v:prompt="輸入完成本任務所需的人數。" v:langID="1028"/>
			</v:custProps>
			<v:textBlock v:margins="rect(2,2,2,2)"/>
			<v:textRect cx="5.35079" cy="589.925" width="10.71" height="10.7016"/>
			<path d="M0 589.92 A5.35079 5.35079 0 1 1 10.7 589.92 A5.35079 5.35079 0 0 1 0 589.92 Z" class="st12"/>
			<text x="2" y="592.32" class="st13" v:langID="1028"><v:paragraph v:horizAlign="1"/><v:tabList/>←</text>		</g>
	</g>
</svg>
