<?xml version="1.0" encoding="utf-8"?>
<!-- Generator: Adobe Illustrator 14.0.0, SVG Export Plug-In . SVG Version: 6.00 Build 43363)  -->
<!DOCTYPE svg PUBLIC "-//W3C//DTD SVG 1.1//EN" "http://www.w3.org/Graphics/SVG/1.1/DTD/svg11.dtd">
<svg version="1.1" id="Layer_1" xmlns="http://www.w3.org/2000/svg" xmlns:xlink="http://www.w3.org/1999/xlink" x="0px" y="0px"
	 width="800px" height="600px" viewBox="0 0 800 600" enable-background="new 0 0 800 600" xml:space="preserve">
<g>
	<polygon fill-rule="evenodd" clip-rule="evenodd" fill="#00A652" points="189.301,55.601 188.801,54.551 188.301,53.701 
		187.75,52.851 187.201,52.201 186.551,51.551 185.9,51.101 185.15,50.651 184.4,50.401 183.5,50.151 182.6,50.001 181.65,49.951 
		180.701,50.101 179.65,50.251 178.6,50.501 177.451,50.851 176.301,51.351 175.1,50.601 173.951,50.051 172.701,49.551 
		171.451,49.201 170.1,48.851 168.75,48.651 167.35,48.501 165.951,48.501 164.4,48.501 162.9,48.651 161.301,48.851 
		159.701,49.201 158,49.551 156.301,50.051 154.551,50.601 152.801,51.351 151.35,51.151 150.051,51.101 148.85,51.151 
		147.801,51.401 147.25,51.501 146.801,51.701 145.951,52.151 145.201,52.751 144.551,53.501 144,54.301 143.551,55.251 
		143.201,56.301 143.051,57.501 142.9,58.801 142.951,60.251 142.951,61.001 143.051,61.851 143.301,63.601 141.9,62.551 
		140.6,61.901 139.201,61.451 137.9,61.351 136.5,61.451 135.201,61.901 133.801,62.551 132.5,63.601 132.701,64.201 132.85,64.801 
		132.951,65.401 132.951,65.701 132.951,65.851 133,66.051 132.951,66.151 132.951,66.301 132.951,66.601 132.85,67.201 
		132.65,67.801 132.4,68.401 132.051,68.901 131.65,69.451 130.65,70.551 129.35,71.551 128.6,72.051 127.801,72.601 128.9,72.801 
		129.85,73.101 130.65,73.451 131.301,73.901 131.701,74.351 131.951,74.851 132.051,75.401 131.951,76.051 131.65,76.651 
		131.15,77.351 130.5,78.101 129.701,78.901 128.65,79.701 127.451,80.601 126.051,81.551 124.551,82.601 126.051,81.551 
		127.451,80.601 128.65,79.701 129.701,78.901 130.5,78.101 131.15,77.351 131.65,76.651 131.951,76.051 132.051,75.401 
		131.951,74.851 131.701,74.351 131.301,73.901 130.65,73.451 129.85,73.101 128.9,72.801 127.801,72.601 128.6,72.051 
		129.35,71.551 130.65,70.551 131.65,69.451 132.051,68.901 132.4,68.401 132.65,67.801 132.85,67.201 132.951,66.601 
		132.951,66.301 132.951,66.151 133,66.051 132.951,65.851 132.951,65.701 132.951,65.401 132.85,64.801 132.701,64.201 
		132.5,63.601 132.15,62.901 131.75,62.251 131.25,61.551 130.951,61.201 130.701,60.901 130.051,60.201 129.35,59.501 
		128.6,58.801 127.801,58.101 127.65,56.651 127.5,55.351 127.301,54.101 127.1,52.951 126.801,51.801 126.5,50.801 126.15,49.801 
		125.801,48.951 125.35,48.051 124.9,47.301 124.35,46.551 123.85,45.951 123.25,45.351 122.65,44.851 121.951,44.401 
		121.301,44.101 121.051,42.751 120.85,41.501 120.551,40.301 120.25,39.201 119.85,38.101 119.451,37.101 118.951,36.101 
		118.5,35.201 117.9,34.301 117.35,33.501 116.701,32.701 116.1,32.001 115.351,31.301 114.65,30.701 113.851,30.101 113.05,29.601 
		113.101,27.851 113.05,26.301 112.9,24.851 112.8,24.151 112.75,23.551 112.451,22.351 112.101,21.301 111.65,20.351 
		111.201,19.601 110.851,19.201 110.55,18.901 109.851,18.351 109.101,17.901 108.25,17.651 107.3,17.501 106.3,17.501 
		105.201,17.601 104.05,17.851 102.9,16.801 101.701,15.951 101.05,15.551 100.451,15.251 99.201,14.801 97.851,14.451 
		96.451,14.351 95.701,14.301 95,14.351 93.55,14.601 92.8,14.801 92.101,15.001 91.3,15.151 90.55,15.351 88.951,15.501 
		88.5,15.501 88.101,15.551 87.3,15.601 86.4,15.551 86.25,15.501 86.15,15.501 85.951,15.501 85.55,15.501 84.601,15.401 
		83.701,15.351 82.701,15.151 82.201,15.051 82.05,15.001 81.951,15.001 81.75,15.001 80.75,14.801 79.8,14.601 78.601,14.051 
		77.5,13.701 76.4,13.451 75.3,13.301 73.101,13.251 72.05,13.401 71.05,13.651 70,13.901 69,14.351 68,14.901 67.05,15.551 
		65.101,17.101 64.201,18.051 63.3,19.101 63,19.751 62.701,20.451 62.3,21.051 61.951,21.651 61.5,22.151 61.351,22.251 
		61.25,22.401 61.05,22.701 60.75,22.901 60.601,23.001 60.5,23.151 60.201,23.351 60.05,23.451 59.951,23.601 59.75,23.651 
		59.601,23.751 59.3,23.951 59.101,24.001 58.951,24.101 58.65,24.301 58.25,24.401 58.05,24.451 57.9,24.551 57.201,24.801 
		56.4,24.951 55.601,25.151 54.701,25.251 53.8,25.351 52.55,24.351 51.451,23.601 50.351,23.001 49.4,22.651 48.451,22.351 
		47.65,22.301 46.851,22.401 46.201,22.751 45.55,23.151 45.05,23.801 44.601,24.601 44.25,25.651 43.9,26.751 43.701,28.101 
		43.55,29.601 43.55,31.351 41.65,33.451 40,35.701 38.5,37.951 37.201,40.401 36,42.851 35,45.451 34.15,48.101 33.55,50.851 
		31.3,52.051 29.3,53.251 27.5,54.451 26,55.701 24.65,56.901 23.601,58.201 22.75,59.451 22.15,60.751 21.701,61.951 21.55,63.251 
		21.601,64.551 21.9,65.851 22.4,67.151 23.15,68.451 24.101,69.751 25.3,71.101 26.201,72.601 26.9,74.201 27.3,75.701 
		27.4,76.501 27.451,77.301 27.4,78.001 27.3,78.801 26.9,80.401 26.201,82.001 25.3,83.601 24.4,83.951 23.601,84.451 
		22.851,85.001 22.201,85.701 21.55,86.351 21.05,87.151 20.55,88.001 20.201,89.001 19.8,89.951 19.5,91.101 19.25,92.251 
		19.101,93.551 18.951,94.851 18.951,96.301 18.951,97.751 19.05,99.351 18.05,100.301 17.15,101.301 16.25,102.251 15.451,103.251 
		13.851,105.151 13.101,106.051 12.451,107.001 11.101,108.751 9.951,110.451 8.9,112.101 8.05,113.701 7.25,115.201 6.9,115.901 
		6.65,116.651 6.15,118.051 5.8,119.401 5.55,120.651 5.5,121.901 5.55,123.051 5.601,123.601 5.75,124.201 6.05,125.201 
		6.5,126.151 7.05,127.051 7.8,127.901 8.65,128.651 9.101,129.001 9.65,129.401 10.15,129.701 10.75,130.051 11.351,130.351 
		12.05,130.701 13.4,131.201 14.951,131.701 16.601,132.101 18.4,132.501 19.3,132.601 20.3,132.751 21.3,132.851 22.4,133.001 
		23.451,133.051 24.601,133.151 26.951,133.301 27.55,131.651 28.3,130.251 29.05,128.951 29.951,127.851 30.851,126.851 
		31.851,126.051 32.9,125.351 34.101,124.901 35.25,124.501 36.55,124.301 37.9,124.251 39.351,124.401 40.8,124.601 42.4,125.051 
		44.05,125.601 45.8,126.351 47.3,124.601 48,123.851 48.75,123.201 49.4,122.551 50.101,122.001 51.4,121.151 51.951,120.751 
		52.55,120.501 53.65,120.201 54.101,120.101 54.601,120.151 55.05,120.251 55.55,120.451 55.9,120.601 56.3,120.901 56.65,121.251 
		57.05,121.701 57.351,122.151 57.701,122.701 57.951,123.301 58.25,124.051 58.451,124.751 58.701,125.601 58.851,126.501 
		59.05,127.501 59.15,128.501 59.3,129.651 59.4,130.801 59.55,132.101 60.601,131.651 61.701,131.301 62.701,131.001 
		63.75,130.801 64.701,130.601 65.701,130.501 66.65,130.401 67.65,130.401 68.5,130.401 69.4,130.501 70.25,130.601 71.15,130.801 
		72.75,131.301 73.5,131.651 74.3,132.101 73.8,129.851 73.55,127.851 73.451,126.851 73.451,125.951 73.65,124.301 73.951,122.751 
		74.15,122.051 74.451,121.451 75.15,120.301 76.101,119.401 77.15,118.551 77.75,118.201 78.451,117.951 79.951,117.501 
		80.75,117.351 81.65,117.301 82.5,117.201 83.451,117.201 85.55,117.351 87.8,117.601 89,117.801 90.3,118.101 91.451,117.551 
		92.55,117.201 93.05,117.051 93.601,117.001 94.601,116.951 95.5,117.001 96.4,117.201 97.25,117.551 98.05,118.101 97.4,115.851 
		96.951,113.751 96.601,111.751 96.4,109.901 96.3,108.151 96.351,106.501 96.55,104.951 96.9,103.601 97.3,102.251 97.9,101.101 
		98.201,100.501 98.601,100.001 99.5,99.051 100.451,98.201 101.601,97.451 102.851,96.801 104.3,96.351 104.4,94.901 
		104.601,93.601 105.05,91.251 105.601,89.101 106.351,87.351 106.701,86.501 107.15,85.851 108.101,84.701 109.15,83.851 
		110.4,83.301 111.65,83.051 113.101,83.101 114.65,83.451 115.451,83.701 116.35,84.101 118.1,85.051 119.051,85.601 
		120.051,86.351 122.1,87.901 123.15,88.801 124.301,89.851 126,90.451 127.551,91.201 128.951,91.951 130.201,92.901 
		131.25,93.851 132.15,94.951 132.85,96.101 133.451,97.351 133.801,98.601 134,100.051 134.051,101.501 133.951,103.151 
		133.65,104.801 133.201,106.551 132.551,108.401 131.801,110.351 131.301,111.801 130.801,113.251 130.201,114.601 129.65,115.901 
		129.451,116.151 129.301,116.451 129,117.051 128.801,117.301 128.65,117.601 128.35,118.201 127.951,118.701 127.75,118.951 
		127.6,119.251 127.201,119.701 126.85,120.201 126.4,120.601 126,121.051 125.85,121.101 125.75,121.201 125.551,121.401 
		125.15,121.801 124.201,122.501 123.301,123.151 123,123.251 122.85,123.301 122.75,123.401 122.25,123.701 121.25,124.151 
		120.15,124.501 119.051,124.851 119.051,125.701 119.051,126.501 119,126.551 119,126.651 119,126.851 119,127.251 118.9,128.001 
		118.701,128.601 118.451,129.201 118.15,129.751 117.85,130.251 117.4,130.651 117.301,130.651 117.25,130.701 117.15,130.801 
		116.951,131.001 116.401,131.301 116.1,131.401 116,131.401 115.951,131.451 115.851,131.551 115.65,131.551 115.55,131.551 
		115.5,131.601 115.201,131.701 114.5,131.851 114.101,131.851 113.9,131.851 113.8,131.851 113.75,131.901 113.351,131.901 
		113.15,131.901 113.05,131.901 113,131.951 112.75,132.351 112.601,132.551 112.5,132.801 112.15,133.201 111.851,133.651 
		111.75,133.651 111.701,133.701 111.601,133.801 111.4,134.001 111,134.401 110.5,134.701 110.4,134.701 110.351,134.751 
		110.25,134.851 110.05,135.051 109.451,135.301 108.9,135.601 108.25,135.801 107.9,135.901 107.601,136.051 107.201,136.101 
		106.851,136.201 106.101,136.401 104.5,136.701 104.9,140.551 105.351,144.151 105.9,147.651 106.5,151.001 107.201,154.301 
		107.9,157.351 108.701,160.351 109.5,163.15 110.451,165.9 111.351,168.4 112.4,170.851 113.451,173.101 114.65,175.301 
		115.8,177.301 117.1,179.201 118.4,180.951 119.801,182.601 120.801,181.65 121.85,180.751 123.951,178.9 124.951,177.9 
		125.451,177.4 125.701,177.15 126,176.951 128.1,175.051 130.1,173.001 132.1,171.001 134.051,168.9 136.051,166.851 137.9,164.65 
		139.801,162.451 140.701,161.301 141.65,160.201 142.551,159.051 143.5,157.951 144.35,156.751 145.25,155.601 147.051,153.251 
		148.801,150.851 150.551,148.451 149.801,148.251 149.201,148.051 148.6,147.751 148.15,147.401 147.701,146.951 147.35,146.501 
		147.051,145.951 146.9,145.351 146.701,144.651 146.6,143.901 146.551,143.101 146.65,142.251 146.75,141.301 146.951,140.301 
		147.201,139.201 147.551,138.101 146.65,138.201 145.85,138.351 145.051,138.401 144.35,138.501 143.6,138.501 142.951,138.551 
		141.801,138.501 140.75,138.351 139.9,138.101 139.15,137.751 138.85,137.501 138.65,137.301 138.201,136.651 137.951,136.001 
		137.85,135.601 137.85,135.251 137.85,134.801 137.951,134.401 138,133.851 138.15,133.351 138.301,132.801 138.551,132.301 
		138.75,131.701 139.051,131.101 139.801,129.851 140.1,128.901 140.551,128.051 141,127.251 141.6,126.601 142.15,125.951 
		142.85,125.451 143.551,125.001 144.4,124.701 145.201,124.351 146.1,124.151 147.051,124.001 148.1,124.001 149.15,124.001 
		150.301,124.151 151.5,124.301 152.801,124.601 155,124.951 156.1,125.101 156.35,125.101 156.65,125.151 157.25,125.251 
		157.75,125.251 158,125.251 158.301,125.301 159.4,125.401 161.6,125.501 162.6,125.451 163.1,125.401 163.65,125.401 
		165.75,125.251 167.75,124.951 168.75,124.751 169.25,124.651 169.35,124.601 169.5,124.601 169.801,124.601 170.5,123.451 
		171.35,122.401 172.301,121.451 172.801,121.001 173.4,120.651 174.6,119.901 175.951,119.251 177.4,118.701 179.051,118.351 
		179.9,117.301 180.75,116.351 181.551,115.451 182.4,114.701 183.15,113.951 183.9,113.351 184.6,112.801 185.35,112.401 
		185.951,111.951 186.551,111.651 187.1,111.401 187.701,111.301 188.201,111.201 188.701,111.251 189.15,111.301 189.65,111.501 
		190,111.701 190.35,112.051 190.65,112.401 191,112.901 191.201,113.451 191.451,114.101 191.65,114.801 191.85,115.651 
		191.951,116.501 192.051,117.451 192.1,118.451 192.201,119.601 192.15,120.751 192.15,122.051 192.1,123.401 192.051,124.851 
		197.301,124.851 197.85,122.951 198.6,121.251 199.5,119.701 200,119.001 200.6,118.401 201.75,117.201 203.1,116.251 
		203.801,115.801 204.6,115.451 205.4,115.101 206.301,114.851 205.4,114.801 204.65,114.651 203.9,114.401 203.301,114.051 
		202.701,113.601 202.25,113.051 201.801,112.401 201.5,111.701 201.201,110.851 201.051,109.901 200.9,108.851 200.9,107.801 
		200.9,106.551 201.051,105.251 201.201,103.801 201.551,102.351 201.301,101.401 201.15,100.551 201,98.951 200.951,98.201 
		201,97.551 201.1,96.901 201.301,96.351 201.451,95.801 201.701,95.351 202,94.901 202.4,94.551 202.75,94.201 203.201,93.951 
		204.301,93.601 203.35,92.801 202.551,92.101 201.9,91.401 201.35,90.701 200.9,90.001 200.6,89.351 200.451,88.701 200.4,88.101 
		200.451,87.451 200.6,86.851 200.9,86.251 201.35,85.701 201.9,85.101 202.551,84.601 203.35,84.101 204.301,83.601 
		204.301,82.501 204.4,81.551 204.551,80.751 204.75,80.101 204.951,79.501 205.25,79.051 205.551,78.751 205.951,78.601 
		206.35,78.501 206.801,78.551 207.301,78.701 207.9,79.001 208.451,79.351 209.1,79.901 209.801,80.551 210.551,81.351 
		211.15,80.351 211.701,79.401 212.1,78.451 212.4,77.551 212.5,76.651 212.5,75.801 212.35,74.951 212.15,74.151 211.701,73.301 
		211.201,72.501 210.5,71.751 209.75,71.051 208.801,70.301 207.75,69.601 206.551,68.951 205.301,68.351 205.35,66.501 
		205.301,65.601 205.301,64.801 205.051,63.251 204.9,62.501 204.75,61.851 204.451,61.151 204.201,60.551 203.6,59.401 
		203.201,58.851 202.801,58.401 201.9,57.551 200.801,56.801 200.201,56.451 199.6,56.201 198.201,55.751 197.451,55.551 
		196.75,55.451 195.9,55.301 195.051,55.251 193.301,55.201 192.301,55.201 191.35,55.301 190.301,55.401 189.301,55.601 	"/>
	<polygon fill-rule="evenodd" clip-rule="evenodd" fill="#0C8B48" points="210.551,81.351 209.801,80.551 209.1,79.901 
		208.451,79.351 207.9,79.001 207.301,78.701 206.801,78.551 206.35,78.501 205.951,78.601 205.551,78.751 205.25,79.051 
		204.951,79.501 204.75,80.101 204.551,80.751 204.4,81.551 204.301,82.501 204.301,83.601 203.35,84.101 202.551,84.601 
		201.9,85.101 201.35,85.701 200.9,86.251 200.6,86.851 200.451,87.451 200.4,88.101 200.451,88.701 200.6,89.351 200.9,90.001 
		201.35,90.701 201.9,91.401 202.551,92.101 203.35,92.801 204.301,93.601 203.201,93.951 202.75,94.201 202.4,94.551 202,94.901 
		201.701,95.351 201.451,95.801 201.301,96.351 201.1,96.901 201,97.551 200.951,98.201 201,98.951 201.15,100.551 201.301,101.401 
		201.551,102.351 201.201,103.801 201.051,105.251 200.9,106.551 200.9,107.801 200.9,108.851 201.051,109.901 201.201,110.851 
		201.5,111.701 201.801,112.401 202.25,113.051 202.701,113.601 203.301,114.051 203.9,114.401 204.65,114.651 205.4,114.801 
		206.301,114.851 205.4,115.101 204.6,115.451 203.801,115.801 203.1,116.251 201.75,117.201 200.6,118.401 200,119.001 
		199.5,119.701 198.6,121.251 197.85,122.951 197.301,124.851 192.051,124.851 192.1,123.401 192.15,122.051 192.15,120.751 
		192.201,119.601 192.1,118.451 192.051,117.451 191.951,116.501 191.85,115.651 191.65,114.801 191.451,114.101 191.201,113.451 
		191,112.901 190.65,112.401 190.35,112.051 190,111.701 189.65,111.501 189.15,111.301 188.701,111.251 188.201,111.201 
		187.701,111.301 187.1,111.401 186.551,111.651 185.951,111.951 185.35,112.401 184.6,112.801 183.9,113.351 183.15,113.951 
		182.4,114.701 181.551,115.451 180.75,116.351 179.9,117.301 179.051,118.351 177.4,118.701 175.951,119.251 174.6,119.901 
		173.4,120.651 172.801,121.001 172.301,121.451 171.35,122.401 170.5,123.451 169.801,124.601 169.5,124.601 169.35,124.601 
		169.25,124.651 168.75,124.751 167.75,124.951 165.75,125.251 163.65,125.401 163.1,125.401 162.6,125.451 161.6,125.501 
		159.4,125.401 158.301,125.301 158,125.251 157.75,125.251 157.25,125.251 156.65,125.151 156.35,125.101 156.1,125.101 
		155,124.951 152.801,124.601 151.5,124.301 150.301,124.151 149.15,124.001 148.1,124.001 147.051,124.001 146.1,124.151 
		145.201,124.351 144.4,124.701 143.551,125.001 142.85,125.451 142.15,125.951 141.6,126.601 141,127.251 140.551,128.051 
		140.1,128.901 139.801,129.851 139.051,131.101 138.75,131.701 138.551,132.301 138.301,132.801 138.15,133.351 138,133.851 
		137.951,134.401 137.85,134.801 137.85,135.251 137.85,135.601 137.951,136.001 138.201,136.651 138.65,137.301 138.85,137.501 
		139.15,137.751 139.9,138.101 140.75,138.351 141.801,138.501 142.951,138.551 143.6,138.501 144.35,138.501 145.051,138.401 
		145.85,138.351 146.65,138.201 147.551,138.101 147.201,139.201 146.951,140.301 146.75,141.301 146.65,142.251 146.551,143.101 
		146.6,143.901 146.701,144.651 146.9,145.351 147.051,145.951 147.35,146.501 147.701,146.951 148.15,147.401 148.6,147.751 
		149.201,148.051 149.801,148.251 150.551,148.451 151.5,148.501 152.65,148.501 153.9,148.351 154.551,148.251 155.301,148.151 
		156.25,147.851 157.301,147.601 157,148.751 156.85,149.801 156.75,150.751 156.801,151.651 156.85,152.451 157,153.201 
		157.25,153.801 157.6,154.301 158.051,154.601 158.6,154.851 159.25,154.951 160.051,155.001 160.85,154.801 161.801,154.551 
		162.85,154.151 164,153.651 165.201,152.951 166.551,152.201 168,151.301 169.551,150.351 170.75,150.251 171.301,150.151 
		171.9,150.101 172.4,149.901 172.65,149.801 172.951,149.751 173.951,149.301 174.35,148.951 174.801,148.651 175.201,148.301 
		175.4,148.101 175.5,148.001 175.551,147.951 175.65,147.951 175.65,147.851 175.701,147.801 175.801,147.701 176,147.501 
		176.4,147.051 176.701,146.551 176.701,146.451 176.75,146.401 176.85,146.301 177.051,146.101 177.35,147.301 177.701,148.451 
		178.051,149.451 178.451,150.401 178.85,151.151 179.25,151.801 179.701,152.301 180.201,152.751 180.65,153.001 181.15,153.201 
		181.701,153.201 182.301,153.151 182.85,152.901 183.451,152.601 184.1,152.151 184.801,151.601 184.951,152.851 185.25,154.051 
		185.6,155.051 186.1,156.001 186.551,156.751 187.15,157.451 187.801,157.951 188.551,158.401 189.301,158.651 190.15,158.851 
		191.051,158.901 192.1,158.851 193.1,158.601 194.25,158.301 195.451,157.851 196.801,157.351 196.85,157.301 196.951,157.301 
		197.15,157.301 197.551,157.301 198.35,157.251 199.1,157.051 199.25,156.951 199.451,156.901 199.85,156.801 200.15,156.551 
		200.5,156.351 200.801,156.101 201.15,155.901 201.75,155.351 202.051,155.001 202.4,154.701 202.9,153.901 203.4,153.051 
		203.6,152.551 203.701,152.301 203.85,152.101 204.35,151.051 204.5,150.451 204.701,149.901 205.1,148.651 205.25,147.951 
		205.451,147.301 205.5,146.901 205.6,146.551 205.801,145.851 211.551,144.351 212,144.051 212.5,143.801 213.5,143.301 
		214.4,142.751 215.35,142.251 217,141.151 217.75,140.551 218.551,140.001 218.85,139.651 219.201,139.351 219.9,138.751 
		220.5,138.101 221.1,137.501 221.6,136.801 221.701,136.601 221.85,136.451 222.15,136.151 222.6,135.451 223.1,134.801 
		223.801,133.301 224.35,131.801 224.551,131.001 224.75,130.251 225.051,128.651 225.15,126.951 225.1,126.051 225.1,125.201 
		224.9,123.401 224.551,121.601 224.35,120.251 224.15,119.051 223.85,117.851 223.5,116.801 223.051,115.701 222.551,114.751 
		221.951,113.801 221.35,112.951 220.6,112.101 219.801,111.351 218.9,110.651 218,110.051 216.951,109.451 215.9,108.951 
		214.75,108.451 213.551,108.101 214.1,106.601 214.301,105.851 214.5,105.151 214.75,103.651 214.85,102.151 214.75,100.551 
		214.6,99.751 214.5,99.001 214.1,97.401 213.801,96.601 213.65,96.201 213.551,95.851 214.5,94.301 215.35,92.851 216.051,91.451 
		216.6,90.201 216.951,88.951 217.15,87.851 217.201,86.801 217.15,85.901 216.85,85.001 216.4,84.251 215.801,83.501 215.1,82.951 
		214.15,82.401 213.1,81.951 211.9,81.601 210.551,81.351 	"/>
	<polygon fill-rule="evenodd" clip-rule="evenodd" fill="#00A652" points="205.801,145.851 205.6,146.551 205.5,146.901 
		205.451,147.301 205.25,147.951 205.1,148.651 204.701,149.901 204.5,150.451 204.35,151.051 203.85,152.101 203.701,152.301 
		203.6,152.551 203.4,153.051 202.9,153.901 202.4,154.701 202.051,155.001 201.75,155.351 201.15,155.901 200.801,156.101 
		200.5,156.351 200.15,156.551 199.85,156.801 199.451,156.901 199.25,156.951 199.1,157.051 198.35,157.251 197.551,157.301 
		197.15,157.301 196.951,157.301 196.85,157.301 196.801,157.351 195.451,157.851 194.25,158.301 193.1,158.601 192.1,158.851 
		191.051,158.901 190.15,158.851 189.301,158.651 188.551,158.401 187.801,157.951 187.15,157.451 186.551,156.751 186.1,156.001 
		185.6,155.051 185.25,154.051 184.951,152.851 184.801,151.601 184.1,152.151 183.451,152.601 182.85,152.901 182.301,153.151 
		181.701,153.201 181.15,153.201 180.65,153.001 180.201,152.751 179.701,152.301 179.25,151.801 178.85,151.151 178.451,150.401 
		178.051,149.451 177.701,148.451 177.35,147.301 177.051,146.101 176.85,146.301 176.75,146.401 176.701,146.451 176.701,146.551 
		176.4,147.051 176,147.501 175.801,147.701 175.701,147.801 175.65,147.851 175.65,147.951 175.551,147.951 175.5,148.001 
		175.4,148.101 175.201,148.301 174.801,148.651 174.35,148.951 173.951,149.301 172.951,149.751 172.65,149.801 172.4,149.901 
		171.9,150.101 171.301,150.151 170.75,150.251 169.551,150.351 168,151.301 166.551,152.201 165.201,152.951 164,153.651 
		162.85,154.151 161.801,154.551 160.85,154.801 160.051,155.001 159.25,154.951 158.6,154.851 158.051,154.601 157.6,154.301 
		157.25,153.801 157,153.201 156.85,152.451 156.801,151.651 154.4,155.801 153.75,156.801 153.15,157.851 151.951,159.951 
		149.451,164.001 148.15,165.951 146.9,167.951 145.551,169.851 144.25,171.801 141.551,175.601 138.75,179.301 137.301,181.101 
		135.9,182.951 136.25,182.751 136.65,182.65 137.4,182.601 138,182.701 138.25,182.801 138.551,183.001 139,183.451 
		139.15,183.751 139.35,184.15 139.6,185.001 139.801,186.101 140.65,184.201 141.65,182.65 142.701,181.351 143.9,180.4 
		145.15,179.601 146.5,179.15 147.951,178.951 149.551,179.101 149.9,178.051 150.35,177.101 150.801,176.251 151.4,175.601 
		151.951,174.951 152.65,174.451 153.35,174.001 154.201,173.751 155,173.501 155.9,173.351 156.85,173.301 157.9,173.451 
		158.951,173.601 160.1,173.951 161.25,174.301 162.551,174.851 163.9,173.65 165.4,172.701 166.951,171.951 168.65,171.451 
		170.4,171.15 172.25,171.051 174.201,171.201 176.301,171.601 177.1,170.951 177.9,170.451 178.65,170.001 179.451,169.701 
		180.1,169.4 180.801,169.251 181.451,169.101 182.15,169.101 182.701,169.101 183.25,169.251 183.75,169.4 184.301,169.701 
		184.75,170.001 185.201,170.451 185.6,170.951 186.051,171.601 187.5,170.15 189.201,168.9 191.051,167.751 193.15,166.801 
		195.301,165.951 196.451,165.551 197.701,165.251 200.25,164.701 203.051,164.351 203.951,162.951 204.9,161.701 205.801,160.601 
		206.701,159.65 207.551,158.801 208.451,158.151 209.25,157.651 210.1,157.301 210.451,157.101 210.85,157.001 211.65,156.901 
		212.35,156.951 213.15,157.151 213.85,157.451 214.201,157.651 214.6,157.951 215.25,158.601 215.951,159.4 215.85,158.951 
		215.801,158.551 215.701,157.751 215.4,156.051 214.951,154.251 214.5,152.451 214.15,151.451 213.85,150.501 213.201,148.501 
		212.4,146.451 211.551,144.351 205.801,145.851 	"/>
	<polygon fill-rule="evenodd" clip-rule="evenodd" fill="#0C8B48" points="197.551,176.351 198.75,176.251 199.951,176.201 
		201.051,176.101 202.201,176.001 203.201,175.801 203.701,175.701 203.951,175.65 204.25,175.65 205.201,175.451 206.201,175.251 
		206.6,175.051 206.801,174.951 207.051,174.9 207.9,174.601 208.701,174.251 209.5,173.9 210.201,173.451 210.9,173.051 
		211.5,172.551 211.801,172.301 212.15,172.101 212.65,171.501 212.9,171.201 213.201,170.951 213.4,170.601 213.65,170.301 
		214.1,169.701 214.451,169.001 214.801,168.301 215.1,167.551 215.4,166.851 215.6,166.001 215.801,165.201 215.9,164.301 
		215.9,164.051 215.951,163.851 216.051,163.451 216.051,162.501 216.051,162.001 216.051,161.751 216.1,161.551 216.051,160.551 
		216,160.051 216,159.601 215.951,159.4 215.25,158.601 214.6,157.951 214.201,157.651 213.85,157.451 213.15,157.151 
		212.35,156.951 211.65,156.901 210.85,157.001 210.451,157.101 210.1,157.301 209.25,157.651 208.451,158.151 207.551,158.801 
		206.701,159.65 205.801,160.601 204.9,161.701 203.951,162.951 203.051,164.351 200.25,164.701 197.701,165.251 196.451,165.551 
		195.301,165.951 193.15,166.801 191.051,167.751 189.201,168.9 187.5,170.15 186.051,171.601 185.6,170.951 185.201,170.451 
		184.75,170.001 184.301,169.701 183.75,169.4 183.25,169.251 182.701,169.101 182.15,169.101 181.451,169.101 180.801,169.251 
		180.1,169.4 179.451,169.701 178.65,170.001 177.9,170.451 177.1,170.951 176.301,171.601 174.201,171.201 172.25,171.051 
		170.4,171.15 168.65,171.451 166.951,171.951 165.4,172.701 163.9,173.65 162.551,174.851 161.25,174.301 160.1,173.951 
		158.951,173.601 157.9,173.451 156.85,173.301 155.9,173.351 155,173.501 154.201,173.751 153.35,174.001 152.65,174.451 
		151.951,174.951 151.4,175.601 150.801,176.251 150.35,177.101 149.9,178.051 149.551,179.101 147.951,178.951 146.5,179.15 
		145.15,179.601 143.9,180.4 142.701,181.351 141.65,182.65 140.65,184.201 139.801,186.101 139.6,185.001 139.35,184.15 
		139.15,183.751 139,183.451 138.551,183.001 138.25,182.801 138,182.701 137.4,182.601 136.65,182.65 136.25,182.751 
		135.9,182.951 134.201,184.9 133.951,185.101 133.75,185.351 133.35,185.851 132.551,186.851 129.15,190.701 127.35,192.551 
		125.6,194.451 123.801,196.251 122.9,197.15 122.65,197.351 122.451,197.601 122.051,198.101 122.051,220.851 123.25,221.101 
		124.451,221.301 124.701,221.301 125,221.351 125.6,221.451 126.75,221.551 127.801,221.551 128.85,221.551 129.85,221.451 
		130.85,221.351 131.25,221.201 131.701,221.101 132.6,220.851 133.4,220.501 134.25,220.101 134.951,219.601 135.701,219.101 
		136.35,218.501 137.051,217.9 137.301,217.501 137.6,217.15 138.15,216.351 138.65,215.501 139.15,214.601 139.551,213.601 
		140,212.601 140.35,211.501 140.5,210.9 140.701,210.351 140.801,209.701 140.951,209.101 141.201,207.801 141.25,207.101 
		141.35,206.451 141.551,205.051 141.65,203.551 141.75,202.051 141.75,200.451 141.801,198.851 142.301,198.951 142.4,198.951 
		142.551,199.001 142.85,199.101 143.35,199.201 143.451,199.201 143.6,199.251 143.9,199.351 144.9,199.4 145.9,199.451 
		146.301,199.351 146.5,199.301 146.75,199.301 147.15,199.201 147.35,199.15 147.6,199.15 148.4,198.851 149.201,198.501 
		149.5,198.201 149.551,198.101 149.65,198.051 149.85,197.951 150.15,197.65 150.201,197.551 150.301,197.501 150.5,197.4 
		151.1,196.701 151.35,196.301 151.65,195.951 151.85,195.451 151.951,195.201 152.1,195.001 152.301,194.501 152.4,194.251 
		152.551,194.051 152.951,193.001 153.1,192.4 153.301,191.851 156.301,192.251 159.25,192.65 162.1,192.951 164.85,193.251 
		166.15,193.301 167.451,193.4 168.051,193.4 168.701,193.451 170,193.551 172.4,193.65 173.551,193.65 174.75,193.701 
		175.25,193.65 175.801,193.65 176.9,193.65 179,193.551 179.951,193.451 180.951,193.4 182.85,193.201 184.6,192.9 185.4,192.701 
		185.801,192.601 186.25,192.551 187.801,192.15 189.301,191.751 189.9,191.451 190.201,191.301 190.551,191.201 191.801,190.601 
		192.051,190.4 192.35,190.251 192.9,189.951 193.4,189.601 193.951,189.301 194.801,188.501 195.6,187.701 195.9,187.251 
		196.25,186.851 196.9,185.951 197.1,185.4 197.301,184.9 197.35,184.601 197.451,184.351 197.65,183.851 197.9,182.751 
		197.951,182.15 198.051,181.601 198.051,180.951 198.051,180.351 198,179.051 197.9,178.351 197.801,177.701 197.65,177.001 
		197.551,176.351 	"/>
	<polygon fill-rule="evenodd" clip-rule="evenodd" fill="#825423" points="156.801,151.651 156.75,150.751 156.85,149.801 
		157,148.751 157.301,147.601 156.25,147.851 155.301,148.151 154.9,148.801 154.551,149.501 153.85,150.901 153.451,151.551 
		153.1,152.251 152.35,153.651 150.701,156.351 149,159.051 147.051,161.65 145.1,164.251 144,165.501 142.951,166.801 
		141.85,168.051 140.75,169.351 138.35,171.751 137.1,172.951 135.9,174.201 135.201,174.751 134.551,175.351 133.25,176.551 
		130.551,178.951 129.1,180.051 128.701,180.301 128.35,180.601 127.65,181.201 124.701,183.501 121.551,185.701 119.951,186.801 
		119.15,187.351 118.4,187.951 118.801,188.451 119.15,189.051 119.65,190.15 119.801,190.65 119.9,191.251 119.9,192.451 
		119.6,193.551 119.1,194.751 118.301,195.851 117.801,196.451 117.25,197.051 117.35,201.4 117.451,205.801 117.451,207.951 
		117.5,210.15 117.5,214.551 117.4,218.801 117.301,223.101 117.201,225.201 117.15,225.701 117.15,226.251 117.15,227.351 
		117.051,229.451 117,229.951 117,230.501 117,231.601 116.701,235.751 116.401,239.951 116.05,244.051 115.65,248.201 
		115.15,252.251 114.65,256.301 114.101,260.301 113.8,262.301 113.65,263.301 113.55,264.351 114.4,264.9 115.3,265.65 
		116.1,266.4 116.951,267.301 117.701,268.251 118.5,269.301 119.25,270.4 120.051,271.65 121.451,274.301 122.1,275.751 
		122.801,277.301 123.4,278.9 124.051,280.65 124.65,282.4 125.301,284.351 123.951,285.051 122.801,285.851 121.65,286.701 
		120.65,287.65 119.65,288.601 118.801,289.701 117.951,290.851 117.301,292.101 116.65,293.351 116.1,294.701 115.601,296.101 
		115.25,297.601 114.9,299.101 114.701,300.751 114.55,302.451 114.55,304.251 115.65,303.65 116.85,303.001 118.051,302.251 
		119.35,301.501 120.65,300.601 122.051,299.65 123.5,298.65 125.051,297.601 126.701,298.101 128.301,298.551 129,298.701 
		129.75,298.9 131.201,299.201 132.451,299.4 133.701,299.601 134.801,299.701 135.301,299.701 135.551,299.701 135.85,299.751 
		136.75,299.65 137.6,299.551 138.35,299.351 139.051,299.101 139.301,298.9 139.6,298.751 140.1,298.351 140.15,298.201 
		140.25,298.101 140.451,297.9 140.801,297.4 140.801,297.201 140.85,297.051 140.951,296.751 141.051,296.051 141.051,295.301 
		141,294.501 140.801,293.601 140.65,293.101 140.551,292.65 140.35,292.101 140.201,291.601 139.75,290.501 139.201,289.301 
		139,288.951 138.85,288.65 138.551,288.051 138.15,287.351 137.951,287.001 137.801,286.701 137,285.351 136.051,283.851 
		135.051,282.351 133.951,280.751 133.35,279.9 132.801,279.101 131.75,278.051 130.801,277.051 129.85,275.951 129,274.9 
		128.15,273.751 127.4,272.601 126.701,271.4 126.1,270.251 125.451,268.951 124.9,267.701 124.4,266.4 124,265.15 123.6,263.751 
		123.301,262.4 123,261.001 122.801,259.601 122.051,220.851 122.051,198.101 122.451,197.601 122.65,197.351 122.9,197.15 
		123.801,196.251 125.6,194.451 127.35,192.551 129.15,190.701 132.551,186.851 133.35,185.851 133.75,185.351 133.951,185.101 
		134.201,184.9 135.9,182.951 137.301,181.101 138.75,179.301 141.551,175.601 144.25,171.801 145.551,169.851 146.9,167.951 
		148.15,165.951 149.451,164.001 151.951,159.951 153.15,157.851 153.75,156.801 154.4,155.801 156.801,151.651 	"/>
	<polygon fill-rule="evenodd" clip-rule="evenodd" fill="#A77A51" points="155.301,148.151 154.551,148.251 153.9,148.351 
		152.65,148.501 151.5,148.501 150.551,148.451 148.801,150.851 147.051,153.251 145.25,155.601 144.35,156.751 143.5,157.951 
		142.551,159.051 141.65,160.201 140.701,161.301 139.801,162.451 137.9,164.65 136.051,166.851 134.051,168.9 132.1,171.001 
		130.1,173.001 128.1,175.051 126,176.951 125.701,177.15 125.451,177.4 124.951,177.9 123.951,178.9 121.85,180.751 
		120.801,181.65 119.801,182.601 119.25,182.451 118.801,182.451 118.35,182.451 118,182.601 117.6,182.701 117.301,182.951 
		117,183.251 116.801,183.65 116.35,184.551 116.1,185.751 116,186.4 116,187.201 116.05,188.951 114.75,186.501 113.55,184.001 
		112.351,181.4 111.3,178.751 110.25,176.001 109.3,173.201 108.351,170.301 107.55,167.351 106.451,163.951 105.65,160.65 
		105,157.251 104.601,153.951 104.3,150.551 104.3,147.251 104.5,143.851 104.9,140.551 104.5,136.701 104,136.701 103.75,136.701 
		103.55,136.751 102.65,136.851 100.701,136.951 99.601,136.901 98.55,136.901 97.951,136.851 97.4,136.851 96.3,136.851 
		96.55,137.651 96.851,138.451 96.951,138.801 97.101,139.201 97.351,140.001 97.5,140.701 97.701,141.401 97.75,141.701 
		97.851,142.051 98,142.751 98,143.001 98.05,143.301 98.15,143.901 98.15,144.451 98.201,145.051 98.15,145.551 98.15,146.051 
		98.101,146.251 98.101,146.501 98.05,147.001 97.951,147.151 97.9,147.351 97.75,147.751 97.55,148.101 97.451,148.251 
		97.4,148.451 97.25,148.551 97.15,148.701 96.9,149.001 96.601,149.251 96.451,149.351 96.351,149.501 95.951,149.651 
		95.601,149.851 95.201,149.951 95,150.001 94.851,150.101 94.351,150.151 93.9,150.251 93.4,150.251 93.15,150.251 92.951,150.301 
		92.25,150.301 92.5,152.201 92.851,154.151 93.601,158.001 94.451,161.751 94.9,163.551 95.451,165.4 96.5,168.951 97.75,172.4 
		99.101,175.751 100.55,179.101 101.05,217.851 101.75,226.251 101.851,228.301 102,230.4 102.25,234.601 102.55,242.9 
		102.65,247.001 102.701,251.201 102.65,253.201 102.65,255.251 102.55,259.351 102.451,261.351 102.4,262.351 102.4,263.4 
		102.25,267.501 102,271.501 101.851,273.501 101.75,275.551 101.4,279.551 101.201,281.551 101.101,282.551 101.05,283.051 
		101.05,283.601 99.201,284.851 97.451,286.251 95.75,287.801 94.201,289.551 92.65,291.351 91.3,293.351 89.951,295.501 
		88.8,297.851 89.75,298.701 90.3,299.051 90.951,299.451 92.3,300.001 93.05,300.251 93.9,300.501 95.55,300.751 96.451,300.851 
		97.451,300.951 99.5,300.951 100.601,300.9 101.8,300.851 102.05,301.801 102.451,302.65 102.851,303.4 103.4,304.101 
		103.9,304.65 104.55,305.101 105.25,305.451 106.05,305.801 106.851,305.951 107.75,306.001 108.701,305.951 109.75,305.801 
		110.8,305.551 112,305.201 113.201,304.751 114.55,304.251 114.55,302.451 114.701,300.751 114.9,299.101 115.25,297.601 
		115.601,296.101 116.1,294.701 116.65,293.351 117.301,292.101 117.951,290.851 118.801,289.701 119.65,288.601 120.65,287.65 
		121.65,286.701 122.801,285.851 123.951,285.051 125.301,284.351 124.65,282.4 124.051,280.65 123.4,278.9 122.801,277.301 
		122.1,275.751 121.451,274.301 120.051,271.65 119.25,270.4 118.5,269.301 117.701,268.251 116.951,267.301 116.1,266.4 
		115.3,265.65 114.4,264.9 113.55,264.351 113.65,263.301 113.8,262.301 114.101,260.301 114.65,256.301 115.15,252.251 
		115.65,248.201 116.05,244.051 116.401,239.951 116.701,235.751 117,231.601 117,230.501 117,229.951 117.051,229.451 
		117.15,227.351 117.15,226.251 117.15,225.701 117.201,225.201 117.301,223.101 117.4,218.801 117.5,214.551 117.5,210.15 
		117.451,207.951 117.451,205.801 117.35,201.4 117.25,197.051 117.801,196.451 118.301,195.851 119.1,194.751 119.6,193.551 
		119.9,192.451 119.9,191.251 119.801,190.65 119.65,190.15 119.15,189.051 118.801,188.451 118.4,187.951 119.15,187.351 
		119.951,186.801 121.551,185.701 124.701,183.501 127.65,181.201 128.35,180.601 128.701,180.301 129.1,180.051 130.551,178.951 
		133.25,176.551 134.551,175.351 135.201,174.751 135.9,174.201 137.1,172.951 138.35,171.751 140.75,169.351 141.85,168.051 
		142.951,166.801 144,165.501 145.1,164.251 147.051,161.65 149,159.051 150.701,156.351 152.35,153.651 153.1,152.251 
		153.451,151.551 153.85,150.901 154.551,149.501 154.9,148.801 155.301,148.151 	"/>
	<polygon fill-rule="evenodd" clip-rule="evenodd" fill="#0C8B48" points="119.051,124.851 120.15,124.501 121.25,124.151 
		122.25,123.701 122.75,123.401 122.85,123.301 123,123.251 123.301,123.151 124.201,122.501 125.15,121.801 125.551,121.401 
		125.75,121.201 125.85,121.101 126,121.051 126.4,120.601 126.85,120.201 127.201,119.701 127.6,119.251 127.75,118.951 
		127.951,118.701 128.35,118.201 128.65,117.601 128.801,117.301 129,117.051 129.301,116.451 129.451,116.151 129.65,115.901 
		130.201,114.601 130.801,113.251 131.301,111.801 131.801,110.351 132.551,108.401 133.201,106.551 133.65,104.801 
		133.951,103.151 134.051,101.501 134,100.051 133.801,98.601 133.451,97.351 132.85,96.101 132.15,94.951 131.25,93.851 
		130.201,92.901 128.951,91.951 127.551,91.201 126,90.451 124.301,89.851 123.15,88.801 122.1,87.901 120.051,86.351 
		119.051,85.601 118.1,85.051 116.35,84.101 115.451,83.701 114.65,83.451 113.101,83.101 111.65,83.051 110.4,83.301 
		109.15,83.851 108.101,84.701 107.15,85.851 106.701,86.501 106.351,87.351 105.601,89.101 105.05,91.251 104.601,93.601 
		104.4,94.901 104.3,96.351 102.851,96.801 101.601,97.451 100.451,98.201 99.5,99.051 98.601,100.001 98.201,100.501 97.9,101.101 
		97.3,102.251 96.9,103.601 96.55,104.951 96.351,106.501 96.3,108.151 96.4,109.901 96.601,111.751 96.951,113.751 97.4,115.851 
		98.05,118.101 97.25,117.551 96.4,117.201 95.5,117.001 94.601,116.951 93.601,117.001 93.05,117.051 92.55,117.201 
		91.451,117.551 90.3,118.101 89,117.801 87.8,117.601 85.55,117.351 83.451,117.201 82.5,117.201 81.65,117.301 80.75,117.351 
		79.951,117.501 78.451,117.951 77.75,118.201 77.15,118.551 76.101,119.401 75.15,120.301 74.451,121.451 74.15,122.051 
		73.951,122.751 73.65,124.301 73.451,125.951 73.451,126.851 73.55,127.851 73.8,129.851 74.3,132.101 73.5,131.651 72.75,131.301 
		71.15,130.801 70.25,130.601 69.4,130.501 68.5,130.401 67.65,130.401 66.65,130.401 65.701,130.501 64.701,130.601 63.75,130.801 
		62.701,131.001 61.701,131.301 60.601,131.651 59.55,132.101 59.4,130.801 59.3,129.651 59.15,128.501 59.05,127.501 
		58.851,126.501 58.701,125.601 58.451,124.751 58.25,124.051 57.951,123.301 57.701,122.701 57.351,122.151 57.05,121.701 
		56.65,121.251 56.3,120.901 55.9,120.601 55.55,120.451 55.05,120.251 54.601,120.151 54.101,120.101 53.65,120.201 52.55,120.501 
		51.951,120.751 51.4,121.151 50.101,122.001 49.4,122.551 48.75,123.201 48,123.851 47.3,124.601 45.8,126.351 44.05,125.601 
		42.4,125.051 40.8,124.601 39.351,124.401 37.9,124.251 36.55,124.301 35.25,124.501 34.101,124.901 32.9,125.351 31.851,126.051 
		30.851,126.851 29.951,127.851 29.05,128.951 28.3,130.251 27.55,131.651 26.951,133.301 28.201,133.301 29.55,133.351 
		30.05,134.901 30.601,136.451 31.201,137.901 31.9,139.251 32.601,140.501 33.4,141.701 34.201,142.851 35.101,143.901 36,144.801 
		36.951,145.651 37.951,146.401 39.05,147.151 40.15,147.751 41.351,148.301 42.55,148.751 43.851,149.151 45.101,149.401 
		46.4,149.601 47.75,149.701 49.201,149.751 50.601,149.701 52.101,149.551 53.65,149.351 55.3,149.101 56.4,150.501 57.55,151.751 
		58.701,152.801 59.9,153.751 61.101,154.451 62.351,155.051 63.601,155.451 64.9,155.701 66.201,155.751 67.5,155.651 
		68.851,155.351 70.25,154.951 71.65,154.351 73.101,153.601 74.55,152.651 76.05,151.601 76.601,151.901 76.851,152.001 
		77.15,152.151 77.65,152.351 78.15,152.501 78.55,152.551 78.951,152.551 79.3,152.451 79.65,152.351 79.75,152.201 79.9,152.101 
		80.15,151.801 80.3,151.401 80.5,151.001 80.601,150.501 80.701,149.951 80.701,149.601 80.75,149.301 80.8,148.601 81.05,149.101 
		81.351,149.551 81.951,150.251 82.55,150.651 82.851,150.751 83.15,150.801 83.451,150.751 83.75,150.651 84.351,150.251 
		84.951,149.551 85.25,149.101 85.55,148.601 86.451,148.901 87.4,149.201 87.8,149.301 88,149.351 88.25,149.451 89.15,149.701 
		89.951,149.851 90.75,150.051 91.5,150.151 91.65,150.151 91.851,150.201 92.25,150.301 92.951,150.301 93.15,150.251 
		93.4,150.251 93.9,150.251 94.351,150.151 94.851,150.101 95,150.001 95.201,149.951 95.601,149.851 95.951,149.651 
		96.351,149.501 96.451,149.351 96.601,149.251 96.9,149.001 97.15,148.701 97.25,148.551 97.4,148.451 97.451,148.251 
		97.55,148.101 97.75,147.751 97.9,147.351 97.951,147.151 98.05,147.001 98.101,146.501 98.101,146.251 98.15,146.051 
		98.15,145.551 98.201,145.051 98.15,144.451 98.15,143.901 98.05,143.301 98,143.001 98,142.751 97.851,142.051 97.75,141.701 
		97.701,141.401 97.5,140.701 97.351,140.001 97.101,139.201 96.951,138.801 96.851,138.451 96.55,137.651 96.3,136.851 
		97.4,136.851 97.951,136.851 98.55,136.901 99.601,136.901 100.701,136.951 102.65,136.851 103.55,136.751 103.75,136.701 
		104,136.701 104.5,136.701 106.101,136.401 106.851,136.201 107.201,136.101 107.601,136.051 107.9,135.901 108.25,135.801 
		108.9,135.601 109.451,135.301 110.05,135.051 110.25,134.851 110.351,134.751 110.4,134.701 110.5,134.701 111,134.401 
		111.4,134.001 111.601,133.801 111.701,133.701 111.75,133.651 111.851,133.651 112.15,133.201 112.5,132.801 112.601,132.551 
		112.75,132.351 113,131.951 113.351,130.951 113.5,129.851 113.451,129.751 113.451,129.701 113.451,129.601 113.451,129.401 
		113.451,129.001 113.4,128.201 113.25,127.301 113.05,126.451 112.75,125.451 112.55,124.951 112.451,124.701 112.4,124.501 
		112,123.451 111.55,122.451 111.101,121.551 111,121.401 110.951,121.301 110.851,121.101 110.65,120.701 110.351,120.201 
		110.25,120.051 110.201,119.951 110.101,119.751 109.55,118.851 110.101,119.751 110.201,119.951 110.25,120.051 110.351,120.201 
		110.65,120.701 110.851,121.101 110.951,121.301 111,121.401 111.101,121.551 111.55,122.451 112,123.451 112.4,124.501 
		112.451,124.701 112.55,124.951 112.75,125.451 113.05,126.451 113.25,127.301 113.4,128.201 113.451,129.001 113.451,129.401 
		113.451,129.601 113.451,129.701 113.451,129.751 113.5,129.851 113.351,130.951 113,131.951 113.05,131.901 113.15,131.901 
		113.351,131.901 113.75,131.901 113.8,131.851 113.9,131.851 114.101,131.851 114.5,131.851 115.201,131.701 115.5,131.601 
		115.55,131.551 115.65,131.551 115.851,131.551 115.951,131.451 116,131.401 116.1,131.401 116.401,131.301 116.951,131.001 
		117.15,130.801 117.25,130.701 117.301,130.651 117.4,130.651 117.85,130.251 118.15,129.751 118.451,129.201 118.701,128.601 
		118.9,128.001 119,127.251 119,126.851 119,126.651 119,126.551 119.051,126.501 119.051,125.701 119.051,124.851 	"/>
	<polygon fill-rule="evenodd" clip-rule="evenodd" fill="#825423" points="116.05,188.951 116,187.201 116,186.4 116.1,185.751 
		116.35,184.551 116.801,183.65 117,183.251 117.301,182.951 117.6,182.701 118,182.601 118.35,182.451 118.801,182.451 
		119.25,182.451 119.801,182.601 118.4,180.951 117.1,179.201 115.8,177.301 114.65,175.301 113.451,173.101 112.4,170.851 
		111.351,168.4 110.451,165.9 109.5,163.15 108.701,160.351 107.9,157.351 107.201,154.301 106.5,151.001 105.9,147.651 
		105.351,144.151 104.9,140.551 104.5,143.851 104.3,147.251 104.3,150.551 104.601,153.951 105,157.251 105.65,160.65 
		106.451,163.951 107.55,167.351 108.351,170.301 109.3,173.201 110.25,176.001 111.3,178.751 112.351,181.4 113.55,184.001 
		114.75,186.501 116.05,188.951 	"/>
	<polygon fill-rule="evenodd" clip-rule="evenodd" fill="#00A652" points="92.25,150.301 91.851,150.201 91.65,150.151 
		91.5,150.151 90.75,150.051 89.951,149.851 89.15,149.701 88.25,149.451 88,149.351 87.8,149.301 87.4,149.201 86.451,148.901 
		85.55,148.601 85.25,149.101 84.951,149.551 84.351,150.251 83.75,150.651 83.451,150.751 83.15,150.801 82.851,150.751 
		82.55,150.651 81.951,150.251 81.351,149.551 81.05,149.101 80.8,148.601 80.75,149.301 80.701,149.601 80.701,149.951 
		80.601,150.501 80.5,151.001 80.3,151.401 80.15,151.801 79.9,152.101 79.75,152.201 79.65,152.351 79.3,152.451 78.951,152.551 
		78.55,152.551 78.15,152.501 77.65,152.351 77.15,152.151 76.851,152.001 76.601,151.901 76.05,151.601 74.55,152.651 
		73.101,153.601 71.65,154.351 70.25,154.951 68.851,155.351 67.5,155.651 66.201,155.751 64.9,155.701 63.601,155.451 
		62.351,155.051 61.101,154.451 59.9,153.751 58.701,152.801 57.55,151.751 56.4,150.501 55.3,149.101 53.65,149.351 
		52.101,149.551 50.601,149.701 49.201,149.751 47.75,149.701 46.4,149.601 45.101,149.401 43.851,149.151 42.4,149.951 
		41.201,150.851 40.25,151.751 39.55,152.701 39,153.651 38.701,154.651 38.65,155.651 38.851,156.751 39.201,157.801 39.8,158.951 
		40.65,160.101 41.75,161.301 43.05,162.501 44.55,163.751 46.3,165.001 48.3,166.351 47.101,166.951 46.101,167.65 45.201,168.351 
		44.451,169.051 43.8,169.751 43.3,170.451 42.951,171.15 42.75,171.851 42.601,172.451 42.65,173.15 42.8,173.851 43.101,174.551 
		43.5,175.251 44.05,175.951 44.701,176.65 45.55,177.351 45,178.701 44.55,180.101 43.8,182.701 43.451,183.9 43.201,185.101 
		42.951,186.251 42.8,187.4 42.601,188.451 42.5,189.501 42.451,190.451 42.5,191.451 42.5,192.301 42.601,193.201 42.951,194.851 
		43.4,196.251 43.701,196.851 44.101,197.501 44.451,198.051 44.9,198.601 45.4,199.051 46,199.551 46.55,199.9 47.201,200.301 
		48.65,200.9 49.4,201.101 50.25,201.301 51.101,201.451 52.05,201.601 52.3,200.051 52.701,198.701 53.201,197.451 53.851,196.351 
		54.55,195.301 55.4,194.451 56.351,193.701 57.5,193.101 58.65,192.551 60,192.15 61.451,191.9 63,191.751 64.65,191.701 
		66.4,191.801 68.25,192.001 70.3,192.351 70.9,192.551 71.55,192.751 72.851,193.101 73.451,193.15 74.101,193.251 75.4,193.351 
		75.5,193.301 75.65,193.301 75.951,193.301 76.55,193.251 77.75,193.101 78.3,192.9 78.9,192.751 79.451,192.551 80.05,192.351 
		80.201,191.601 80.5,190.951 80.8,190.301 81.201,189.751 81.601,189.201 82.15,188.751 83.4,188.001 84.05,187.65 84.851,187.4 
		85.65,187.15 86.601,187.001 87.5,186.851 88.55,186.801 90.8,186.851 90.451,185.851 90.25,185.001 90.15,184.15 90.201,183.451 
		90.351,182.701 90.65,182.101 91.05,181.501 91.601,181.051 92.25,180.551 93.05,180.201 93.951,179.851 95.05,179.601 
		96.201,179.351 97.5,179.201 98.951,179.101 100.55,179.101 99.101,175.751 97.75,172.4 96.5,168.951 95.451,165.4 94.9,163.551 
		94.451,161.751 93.601,158.001 92.851,154.151 92.5,152.201 92.25,150.301 	"/>
	<polygon fill-rule="evenodd" clip-rule="evenodd" fill="#0C8B48" points="70.3,192.351 68.25,192.001 66.4,191.801 64.65,191.701 
		63,191.751 61.451,191.9 60,192.15 58.65,192.551 57.5,193.101 56.351,193.701 55.4,194.451 54.55,195.301 53.851,196.351 
		53.201,197.451 52.701,198.701 52.3,200.051 52.05,201.601 52.9,201.851 53.701,202.201 54.3,202.65 54.851,203.201 
		55.201,203.801 55.55,204.551 55.701,205.4 55.8,206.351 55.5,206.751 55.351,207.201 55.201,207.551 55.25,207.951 55.3,208.251 
		55.451,208.551 55.65,208.801 56,209.101 56.351,209.251 56.8,209.451 57.3,209.601 57.951,209.801 58.601,209.851 59.4,209.951 
		60.201,210.001 61.15,210.051 62.101,210.001 63.201,209.951 64.3,209.851 65.55,209.801 66.8,209.601 68.201,209.451 
		69.65,209.251 71.25,209.101 72.8,208.801 74.5,208.551 76.25,208.251 78.15,207.951 80,207.551 82.05,207.201 84.101,206.751 
		86.3,206.351 85.951,207.501 85.8,208.65 85.65,209.701 85.701,210.65 85.75,211.501 86,212.251 86.25,212.9 86.701,213.551 
		87.15,214.001 87.701,214.451 88.351,214.751 89.201,215.001 90.05,215.15 91,215.201 92.05,215.15 93.3,215.101 94.3,214.701 
		94.8,214.601 95.351,214.601 96.351,214.601 97.351,214.9 98.25,215.301 99.201,215.951 100.101,216.751 100.55,217.251 
		101.05,217.851 100.55,179.101 98.951,179.101 97.5,179.201 96.201,179.351 95.05,179.601 93.951,179.851 93.05,180.201 
		92.25,180.551 91.601,181.051 91.05,181.501 90.65,182.101 90.351,182.701 90.201,183.451 90.15,184.15 90.25,185.001 
		90.451,185.851 90.8,186.851 88.55,186.801 87.5,186.851 86.601,187.001 85.65,187.15 84.851,187.4 84.05,187.65 83.4,188.001 
		82.15,188.751 81.601,189.201 81.201,189.751 80.8,190.301 80.5,190.951 80.201,191.601 80.05,192.351 79.451,192.551 
		78.9,192.751 78.3,192.9 77.75,193.101 76.55,193.251 75.951,193.301 75.65,193.301 75.5,193.301 75.4,193.351 74.101,193.251 
		73.451,193.15 72.851,193.101 71.55,192.751 70.9,192.551 70.3,192.351 	"/>
	<polyline fill="none" stroke="#000000" stroke-linecap="square" stroke-miterlimit="10" points="211.551,144.351 212,144.051 
		212.5,143.801 213.5,143.301 214.4,142.751 215.35,142.251 217,141.151 217.75,140.551 218.551,140.001 218.85,139.651 
		219.201,139.351 219.9,138.751 220.5,138.101 221.1,137.501 221.6,136.801 221.701,136.601 221.85,136.451 222.15,136.151 
		222.6,135.451 223.1,134.801 223.801,133.301 224.35,131.801 224.551,131.001 224.75,130.251 225.051,128.651 225.15,126.951 
		225.1,126.051 225.1,125.201 224.9,123.401 224.551,121.601 224.35,120.251 224.15,119.051 223.85,117.851 223.5,116.801 
		223.051,115.701 222.551,114.751 221.951,113.801 221.35,112.951 220.6,112.101 219.801,111.351 218.9,110.651 218,110.051 
		216.951,109.451 215.9,108.951 214.75,108.451 213.551,108.101 214.1,106.601 214.301,105.851 214.5,105.151 214.75,103.651 
		214.85,102.151 214.75,100.551 214.6,99.751 214.5,99.001 214.1,97.401 213.801,96.601 213.65,96.201 213.551,95.851 214.5,94.301 
		215.35,92.851 216.051,91.451 216.6,90.201 216.951,88.951 217.15,87.851 217.201,86.801 217.15,85.901 216.85,85.001 
		216.4,84.251 215.801,83.501 215.1,82.951 214.15,82.401 213.1,81.951 211.9,81.601 210.551,81.351 211.15,80.351 211.701,79.401 
		212.1,78.451 212.4,77.551 212.5,76.651 212.5,75.801 212.35,74.951 212.15,74.151 211.701,73.301 211.201,72.501 210.5,71.751 
		209.75,71.051 208.801,70.301 207.75,69.601 206.551,68.951 205.301,68.351 205.35,66.501 205.301,65.601 205.301,64.801 
		205.051,63.251 204.9,62.501 204.75,61.851 204.451,61.151 204.201,60.551 203.6,59.401 203.201,58.851 202.801,58.401 
		201.9,57.551 200.801,56.801 200.201,56.451 199.6,56.201 198.201,55.751 197.451,55.551 196.75,55.451 195.9,55.301 
		195.051,55.251 193.301,55.201 192.301,55.201 191.35,55.301 190.301,55.401 189.301,55.601 188.801,54.551 188.301,53.701 
		187.75,52.851 187.201,52.201 186.551,51.551 185.9,51.101 185.15,50.651 184.4,50.401 183.5,50.151 182.6,50.001 181.65,49.951 
		180.701,50.101 179.65,50.251 178.6,50.501 177.451,50.851 176.301,51.351 175.1,50.601 173.951,50.051 172.701,49.551 
		171.451,49.201 170.1,48.851 168.75,48.651 167.35,48.501 165.951,48.501 164.4,48.501 162.9,48.651 161.301,48.851 
		159.701,49.201 158,49.551 156.301,50.051 154.551,50.601 152.801,51.351 151.35,51.151 150.051,51.101 148.85,51.151 
		147.801,51.401 147.25,51.501 146.801,51.701 145.951,52.151 145.201,52.751 144.551,53.501 144,54.301 143.551,55.251 
		143.201,56.301 143.051,57.501 142.9,58.801 142.951,60.251 142.951,61.001 143.051,61.851 143.301,63.601 141.9,62.551 
		140.6,61.901 139.201,61.451 137.9,61.351 136.5,61.451 135.201,61.901 133.801,62.551 132.5,63.601 	"/>
	<polyline fill="none" stroke="#000000" stroke-linecap="square" stroke-miterlimit="10" points="132.5,63.601 132.15,62.901 
		131.75,62.251 131.25,61.551 130.951,61.201 130.701,60.901 130.051,60.201 129.35,59.501 128.6,58.801 127.801,58.101 
		127.65,56.651 127.5,55.351 127.301,54.101 127.1,52.951 126.801,51.801 126.5,50.801 126.15,49.801 125.801,48.951 125.35,48.051 
		124.9,47.301 124.35,46.551 123.85,45.951 123.25,45.351 122.65,44.851 121.951,44.401 121.301,44.101 121.051,42.751 
		120.85,41.501 120.551,40.301 120.25,39.201 119.85,38.101 119.451,37.101 118.951,36.101 118.5,35.201 117.9,34.301 
		117.35,33.501 116.701,32.701 116.1,32.001 115.351,31.301 114.65,30.701 113.851,30.101 113.05,29.601 113.101,27.851 
		113.05,26.301 112.9,24.851 112.8,24.151 112.75,23.551 112.451,22.351 112.101,21.301 111.65,20.351 111.201,19.601 
		110.851,19.201 110.55,18.901 109.851,18.351 109.101,17.901 108.25,17.651 107.3,17.501 106.3,17.501 105.201,17.601 
		104.05,17.851 102.9,16.801 101.701,15.951 101.05,15.551 100.451,15.251 99.201,14.801 97.851,14.451 96.451,14.351 
		95.701,14.301 95,14.351 93.55,14.601 92.8,14.801 92.101,15.001 91.3,15.151 90.55,15.351 88.951,15.501 88.5,15.501 
		88.101,15.551 87.3,15.601 86.4,15.551 86.25,15.501 86.15,15.501 85.951,15.501 85.55,15.501 84.601,15.401 83.701,15.351 
		82.701,15.151 82.201,15.051 82.05,15.001 81.951,15.001 81.75,15.001 80.75,14.801 79.8,14.601 78.601,14.051 77.5,13.701 
		76.4,13.451 75.3,13.301 73.101,13.251 72.05,13.401 71.05,13.651 70,13.901 69,14.351 68,14.901 67.05,15.551 65.101,17.101 
		64.201,18.051 63.3,19.101 63,19.751 62.701,20.451 62.3,21.051 61.951,21.651 61.5,22.151 61.351,22.251 61.25,22.401 
		61.05,22.701 60.75,22.901 60.601,23.001 60.5,23.151 60.201,23.351 60.05,23.451 59.951,23.601 59.75,23.651 59.601,23.751 
		59.3,23.951 59.101,24.001 58.951,24.101 58.65,24.301 58.25,24.401 58.05,24.451 57.9,24.551 57.201,24.801 56.4,24.951 
		55.601,25.151 54.701,25.251 53.8,25.351 52.55,24.351 51.451,23.601 50.351,23.001 49.4,22.651 48.451,22.351 47.65,22.301 
		46.851,22.401 46.201,22.751 45.55,23.151 45.05,23.801 44.601,24.601 44.25,25.651 43.9,26.751 43.701,28.101 43.55,29.601 
		43.55,31.351 41.65,33.451 40,35.701 38.5,37.951 37.201,40.401 36,42.851 35,45.451 34.15,48.101 33.55,50.851 31.3,52.051 
		29.3,53.251 27.5,54.451 26,55.701 24.65,56.901 23.601,58.201 22.75,59.451 22.15,60.751 21.701,61.951 21.55,63.251 
		21.601,64.551 21.9,65.851 22.4,67.151 23.15,68.451 24.101,69.751 25.3,71.101 26.201,72.601 26.9,74.201 27.3,75.701 
		27.4,76.501 27.451,77.301 27.4,78.001 27.3,78.801 26.9,80.401 26.201,82.001 25.3,83.601 24.4,83.951 23.601,84.451 
		22.851,85.001 22.201,85.701 21.55,86.351 21.05,87.151 20.55,88.001 20.201,89.001 19.8,89.951 19.5,91.101 19.25,92.251 
		19.101,93.551 18.951,94.851 18.951,96.301 18.951,97.751 19.05,99.351 18.05,100.301 17.15,101.301 16.25,102.251 15.451,103.251 
		13.851,105.151 13.101,106.051 12.451,107.001 11.101,108.751 9.951,110.451 8.9,112.101 8.05,113.701 7.25,115.201 6.9,115.901 
		6.65,116.651 6.15,118.051 5.8,119.401 5.55,120.651 5.5,121.901 5.55,123.051 5.601,123.601 5.75,124.201 6.05,125.201 
		6.5,126.151 7.05,127.051 7.8,127.901 8.65,128.651 9.101,129.001 9.65,129.401 10.15,129.701 10.75,130.051 11.351,130.351 
		12.05,130.701 13.4,131.201 14.951,131.701 16.601,132.101 18.4,132.501 19.3,132.601 20.3,132.751 21.3,132.851 22.4,133.001 
		23.451,133.051 24.601,133.151 26.951,133.301 28.201,133.301 29.55,133.351 30.05,134.901 30.601,136.451 31.201,137.901 
		31.9,139.251 32.601,140.501 33.4,141.701 34.201,142.851 35.101,143.901 36,144.801 36.951,145.651 37.951,146.401 39.05,147.151 
		40.15,147.751 41.351,148.301 42.55,148.751 43.851,149.151 	"/>
	<polyline fill="none" stroke="#000000" stroke-linecap="square" stroke-miterlimit="10" points="132.5,63.601 132.701,64.201 
		132.85,64.801 132.951,65.401 132.951,65.701 132.951,65.851 133,66.051 132.951,66.151 132.951,66.301 132.951,66.601 
		132.85,67.201 132.65,67.801 132.4,68.401 132.051,68.901 131.65,69.451 130.65,70.551 129.35,71.551 128.6,72.051 127.801,72.601 
		128.9,72.801 129.85,73.101 130.65,73.451 131.301,73.901 131.701,74.351 131.951,74.851 132.051,75.401 131.951,76.051 
		131.65,76.651 131.15,77.351 130.5,78.101 129.701,78.901 128.65,79.701 127.451,80.601 126.051,81.551 124.551,82.601 	"/>
	<polyline fill="none" stroke="#000000" stroke-linecap="square" stroke-miterlimit="10" points="156.801,151.651 156.85,152.451 
		157,153.201 157.25,153.801 157.6,154.301 158.051,154.601 158.6,154.851 159.25,154.951 160.051,155.001 160.85,154.801 
		161.801,154.551 162.85,154.151 164,153.651 165.201,152.951 166.551,152.201 168,151.301 169.551,150.351 170.75,150.251 
		171.301,150.151 171.9,150.101 172.4,149.901 172.65,149.801 172.951,149.751 173.951,149.301 174.35,148.951 174.801,148.651 
		175.201,148.301 175.4,148.101 175.5,148.001 175.551,147.951 175.65,147.951 175.65,147.851 175.701,147.801 175.801,147.701 
		176,147.501 176.4,147.051 176.701,146.551 176.701,146.451 176.75,146.401 176.85,146.301 177.051,146.101 177.35,147.301 
		177.701,148.451 178.051,149.451 178.451,150.401 178.85,151.151 179.25,151.801 179.701,152.301 180.201,152.751 180.65,153.001 
		181.15,153.201 181.701,153.201 182.301,153.151 182.85,152.901 183.451,152.601 184.1,152.151 184.801,151.601 184.951,152.851 
		185.25,154.051 185.6,155.051 186.1,156.001 186.551,156.751 187.15,157.451 187.801,157.951 188.551,158.401 189.301,158.651 
		190.15,158.851 191.051,158.901 192.1,158.851 193.1,158.601 194.25,158.301 195.451,157.851 196.801,157.351 196.85,157.301 
		196.951,157.301 197.15,157.301 197.551,157.301 198.35,157.251 199.1,157.051 199.25,156.951 199.451,156.901 199.85,156.801 
		200.15,156.551 200.5,156.351 200.801,156.101 201.15,155.901 201.75,155.351 202.051,155.001 202.4,154.701 202.9,153.901 
		203.4,153.051 203.6,152.551 203.701,152.301 203.85,152.101 204.35,151.051 204.5,150.451 204.701,149.901 205.1,148.651 
		205.25,147.951 205.451,147.301 205.5,146.901 205.6,146.551 205.801,145.851 211.551,144.351 	"/>
	<polyline fill="none" stroke="#000000" stroke-linecap="square" stroke-miterlimit="10" points="122.051,220.851 123.25,221.101 
		124.451,221.301 124.701,221.301 125,221.351 125.6,221.451 126.75,221.551 127.801,221.551 128.85,221.551 129.85,221.451 
		130.85,221.351 131.25,221.201 131.701,221.101 132.6,220.851 133.4,220.501 134.25,220.101 134.951,219.601 135.701,219.101 
		136.35,218.501 137.051,217.9 137.301,217.501 137.6,217.15 138.15,216.351 138.65,215.501 139.15,214.601 139.551,213.601 
		140,212.601 140.35,211.501 140.5,210.9 140.701,210.351 140.801,209.701 140.951,209.101 141.201,207.801 141.25,207.101 
		141.35,206.451 141.551,205.051 141.65,203.551 141.75,202.051 141.75,200.451 141.801,198.851 142.301,198.951 142.4,198.951 
		142.551,199.001 142.85,199.101 143.35,199.201 143.451,199.201 143.6,199.251 143.9,199.351 144.9,199.4 145.9,199.451 
		146.301,199.351 146.5,199.301 146.75,199.301 147.15,199.201 147.35,199.15 147.6,199.15 148.4,198.851 149.201,198.501 
		149.5,198.201 149.551,198.101 149.65,198.051 149.85,197.951 150.15,197.65 150.201,197.551 150.301,197.501 150.5,197.4 
		151.1,196.701 151.35,196.301 151.65,195.951 151.85,195.451 151.951,195.201 152.1,195.001 152.301,194.501 152.4,194.251 
		152.551,194.051 152.951,193.001 153.1,192.4 153.301,191.851 156.301,192.251 159.25,192.65 162.1,192.951 164.85,193.251 
		166.15,193.301 167.451,193.4 168.051,193.4 168.701,193.451 170,193.551 172.4,193.65 173.551,193.65 174.75,193.701 
		175.25,193.65 175.801,193.65 176.9,193.65 179,193.551 179.951,193.451 180.951,193.4 182.85,193.201 184.6,192.9 185.4,192.701 
		185.801,192.601 186.25,192.551 187.801,192.15 189.301,191.751 189.9,191.451 190.201,191.301 190.551,191.201 191.801,190.601 
		192.051,190.4 192.35,190.251 192.9,189.951 193.4,189.601 193.951,189.301 194.801,188.501 195.6,187.701 195.9,187.251 
		196.25,186.851 196.9,185.951 197.1,185.4 197.301,184.9 197.35,184.601 197.451,184.351 197.65,183.851 197.9,182.751 
		197.951,182.15 198.051,181.601 198.051,180.951 198.051,180.351 198,179.051 197.9,178.351 197.801,177.701 197.65,177.001 
		197.551,176.351 198.75,176.251 199.951,176.201 201.051,176.101 202.201,176.001 203.201,175.801 203.701,175.701 203.951,175.65 
		204.25,175.65 205.201,175.451 206.201,175.251 206.6,175.051 206.801,174.951 207.051,174.9 207.9,174.601 208.701,174.251 
		209.5,173.9 210.201,173.451 210.9,173.051 211.5,172.551 211.801,172.301 212.15,172.101 212.65,171.501 212.9,171.201 
		213.201,170.951 213.4,170.601 213.65,170.301 214.1,169.701 214.451,169.001 214.801,168.301 215.1,167.551 215.4,166.851 
		215.6,166.001 215.801,165.201 215.9,164.301 215.9,164.051 215.951,163.851 216.051,163.451 216.051,162.501 216.051,162.001 
		216.051,161.751 216.1,161.551 216.051,160.551 216,160.051 216,159.601 215.951,159.4 215.85,158.951 215.801,158.551 
		215.701,157.751 215.4,156.051 214.951,154.251 214.5,152.451 214.15,151.451 213.85,150.501 213.201,148.501 212.4,146.451 
		211.551,144.351 	"/>
	<polyline fill="none" stroke="#000000" stroke-linecap="square" stroke-miterlimit="10" points="150.551,148.451 151.5,148.501 
		152.65,148.501 153.9,148.351 154.551,148.251 155.301,148.151 156.25,147.851 157.301,147.601 157,148.751 156.85,149.801 
		156.75,150.751 156.801,151.651 	"/>
	<polyline fill="none" stroke="#000000" stroke-linecap="square" stroke-miterlimit="10" points="139.801,129.851 139.051,131.101 
		138.75,131.701 138.551,132.301 138.301,132.801 138.15,133.351 138,133.851 137.951,134.401 137.85,134.801 137.85,135.251 
		137.85,135.601 137.951,136.001 138.201,136.651 138.65,137.301 138.85,137.501 139.15,137.751 139.9,138.101 140.75,138.351 
		141.801,138.501 142.951,138.551 143.6,138.501 144.35,138.501 145.051,138.401 145.85,138.351 146.65,138.201 147.551,138.101 
		147.201,139.201 146.951,140.301 146.75,141.301 146.65,142.251 146.551,143.101 146.6,143.901 146.701,144.651 146.9,145.351 
		147.051,145.951 147.35,146.501 147.701,146.951 148.15,147.401 148.6,147.751 149.201,148.051 149.801,148.251 150.551,148.451 	
		"/>
	<polyline fill="none" stroke="#000000" stroke-linecap="square" stroke-miterlimit="10" points="156.801,151.651 154.4,155.801 
		153.75,156.801 153.15,157.851 151.951,159.951 149.451,164.001 148.15,165.951 146.9,167.951 145.551,169.851 144.25,171.801 
		141.551,175.601 138.75,179.301 137.301,181.101 135.9,182.951 134.201,184.9 133.951,185.101 133.75,185.351 133.35,185.851 
		132.551,186.851 129.15,190.701 127.35,192.551 125.6,194.451 123.801,196.251 122.9,197.15 122.65,197.351 122.451,197.601 
		122.051,198.101 122.051,220.851 	"/>
	<polyline fill="none" stroke="#000000" stroke-linecap="square" stroke-miterlimit="10" points="150.551,148.451 148.801,150.851 
		147.051,153.251 145.25,155.601 144.35,156.751 143.5,157.951 142.551,159.051 141.65,160.201 140.701,161.301 139.801,162.451 
		137.9,164.65 136.051,166.851 134.051,168.9 132.1,171.001 130.1,173.001 128.1,175.051 126,176.951 125.701,177.15 125.451,177.4 
		124.951,177.9 123.951,178.9 121.85,180.751 120.801,181.65 119.801,182.601 118.4,180.951 117.1,179.201 115.8,177.301 
		114.65,175.301 113.451,173.101 112.4,170.851 111.351,168.4 110.451,165.9 109.5,163.15 108.701,160.351 107.9,157.351 
		107.201,154.301 106.5,151.001 105.9,147.651 105.351,144.151 104.9,140.551 104.5,136.701 	"/>
	<polyline fill="none" stroke="#000000" stroke-linecap="square" stroke-miterlimit="10" points="101.05,217.851 101.75,226.251 
		101.851,228.301 102,230.4 102.25,234.601 102.55,242.9 102.65,247.001 102.701,251.201 102.65,253.201 102.65,255.251 
		102.55,259.351 102.451,261.351 102.4,262.351 102.4,263.4 102.25,267.501 102,271.501 101.851,273.501 101.75,275.551 
		101.4,279.551 101.201,281.551 101.101,282.551 101.05,283.051 101.05,283.601 99.201,284.851 97.451,286.251 95.75,287.801 
		94.201,289.551 92.65,291.351 91.3,293.351 89.951,295.501 88.8,297.851 89.75,298.701 90.3,299.051 90.951,299.451 92.3,300.001 
		93.05,300.251 93.9,300.501 95.55,300.751 96.451,300.851 97.451,300.951 99.5,300.951 100.601,300.9 101.8,300.851 
		102.05,301.801 102.451,302.65 102.851,303.4 103.4,304.101 103.9,304.65 104.55,305.101 105.25,305.451 106.05,305.801 
		106.851,305.951 107.75,306.001 108.701,305.951 109.75,305.801 110.8,305.551 112,305.201 113.201,304.751 114.55,304.251 
		115.65,303.65 116.85,303.001 118.051,302.251 119.35,301.501 120.65,300.601 122.051,299.65 123.5,298.65 125.051,297.601 
		126.701,298.101 128.301,298.551 129,298.701 129.75,298.9 131.201,299.201 132.451,299.4 133.701,299.601 134.801,299.701 
		135.301,299.701 135.551,299.701 135.85,299.751 136.75,299.65 137.6,299.551 138.35,299.351 139.051,299.101 139.301,298.9 
		139.6,298.751 140.1,298.351 140.15,298.201 140.25,298.101 140.451,297.9 140.801,297.4 140.801,297.201 140.85,297.051 
		140.951,296.751 141.051,296.051 141.051,295.301 141,294.501 140.801,293.601 140.65,293.101 140.551,292.65 140.35,292.101 
		140.201,291.601 139.75,290.501 139.201,289.301 139,288.951 138.85,288.65 138.551,288.051 138.15,287.351 137.951,287.001 
		137.801,286.701 137,285.351 136.051,283.851 135.051,282.351 133.951,280.751 133.35,279.9 132.801,279.101 131.75,278.051 
		130.801,277.051 129.85,275.951 129,274.9 128.15,273.751 127.4,272.601 126.701,271.4 126.1,270.251 125.451,268.951 
		124.9,267.701 124.4,266.4 124,265.15 123.6,263.751 123.301,262.4 123,261.001 122.801,259.601 122.051,220.851 	"/>
	<polyline fill="none" stroke="#000000" stroke-linecap="square" stroke-miterlimit="10" points="109.55,118.851 110.101,119.751 
		110.201,119.951 110.25,120.051 110.351,120.201 110.65,120.701 110.851,121.101 110.951,121.301 111,121.401 111.101,121.551 
		111.55,122.451 112,123.451 112.4,124.501 112.451,124.701 112.55,124.951 112.75,125.451 113.05,126.451 113.25,127.301 
		113.4,128.201 113.451,129.001 113.451,129.401 113.451,129.601 113.451,129.701 113.451,129.751 113.5,129.851 113.351,130.951 
		113,131.951 112.75,132.351 112.601,132.551 112.5,132.801 112.15,133.201 111.851,133.651 111.75,133.651 111.701,133.701 
		111.601,133.801 111.4,134.001 111,134.401 110.5,134.701 110.4,134.701 110.351,134.751 110.25,134.851 110.05,135.051 
		109.451,135.301 108.9,135.601 108.25,135.801 107.9,135.901 107.601,136.051 107.201,136.101 106.851,136.201 106.101,136.401 
		104.5,136.701 	"/>
	<polyline fill="none" stroke="#000000" stroke-linecap="square" stroke-miterlimit="10" points="104.5,136.701 104,136.701 
		103.75,136.701 103.55,136.751 102.65,136.851 100.701,136.951 99.601,136.901 98.55,136.901 97.951,136.851 97.4,136.851 
		96.3,136.851 96.55,137.651 96.851,138.451 96.951,138.801 97.101,139.201 97.351,140.001 97.5,140.701 97.701,141.401 
		97.75,141.701 97.851,142.051 98,142.751 98,143.001 98.05,143.301 98.15,143.901 98.15,144.451 98.201,145.051 98.15,145.551 
		98.15,146.051 98.101,146.251 98.101,146.501 98.05,147.001 97.951,147.151 97.9,147.351 97.75,147.751 97.55,148.101 
		97.451,148.251 97.4,148.451 97.25,148.551 97.15,148.701 96.9,149.001 96.601,149.251 96.451,149.351 96.351,149.501 
		95.951,149.651 95.601,149.851 95.201,149.951 95,150.001 94.851,150.101 94.351,150.151 93.9,150.251 93.4,150.251 93.15,150.251 
		92.951,150.301 92.25,150.301 	"/>
	<polyline fill="none" stroke="#000000" stroke-linecap="square" stroke-miterlimit="10" points="92.25,150.301 91.851,150.201 
		91.65,150.151 91.5,150.151 90.75,150.051 89.951,149.851 89.15,149.701 88.25,149.451 88,149.351 87.8,149.301 87.4,149.201 
		86.451,148.901 85.55,148.601 85.25,149.101 84.951,149.551 84.351,150.251 83.75,150.651 83.451,150.751 83.15,150.801 
		82.851,150.751 82.55,150.651 81.951,150.251 81.351,149.551 81.05,149.101 80.8,148.601 80.75,149.301 80.701,149.601 
		80.701,149.951 80.601,150.501 80.5,151.001 80.3,151.401 80.15,151.801 79.9,152.101 79.75,152.201 79.65,152.351 79.3,152.451 
		78.951,152.551 78.55,152.551 78.15,152.501 77.65,152.351 77.15,152.151 76.851,152.001 76.601,151.901 76.05,151.601 
		74.55,152.651 73.101,153.601 71.65,154.351 70.25,154.951 68.851,155.351 67.5,155.651 66.201,155.751 64.9,155.701 
		63.601,155.451 62.351,155.051 61.101,154.451 59.9,153.751 58.701,152.801 57.55,151.751 56.4,150.501 55.3,149.101 
		53.65,149.351 52.101,149.551 50.601,149.701 49.201,149.751 47.75,149.701 46.4,149.601 45.101,149.401 43.851,149.151 	"/>
	<polyline fill="none" stroke="#000000" stroke-linecap="square" stroke-miterlimit="10" points="43.851,149.151 42.4,149.951 
		41.201,150.851 40.25,151.751 39.55,152.701 39,153.651 38.701,154.651 38.65,155.651 38.851,156.751 39.201,157.801 39.8,158.951 
		40.65,160.101 41.75,161.301 43.05,162.501 44.55,163.751 46.3,165.001 48.3,166.351 47.101,166.951 46.101,167.65 45.201,168.351 
		44.451,169.051 43.8,169.751 43.3,170.451 42.951,171.15 42.75,171.851 42.601,172.451 42.65,173.15 42.8,173.851 43.101,174.551 
		43.5,175.251 44.05,175.951 44.701,176.65 45.55,177.351 45,178.701 44.55,180.101 43.8,182.701 43.451,183.9 43.201,185.101 
		42.951,186.251 42.8,187.4 42.601,188.451 42.5,189.501 42.451,190.451 42.5,191.451 42.5,192.301 42.601,193.201 42.951,194.851 
		43.4,196.251 43.701,196.851 44.101,197.501 44.451,198.051 44.9,198.601 45.4,199.051 46,199.551 46.55,199.9 47.201,200.301 
		48.65,200.9 49.4,201.101 50.25,201.301 51.101,201.451 52.05,201.601 52.9,201.851 53.701,202.201 54.3,202.65 54.851,203.201 
		55.201,203.801 55.55,204.551 55.701,205.4 55.8,206.351 55.5,206.751 55.351,207.201 55.201,207.551 55.25,207.951 55.3,208.251 
		55.451,208.551 55.65,208.801 56,209.101 56.351,209.251 56.8,209.451 57.3,209.601 57.951,209.801 58.601,209.851 59.4,209.951 
		60.201,210.001 61.15,210.051 62.101,210.001 63.201,209.951 64.3,209.851 65.55,209.801 66.8,209.601 68.201,209.451 
		69.65,209.251 71.25,209.101 72.8,208.801 74.5,208.551 76.25,208.251 78.15,207.951 80,207.551 82.05,207.201 84.101,206.751 
		86.3,206.351 85.951,207.501 85.8,208.65 85.65,209.701 85.701,210.65 85.75,211.501 86,212.251 86.25,212.9 86.701,213.551 
		87.15,214.001 87.701,214.451 88.351,214.751 89.201,215.001 90.05,215.15 91,215.201 92.05,215.15 93.3,215.101 94.3,214.701 
		94.8,214.601 95.351,214.601 96.351,214.601 97.351,214.9 98.25,215.301 99.201,215.951 100.101,216.751 100.55,217.251 
		101.05,217.851 	"/>
	<polyline fill="none" stroke="#000000" stroke-linecap="square" stroke-miterlimit="10" points="92.25,150.301 92.5,152.201 
		92.851,154.151 93.601,158.001 94.451,161.751 94.9,163.551 95.451,165.4 96.5,168.951 97.75,172.4 99.101,175.751 100.55,179.101 
		101.05,217.851 	"/>
</g>
</svg>
