<?xml-stylesheet href="linetype.css" type="text/css"?>
<svg xmlns="http://www.w3.org/2000/svg" xmlns:xlink="http://www.w3.org/1999/xlink" xml:space="preserve" viewBox="512.8 -316.9 667 635.1">
<defs>
<g id="PROJ92">
<g id="PROJ92surf_back"/>
<g id="PROJ92surf_normal">
<path id="PRIM117428752" fill="#CC9966" fill-rule="evenodd" stroke="#CC9966" stroke-width="0.05%" d="M 581.3,-263.5 L 582.8,-265.4 L 586.2,-269.8 L 587.9,-271.9 L 589.6,-273.9 L 591.4,-275.8 L 593.3,-277.6 L 595.2,-279.3 L 597.3,-280.9 L 599.4,-282.5 L 601.6,-284 L 603.8,-285.4 L 606.1,-286.7 L 611,-289.3 L 615.9,-291.6 L 620.9,-293.7 L 623.4,-294.6 L 626,-295.5 L 628.5,-296.3 L 631.1,-297 L 633.7,-297.6 L 634.2,-297.7 L 636.5,-298.1 L 639,-298.5 L 641.6,-298.7 L 644.3,-298.8 L 687.5,-298.9 L 730.8,-298.8 L 733.1,-298.7 L 735.6,-298.5 L 738.2,-298.2 L 740.9,-297.7 L 741.3,-297.6 L 743.9,-297 L 746.5,-296.3 L 749.1,-295.5 L 751.6,-294.6 L 754.1,-293.7 L 759.2,-291.6 L 764.1,-289.3 L 768.9,-286.7 L 771.2,-285.4 L 773.5,-284 L 775.7,-282.5 L 777.8,-280.9 L 779.8,-279.3 L 781.8,-277.6 L 783.6,-275.8 L 785.4,-273.9 L 787.2,-271.9 L 788.9,-269.8 L 792.3,-265.4 L 793.7,-263.5 L 794.6,-262.2 L 795.5,-260.8 L 796.3,-259.3 L 797.1,-257.6 L 797.8,-255.9 L 798.4,-254 L 798.9,-251.9 L 799.3,-249.8 L 799.5,-248.6 L 801.6,-235.6 L 808.5,-200.1 L 810.9,-186.3 L 812.4,-175.5 L 813.4,-165.7 L 814,-156.8 L 814.4,-142.8 L 815.2,-112.7 L 815.3,-99.6 L 815.1,-89.6 L 814.5,-80.7 L 813.6,-72.8 L 812.2,-63.9 L 810.5,-55.2 L 808.2,-45.6 L 805.2,-34.2 L 801,-20.1 L 795.5,-3.3 L 687.5,-3.3 L 579.5,-3.3 L 574.1,-20.1 L 569.9,-34.2 L 566.8,-45.6 L 564.6,-55.2 L 562.8,-63.9 L 561.5,-72.8 L 560.6,-80.7 L 560,-89.6 L 559.7,-99.6 L 559.9,-112.7 L 560.6,-142.8 L 561,-156.8 L 561.6,-165.7 L 562.7,-175.5 L 564.2,-186.3 L 566.5,-200.1 L 573.4,-235.6 L 575.6,-248.6 L 575.7,-249.8 L 576,-251.3 L 576.4,-252.9 L 576.8,-254.6 L 577.4,-256.3 L 578.1,-258.1 L 579,-259.8 L 580.1,-261.7 L 581.3,-263.5 z"/>
<ellipse id="PRIM119401584" stroke-width="0.05%" class="CONTINUOUS" stroke="#F0F000" fill="#F0F000" cx="687.5" cy="-73.9" rx="3" ry="3"/>
<ellipse id="PRIM119647488" stroke-width="0.05%" class="CONTINUOUS" stroke="#F0F000" fill="#F0F000" cx="659.5" cy="-51.8" rx="3" ry="3"/>
<ellipse id="PRIM124677728" stroke-width="0.05%" class="CONTINUOUS" stroke="#F0F000" fill="#F0F000" cx="715.5" cy="-51.8" rx="3" ry="3"/>
</g>
<g id="PROJ92surf_front"/>
<g id="PROJ92linear">
<path id="PRIM124693336" stroke-width="0.05%" class="CONTINUOUS" stroke="#444444" fill="none" d="M 581.3,-263.5 L 582.8,-265.4 L 586.2,-269.8 L 587.9,-271.9 L 589.6,-273.9 L 591.4,-275.8 L 593.3,-277.6 L 595.2,-279.3 L 597.3,-280.9 L 599.4,-282.5 L 601.6,-284 L 603.8,-285.4 L 606.1,-286.7 L 611,-289.3 L 615.9,-291.6 L 620.9,-293.7 L 623.4,-294.6 L 626,-295.5 L 628.5,-296.3 L 631.1,-297 L 633.7,-297.6 L 634.2,-297.7 L 636.5,-298.1 L 639,-298.5 L 641.6,-298.7 L 644.3,-298.8 L 687.5,-298.9 L 730.8,-298.8 L 733.1,-298.7 L 735.6,-298.5 L 738.2,-298.2 L 740.9,-297.7 L 741.3,-297.6 L 743.9,-297 L 746.5,-296.3 L 749.1,-295.5 L 751.6,-294.6 L 754.1,-293.7 L 759.2,-291.6 L 764.1,-289.3 L 768.9,-286.7 L 771.2,-285.4 L 773.5,-284 L 775.7,-282.5 L 777.8,-280.9 L 779.8,-279.3 L 781.8,-277.6 L 783.6,-275.8 L 785.4,-273.9 L 787.2,-271.9 L 788.9,-269.8 L 792.3,-265.4 L 793.7,-263.5 L 794.6,-262.2 L 795.5,-260.8 L 796.3,-259.3 L 797.1,-257.6 L 797.8,-255.9 L 798.4,-254 L 798.9,-251.9 L 799.3,-249.8 L 799.5,-248.6 L 801.6,-235.6 L 808.5,-200.1 L 810.9,-186.3 L 812.4,-175.5 L 813.4,-165.7 L 814,-156.8 L 814.4,-142.8 L 815.2,-112.7 L 815.3,-99.6 L 815.1,-89.6 L 814.5,-80.7 L 813.6,-72.8 L 812.2,-63.9 L 810.5,-55.2 L 808.2,-45.6 L 805.2,-34.2 L 801,-20.1 L 795.5,-3.3 L 687.5,-3.3 L 579.5,-3.3 L 574.1,-20.1 L 569.9,-34.2 L 566.8,-45.6 L 564.6,-55.2 L 562.8,-63.9 L 561.5,-72.8 L 560.6,-80.7 L 560,-89.6 L 559.7,-99.6 L 559.9,-112.7 L 560.6,-142.8 L 561,-156.8 L 561.6,-165.7 L 562.7,-175.5 L 564.2,-186.3 L 566.5,-200.1 L 573.4,-235.6 L 575.6,-248.6 L 575.7,-249.8 L 576,-251.3 L 576.4,-252.9 L 576.8,-254.6 L 577.4,-256.3 L 578.1,-258.1 L 579,-259.8 L 580.1,-261.7 L 581.3,-263.5 "/>
</g>
</g>
</defs>
<g id="surf_back">
</g>
<g id="surf_normal">
<use xlink:href="#PROJ92surf_back" transform="matrix(1 0 0 1 0 321.6)" class="CONTINUOUS" stroke="#444444" />
<use xlink:href="#PROJ92surf_normal" transform="matrix(1 0 0 1 0 321.6)" class="CONTINUOUS" stroke="#444444" />
<use xlink:href="#PROJ92surf_front" transform="matrix(1 0 0 1 0 321.6)" class="CONTINUOUS" stroke="#444444" />
</g>
<g id="surf_front"/>
<g id="linear">
<use xlink:href="#PROJ92linear" transform="matrix(1 0 0 1 0 321.6)" class="CONTINUOUS" stroke="#444444" />
</g>
</svg>